<?xml version="1.0" encoding="utf-8" standalone="no"?>
<!DOCTYPE svg PUBLIC "-//W3C//DTD SVG 1.1//EN"
  "http://www.w3.org/Graphics/SVG/1.1/DTD/svg11.dtd">
<!-- Created with matplotlib (http://matplotlib.org/) -->
<svg height="576pt" version="1.1" viewBox="0 0 432 576" width="432pt" xmlns="http://www.w3.org/2000/svg" xmlns:xlink="http://www.w3.org/1999/xlink">
 <defs>
  <style type="text/css">
*{stroke-linecap:butt;stroke-linejoin:round;}
  </style>
 </defs>
 <g id="figure_1">
  <g id="patch_1">
   <path d="M 0 576 
L 432 576 
L 432 0 
L 0 0 
z
" style="fill:#ffffff;"/>
  </g>
  <g id="axes_1">
   <g id="patch_2">
    <path d="M 40.05 132.55 
L 417.7 132.55 
L 417.7 26.8 
L 40.05 26.8 
z
" style="fill:#ffffff;"/>
   </g>
   <g id="patch_3">
    <path clip-path="url(#p2bf6d7fc8f)" d="M 57.215909 132.55 
L 88.426653 132.55 
L 88.426653 56.41 
L 57.215909 56.41 
z
" style="fill:#12355b;"/>
   </g>
   <g id="patch_4">
    <path clip-path="url(#p2bf6d7fc8f)" d="M 369.323347 132.55 
L 400.534091 132.55 
L 400.534091 102.94 
L 369.323347 102.94 
z
" style="fill:#12355b;"/>
   </g>
   <g id="matplotlib.axis_1">
    <g id="xtick_1">
     <g id="line2d_1">
      <defs>
       <path d="M 0 0 
L 0 3.5 
" id="m5fc64edb36" style="stroke:#000000;stroke-width:0.8;"/>
      </defs>
      <g>
       <use style="stroke:#000000;stroke-width:0.8;" x="72.821281" xlink:href="#m5fc64edb36" y="132.55"/>
      </g>
     </g>
    </g>
    <g id="xtick_2">
     <g id="line2d_2">
      <g>
       <use style="stroke:#000000;stroke-width:0.8;" x="135.242769" xlink:href="#m5fc64edb36" y="132.55"/>
      </g>
     </g>
    </g>
    <g id="xtick_3">
     <g id="line2d_3">
      <g>
       <use style="stroke:#000000;stroke-width:0.8;" x="197.664256" xlink:href="#m5fc64edb36" y="132.55"/>
      </g>
     </g>
    </g>
    <g id="xtick_4">
     <g id="line2d_4">
      <g>
       <use style="stroke:#000000;stroke-width:0.8;" x="260.085744" xlink:href="#m5fc64edb36" y="132.55"/>
      </g>
     </g>
    </g>
    <g id="xtick_5">
     <g id="line2d_5">
      <g>
       <use style="stroke:#000000;stroke-width:0.8;" x="322.507231" xlink:href="#m5fc64edb36" y="132.55"/>
      </g>
     </g>
    </g>
    <g id="xtick_6">
     <g id="line2d_6">
      <g>
       <use style="stroke:#000000;stroke-width:0.8;" x="384.928719" xlink:href="#m5fc64edb36" y="132.55"/>
      </g>
     </g>
    </g>
   </g>
   <g id="matplotlib.axis_2">
    <g id="ytick_1">
     <g id="line2d_7">
      <defs>
       <path d="M 0 0 
L -3.5 0 
" id="md78dd32867" style="stroke:#000000;stroke-width:0.8;"/>
      </defs>
      <g>
       <use style="stroke:#000000;stroke-width:0.8;" x="40.05" xlink:href="#md78dd32867" y="132.55"/>
      </g>
     </g>
     <g id="text_1">
      <!-- 0.0 -->
      <defs>
       <path d="M 31.78125 66.40625 
Q 24.171875 66.40625 20.328125 58.90625 
Q 16.5 51.421875 16.5 36.375 
Q 16.5 21.390625 20.328125 13.890625 
Q 24.171875 6.390625 31.78125 6.390625 
Q 39.453125 6.390625 43.28125 13.890625 
Q 47.125 21.390625 47.125 36.375 
Q 47.125 51.421875 43.28125 58.90625 
Q 39.453125 66.40625 31.78125 66.40625 
z
M 31.78125 74.21875 
Q 44.046875 74.21875 50.515625 64.515625 
Q 56.984375 54.828125 56.984375 36.375 
Q 56.984375 17.96875 50.515625 8.265625 
Q 44.046875 -1.421875 31.78125 -1.421875 
Q 19.53125 -1.421875 13.0625 8.265625 
Q 6.59375 17.96875 6.59375 36.375 
Q 6.59375 54.828125 13.0625 64.515625 
Q 19.53125 74.21875 31.78125 74.21875 
z
" id="DejaVuSans-30"/>
       <path d="M 10.6875 12.40625 
L 21 12.40625 
L 21 0 
L 10.6875 0 
z
" id="DejaVuSans-2e"/>
      </defs>
      <g transform="translate(17.146875 136.349219)scale(0.1 -0.1)">
       <use xlink:href="#DejaVuSans-30"/>
       <use x="63.623047" xlink:href="#DejaVuSans-2e"/>
       <use x="95.410156" xlink:href="#DejaVuSans-30"/>
      </g>
     </g>
    </g>
    <g id="ytick_2">
     <g id="line2d_8">
      <g>
       <use style="stroke:#000000;stroke-width:0.8;" x="40.05" xlink:href="#md78dd32867" y="111.4"/>
      </g>
     </g>
     <g id="text_2">
      <!-- 0.2 -->
      <defs>
       <path d="M 19.1875 8.296875 
L 53.609375 8.296875 
L 53.609375 0 
L 7.328125 0 
L 7.328125 8.296875 
Q 12.9375 14.109375 22.625 23.890625 
Q 32.328125 33.6875 34.8125 36.53125 
Q 39.546875 41.84375 41.421875 45.53125 
Q 43.3125 49.21875 43.3125 52.78125 
Q 43.3125 58.59375 39.234375 62.25 
Q 35.15625 65.921875 28.609375 65.921875 
Q 23.96875 65.921875 18.8125 64.3125 
Q 13.671875 62.703125 7.8125 59.421875 
L 7.8125 69.390625 
Q 13.765625 71.78125 18.9375 73 
Q 24.125 74.21875 28.421875 74.21875 
Q 39.75 74.21875 46.484375 68.546875 
Q 53.21875 62.890625 53.21875 53.421875 
Q 53.21875 48.921875 51.53125 44.890625 
Q 49.859375 40.875 45.40625 35.40625 
Q 44.1875 33.984375 37.640625 27.21875 
Q 31.109375 20.453125 19.1875 8.296875 
z
" id="DejaVuSans-32"/>
      </defs>
      <g transform="translate(17.146875 115.199219)scale(0.1 -0.1)">
       <use xlink:href="#DejaVuSans-30"/>
       <use x="63.623047" xlink:href="#DejaVuSans-2e"/>
       <use x="95.410156" xlink:href="#DejaVuSans-32"/>
      </g>
     </g>
    </g>
    <g id="ytick_3">
     <g id="line2d_9">
      <g>
       <use style="stroke:#000000;stroke-width:0.8;" x="40.05" xlink:href="#md78dd32867" y="90.25"/>
      </g>
     </g>
     <g id="text_3">
      <!-- 0.4 -->
      <defs>
       <path d="M 37.796875 64.3125 
L 12.890625 25.390625 
L 37.796875 25.390625 
z
M 35.203125 72.90625 
L 47.609375 72.90625 
L 47.609375 25.390625 
L 58.015625 25.390625 
L 58.015625 17.1875 
L 47.609375 17.1875 
L 47.609375 0 
L 37.796875 0 
L 37.796875 17.1875 
L 4.890625 17.1875 
L 4.890625 26.703125 
z
" id="DejaVuSans-34"/>
      </defs>
      <g transform="translate(17.146875 94.049219)scale(0.1 -0.1)">
       <use xlink:href="#DejaVuSans-30"/>
       <use x="63.623047" xlink:href="#DejaVuSans-2e"/>
       <use x="95.410156" xlink:href="#DejaVuSans-34"/>
      </g>
     </g>
    </g>
    <g id="ytick_4">
     <g id="line2d_10">
      <g>
       <use style="stroke:#000000;stroke-width:0.8;" x="40.05" xlink:href="#md78dd32867" y="69.1"/>
      </g>
     </g>
     <g id="text_4">
      <!-- 0.6 -->
      <defs>
       <path d="M 33.015625 40.375 
Q 26.375 40.375 22.484375 35.828125 
Q 18.609375 31.296875 18.609375 23.390625 
Q 18.609375 15.53125 22.484375 10.953125 
Q 26.375 6.390625 33.015625 6.390625 
Q 39.65625 6.390625 43.53125 10.953125 
Q 47.40625 15.53125 47.40625 23.390625 
Q 47.40625 31.296875 43.53125 35.828125 
Q 39.65625 40.375 33.015625 40.375 
z
M 52.59375 71.296875 
L 52.59375 62.3125 
Q 48.875 64.0625 45.09375 64.984375 
Q 41.3125 65.921875 37.59375 65.921875 
Q 27.828125 65.921875 22.671875 59.328125 
Q 17.53125 52.734375 16.796875 39.40625 
Q 19.671875 43.65625 24.015625 45.921875 
Q 28.375 48.1875 33.59375 48.1875 
Q 44.578125 48.1875 50.953125 41.515625 
Q 57.328125 34.859375 57.328125 23.390625 
Q 57.328125 12.15625 50.6875 5.359375 
Q 44.046875 -1.421875 33.015625 -1.421875 
Q 20.359375 -1.421875 13.671875 8.265625 
Q 6.984375 17.96875 6.984375 36.375 
Q 6.984375 53.65625 15.1875 63.9375 
Q 23.390625 74.21875 37.203125 74.21875 
Q 40.921875 74.21875 44.703125 73.484375 
Q 48.484375 72.75 52.59375 71.296875 
z
" id="DejaVuSans-36"/>
      </defs>
      <g transform="translate(17.146875 72.899219)scale(0.1 -0.1)">
       <use xlink:href="#DejaVuSans-30"/>
       <use x="63.623047" xlink:href="#DejaVuSans-2e"/>
       <use x="95.410156" xlink:href="#DejaVuSans-36"/>
      </g>
     </g>
    </g>
    <g id="ytick_5">
     <g id="line2d_11">
      <g>
       <use style="stroke:#000000;stroke-width:0.8;" x="40.05" xlink:href="#md78dd32867" y="47.95"/>
      </g>
     </g>
     <g id="text_5">
      <!-- 0.8 -->
      <defs>
       <path d="M 31.78125 34.625 
Q 24.75 34.625 20.71875 30.859375 
Q 16.703125 27.09375 16.703125 20.515625 
Q 16.703125 13.921875 20.71875 10.15625 
Q 24.75 6.390625 31.78125 6.390625 
Q 38.8125 6.390625 42.859375 10.171875 
Q 46.921875 13.96875 46.921875 20.515625 
Q 46.921875 27.09375 42.890625 30.859375 
Q 38.875 34.625 31.78125 34.625 
z
M 21.921875 38.8125 
Q 15.578125 40.375 12.03125 44.71875 
Q 8.5 49.078125 8.5 55.328125 
Q 8.5 64.0625 14.71875 69.140625 
Q 20.953125 74.21875 31.78125 74.21875 
Q 42.671875 74.21875 48.875 69.140625 
Q 55.078125 64.0625 55.078125 55.328125 
Q 55.078125 49.078125 51.53125 44.71875 
Q 48 40.375 41.703125 38.8125 
Q 48.828125 37.15625 52.796875 32.3125 
Q 56.78125 27.484375 56.78125 20.515625 
Q 56.78125 9.90625 50.3125 4.234375 
Q 43.84375 -1.421875 31.78125 -1.421875 
Q 19.734375 -1.421875 13.25 4.234375 
Q 6.78125 9.90625 6.78125 20.515625 
Q 6.78125 27.484375 10.78125 32.3125 
Q 14.796875 37.15625 21.921875 38.8125 
z
M 18.3125 54.390625 
Q 18.3125 48.734375 21.84375 45.5625 
Q 25.390625 42.390625 31.78125 42.390625 
Q 38.140625 42.390625 41.71875 45.5625 
Q 45.3125 48.734375 45.3125 54.390625 
Q 45.3125 60.0625 41.71875 63.234375 
Q 38.140625 66.40625 31.78125 66.40625 
Q 25.390625 66.40625 21.84375 63.234375 
Q 18.3125 60.0625 18.3125 54.390625 
z
" id="DejaVuSans-38"/>
      </defs>
      <g transform="translate(17.146875 51.749219)scale(0.1 -0.1)">
       <use xlink:href="#DejaVuSans-30"/>
       <use x="63.623047" xlink:href="#DejaVuSans-2e"/>
       <use x="95.410156" xlink:href="#DejaVuSans-38"/>
      </g>
     </g>
    </g>
    <g id="ytick_6">
     <g id="line2d_12">
      <g>
       <use style="stroke:#000000;stroke-width:0.8;" x="40.05" xlink:href="#md78dd32867" y="26.8"/>
      </g>
     </g>
     <g id="text_6">
      <!-- 1.0 -->
      <defs>
       <path d="M 12.40625 8.296875 
L 28.515625 8.296875 
L 28.515625 63.921875 
L 10.984375 60.40625 
L 10.984375 69.390625 
L 28.421875 72.90625 
L 38.28125 72.90625 
L 38.28125 8.296875 
L 54.390625 8.296875 
L 54.390625 0 
L 12.40625 0 
z
" id="DejaVuSans-31"/>
      </defs>
      <g transform="translate(17.146875 30.599219)scale(0.1 -0.1)">
       <use xlink:href="#DejaVuSans-31"/>
       <use x="63.623047" xlink:href="#DejaVuSans-2e"/>
       <use x="95.410156" xlink:href="#DejaVuSans-30"/>
      </g>
     </g>
    </g>
   </g>
   <g id="patch_5">
    <path d="M 40.05 132.55 
L 40.05 26.8 
" style="fill:none;stroke:#000000;stroke-linecap:square;stroke-linejoin:miter;stroke-width:0.8;"/>
   </g>
   <g id="patch_6">
    <path d="M 417.7 132.55 
L 417.7 26.8 
" style="fill:none;stroke:#000000;stroke-linecap:square;stroke-linejoin:miter;stroke-width:0.8;"/>
   </g>
   <g id="patch_7">
    <path d="M 40.05 132.55 
L 417.7 132.55 
" style="fill:none;stroke:#000000;stroke-linecap:square;stroke-linejoin:miter;stroke-width:0.8;"/>
   </g>
   <g id="patch_8">
    <path d="M 40.05 26.8 
L 417.7 26.8 
" style="fill:none;stroke:#000000;stroke-linecap:square;stroke-linejoin:miter;stroke-width:0.8;"/>
   </g>
   <g id="text_7">
    <!-- Bernoulli (p = 0.28) -->
    <defs>
     <path d="M 19.671875 34.8125 
L 19.671875 8.109375 
L 35.5 8.109375 
Q 43.453125 8.109375 47.28125 11.40625 
Q 51.125 14.703125 51.125 21.484375 
Q 51.125 28.328125 47.28125 31.5625 
Q 43.453125 34.8125 35.5 34.8125 
z
M 19.671875 64.796875 
L 19.671875 42.828125 
L 34.28125 42.828125 
Q 41.5 42.828125 45.03125 45.53125 
Q 48.578125 48.25 48.578125 53.8125 
Q 48.578125 59.328125 45.03125 62.0625 
Q 41.5 64.796875 34.28125 64.796875 
z
M 9.8125 72.90625 
L 35.015625 72.90625 
Q 46.296875 72.90625 52.390625 68.21875 
Q 58.5 63.53125 58.5 54.890625 
Q 58.5 48.1875 55.375 44.234375 
Q 52.25 40.28125 46.1875 39.3125 
Q 53.46875 37.75 57.5 32.78125 
Q 61.53125 27.828125 61.53125 20.40625 
Q 61.53125 10.640625 54.890625 5.3125 
Q 48.25 0 35.984375 0 
L 9.8125 0 
z
" id="DejaVuSans-42"/>
     <path d="M 56.203125 29.59375 
L 56.203125 25.203125 
L 14.890625 25.203125 
Q 15.484375 15.921875 20.484375 11.0625 
Q 25.484375 6.203125 34.421875 6.203125 
Q 39.59375 6.203125 44.453125 7.46875 
Q 49.3125 8.734375 54.109375 11.28125 
L 54.109375 2.78125 
Q 49.265625 0.734375 44.1875 -0.34375 
Q 39.109375 -1.421875 33.890625 -1.421875 
Q 20.796875 -1.421875 13.15625 6.1875 
Q 5.515625 13.8125 5.515625 26.8125 
Q 5.515625 40.234375 12.765625 48.109375 
Q 20.015625 56 32.328125 56 
Q 43.359375 56 49.78125 48.890625 
Q 56.203125 41.796875 56.203125 29.59375 
z
M 47.21875 32.234375 
Q 47.125 39.59375 43.09375 43.984375 
Q 39.0625 48.390625 32.421875 48.390625 
Q 24.90625 48.390625 20.390625 44.140625 
Q 15.875 39.890625 15.1875 32.171875 
z
" id="DejaVuSans-65"/>
     <path d="M 41.109375 46.296875 
Q 39.59375 47.171875 37.8125 47.578125 
Q 36.03125 48 33.890625 48 
Q 26.265625 48 22.1875 43.046875 
Q 18.109375 38.09375 18.109375 28.8125 
L 18.109375 0 
L 9.078125 0 
L 9.078125 54.6875 
L 18.109375 54.6875 
L 18.109375 46.1875 
Q 20.953125 51.171875 25.484375 53.578125 
Q 30.03125 56 36.53125 56 
Q 37.453125 56 38.578125 55.875 
Q 39.703125 55.765625 41.0625 55.515625 
z
" id="DejaVuSans-72"/>
     <path d="M 54.890625 33.015625 
L 54.890625 0 
L 45.90625 0 
L 45.90625 32.71875 
Q 45.90625 40.484375 42.875 44.328125 
Q 39.84375 48.1875 33.796875 48.1875 
Q 26.515625 48.1875 22.3125 43.546875 
Q 18.109375 38.921875 18.109375 30.90625 
L 18.109375 0 
L 9.078125 0 
L 9.078125 54.6875 
L 18.109375 54.6875 
L 18.109375 46.1875 
Q 21.34375 51.125 25.703125 53.5625 
Q 30.078125 56 35.796875 56 
Q 45.21875 56 50.046875 50.171875 
Q 54.890625 44.34375 54.890625 33.015625 
z
" id="DejaVuSans-6e"/>
     <path d="M 30.609375 48.390625 
Q 23.390625 48.390625 19.1875 42.75 
Q 14.984375 37.109375 14.984375 27.296875 
Q 14.984375 17.484375 19.15625 11.84375 
Q 23.34375 6.203125 30.609375 6.203125 
Q 37.796875 6.203125 41.984375 11.859375 
Q 46.1875 17.53125 46.1875 27.296875 
Q 46.1875 37.015625 41.984375 42.703125 
Q 37.796875 48.390625 30.609375 48.390625 
z
M 30.609375 56 
Q 42.328125 56 49.015625 48.375 
Q 55.71875 40.765625 55.71875 27.296875 
Q 55.71875 13.875 49.015625 6.21875 
Q 42.328125 -1.421875 30.609375 -1.421875 
Q 18.84375 -1.421875 12.171875 6.21875 
Q 5.515625 13.875 5.515625 27.296875 
Q 5.515625 40.765625 12.171875 48.375 
Q 18.84375 56 30.609375 56 
z
" id="DejaVuSans-6f"/>
     <path d="M 8.5 21.578125 
L 8.5 54.6875 
L 17.484375 54.6875 
L 17.484375 21.921875 
Q 17.484375 14.15625 20.5 10.265625 
Q 23.53125 6.390625 29.59375 6.390625 
Q 36.859375 6.390625 41.078125 11.03125 
Q 45.3125 15.671875 45.3125 23.6875 
L 45.3125 54.6875 
L 54.296875 54.6875 
L 54.296875 0 
L 45.3125 0 
L 45.3125 8.40625 
Q 42.046875 3.421875 37.71875 1 
Q 33.40625 -1.421875 27.6875 -1.421875 
Q 18.265625 -1.421875 13.375 4.4375 
Q 8.5 10.296875 8.5 21.578125 
z
M 31.109375 56 
z
" id="DejaVuSans-75"/>
     <path d="M 9.421875 75.984375 
L 18.40625 75.984375 
L 18.40625 0 
L 9.421875 0 
z
" id="DejaVuSans-6c"/>
     <path d="M 9.421875 54.6875 
L 18.40625 54.6875 
L 18.40625 0 
L 9.421875 0 
z
M 9.421875 75.984375 
L 18.40625 75.984375 
L 18.40625 64.59375 
L 9.421875 64.59375 
z
" id="DejaVuSans-69"/>
     <path id="DejaVuSans-20"/>
     <path d="M 31 75.875 
Q 24.46875 64.65625 21.28125 53.65625 
Q 18.109375 42.671875 18.109375 31.390625 
Q 18.109375 20.125 21.3125 9.0625 
Q 24.515625 -2 31 -13.1875 
L 23.1875 -13.1875 
Q 15.875 -1.703125 12.234375 9.375 
Q 8.59375 20.453125 8.59375 31.390625 
Q 8.59375 42.28125 12.203125 53.3125 
Q 15.828125 64.359375 23.1875 75.875 
z
" id="DejaVuSans-28"/>
     <path d="M 18.109375 8.203125 
L 18.109375 -20.796875 
L 9.078125 -20.796875 
L 9.078125 54.6875 
L 18.109375 54.6875 
L 18.109375 46.390625 
Q 20.953125 51.265625 25.265625 53.625 
Q 29.59375 56 35.59375 56 
Q 45.5625 56 51.78125 48.09375 
Q 58.015625 40.1875 58.015625 27.296875 
Q 58.015625 14.40625 51.78125 6.484375 
Q 45.5625 -1.421875 35.59375 -1.421875 
Q 29.59375 -1.421875 25.265625 0.953125 
Q 20.953125 3.328125 18.109375 8.203125 
z
M 48.6875 27.296875 
Q 48.6875 37.203125 44.609375 42.84375 
Q 40.53125 48.484375 33.40625 48.484375 
Q 26.265625 48.484375 22.1875 42.84375 
Q 18.109375 37.203125 18.109375 27.296875 
Q 18.109375 17.390625 22.1875 11.75 
Q 26.265625 6.109375 33.40625 6.109375 
Q 40.53125 6.109375 44.609375 11.75 
Q 48.6875 17.390625 48.6875 27.296875 
z
" id="DejaVuSans-70"/>
     <path d="M 10.59375 45.40625 
L 73.1875 45.40625 
L 73.1875 37.203125 
L 10.59375 37.203125 
z
M 10.59375 25.484375 
L 73.1875 25.484375 
L 73.1875 17.1875 
L 10.59375 17.1875 
z
" id="DejaVuSans-3d"/>
     <path d="M 8.015625 75.875 
L 15.828125 75.875 
Q 23.140625 64.359375 26.78125 53.3125 
Q 30.421875 42.28125 30.421875 31.390625 
Q 30.421875 20.453125 26.78125 9.375 
Q 23.140625 -1.703125 15.828125 -13.1875 
L 8.015625 -13.1875 
Q 14.5 -2 17.703125 9.0625 
Q 20.90625 20.125 20.90625 31.390625 
Q 20.90625 42.671875 17.703125 53.65625 
Q 14.5 64.65625 8.015625 75.875 
z
" id="DejaVuSans-29"/>
    </defs>
    <g transform="translate(169.725313 20.8)scale(0.12 -0.12)">
     <use xlink:href="#DejaVuSans-42"/>
     <use x="68.603516" xlink:href="#DejaVuSans-65"/>
     <use x="130.126953" xlink:href="#DejaVuSans-72"/>
     <use x="171.224609" xlink:href="#DejaVuSans-6e"/>
     <use x="234.603516" xlink:href="#DejaVuSans-6f"/>
     <use x="295.785156" xlink:href="#DejaVuSans-75"/>
     <use x="359.164062" xlink:href="#DejaVuSans-6c"/>
     <use x="386.947266" xlink:href="#DejaVuSans-6c"/>
     <use x="414.730469" xlink:href="#DejaVuSans-69"/>
     <use x="442.513672" xlink:href="#DejaVuSans-20"/>
     <use x="474.300781" xlink:href="#DejaVuSans-28"/>
     <use x="513.314453" xlink:href="#DejaVuSans-70"/>
     <use x="576.791016" xlink:href="#DejaVuSans-20"/>
     <use x="608.578125" xlink:href="#DejaVuSans-3d"/>
     <use x="692.367188" xlink:href="#DejaVuSans-20"/>
     <use x="724.154297" xlink:href="#DejaVuSans-30"/>
     <use x="787.777344" xlink:href="#DejaVuSans-2e"/>
     <use x="819.564453" xlink:href="#DejaVuSans-32"/>
     <use x="883.1875" xlink:href="#DejaVuSans-38"/>
     <use x="946.810547" xlink:href="#DejaVuSans-29"/>
    </g>
   </g>
  </g>
  <g id="axes_2">
   <g id="patch_9">
    <path d="M 40.05 271.1 
L 417.7 271.1 
L 417.7 165.35 
L 40.05 165.35 
z
" style="fill:#ffffff;"/>
   </g>
   <g id="PolyCollection_1">
    <defs>
     <path d="M 72.821281 -309.706818 
L 72.821281 -405.843182 
L 75.942355 -402.584639 
L 79.06343 -399.436545 
L 82.184504 -396.395156 
L 85.305579 -393.456854 
L 88.426653 -390.618147 
L 91.547727 -387.875657 
L 94.668802 -385.226124 
L 97.789876 -382.666397 
L 100.91095 -380.193432 
L 104.032025 -377.804288 
L 107.153099 -375.496124 
L 110.274174 -373.266195 
L 113.395248 -371.11185 
L 116.516322 -369.030526 
L 119.637397 -367.019749 
L 122.758471 -365.077127 
L 125.879545 -363.20035 
L 129.00062 -361.387186 
L 132.121694 -359.63548 
L 135.242769 -357.943148 
L 138.363843 -356.308177 
L 141.484917 -354.728624 
L 144.605992 -353.20261 
L 147.727066 -351.72832 
L 150.84814 -350.304001 
L 153.969215 -348.927959 
L 157.090289 -347.598559 
L 160.211364 -346.314218 
L 163.332438 -345.07341 
L 166.453512 -343.874659 
L 169.574587 -342.71654 
L 172.695661 -341.597675 
L 175.816736 -340.516735 
L 178.93781 -339.472432 
L 182.058884 -338.463527 
L 185.179959 -337.488818 
L 188.301033 -336.547147 
L 191.422107 -335.637394 
L 194.543182 -334.758477 
L 197.664256 -333.909351 
L 200.785331 -333.089006 
L 203.906405 -332.296467 
L 207.027479 -331.530791 
L 210.148554 -330.791067 
L 213.269628 -330.076416 
L 216.390702 -329.385989 
L 219.511777 -328.718963 
L 222.632851 -328.074546 
L 225.753926 -327.451972 
L 228.875 -326.8505 
L 231.996074 -326.269415 
L 235.117149 -325.708026 
L 238.238223 -325.165665 
L 241.359298 -324.641687 
L 244.480372 -324.13547 
L 247.601446 -323.64641 
L 250.722521 -323.173928 
L 253.843595 -322.71746 
L 256.964669 -322.276464 
L 260.085744 -321.850416 
L 263.206818 -321.438809 
L 266.327893 -321.041153 
L 269.448967 -320.656976 
L 272.570041 -320.28582 
L 275.691116 -319.927245 
L 278.81219 -319.580823 
L 281.933264 -319.246144 
L 285.054339 -318.922808 
L 288.175413 -318.610432 
L 291.296488 -318.308644 
L 294.417562 -318.017085 
L 297.538636 -317.735409 
L 300.659711 -317.46328 
L 303.780785 -317.200375 
L 306.90186 -316.94638 
L 310.022934 -316.700995 
L 313.144008 -316.463928 
L 316.265083 -316.234896 
L 319.386157 -316.013626 
L 322.507231 -315.799857 
L 325.628306 -315.593333 
L 328.74938 -315.39381 
L 331.870455 -315.201049 
L 334.991529 -315.014822 
L 338.112603 -314.834908 
L 341.233678 -314.661091 
L 344.354752 -314.493166 
L 347.475826 -314.330933 
L 350.596901 -314.174198 
L 353.717975 -314.022776 
L 356.83905 -313.876487 
L 359.960124 -313.735156 
L 363.081198 -313.598615 
L 366.202273 -313.466703 
L 369.323347 -313.339262 
L 372.444421 -313.21614 
L 375.565496 -313.097192 
L 378.68657 -312.982275 
L 381.807645 -312.871253 
L 381.807645 -309.706818 
L 381.807645 -309.706818 
L 378.68657 -309.706818 
L 375.565496 -309.706818 
L 372.444421 -309.706818 
L 369.323347 -309.706818 
L 366.202273 -309.706818 
L 363.081198 -309.706818 
L 359.960124 -309.706818 
L 356.83905 -309.706818 
L 353.717975 -309.706818 
L 350.596901 -309.706818 
L 347.475826 -309.706818 
L 344.354752 -309.706818 
L 341.233678 -309.706818 
L 338.112603 -309.706818 
L 334.991529 -309.706818 
L 331.870455 -309.706818 
L 328.74938 -309.706818 
L 325.628306 -309.706818 
L 322.507231 -309.706818 
L 319.386157 -309.706818 
L 316.265083 -309.706818 
L 313.144008 -309.706818 
L 310.022934 -309.706818 
L 306.90186 -309.706818 
L 303.780785 -309.706818 
L 300.659711 -309.706818 
L 297.538636 -309.706818 
L 294.417562 -309.706818 
L 291.296488 -309.706818 
L 288.175413 -309.706818 
L 285.054339 -309.706818 
L 281.933264 -309.706818 
L 278.81219 -309.706818 
L 275.691116 -309.706818 
L 272.570041 -309.706818 
L 269.448967 -309.706818 
L 266.327893 -309.706818 
L 263.206818 -309.706818 
L 260.085744 -309.706818 
L 256.964669 -309.706818 
L 253.843595 -309.706818 
L 250.722521 -309.706818 
L 247.601446 -309.706818 
L 244.480372 -309.706818 
L 241.359298 -309.706818 
L 238.238223 -309.706818 
L 235.117149 -309.706818 
L 231.996074 -309.706818 
L 228.875 -309.706818 
L 225.753926 -309.706818 
L 222.632851 -309.706818 
L 219.511777 -309.706818 
L 216.390702 -309.706818 
L 213.269628 -309.706818 
L 210.148554 -309.706818 
L 207.027479 -309.706818 
L 203.906405 -309.706818 
L 200.785331 -309.706818 
L 197.664256 -309.706818 
L 194.543182 -309.706818 
L 191.422107 -309.706818 
L 188.301033 -309.706818 
L 185.179959 -309.706818 
L 182.058884 -309.706818 
L 178.93781 -309.706818 
L 175.816736 -309.706818 
L 172.695661 -309.706818 
L 169.574587 -309.706818 
L 166.453512 -309.706818 
L 163.332438 -309.706818 
L 160.211364 -309.706818 
L 157.090289 -309.706818 
L 153.969215 -309.706818 
L 150.84814 -309.706818 
L 147.727066 -309.706818 
L 144.605992 -309.706818 
L 141.484917 -309.706818 
L 138.363843 -309.706818 
L 135.242769 -309.706818 
L 132.121694 -309.706818 
L 129.00062 -309.706818 
L 125.879545 -309.706818 
L 122.758471 -309.706818 
L 119.637397 -309.706818 
L 116.516322 -309.706818 
L 113.395248 -309.706818 
L 110.274174 -309.706818 
L 107.153099 -309.706818 
L 104.032025 -309.706818 
L 100.91095 -309.706818 
L 97.789876 -309.706818 
L 94.668802 -309.706818 
L 91.547727 -309.706818 
L 88.426653 -309.706818 
L 85.305579 -309.706818 
L 82.184504 -309.706818 
L 79.06343 -309.706818 
L 75.942355 -309.706818 
L 72.821281 -309.706818 
z
" id="m1d876d48d2" style="stroke:#420039;"/>
    </defs>
    <g clip-path="url(#pf7e12f80bc)">
     <use style="fill:#420039;stroke:#420039;" x="0" xlink:href="#m1d876d48d2" y="576"/>
    </g>
   </g>
   <g id="matplotlib.axis_3">
    <g id="xtick_7">
     <g id="line2d_13">
      <g>
       <use style="stroke:#000000;stroke-width:0.8;" x="72.821281" xlink:href="#m5fc64edb36" y="271.1"/>
      </g>
     </g>
    </g>
    <g id="xtick_8">
     <g id="line2d_14">
      <g>
       <use style="stroke:#000000;stroke-width:0.8;" x="135.242769" xlink:href="#m5fc64edb36" y="271.1"/>
      </g>
     </g>
    </g>
    <g id="xtick_9">
     <g id="line2d_15">
      <g>
       <use style="stroke:#000000;stroke-width:0.8;" x="197.664256" xlink:href="#m5fc64edb36" y="271.1"/>
      </g>
     </g>
    </g>
    <g id="xtick_10">
     <g id="line2d_16">
      <g>
       <use style="stroke:#000000;stroke-width:0.8;" x="260.085744" xlink:href="#m5fc64edb36" y="271.1"/>
      </g>
     </g>
    </g>
    <g id="xtick_11">
     <g id="line2d_17">
      <g>
       <use style="stroke:#000000;stroke-width:0.8;" x="322.507231" xlink:href="#m5fc64edb36" y="271.1"/>
      </g>
     </g>
    </g>
    <g id="xtick_12">
     <g id="line2d_18">
      <g>
       <use style="stroke:#000000;stroke-width:0.8;" x="384.928719" xlink:href="#m5fc64edb36" y="271.1"/>
      </g>
     </g>
    </g>
   </g>
   <g id="matplotlib.axis_4">
    <g id="ytick_7">
     <g id="line2d_19">
      <g>
       <use style="stroke:#000000;stroke-width:0.8;" x="40.05" xlink:href="#md78dd32867" y="266.293182"/>
      </g>
     </g>
     <g id="text_8">
      <!-- 0 -->
      <g transform="translate(26.6875 270.092401)scale(0.1 -0.1)">
       <use xlink:href="#DejaVuSans-30"/>
      </g>
     </g>
    </g>
    <g id="ytick_8">
     <g id="line2d_20">
      <g>
       <use style="stroke:#000000;stroke-width:0.8;" x="40.05" xlink:href="#md78dd32867" y="238.413636"/>
      </g>
     </g>
     <g id="text_9">
      <!-- 1 -->
      <g transform="translate(26.6875 242.212855)scale(0.1 -0.1)">
       <use xlink:href="#DejaVuSans-31"/>
      </g>
     </g>
    </g>
    <g id="ytick_9">
     <g id="line2d_21">
      <g>
       <use style="stroke:#000000;stroke-width:0.8;" x="40.05" xlink:href="#md78dd32867" y="210.534091"/>
      </g>
     </g>
     <g id="text_10">
      <!-- 2 -->
      <g transform="translate(26.6875 214.33331)scale(0.1 -0.1)">
       <use xlink:href="#DejaVuSans-32"/>
      </g>
     </g>
    </g>
    <g id="ytick_10">
     <g id="line2d_22">
      <g>
       <use style="stroke:#000000;stroke-width:0.8;" x="40.05" xlink:href="#md78dd32867" y="182.654545"/>
      </g>
     </g>
     <g id="text_11">
      <!-- 3 -->
      <defs>
       <path d="M 40.578125 39.3125 
Q 47.65625 37.796875 51.625 33 
Q 55.609375 28.21875 55.609375 21.1875 
Q 55.609375 10.40625 48.1875 4.484375 
Q 40.765625 -1.421875 27.09375 -1.421875 
Q 22.515625 -1.421875 17.65625 -0.515625 
Q 12.796875 0.390625 7.625 2.203125 
L 7.625 11.71875 
Q 11.71875 9.328125 16.59375 8.109375 
Q 21.484375 6.890625 26.8125 6.890625 
Q 36.078125 6.890625 40.9375 10.546875 
Q 45.796875 14.203125 45.796875 21.1875 
Q 45.796875 27.640625 41.28125 31.265625 
Q 36.765625 34.90625 28.71875 34.90625 
L 20.21875 34.90625 
L 20.21875 43.015625 
L 29.109375 43.015625 
Q 36.375 43.015625 40.234375 45.921875 
Q 44.09375 48.828125 44.09375 54.296875 
Q 44.09375 59.90625 40.109375 62.90625 
Q 36.140625 65.921875 28.71875 65.921875 
Q 24.65625 65.921875 20.015625 65.03125 
Q 15.375 64.15625 9.8125 62.3125 
L 9.8125 71.09375 
Q 15.4375 72.65625 20.34375 73.4375 
Q 25.25 74.21875 29.59375 74.21875 
Q 40.828125 74.21875 47.359375 69.109375 
Q 53.90625 64.015625 53.90625 55.328125 
Q 53.90625 49.265625 50.4375 45.09375 
Q 46.96875 40.921875 40.578125 39.3125 
z
" id="DejaVuSans-33"/>
      </defs>
      <g transform="translate(26.6875 186.453764)scale(0.1 -0.1)">
       <use xlink:href="#DejaVuSans-33"/>
      </g>
     </g>
    </g>
   </g>
   <g id="patch_10">
    <path d="M 40.05 271.1 
L 40.05 165.35 
" style="fill:none;stroke:#000000;stroke-linecap:square;stroke-linejoin:miter;stroke-width:0.8;"/>
   </g>
   <g id="patch_11">
    <path d="M 417.7 271.1 
L 417.7 165.35 
" style="fill:none;stroke:#000000;stroke-linecap:square;stroke-linejoin:miter;stroke-width:0.8;"/>
   </g>
   <g id="patch_12">
    <path d="M 40.05 271.1 
L 417.7 271.1 
" style="fill:none;stroke:#000000;stroke-linecap:square;stroke-linejoin:miter;stroke-width:0.8;"/>
   </g>
   <g id="patch_13">
    <path d="M 40.05 165.35 
L 417.7 165.35 
" style="fill:none;stroke:#000000;stroke-linecap:square;stroke-linejoin:miter;stroke-width:0.8;"/>
   </g>
   <g id="text_12">
    <!-- Exponential (L = 0.29) -->
    <defs>
     <path d="M 9.8125 72.90625 
L 55.90625 72.90625 
L 55.90625 64.59375 
L 19.671875 64.59375 
L 19.671875 43.015625 
L 54.390625 43.015625 
L 54.390625 34.71875 
L 19.671875 34.71875 
L 19.671875 8.296875 
L 56.78125 8.296875 
L 56.78125 0 
L 9.8125 0 
z
" id="DejaVuSans-45"/>
     <path d="M 54.890625 54.6875 
L 35.109375 28.078125 
L 55.90625 0 
L 45.3125 0 
L 29.390625 21.484375 
L 13.484375 0 
L 2.875 0 
L 24.125 28.609375 
L 4.6875 54.6875 
L 15.28125 54.6875 
L 29.78125 35.203125 
L 44.28125 54.6875 
z
" id="DejaVuSans-78"/>
     <path d="M 18.3125 70.21875 
L 18.3125 54.6875 
L 36.8125 54.6875 
L 36.8125 47.703125 
L 18.3125 47.703125 
L 18.3125 18.015625 
Q 18.3125 11.328125 20.140625 9.421875 
Q 21.96875 7.515625 27.59375 7.515625 
L 36.8125 7.515625 
L 36.8125 0 
L 27.59375 0 
Q 17.1875 0 13.234375 3.875 
Q 9.28125 7.765625 9.28125 18.015625 
L 9.28125 47.703125 
L 2.6875 47.703125 
L 2.6875 54.6875 
L 9.28125 54.6875 
L 9.28125 70.21875 
z
" id="DejaVuSans-74"/>
     <path d="M 34.28125 27.484375 
Q 23.390625 27.484375 19.1875 25 
Q 14.984375 22.515625 14.984375 16.5 
Q 14.984375 11.71875 18.140625 8.90625 
Q 21.296875 6.109375 26.703125 6.109375 
Q 34.1875 6.109375 38.703125 11.40625 
Q 43.21875 16.703125 43.21875 25.484375 
L 43.21875 27.484375 
z
M 52.203125 31.203125 
L 52.203125 0 
L 43.21875 0 
L 43.21875 8.296875 
Q 40.140625 3.328125 35.546875 0.953125 
Q 30.953125 -1.421875 24.3125 -1.421875 
Q 15.921875 -1.421875 10.953125 3.296875 
Q 6 8.015625 6 15.921875 
Q 6 25.140625 12.171875 29.828125 
Q 18.359375 34.515625 30.609375 34.515625 
L 43.21875 34.515625 
L 43.21875 35.40625 
Q 43.21875 41.609375 39.140625 45 
Q 35.0625 48.390625 27.6875 48.390625 
Q 23 48.390625 18.546875 47.265625 
Q 14.109375 46.140625 10.015625 43.890625 
L 10.015625 52.203125 
Q 14.9375 54.109375 19.578125 55.046875 
Q 24.21875 56 28.609375 56 
Q 40.484375 56 46.34375 49.84375 
Q 52.203125 43.703125 52.203125 31.203125 
z
" id="DejaVuSans-61"/>
     <path d="M 9.8125 72.90625 
L 19.671875 72.90625 
L 19.671875 8.296875 
L 55.171875 8.296875 
L 55.171875 0 
L 9.8125 0 
z
" id="DejaVuSans-4c"/>
     <path d="M 10.984375 1.515625 
L 10.984375 10.5 
Q 14.703125 8.734375 18.5 7.8125 
Q 22.3125 6.890625 25.984375 6.890625 
Q 35.75 6.890625 40.890625 13.453125 
Q 46.046875 20.015625 46.78125 33.40625 
Q 43.953125 29.203125 39.59375 26.953125 
Q 35.25 24.703125 29.984375 24.703125 
Q 19.046875 24.703125 12.671875 31.3125 
Q 6.296875 37.9375 6.296875 49.421875 
Q 6.296875 60.640625 12.9375 67.421875 
Q 19.578125 74.21875 30.609375 74.21875 
Q 43.265625 74.21875 49.921875 64.515625 
Q 56.59375 54.828125 56.59375 36.375 
Q 56.59375 19.140625 48.40625 8.859375 
Q 40.234375 -1.421875 26.421875 -1.421875 
Q 22.703125 -1.421875 18.890625 -0.6875 
Q 15.09375 0.046875 10.984375 1.515625 
z
M 30.609375 32.421875 
Q 37.25 32.421875 41.125 36.953125 
Q 45.015625 41.5 45.015625 49.421875 
Q 45.015625 57.28125 41.125 61.84375 
Q 37.25 66.40625 30.609375 66.40625 
Q 23.96875 66.40625 20.09375 61.84375 
Q 16.21875 57.28125 16.21875 49.421875 
Q 16.21875 41.5 20.09375 36.953125 
Q 23.96875 32.421875 30.609375 32.421875 
z
" id="DejaVuSans-39"/>
    </defs>
    <g transform="translate(161.259687 159.35)scale(0.12 -0.12)">
     <use xlink:href="#DejaVuSans-45"/>
     <use x="63.183594" xlink:href="#DejaVuSans-78"/>
     <use x="122.363281" xlink:href="#DejaVuSans-70"/>
     <use x="185.839844" xlink:href="#DejaVuSans-6f"/>
     <use x="247.021484" xlink:href="#DejaVuSans-6e"/>
     <use x="310.400391" xlink:href="#DejaVuSans-65"/>
     <use x="371.923828" xlink:href="#DejaVuSans-6e"/>
     <use x="435.302734" xlink:href="#DejaVuSans-74"/>
     <use x="474.511719" xlink:href="#DejaVuSans-69"/>
     <use x="502.294922" xlink:href="#DejaVuSans-61"/>
     <use x="563.574219" xlink:href="#DejaVuSans-6c"/>
     <use x="591.357422" xlink:href="#DejaVuSans-20"/>
     <use x="623.144531" xlink:href="#DejaVuSans-28"/>
     <use x="662.158203" xlink:href="#DejaVuSans-4c"/>
     <use x="717.871094" xlink:href="#DejaVuSans-20"/>
     <use x="749.658203" xlink:href="#DejaVuSans-3d"/>
     <use x="833.447266" xlink:href="#DejaVuSans-20"/>
     <use x="865.234375" xlink:href="#DejaVuSans-30"/>
     <use x="928.857422" xlink:href="#DejaVuSans-2e"/>
     <use x="960.644531" xlink:href="#DejaVuSans-32"/>
     <use x="1024.267578" xlink:href="#DejaVuSans-39"/>
     <use x="1087.890625" xlink:href="#DejaVuSans-29"/>
    </g>
   </g>
  </g>
  <g id="axes_3">
   <g id="patch_14">
    <path d="M 40.05 409.65 
L 417.7 409.65 
L 417.7 303.9 
L 40.05 303.9 
z
" style="fill:#ffffff;"/>
   </g>
   <g id="patch_15">
    <path clip-path="url(#p9a5566ad7b)" d="M 88.426653 409.65 
L 119.637397 409.65 
L 119.637397 393.7875 
L 88.426653 393.7875 
z
" style="fill:#d72638;"/>
   </g>
   <g id="patch_16">
    <path clip-path="url(#p9a5566ad7b)" d="M 150.84814 409.65 
L 182.058884 409.65 
L 182.058884 383.2125 
L 150.84814 383.2125 
z
" style="fill:#d72638;"/>
   </g>
   <g id="patch_17">
    <path clip-path="url(#p9a5566ad7b)" d="M 275.691116 409.65 
L 306.90186 409.65 
L 306.90186 356.775 
L 275.691116 356.775 
z
" style="fill:#d72638;"/>
   </g>
   <g id="patch_18">
    <path clip-path="url(#p9a5566ad7b)" d="M 338.112603 409.65 
L 369.323347 409.65 
L 369.323347 399.075 
L 338.112603 399.075 
z
" style="fill:#d72638;"/>
   </g>
   <g id="matplotlib.axis_5">
    <g id="xtick_13">
     <g id="line2d_23">
      <g>
       <use style="stroke:#000000;stroke-width:0.8;" x="72.821281" xlink:href="#m5fc64edb36" y="409.65"/>
      </g>
     </g>
    </g>
    <g id="xtick_14">
     <g id="line2d_24">
      <g>
       <use style="stroke:#000000;stroke-width:0.8;" x="135.242769" xlink:href="#m5fc64edb36" y="409.65"/>
      </g>
     </g>
    </g>
    <g id="xtick_15">
     <g id="line2d_25">
      <g>
       <use style="stroke:#000000;stroke-width:0.8;" x="197.664256" xlink:href="#m5fc64edb36" y="409.65"/>
      </g>
     </g>
    </g>
    <g id="xtick_16">
     <g id="line2d_26">
      <g>
       <use style="stroke:#000000;stroke-width:0.8;" x="260.085744" xlink:href="#m5fc64edb36" y="409.65"/>
      </g>
     </g>
    </g>
    <g id="xtick_17">
     <g id="line2d_27">
      <g>
       <use style="stroke:#000000;stroke-width:0.8;" x="322.507231" xlink:href="#m5fc64edb36" y="409.65"/>
      </g>
     </g>
    </g>
    <g id="xtick_18">
     <g id="line2d_28">
      <g>
       <use style="stroke:#000000;stroke-width:0.8;" x="384.928719" xlink:href="#m5fc64edb36" y="409.65"/>
      </g>
     </g>
    </g>
   </g>
   <g id="matplotlib.axis_6">
    <g id="ytick_11">
     <g id="line2d_29">
      <g>
       <use style="stroke:#000000;stroke-width:0.8;" x="40.05" xlink:href="#md78dd32867" y="409.65"/>
      </g>
     </g>
     <g id="text_13">
      <!-- 0.0 -->
      <g transform="translate(17.146875 413.449219)scale(0.1 -0.1)">
       <use xlink:href="#DejaVuSans-30"/>
       <use x="63.623047" xlink:href="#DejaVuSans-2e"/>
       <use x="95.410156" xlink:href="#DejaVuSans-30"/>
      </g>
     </g>
    </g>
    <g id="ytick_12">
     <g id="line2d_30">
      <g>
       <use style="stroke:#000000;stroke-width:0.8;" x="40.05" xlink:href="#md78dd32867" y="388.5"/>
      </g>
     </g>
     <g id="text_14">
      <!-- 0.2 -->
      <g transform="translate(17.146875 392.299219)scale(0.1 -0.1)">
       <use xlink:href="#DejaVuSans-30"/>
       <use x="63.623047" xlink:href="#DejaVuSans-2e"/>
       <use x="95.410156" xlink:href="#DejaVuSans-32"/>
      </g>
     </g>
    </g>
    <g id="ytick_13">
     <g id="line2d_31">
      <g>
       <use style="stroke:#000000;stroke-width:0.8;" x="40.05" xlink:href="#md78dd32867" y="367.35"/>
      </g>
     </g>
     <g id="text_15">
      <!-- 0.4 -->
      <g transform="translate(17.146875 371.149219)scale(0.1 -0.1)">
       <use xlink:href="#DejaVuSans-30"/>
       <use x="63.623047" xlink:href="#DejaVuSans-2e"/>
       <use x="95.410156" xlink:href="#DejaVuSans-34"/>
      </g>
     </g>
    </g>
    <g id="ytick_14">
     <g id="line2d_32">
      <g>
       <use style="stroke:#000000;stroke-width:0.8;" x="40.05" xlink:href="#md78dd32867" y="346.2"/>
      </g>
     </g>
     <g id="text_16">
      <!-- 0.6 -->
      <g transform="translate(17.146875 349.999219)scale(0.1 -0.1)">
       <use xlink:href="#DejaVuSans-30"/>
       <use x="63.623047" xlink:href="#DejaVuSans-2e"/>
       <use x="95.410156" xlink:href="#DejaVuSans-36"/>
      </g>
     </g>
    </g>
    <g id="ytick_15">
     <g id="line2d_33">
      <g>
       <use style="stroke:#000000;stroke-width:0.8;" x="40.05" xlink:href="#md78dd32867" y="325.05"/>
      </g>
     </g>
     <g id="text_17">
      <!-- 0.8 -->
      <g transform="translate(17.146875 328.849219)scale(0.1 -0.1)">
       <use xlink:href="#DejaVuSans-30"/>
       <use x="63.623047" xlink:href="#DejaVuSans-2e"/>
       <use x="95.410156" xlink:href="#DejaVuSans-38"/>
      </g>
     </g>
    </g>
    <g id="ytick_16">
     <g id="line2d_34">
      <g>
       <use style="stroke:#000000;stroke-width:0.8;" x="40.05" xlink:href="#md78dd32867" y="303.9"/>
      </g>
     </g>
     <g id="text_18">
      <!-- 1.0 -->
      <g transform="translate(17.146875 307.699219)scale(0.1 -0.1)">
       <use xlink:href="#DejaVuSans-31"/>
       <use x="63.623047" xlink:href="#DejaVuSans-2e"/>
       <use x="95.410156" xlink:href="#DejaVuSans-30"/>
      </g>
     </g>
    </g>
   </g>
   <g id="patch_19">
    <path d="M 40.05 409.65 
L 40.05 303.9 
" style="fill:none;stroke:#000000;stroke-linecap:square;stroke-linejoin:miter;stroke-width:0.8;"/>
   </g>
   <g id="patch_20">
    <path d="M 417.7 409.65 
L 417.7 303.9 
" style="fill:none;stroke:#000000;stroke-linecap:square;stroke-linejoin:miter;stroke-width:0.8;"/>
   </g>
   <g id="patch_21">
    <path d="M 40.05 409.65 
L 417.7 409.65 
" style="fill:none;stroke:#000000;stroke-linecap:square;stroke-linejoin:miter;stroke-width:0.8;"/>
   </g>
   <g id="patch_22">
    <path d="M 40.05 303.9 
L 417.7 303.9 
" style="fill:none;stroke:#000000;stroke-linecap:square;stroke-linejoin:miter;stroke-width:0.8;"/>
   </g>
   <g id="text_19">
    <!-- Finite -->
    <defs>
     <path d="M 9.8125 72.90625 
L 51.703125 72.90625 
L 51.703125 64.59375 
L 19.671875 64.59375 
L 19.671875 43.109375 
L 48.578125 43.109375 
L 48.578125 34.8125 
L 19.671875 34.8125 
L 19.671875 0 
L 9.8125 0 
z
" id="DejaVuSans-46"/>
    </defs>
    <g transform="translate(212.250313 297.9)scale(0.12 -0.12)">
     <use xlink:href="#DejaVuSans-46"/>
     <use x="57.410156" xlink:href="#DejaVuSans-69"/>
     <use x="85.193359" xlink:href="#DejaVuSans-6e"/>
     <use x="148.572266" xlink:href="#DejaVuSans-69"/>
     <use x="176.355469" xlink:href="#DejaVuSans-74"/>
     <use x="215.564453" xlink:href="#DejaVuSans-65"/>
    </g>
   </g>
  </g>
  <g id="axes_4">
   <g id="patch_23">
    <path d="M 40.05 548.2 
L 417.7 548.2 
L 417.7 442.45 
L 40.05 442.45 
z
" style="fill:#ffffff;"/>
   </g>
   <g id="PolyCollection_2">
    <defs>
     <path d="M 72.821281 -32.606818 
L 72.821281 -32.606818 
L 75.942355 -43.879793 
L 79.06343 -54.255529 
L 82.184504 -63.774603 
L 85.305579 -72.476491 
L 88.426653 -80.399585 
L 91.547727 -87.581207 
L 94.668802 -94.057624 
L 97.789876 -99.864059 
L 100.91095 -105.034707 
L 104.032025 -109.602751 
L 107.153099 -113.600373 
L 110.274174 -117.058768 
L 113.395248 -120.008162 
L 116.516322 -122.477821 
L 119.637397 -124.496069 
L 122.758471 -126.090299 
L 125.879545 -127.28699 
L 129.00062 -128.11172 
L 132.121694 -128.589178 
L 135.242769 -128.743182 
L 138.363843 -128.596689 
L 141.484917 -128.171813 
L 144.605992 -127.489835 
L 147.727066 -126.571221 
L 150.84814 -125.435634 
L 153.969215 -124.101947 
L 157.090289 -122.588261 
L 160.211364 -120.911914 
L 163.332438 -119.089498 
L 166.453512 -117.136875 
L 169.574587 -115.069187 
L 172.695661 -112.90087 
L 175.816736 -110.645675 
L 178.93781 -108.316672 
L 182.058884 -105.926272 
L 185.179959 -103.486236 
L 188.301033 -101.007695 
L 191.422107 -98.501157 
L 194.543182 -95.976524 
L 197.664256 -93.443111 
L 200.785331 -90.90965 
L 203.906405 -88.384314 
L 207.027479 -85.874724 
L 210.148554 -83.387968 
L 213.269628 -80.930612 
L 216.390702 -78.508714 
L 219.511777 -76.12784 
L 222.632851 -73.793078 
L 225.753926 -71.509051 
L 228.875 -69.279931 
L 231.996074 -67.109452 
L 235.117149 -65.000927 
L 238.238223 -62.957262 
L 241.359298 -60.980966 
L 244.480372 -59.07417 
L 247.601446 -57.238637 
L 250.722521 -55.475779 
L 253.843595 -53.786669 
L 256.964669 -52.172058 
L 260.085744 -50.632386 
L 263.206818 -49.167797 
L 266.327893 -47.778154 
L 269.448967 -46.463052 
L 272.570041 -45.221832 
L 275.691116 -44.053597 
L 278.81219 -42.957223 
L 281.933264 -41.931377 
L 285.054339 -40.974527 
L 288.175413 -40.084959 
L 291.296488 -39.260788 
L 294.417562 -38.499976 
L 297.538636 -37.800345 
L 300.659711 -37.159588 
L 303.780785 -36.575286 
L 306.90186 -36.044922 
L 310.022934 -35.565895 
L 313.144008 -35.135533 
L 316.265083 -34.751106 
L 319.386157 -34.409844 
L 322.507231 -34.108949 
L 325.628306 -33.845607 
L 328.74938 -33.617005 
L 331.870455 -33.420344 
L 334.991529 -33.252855 
L 338.112603 -33.111807 
L 341.233678 -32.994529 
L 344.354752 -32.89842 
L 347.475826 -32.820962 
L 350.596901 -32.759736 
L 353.717975 -32.712437 
L 356.83905 -32.676884 
L 359.960124 -32.651041 
L 363.081198 -32.633022 
L 366.202273 -32.621115 
L 369.323347 -32.613786 
L 372.444421 -32.609702 
L 375.565496 -32.60774 
L 378.68657 -32.607002 
L 381.807645 -32.60683 
L 381.807645 -32.606818 
L 381.807645 -32.606818 
L 378.68657 -32.606818 
L 375.565496 -32.606818 
L 372.444421 -32.606818 
L 369.323347 -32.606818 
L 366.202273 -32.606818 
L 363.081198 -32.606818 
L 359.960124 -32.606818 
L 356.83905 -32.606818 
L 353.717975 -32.606818 
L 350.596901 -32.606818 
L 347.475826 -32.606818 
L 344.354752 -32.606818 
L 341.233678 -32.606818 
L 338.112603 -32.606818 
L 334.991529 -32.606818 
L 331.870455 -32.606818 
L 328.74938 -32.606818 
L 325.628306 -32.606818 
L 322.507231 -32.606818 
L 319.386157 -32.606818 
L 316.265083 -32.606818 
L 313.144008 -32.606818 
L 310.022934 -32.606818 
L 306.90186 -32.606818 
L 303.780785 -32.606818 
L 300.659711 -32.606818 
L 297.538636 -32.606818 
L 294.417562 -32.606818 
L 291.296488 -32.606818 
L 288.175413 -32.606818 
L 285.054339 -32.606818 
L 281.933264 -32.606818 
L 278.81219 -32.606818 
L 275.691116 -32.606818 
L 272.570041 -32.606818 
L 269.448967 -32.606818 
L 266.327893 -32.606818 
L 263.206818 -32.606818 
L 260.085744 -32.606818 
L 256.964669 -32.606818 
L 253.843595 -32.606818 
L 250.722521 -32.606818 
L 247.601446 -32.606818 
L 244.480372 -32.606818 
L 241.359298 -32.606818 
L 238.238223 -32.606818 
L 235.117149 -32.606818 
L 231.996074 -32.606818 
L 228.875 -32.606818 
L 225.753926 -32.606818 
L 222.632851 -32.606818 
L 219.511777 -32.606818 
L 216.390702 -32.606818 
L 213.269628 -32.606818 
L 210.148554 -32.606818 
L 207.027479 -32.606818 
L 203.906405 -32.606818 
L 200.785331 -32.606818 
L 197.664256 -32.606818 
L 194.543182 -32.606818 
L 191.422107 -32.606818 
L 188.301033 -32.606818 
L 185.179959 -32.606818 
L 182.058884 -32.606818 
L 178.93781 -32.606818 
L 175.816736 -32.606818 
L 172.695661 -32.606818 
L 169.574587 -32.606818 
L 166.453512 -32.606818 
L 163.332438 -32.606818 
L 160.211364 -32.606818 
L 157.090289 -32.606818 
L 153.969215 -32.606818 
L 150.84814 -32.606818 
L 147.727066 -32.606818 
L 144.605992 -32.606818 
L 141.484917 -32.606818 
L 138.363843 -32.606818 
L 135.242769 -32.606818 
L 132.121694 -32.606818 
L 129.00062 -32.606818 
L 125.879545 -32.606818 
L 122.758471 -32.606818 
L 119.637397 -32.606818 
L 116.516322 -32.606818 
L 113.395248 -32.606818 
L 110.274174 -32.606818 
L 107.153099 -32.606818 
L 104.032025 -32.606818 
L 100.91095 -32.606818 
L 97.789876 -32.606818 
L 94.668802 -32.606818 
L 91.547727 -32.606818 
L 88.426653 -32.606818 
L 85.305579 -32.606818 
L 82.184504 -32.606818 
L 79.06343 -32.606818 
L 75.942355 -32.606818 
L 72.821281 -32.606818 
z
" id="m1594cca454" style="stroke:#ff570a;"/>
    </defs>
    <g clip-path="url(#p8fb706468b)">
     <use style="fill:#ff570a;stroke:#ff570a;" x="0" xlink:href="#m1594cca454" y="576"/>
    </g>
   </g>
   <g id="matplotlib.axis_7">
    <g id="xtick_19">
     <g id="line2d_35">
      <g>
       <use style="stroke:#000000;stroke-width:0.8;" x="72.821281" xlink:href="#m5fc64edb36" y="548.2"/>
      </g>
     </g>
     <g id="text_20">
      <!-- 0.0 -->
      <g transform="translate(64.869718 562.798437)scale(0.1 -0.1)">
       <use xlink:href="#DejaVuSans-30"/>
       <use x="63.623047" xlink:href="#DejaVuSans-2e"/>
       <use x="95.410156" xlink:href="#DejaVuSans-30"/>
      </g>
     </g>
    </g>
    <g id="xtick_20">
     <g id="line2d_36">
      <g>
       <use style="stroke:#000000;stroke-width:0.8;" x="135.242769" xlink:href="#m5fc64edb36" y="548.2"/>
      </g>
     </g>
     <g id="text_21">
      <!-- 0.2 -->
      <g transform="translate(127.291206 562.798437)scale(0.1 -0.1)">
       <use xlink:href="#DejaVuSans-30"/>
       <use x="63.623047" xlink:href="#DejaVuSans-2e"/>
       <use x="95.410156" xlink:href="#DejaVuSans-32"/>
      </g>
     </g>
    </g>
    <g id="xtick_21">
     <g id="line2d_37">
      <g>
       <use style="stroke:#000000;stroke-width:0.8;" x="197.664256" xlink:href="#m5fc64edb36" y="548.2"/>
      </g>
     </g>
     <g id="text_22">
      <!-- 0.4 -->
      <g transform="translate(189.712694 562.798437)scale(0.1 -0.1)">
       <use xlink:href="#DejaVuSans-30"/>
       <use x="63.623047" xlink:href="#DejaVuSans-2e"/>
       <use x="95.410156" xlink:href="#DejaVuSans-34"/>
      </g>
     </g>
    </g>
    <g id="xtick_22">
     <g id="line2d_38">
      <g>
       <use style="stroke:#000000;stroke-width:0.8;" x="260.085744" xlink:href="#m5fc64edb36" y="548.2"/>
      </g>
     </g>
     <g id="text_23">
      <!-- 0.6 -->
      <g transform="translate(252.134181 562.798437)scale(0.1 -0.1)">
       <use xlink:href="#DejaVuSans-30"/>
       <use x="63.623047" xlink:href="#DejaVuSans-2e"/>
       <use x="95.410156" xlink:href="#DejaVuSans-36"/>
      </g>
     </g>
    </g>
    <g id="xtick_23">
     <g id="line2d_39">
      <g>
       <use style="stroke:#000000;stroke-width:0.8;" x="322.507231" xlink:href="#m5fc64edb36" y="548.2"/>
      </g>
     </g>
     <g id="text_24">
      <!-- 0.8 -->
      <g transform="translate(314.555669 562.798437)scale(0.1 -0.1)">
       <use xlink:href="#DejaVuSans-30"/>
       <use x="63.623047" xlink:href="#DejaVuSans-2e"/>
       <use x="95.410156" xlink:href="#DejaVuSans-38"/>
      </g>
     </g>
    </g>
    <g id="xtick_24">
     <g id="line2d_40">
      <g>
       <use style="stroke:#000000;stroke-width:0.8;" x="384.928719" xlink:href="#m5fc64edb36" y="548.2"/>
      </g>
     </g>
     <g id="text_25">
      <!-- 1.0 -->
      <g transform="translate(376.977157 562.798437)scale(0.1 -0.1)">
       <use xlink:href="#DejaVuSans-31"/>
       <use x="63.623047" xlink:href="#DejaVuSans-2e"/>
       <use x="95.410156" xlink:href="#DejaVuSans-30"/>
      </g>
     </g>
    </g>
   </g>
   <g id="matplotlib.axis_8">
    <g id="ytick_17">
     <g id="line2d_41">
      <g>
       <use style="stroke:#000000;stroke-width:0.8;" x="40.05" xlink:href="#md78dd32867" y="543.393182"/>
      </g>
     </g>
     <g id="text_26">
      <!-- 0 -->
      <g transform="translate(26.6875 547.192401)scale(0.1 -0.1)">
       <use xlink:href="#DejaVuSans-30"/>
      </g>
     </g>
    </g>
    <g id="ytick_18">
     <g id="line2d_42">
      <g>
       <use style="stroke:#000000;stroke-width:0.8;" x="40.05" xlink:href="#md78dd32867" y="504.275195"/>
      </g>
     </g>
     <g id="text_27">
      <!-- 1 -->
      <g transform="translate(26.6875 508.074414)scale(0.1 -0.1)">
       <use xlink:href="#DejaVuSans-31"/>
      </g>
     </g>
    </g>
    <g id="ytick_19">
     <g id="line2d_43">
      <g>
       <use style="stroke:#000000;stroke-width:0.8;" x="40.05" xlink:href="#md78dd32867" y="465.157209"/>
      </g>
     </g>
     <g id="text_28">
      <!-- 2 -->
      <g transform="translate(26.6875 468.956428)scale(0.1 -0.1)">
       <use xlink:href="#DejaVuSans-32"/>
      </g>
     </g>
    </g>
   </g>
   <g id="patch_24">
    <path d="M 40.05 548.2 
L 40.05 442.45 
" style="fill:none;stroke:#000000;stroke-linecap:square;stroke-linejoin:miter;stroke-width:0.8;"/>
   </g>
   <g id="patch_25">
    <path d="M 417.7 548.2 
L 417.7 442.45 
" style="fill:none;stroke:#000000;stroke-linecap:square;stroke-linejoin:miter;stroke-width:0.8;"/>
   </g>
   <g id="patch_26">
    <path d="M 40.05 548.2 
L 417.7 548.2 
" style="fill:none;stroke:#000000;stroke-linecap:square;stroke-linejoin:miter;stroke-width:0.8;"/>
   </g>
   <g id="patch_27">
    <path d="M 40.05 442.45 
L 417.7 442.45 
" style="fill:none;stroke:#000000;stroke-linecap:square;stroke-linejoin:miter;stroke-width:0.8;"/>
   </g>
   <g id="text_29">
    <!-- Beta (a = 2.00, b = 5.00) -->
    <defs>
     <path d="M 11.71875 12.40625 
L 22.015625 12.40625 
L 22.015625 4 
L 14.015625 -11.625 
L 7.71875 -11.625 
L 11.71875 4 
z
" id="DejaVuSans-2c"/>
     <path d="M 48.6875 27.296875 
Q 48.6875 37.203125 44.609375 42.84375 
Q 40.53125 48.484375 33.40625 48.484375 
Q 26.265625 48.484375 22.1875 42.84375 
Q 18.109375 37.203125 18.109375 27.296875 
Q 18.109375 17.390625 22.1875 11.75 
Q 26.265625 6.109375 33.40625 6.109375 
Q 40.53125 6.109375 44.609375 11.75 
Q 48.6875 17.390625 48.6875 27.296875 
z
M 18.109375 46.390625 
Q 20.953125 51.265625 25.265625 53.625 
Q 29.59375 56 35.59375 56 
Q 45.5625 56 51.78125 48.09375 
Q 58.015625 40.1875 58.015625 27.296875 
Q 58.015625 14.40625 51.78125 6.484375 
Q 45.5625 -1.421875 35.59375 -1.421875 
Q 29.59375 -1.421875 25.265625 0.953125 
Q 20.953125 3.328125 18.109375 8.203125 
L 18.109375 0 
L 9.078125 0 
L 9.078125 75.984375 
L 18.109375 75.984375 
z
" id="DejaVuSans-62"/>
     <path d="M 10.796875 72.90625 
L 49.515625 72.90625 
L 49.515625 64.59375 
L 19.828125 64.59375 
L 19.828125 46.734375 
Q 21.96875 47.46875 24.109375 47.828125 
Q 26.265625 48.1875 28.421875 48.1875 
Q 40.625 48.1875 47.75 41.5 
Q 54.890625 34.8125 54.890625 23.390625 
Q 54.890625 11.625 47.5625 5.09375 
Q 40.234375 -1.421875 26.90625 -1.421875 
Q 22.3125 -1.421875 17.546875 -0.640625 
Q 12.796875 0.140625 7.71875 1.703125 
L 7.71875 11.625 
Q 12.109375 9.234375 16.796875 8.0625 
Q 21.484375 6.890625 26.703125 6.890625 
Q 35.15625 6.890625 40.078125 11.328125 
Q 45.015625 15.765625 45.015625 23.390625 
Q 45.015625 31 40.078125 35.4375 
Q 35.15625 39.890625 26.703125 39.890625 
Q 22.75 39.890625 18.8125 39.015625 
Q 14.890625 38.140625 10.796875 36.28125 
z
" id="DejaVuSans-35"/>
    </defs>
    <g transform="translate(152.747187 436.45)scale(0.12 -0.12)">
     <use xlink:href="#DejaVuSans-42"/>
     <use x="68.603516" xlink:href="#DejaVuSans-65"/>
     <use x="130.126953" xlink:href="#DejaVuSans-74"/>
     <use x="169.335938" xlink:href="#DejaVuSans-61"/>
     <use x="230.615234" xlink:href="#DejaVuSans-20"/>
     <use x="262.402344" xlink:href="#DejaVuSans-28"/>
     <use x="301.416016" xlink:href="#DejaVuSans-61"/>
     <use x="362.695312" xlink:href="#DejaVuSans-20"/>
     <use x="394.482422" xlink:href="#DejaVuSans-3d"/>
     <use x="478.271484" xlink:href="#DejaVuSans-20"/>
     <use x="510.058594" xlink:href="#DejaVuSans-32"/>
     <use x="573.681641" xlink:href="#DejaVuSans-2e"/>
     <use x="605.46875" xlink:href="#DejaVuSans-30"/>
     <use x="669.091797" xlink:href="#DejaVuSans-30"/>
     <use x="732.714844" xlink:href="#DejaVuSans-2c"/>
     <use x="764.501953" xlink:href="#DejaVuSans-20"/>
     <use x="796.289062" xlink:href="#DejaVuSans-62"/>
     <use x="859.765625" xlink:href="#DejaVuSans-20"/>
     <use x="891.552734" xlink:href="#DejaVuSans-3d"/>
     <use x="975.341797" xlink:href="#DejaVuSans-20"/>
     <use x="1007.128906" xlink:href="#DejaVuSans-35"/>
     <use x="1070.751953" xlink:href="#DejaVuSans-2e"/>
     <use x="1102.539062" xlink:href="#DejaVuSans-30"/>
     <use x="1166.162109" xlink:href="#DejaVuSans-30"/>
     <use x="1229.785156" xlink:href="#DejaVuSans-29"/>
    </g>
   </g>
  </g>
 </g>
 <defs>
  <clipPath id="p2bf6d7fc8f">
   <rect height="105.75" width="377.65" x="40.05" y="26.8"/>
  </clipPath>
  <clipPath id="pf7e12f80bc">
   <rect height="105.75" width="377.65" x="40.05" y="165.35"/>
  </clipPath>
  <clipPath id="p9a5566ad7b">
   <rect height="105.75" width="377.65" x="40.05" y="303.9"/>
  </clipPath>
  <clipPath id="p8fb706468b">
   <rect height="105.75" width="377.65" x="40.05" y="442.45"/>
  </clipPath>
 </defs>
</svg>
