<?xml version="1.0" encoding="utf-8" standalone="no"?>
<!DOCTYPE svg PUBLIC "-//W3C//DTD SVG 1.1//EN"
  "http://www.w3.org/Graphics/SVG/1.1/DTD/svg11.dtd">
<!-- Created with matplotlib (http://matplotlib.org/) -->
<svg height="288pt" version="1.1" viewBox="0 0 432 288" width="432pt" xmlns="http://www.w3.org/2000/svg" xmlns:xlink="http://www.w3.org/1999/xlink">
 <defs>
  <style type="text/css">
*{stroke-linecap:butt;stroke-linejoin:round;}
  </style>
 </defs>
 <g id="figure_1">
  <g id="patch_1">
   <path d="M 0 288 
L 432 288 
L 432 0 
L 0 0 
z
" style="fill:#ffffff;"/>
  </g>
  <g id="axes_1">
   <g id="patch_2">
    <path d="M 50.8 246.2 
L 417.7 246.2 
L 417.7 14.3 
L 50.8 14.3 
z
" style="fill:#ffffff;"/>
   </g>
   <g id="matplotlib.axis_1">
    <g id="xtick_1">
     <g id="line2d_1">
      <defs>
       <path d="M 0 0 
L 0 3.5 
" id="m964a0af25d" style="stroke:#000000;stroke-width:0.8;"/>
      </defs>
      <g>
       <use style="stroke:#000000;stroke-width:0.8;" x="67.41055" xlink:href="#m964a0af25d" y="246.2"/>
      </g>
     </g>
     <g id="text_1">
      <!-- 0 -->
      <defs>
       <path d="M 31.78125 66.40625 
Q 24.171875 66.40625 20.328125 58.90625 
Q 16.5 51.421875 16.5 36.375 
Q 16.5 21.390625 20.328125 13.890625 
Q 24.171875 6.390625 31.78125 6.390625 
Q 39.453125 6.390625 43.28125 13.890625 
Q 47.125 21.390625 47.125 36.375 
Q 47.125 51.421875 43.28125 58.90625 
Q 39.453125 66.40625 31.78125 66.40625 
z
M 31.78125 74.21875 
Q 44.046875 74.21875 50.515625 64.515625 
Q 56.984375 54.828125 56.984375 36.375 
Q 56.984375 17.96875 50.515625 8.265625 
Q 44.046875 -1.421875 31.78125 -1.421875 
Q 19.53125 -1.421875 13.0625 8.265625 
Q 6.59375 17.96875 6.59375 36.375 
Q 6.59375 54.828125 13.0625 64.515625 
Q 19.53125 74.21875 31.78125 74.21875 
z
" id="DejaVuSans-30"/>
      </defs>
      <g transform="translate(64.2293 260.798437)scale(0.1 -0.1)">
       <use xlink:href="#DejaVuSans-30"/>
      </g>
     </g>
    </g>
    <g id="xtick_2">
     <g id="line2d_2">
      <g>
       <use style="stroke:#000000;stroke-width:0.8;" x="134.132986" xlink:href="#m964a0af25d" y="246.2"/>
      </g>
     </g>
     <g id="text_2">
      <!-- 1000 -->
      <defs>
       <path d="M 12.40625 8.296875 
L 28.515625 8.296875 
L 28.515625 63.921875 
L 10.984375 60.40625 
L 10.984375 69.390625 
L 28.421875 72.90625 
L 38.28125 72.90625 
L 38.28125 8.296875 
L 54.390625 8.296875 
L 54.390625 0 
L 12.40625 0 
z
" id="DejaVuSans-31"/>
      </defs>
      <g transform="translate(121.407986 260.798437)scale(0.1 -0.1)">
       <use xlink:href="#DejaVuSans-31"/>
       <use x="63.623047" xlink:href="#DejaVuSans-30"/>
       <use x="127.246094" xlink:href="#DejaVuSans-30"/>
       <use x="190.869141" xlink:href="#DejaVuSans-30"/>
      </g>
     </g>
    </g>
    <g id="xtick_3">
     <g id="line2d_3">
      <g>
       <use style="stroke:#000000;stroke-width:0.8;" x="200.855421" xlink:href="#m964a0af25d" y="246.2"/>
      </g>
     </g>
     <g id="text_3">
      <!-- 2000 -->
      <defs>
       <path d="M 19.1875 8.296875 
L 53.609375 8.296875 
L 53.609375 0 
L 7.328125 0 
L 7.328125 8.296875 
Q 12.9375 14.109375 22.625 23.890625 
Q 32.328125 33.6875 34.8125 36.53125 
Q 39.546875 41.84375 41.421875 45.53125 
Q 43.3125 49.21875 43.3125 52.78125 
Q 43.3125 58.59375 39.234375 62.25 
Q 35.15625 65.921875 28.609375 65.921875 
Q 23.96875 65.921875 18.8125 64.3125 
Q 13.671875 62.703125 7.8125 59.421875 
L 7.8125 69.390625 
Q 13.765625 71.78125 18.9375 73 
Q 24.125 74.21875 28.421875 74.21875 
Q 39.75 74.21875 46.484375 68.546875 
Q 53.21875 62.890625 53.21875 53.421875 
Q 53.21875 48.921875 51.53125 44.890625 
Q 49.859375 40.875 45.40625 35.40625 
Q 44.1875 33.984375 37.640625 27.21875 
Q 31.109375 20.453125 19.1875 8.296875 
z
" id="DejaVuSans-32"/>
      </defs>
      <g transform="translate(188.130421 260.798437)scale(0.1 -0.1)">
       <use xlink:href="#DejaVuSans-32"/>
       <use x="63.623047" xlink:href="#DejaVuSans-30"/>
       <use x="127.246094" xlink:href="#DejaVuSans-30"/>
       <use x="190.869141" xlink:href="#DejaVuSans-30"/>
      </g>
     </g>
    </g>
    <g id="xtick_4">
     <g id="line2d_4">
      <g>
       <use style="stroke:#000000;stroke-width:0.8;" x="267.577856" xlink:href="#m964a0af25d" y="246.2"/>
      </g>
     </g>
     <g id="text_4">
      <!-- 3000 -->
      <defs>
       <path d="M 40.578125 39.3125 
Q 47.65625 37.796875 51.625 33 
Q 55.609375 28.21875 55.609375 21.1875 
Q 55.609375 10.40625 48.1875 4.484375 
Q 40.765625 -1.421875 27.09375 -1.421875 
Q 22.515625 -1.421875 17.65625 -0.515625 
Q 12.796875 0.390625 7.625 2.203125 
L 7.625 11.71875 
Q 11.71875 9.328125 16.59375 8.109375 
Q 21.484375 6.890625 26.8125 6.890625 
Q 36.078125 6.890625 40.9375 10.546875 
Q 45.796875 14.203125 45.796875 21.1875 
Q 45.796875 27.640625 41.28125 31.265625 
Q 36.765625 34.90625 28.71875 34.90625 
L 20.21875 34.90625 
L 20.21875 43.015625 
L 29.109375 43.015625 
Q 36.375 43.015625 40.234375 45.921875 
Q 44.09375 48.828125 44.09375 54.296875 
Q 44.09375 59.90625 40.109375 62.90625 
Q 36.140625 65.921875 28.71875 65.921875 
Q 24.65625 65.921875 20.015625 65.03125 
Q 15.375 64.15625 9.8125 62.3125 
L 9.8125 71.09375 
Q 15.4375 72.65625 20.34375 73.4375 
Q 25.25 74.21875 29.59375 74.21875 
Q 40.828125 74.21875 47.359375 69.109375 
Q 53.90625 64.015625 53.90625 55.328125 
Q 53.90625 49.265625 50.4375 45.09375 
Q 46.96875 40.921875 40.578125 39.3125 
z
" id="DejaVuSans-33"/>
      </defs>
      <g transform="translate(254.852856 260.798437)scale(0.1 -0.1)">
       <use xlink:href="#DejaVuSans-33"/>
       <use x="63.623047" xlink:href="#DejaVuSans-30"/>
       <use x="127.246094" xlink:href="#DejaVuSans-30"/>
       <use x="190.869141" xlink:href="#DejaVuSans-30"/>
      </g>
     </g>
    </g>
    <g id="xtick_5">
     <g id="line2d_5">
      <g>
       <use style="stroke:#000000;stroke-width:0.8;" x="334.300292" xlink:href="#m964a0af25d" y="246.2"/>
      </g>
     </g>
     <g id="text_5">
      <!-- 4000 -->
      <defs>
       <path d="M 37.796875 64.3125 
L 12.890625 25.390625 
L 37.796875 25.390625 
z
M 35.203125 72.90625 
L 47.609375 72.90625 
L 47.609375 25.390625 
L 58.015625 25.390625 
L 58.015625 17.1875 
L 47.609375 17.1875 
L 47.609375 0 
L 37.796875 0 
L 37.796875 17.1875 
L 4.890625 17.1875 
L 4.890625 26.703125 
z
" id="DejaVuSans-34"/>
      </defs>
      <g transform="translate(321.575292 260.798437)scale(0.1 -0.1)">
       <use xlink:href="#DejaVuSans-34"/>
       <use x="63.623047" xlink:href="#DejaVuSans-30"/>
       <use x="127.246094" xlink:href="#DejaVuSans-30"/>
       <use x="190.869141" xlink:href="#DejaVuSans-30"/>
      </g>
     </g>
    </g>
    <g id="xtick_6">
     <g id="line2d_6">
      <g>
       <use style="stroke:#000000;stroke-width:0.8;" x="401.022727" xlink:href="#m964a0af25d" y="246.2"/>
      </g>
     </g>
     <g id="text_6">
      <!-- 5000 -->
      <defs>
       <path d="M 10.796875 72.90625 
L 49.515625 72.90625 
L 49.515625 64.59375 
L 19.828125 64.59375 
L 19.828125 46.734375 
Q 21.96875 47.46875 24.109375 47.828125 
Q 26.265625 48.1875 28.421875 48.1875 
Q 40.625 48.1875 47.75 41.5 
Q 54.890625 34.8125 54.890625 23.390625 
Q 54.890625 11.625 47.5625 5.09375 
Q 40.234375 -1.421875 26.90625 -1.421875 
Q 22.3125 -1.421875 17.546875 -0.640625 
Q 12.796875 0.140625 7.71875 1.703125 
L 7.71875 11.625 
Q 12.109375 9.234375 16.796875 8.0625 
Q 21.484375 6.890625 26.703125 6.890625 
Q 35.15625 6.890625 40.078125 11.328125 
Q 45.015625 15.765625 45.015625 23.390625 
Q 45.015625 31 40.078125 35.4375 
Q 35.15625 39.890625 26.703125 39.890625 
Q 22.75 39.890625 18.8125 39.015625 
Q 14.890625 38.140625 10.796875 36.28125 
z
" id="DejaVuSans-35"/>
      </defs>
      <g transform="translate(388.297727 260.798437)scale(0.1 -0.1)">
       <use xlink:href="#DejaVuSans-35"/>
       <use x="63.623047" xlink:href="#DejaVuSans-30"/>
       <use x="127.246094" xlink:href="#DejaVuSans-30"/>
       <use x="190.869141" xlink:href="#DejaVuSans-30"/>
      </g>
     </g>
    </g>
    <g id="text_7">
     <!-- Rounds -->
     <defs>
      <path d="M 44.390625 34.1875 
Q 47.5625 33.109375 50.5625 29.59375 
Q 53.5625 26.078125 56.59375 19.921875 
L 66.609375 0 
L 56 0 
L 46.6875 18.703125 
Q 43.0625 26.03125 39.671875 28.421875 
Q 36.28125 30.8125 30.421875 30.8125 
L 19.671875 30.8125 
L 19.671875 0 
L 9.8125 0 
L 9.8125 72.90625 
L 32.078125 72.90625 
Q 44.578125 72.90625 50.734375 67.671875 
Q 56.890625 62.453125 56.890625 51.90625 
Q 56.890625 45.015625 53.6875 40.46875 
Q 50.484375 35.9375 44.390625 34.1875 
z
M 19.671875 64.796875 
L 19.671875 38.921875 
L 32.078125 38.921875 
Q 39.203125 38.921875 42.84375 42.21875 
Q 46.484375 45.515625 46.484375 51.90625 
Q 46.484375 58.296875 42.84375 61.546875 
Q 39.203125 64.796875 32.078125 64.796875 
z
" id="DejaVuSans-52"/>
      <path d="M 30.609375 48.390625 
Q 23.390625 48.390625 19.1875 42.75 
Q 14.984375 37.109375 14.984375 27.296875 
Q 14.984375 17.484375 19.15625 11.84375 
Q 23.34375 6.203125 30.609375 6.203125 
Q 37.796875 6.203125 41.984375 11.859375 
Q 46.1875 17.53125 46.1875 27.296875 
Q 46.1875 37.015625 41.984375 42.703125 
Q 37.796875 48.390625 30.609375 48.390625 
z
M 30.609375 56 
Q 42.328125 56 49.015625 48.375 
Q 55.71875 40.765625 55.71875 27.296875 
Q 55.71875 13.875 49.015625 6.21875 
Q 42.328125 -1.421875 30.609375 -1.421875 
Q 18.84375 -1.421875 12.171875 6.21875 
Q 5.515625 13.875 5.515625 27.296875 
Q 5.515625 40.765625 12.171875 48.375 
Q 18.84375 56 30.609375 56 
z
" id="DejaVuSans-6f"/>
      <path d="M 8.5 21.578125 
L 8.5 54.6875 
L 17.484375 54.6875 
L 17.484375 21.921875 
Q 17.484375 14.15625 20.5 10.265625 
Q 23.53125 6.390625 29.59375 6.390625 
Q 36.859375 6.390625 41.078125 11.03125 
Q 45.3125 15.671875 45.3125 23.6875 
L 45.3125 54.6875 
L 54.296875 54.6875 
L 54.296875 0 
L 45.3125 0 
L 45.3125 8.40625 
Q 42.046875 3.421875 37.71875 1 
Q 33.40625 -1.421875 27.6875 -1.421875 
Q 18.265625 -1.421875 13.375 4.4375 
Q 8.5 10.296875 8.5 21.578125 
z
M 31.109375 56 
z
" id="DejaVuSans-75"/>
      <path d="M 54.890625 33.015625 
L 54.890625 0 
L 45.90625 0 
L 45.90625 32.71875 
Q 45.90625 40.484375 42.875 44.328125 
Q 39.84375 48.1875 33.796875 48.1875 
Q 26.515625 48.1875 22.3125 43.546875 
Q 18.109375 38.921875 18.109375 30.90625 
L 18.109375 0 
L 9.078125 0 
L 9.078125 54.6875 
L 18.109375 54.6875 
L 18.109375 46.1875 
Q 21.34375 51.125 25.703125 53.5625 
Q 30.078125 56 35.796875 56 
Q 45.21875 56 50.046875 50.171875 
Q 54.890625 44.34375 54.890625 33.015625 
z
" id="DejaVuSans-6e"/>
      <path d="M 45.40625 46.390625 
L 45.40625 75.984375 
L 54.390625 75.984375 
L 54.390625 0 
L 45.40625 0 
L 45.40625 8.203125 
Q 42.578125 3.328125 38.25 0.953125 
Q 33.9375 -1.421875 27.875 -1.421875 
Q 17.96875 -1.421875 11.734375 6.484375 
Q 5.515625 14.40625 5.515625 27.296875 
Q 5.515625 40.1875 11.734375 48.09375 
Q 17.96875 56 27.875 56 
Q 33.9375 56 38.25 53.625 
Q 42.578125 51.265625 45.40625 46.390625 
z
M 14.796875 27.296875 
Q 14.796875 17.390625 18.875 11.75 
Q 22.953125 6.109375 30.078125 6.109375 
Q 37.203125 6.109375 41.296875 11.75 
Q 45.40625 17.390625 45.40625 27.296875 
Q 45.40625 37.203125 41.296875 42.84375 
Q 37.203125 48.484375 30.078125 48.484375 
Q 22.953125 48.484375 18.875 42.84375 
Q 14.796875 37.203125 14.796875 27.296875 
z
" id="DejaVuSans-64"/>
      <path d="M 44.28125 53.078125 
L 44.28125 44.578125 
Q 40.484375 46.53125 36.375 47.5 
Q 32.28125 48.484375 27.875 48.484375 
Q 21.1875 48.484375 17.84375 46.4375 
Q 14.5 44.390625 14.5 40.28125 
Q 14.5 37.15625 16.890625 35.375 
Q 19.28125 33.59375 26.515625 31.984375 
L 29.59375 31.296875 
Q 39.15625 29.25 43.1875 25.515625 
Q 47.21875 21.78125 47.21875 15.09375 
Q 47.21875 7.46875 41.1875 3.015625 
Q 35.15625 -1.421875 24.609375 -1.421875 
Q 20.21875 -1.421875 15.453125 -0.5625 
Q 10.6875 0.296875 5.421875 2 
L 5.421875 11.28125 
Q 10.40625 8.6875 15.234375 7.390625 
Q 20.0625 6.109375 24.8125 6.109375 
Q 31.15625 6.109375 34.5625 8.28125 
Q 37.984375 10.453125 37.984375 14.40625 
Q 37.984375 18.0625 35.515625 20.015625 
Q 33.0625 21.96875 24.703125 23.78125 
L 21.578125 24.515625 
Q 13.234375 26.265625 9.515625 29.90625 
Q 5.8125 33.546875 5.8125 39.890625 
Q 5.8125 47.609375 11.28125 51.796875 
Q 16.75 56 26.8125 56 
Q 31.78125 56 36.171875 55.265625 
Q 40.578125 54.546875 44.28125 53.078125 
z
" id="DejaVuSans-73"/>
     </defs>
     <g transform="translate(215.603125 274.476562)scale(0.1 -0.1)">
      <use xlink:href="#DejaVuSans-52"/>
      <use x="69.419922" xlink:href="#DejaVuSans-6f"/>
      <use x="130.601562" xlink:href="#DejaVuSans-75"/>
      <use x="193.980469" xlink:href="#DejaVuSans-6e"/>
      <use x="257.359375" xlink:href="#DejaVuSans-64"/>
      <use x="320.835938" xlink:href="#DejaVuSans-73"/>
     </g>
    </g>
   </g>
   <g id="matplotlib.axis_2">
    <g id="ytick_1">
     <g id="line2d_7">
      <defs>
       <path d="M 0 0 
L -3.5 0 
" id="m2e1461bd53" style="stroke:#000000;stroke-width:0.8;"/>
      </defs>
      <g>
       <use style="stroke:#000000;stroke-width:0.8;" x="50.8" xlink:href="#m2e1461bd53" y="235.659091"/>
      </g>
     </g>
     <g id="text_8">
      <!-- 0 -->
      <g transform="translate(37.4375 239.45831)scale(0.1 -0.1)">
       <use xlink:href="#DejaVuSans-30"/>
      </g>
     </g>
    </g>
    <g id="ytick_2">
     <g id="line2d_8">
      <g>
       <use style="stroke:#000000;stroke-width:0.8;" x="50.8" xlink:href="#m2e1461bd53" y="200.120798"/>
      </g>
     </g>
     <g id="text_9">
      <!-- 50 -->
      <g transform="translate(31.075 203.920017)scale(0.1 -0.1)">
       <use xlink:href="#DejaVuSans-35"/>
       <use x="63.623047" xlink:href="#DejaVuSans-30"/>
      </g>
     </g>
    </g>
    <g id="ytick_3">
     <g id="line2d_9">
      <g>
       <use style="stroke:#000000;stroke-width:0.8;" x="50.8" xlink:href="#m2e1461bd53" y="164.582506"/>
      </g>
     </g>
     <g id="text_10">
      <!-- 100 -->
      <g transform="translate(24.7125 168.381725)scale(0.1 -0.1)">
       <use xlink:href="#DejaVuSans-31"/>
       <use x="63.623047" xlink:href="#DejaVuSans-30"/>
       <use x="127.246094" xlink:href="#DejaVuSans-30"/>
      </g>
     </g>
    </g>
    <g id="ytick_4">
     <g id="line2d_10">
      <g>
       <use style="stroke:#000000;stroke-width:0.8;" x="50.8" xlink:href="#m2e1461bd53" y="129.044213"/>
      </g>
     </g>
     <g id="text_11">
      <!-- 150 -->
      <g transform="translate(24.7125 132.843432)scale(0.1 -0.1)">
       <use xlink:href="#DejaVuSans-31"/>
       <use x="63.623047" xlink:href="#DejaVuSans-35"/>
       <use x="127.246094" xlink:href="#DejaVuSans-30"/>
      </g>
     </g>
    </g>
    <g id="ytick_5">
     <g id="line2d_11">
      <g>
       <use style="stroke:#000000;stroke-width:0.8;" x="50.8" xlink:href="#m2e1461bd53" y="93.505921"/>
      </g>
     </g>
     <g id="text_12">
      <!-- 200 -->
      <g transform="translate(24.7125 97.30514)scale(0.1 -0.1)">
       <use xlink:href="#DejaVuSans-32"/>
       <use x="63.623047" xlink:href="#DejaVuSans-30"/>
       <use x="127.246094" xlink:href="#DejaVuSans-30"/>
      </g>
     </g>
    </g>
    <g id="ytick_6">
     <g id="line2d_12">
      <g>
       <use style="stroke:#000000;stroke-width:0.8;" x="50.8" xlink:href="#m2e1461bd53" y="57.967629"/>
      </g>
     </g>
     <g id="text_13">
      <!-- 250 -->
      <g transform="translate(24.7125 61.766847)scale(0.1 -0.1)">
       <use xlink:href="#DejaVuSans-32"/>
       <use x="63.623047" xlink:href="#DejaVuSans-35"/>
       <use x="127.246094" xlink:href="#DejaVuSans-30"/>
      </g>
     </g>
    </g>
    <g id="ytick_7">
     <g id="line2d_13">
      <g>
       <use style="stroke:#000000;stroke-width:0.8;" x="50.8" xlink:href="#m2e1461bd53" y="22.429336"/>
      </g>
     </g>
     <g id="text_14">
      <!-- 300 -->
      <g transform="translate(24.7125 26.228555)scale(0.1 -0.1)">
       <use xlink:href="#DejaVuSans-33"/>
       <use x="63.623047" xlink:href="#DejaVuSans-30"/>
       <use x="127.246094" xlink:href="#DejaVuSans-30"/>
      </g>
     </g>
    </g>
    <g id="text_15">
     <!-- Estimated expected cumulative Regret -->
     <defs>
      <path d="M 9.8125 72.90625 
L 55.90625 72.90625 
L 55.90625 64.59375 
L 19.671875 64.59375 
L 19.671875 43.015625 
L 54.390625 43.015625 
L 54.390625 34.71875 
L 19.671875 34.71875 
L 19.671875 8.296875 
L 56.78125 8.296875 
L 56.78125 0 
L 9.8125 0 
z
" id="DejaVuSans-45"/>
      <path d="M 18.3125 70.21875 
L 18.3125 54.6875 
L 36.8125 54.6875 
L 36.8125 47.703125 
L 18.3125 47.703125 
L 18.3125 18.015625 
Q 18.3125 11.328125 20.140625 9.421875 
Q 21.96875 7.515625 27.59375 7.515625 
L 36.8125 7.515625 
L 36.8125 0 
L 27.59375 0 
Q 17.1875 0 13.234375 3.875 
Q 9.28125 7.765625 9.28125 18.015625 
L 9.28125 47.703125 
L 2.6875 47.703125 
L 2.6875 54.6875 
L 9.28125 54.6875 
L 9.28125 70.21875 
z
" id="DejaVuSans-74"/>
      <path d="M 9.421875 54.6875 
L 18.40625 54.6875 
L 18.40625 0 
L 9.421875 0 
z
M 9.421875 75.984375 
L 18.40625 75.984375 
L 18.40625 64.59375 
L 9.421875 64.59375 
z
" id="DejaVuSans-69"/>
      <path d="M 52 44.1875 
Q 55.375 50.25 60.0625 53.125 
Q 64.75 56 71.09375 56 
Q 79.640625 56 84.28125 50.015625 
Q 88.921875 44.046875 88.921875 33.015625 
L 88.921875 0 
L 79.890625 0 
L 79.890625 32.71875 
Q 79.890625 40.578125 77.09375 44.375 
Q 74.3125 48.1875 68.609375 48.1875 
Q 61.625 48.1875 57.5625 43.546875 
Q 53.515625 38.921875 53.515625 30.90625 
L 53.515625 0 
L 44.484375 0 
L 44.484375 32.71875 
Q 44.484375 40.625 41.703125 44.40625 
Q 38.921875 48.1875 33.109375 48.1875 
Q 26.21875 48.1875 22.15625 43.53125 
Q 18.109375 38.875 18.109375 30.90625 
L 18.109375 0 
L 9.078125 0 
L 9.078125 54.6875 
L 18.109375 54.6875 
L 18.109375 46.1875 
Q 21.1875 51.21875 25.484375 53.609375 
Q 29.78125 56 35.6875 56 
Q 41.65625 56 45.828125 52.96875 
Q 50 49.953125 52 44.1875 
z
" id="DejaVuSans-6d"/>
      <path d="M 34.28125 27.484375 
Q 23.390625 27.484375 19.1875 25 
Q 14.984375 22.515625 14.984375 16.5 
Q 14.984375 11.71875 18.140625 8.90625 
Q 21.296875 6.109375 26.703125 6.109375 
Q 34.1875 6.109375 38.703125 11.40625 
Q 43.21875 16.703125 43.21875 25.484375 
L 43.21875 27.484375 
z
M 52.203125 31.203125 
L 52.203125 0 
L 43.21875 0 
L 43.21875 8.296875 
Q 40.140625 3.328125 35.546875 0.953125 
Q 30.953125 -1.421875 24.3125 -1.421875 
Q 15.921875 -1.421875 10.953125 3.296875 
Q 6 8.015625 6 15.921875 
Q 6 25.140625 12.171875 29.828125 
Q 18.359375 34.515625 30.609375 34.515625 
L 43.21875 34.515625 
L 43.21875 35.40625 
Q 43.21875 41.609375 39.140625 45 
Q 35.0625 48.390625 27.6875 48.390625 
Q 23 48.390625 18.546875 47.265625 
Q 14.109375 46.140625 10.015625 43.890625 
L 10.015625 52.203125 
Q 14.9375 54.109375 19.578125 55.046875 
Q 24.21875 56 28.609375 56 
Q 40.484375 56 46.34375 49.84375 
Q 52.203125 43.703125 52.203125 31.203125 
z
" id="DejaVuSans-61"/>
      <path d="M 56.203125 29.59375 
L 56.203125 25.203125 
L 14.890625 25.203125 
Q 15.484375 15.921875 20.484375 11.0625 
Q 25.484375 6.203125 34.421875 6.203125 
Q 39.59375 6.203125 44.453125 7.46875 
Q 49.3125 8.734375 54.109375 11.28125 
L 54.109375 2.78125 
Q 49.265625 0.734375 44.1875 -0.34375 
Q 39.109375 -1.421875 33.890625 -1.421875 
Q 20.796875 -1.421875 13.15625 6.1875 
Q 5.515625 13.8125 5.515625 26.8125 
Q 5.515625 40.234375 12.765625 48.109375 
Q 20.015625 56 32.328125 56 
Q 43.359375 56 49.78125 48.890625 
Q 56.203125 41.796875 56.203125 29.59375 
z
M 47.21875 32.234375 
Q 47.125 39.59375 43.09375 43.984375 
Q 39.0625 48.390625 32.421875 48.390625 
Q 24.90625 48.390625 20.390625 44.140625 
Q 15.875 39.890625 15.1875 32.171875 
z
" id="DejaVuSans-65"/>
      <path id="DejaVuSans-20"/>
      <path d="M 54.890625 54.6875 
L 35.109375 28.078125 
L 55.90625 0 
L 45.3125 0 
L 29.390625 21.484375 
L 13.484375 0 
L 2.875 0 
L 24.125 28.609375 
L 4.6875 54.6875 
L 15.28125 54.6875 
L 29.78125 35.203125 
L 44.28125 54.6875 
z
" id="DejaVuSans-78"/>
      <path d="M 18.109375 8.203125 
L 18.109375 -20.796875 
L 9.078125 -20.796875 
L 9.078125 54.6875 
L 18.109375 54.6875 
L 18.109375 46.390625 
Q 20.953125 51.265625 25.265625 53.625 
Q 29.59375 56 35.59375 56 
Q 45.5625 56 51.78125 48.09375 
Q 58.015625 40.1875 58.015625 27.296875 
Q 58.015625 14.40625 51.78125 6.484375 
Q 45.5625 -1.421875 35.59375 -1.421875 
Q 29.59375 -1.421875 25.265625 0.953125 
Q 20.953125 3.328125 18.109375 8.203125 
z
M 48.6875 27.296875 
Q 48.6875 37.203125 44.609375 42.84375 
Q 40.53125 48.484375 33.40625 48.484375 
Q 26.265625 48.484375 22.1875 42.84375 
Q 18.109375 37.203125 18.109375 27.296875 
Q 18.109375 17.390625 22.1875 11.75 
Q 26.265625 6.109375 33.40625 6.109375 
Q 40.53125 6.109375 44.609375 11.75 
Q 48.6875 17.390625 48.6875 27.296875 
z
" id="DejaVuSans-70"/>
      <path d="M 48.78125 52.59375 
L 48.78125 44.1875 
Q 44.96875 46.296875 41.140625 47.34375 
Q 37.3125 48.390625 33.40625 48.390625 
Q 24.65625 48.390625 19.8125 42.84375 
Q 14.984375 37.3125 14.984375 27.296875 
Q 14.984375 17.28125 19.8125 11.734375 
Q 24.65625 6.203125 33.40625 6.203125 
Q 37.3125 6.203125 41.140625 7.25 
Q 44.96875 8.296875 48.78125 10.40625 
L 48.78125 2.09375 
Q 45.015625 0.34375 40.984375 -0.53125 
Q 36.96875 -1.421875 32.421875 -1.421875 
Q 20.0625 -1.421875 12.78125 6.34375 
Q 5.515625 14.109375 5.515625 27.296875 
Q 5.515625 40.671875 12.859375 48.328125 
Q 20.21875 56 33.015625 56 
Q 37.15625 56 41.109375 55.140625 
Q 45.0625 54.296875 48.78125 52.59375 
z
" id="DejaVuSans-63"/>
      <path d="M 9.421875 75.984375 
L 18.40625 75.984375 
L 18.40625 0 
L 9.421875 0 
z
" id="DejaVuSans-6c"/>
      <path d="M 2.984375 54.6875 
L 12.5 54.6875 
L 29.59375 8.796875 
L 46.6875 54.6875 
L 56.203125 54.6875 
L 35.6875 0 
L 23.484375 0 
z
" id="DejaVuSans-76"/>
      <path d="M 45.40625 27.984375 
Q 45.40625 37.75 41.375 43.109375 
Q 37.359375 48.484375 30.078125 48.484375 
Q 22.859375 48.484375 18.828125 43.109375 
Q 14.796875 37.75 14.796875 27.984375 
Q 14.796875 18.265625 18.828125 12.890625 
Q 22.859375 7.515625 30.078125 7.515625 
Q 37.359375 7.515625 41.375 12.890625 
Q 45.40625 18.265625 45.40625 27.984375 
z
M 54.390625 6.78125 
Q 54.390625 -7.171875 48.1875 -13.984375 
Q 42 -20.796875 29.203125 -20.796875 
Q 24.46875 -20.796875 20.265625 -20.09375 
Q 16.0625 -19.390625 12.109375 -17.921875 
L 12.109375 -9.1875 
Q 16.0625 -11.328125 19.921875 -12.34375 
Q 23.78125 -13.375 27.78125 -13.375 
Q 36.625 -13.375 41.015625 -8.765625 
Q 45.40625 -4.15625 45.40625 5.171875 
L 45.40625 9.625 
Q 42.625 4.78125 38.28125 2.390625 
Q 33.9375 0 27.875 0 
Q 17.828125 0 11.671875 7.65625 
Q 5.515625 15.328125 5.515625 27.984375 
Q 5.515625 40.671875 11.671875 48.328125 
Q 17.828125 56 27.875 56 
Q 33.9375 56 38.28125 53.609375 
Q 42.625 51.21875 45.40625 46.390625 
L 45.40625 54.6875 
L 54.390625 54.6875 
z
" id="DejaVuSans-67"/>
      <path d="M 41.109375 46.296875 
Q 39.59375 47.171875 37.8125 47.578125 
Q 36.03125 48 33.890625 48 
Q 26.265625 48 22.1875 43.046875 
Q 18.109375 38.09375 18.109375 28.8125 
L 18.109375 0 
L 9.078125 0 
L 9.078125 54.6875 
L 18.109375 54.6875 
L 18.109375 46.1875 
Q 20.953125 51.171875 25.484375 53.578125 
Q 30.03125 56 36.53125 56 
Q 37.453125 56 38.578125 55.875 
Q 39.703125 55.765625 41.0625 55.515625 
z
" id="DejaVuSans-72"/>
     </defs>
     <g transform="translate(18.632813 228.129687)rotate(-90)scale(0.1 -0.1)">
      <use xlink:href="#DejaVuSans-45"/>
      <use x="63.183594" xlink:href="#DejaVuSans-73"/>
      <use x="115.283203" xlink:href="#DejaVuSans-74"/>
      <use x="154.492188" xlink:href="#DejaVuSans-69"/>
      <use x="182.275391" xlink:href="#DejaVuSans-6d"/>
      <use x="279.6875" xlink:href="#DejaVuSans-61"/>
      <use x="340.966797" xlink:href="#DejaVuSans-74"/>
      <use x="380.175781" xlink:href="#DejaVuSans-65"/>
      <use x="441.699219" xlink:href="#DejaVuSans-64"/>
      <use x="505.175781" xlink:href="#DejaVuSans-20"/>
      <use x="536.962891" xlink:href="#DejaVuSans-65"/>
      <use x="598.470703" xlink:href="#DejaVuSans-78"/>
      <use x="657.650391" xlink:href="#DejaVuSans-70"/>
      <use x="721.126953" xlink:href="#DejaVuSans-65"/>
      <use x="782.650391" xlink:href="#DejaVuSans-63"/>
      <use x="837.630859" xlink:href="#DejaVuSans-74"/>
      <use x="876.839844" xlink:href="#DejaVuSans-65"/>
      <use x="938.363281" xlink:href="#DejaVuSans-64"/>
      <use x="1001.839844" xlink:href="#DejaVuSans-20"/>
      <use x="1033.626953" xlink:href="#DejaVuSans-63"/>
      <use x="1088.607422" xlink:href="#DejaVuSans-75"/>
      <use x="1151.986328" xlink:href="#DejaVuSans-6d"/>
      <use x="1249.398438" xlink:href="#DejaVuSans-75"/>
      <use x="1312.777344" xlink:href="#DejaVuSans-6c"/>
      <use x="1340.560547" xlink:href="#DejaVuSans-61"/>
      <use x="1401.839844" xlink:href="#DejaVuSans-74"/>
      <use x="1441.048828" xlink:href="#DejaVuSans-69"/>
      <use x="1468.832031" xlink:href="#DejaVuSans-76"/>
      <use x="1528.011719" xlink:href="#DejaVuSans-65"/>
      <use x="1589.535156" xlink:href="#DejaVuSans-20"/>
      <use x="1621.322266" xlink:href="#DejaVuSans-52"/>
      <use x="1690.742188" xlink:href="#DejaVuSans-65"/>
      <use x="1752.265625" xlink:href="#DejaVuSans-67"/>
      <use x="1815.742188" xlink:href="#DejaVuSans-72"/>
      <use x="1856.824219" xlink:href="#DejaVuSans-65"/>
      <use x="1918.347656" xlink:href="#DejaVuSans-74"/>
     </g>
    </g>
   </g>
   <g id="line2d_14">
    <path clip-path="url(#pfa8f659556)" d="M 67.477273 235.523335 
L 67.610718 235.076263 
L 67.67744 235.079106 
L 67.877607 234.511915 
L 68.878444 233.615639 
L 69.946003 232.476281 
L 72.081121 231.371041 
L 72.6149 231.156389 
L 74.549851 230.116539 
L 75.150353 229.818017 
L 76.351357 229.422831 
L 76.818414 229.333275 
L 77.152026 229.267174 
L 78.486475 228.862748 
L 78.886809 228.800911 
L 80.955205 228.147717 
L 82.689988 227.733341 
L 83.29049 227.516557 
L 84.424771 227.226565 
L 85.091996 226.972111 
L 88.695007 225.819959 
L 98.303038 224.185909 
L 98.770095 224.166718 
L 100.638323 223.885965 
L 101.572437 223.748788 
L 102.239662 223.712539 
L 103.107053 223.563988 
L 103.507388 223.508549 
L 104.10789 223.425389 
L 104.908559 223.290344 
L 111.447358 222.487889 
L 112.448194 222.384828 
L 114.316422 222.101232 
L 115.784316 221.81124 
L 116.71843 221.68117 
L 118.453213 221.396153 
L 118.720103 221.339291 
L 119.320605 221.272479 
L 120.321442 221.14312 
L 120.855221 221.062093 
L 121.389001 221.008785 
L 121.989502 220.952635 
L 122.523282 220.851706 
L 123.123784 220.793423 
L 124.057898 220.693205 
L 125.725959 220.555317 
L 128.595024 220.118196 
L 130.062917 219.956852 
L 130.730141 219.917049 
L 131.330643 219.813277 
L 131.864423 219.774896 
L 135.33399 219.470688 
L 135.867769 219.415959 
L 138.736834 219.061287 
L 141.138841 218.760633 
L 142.806902 218.639092 
L 144.474963 218.468508 
L 144.94202 218.455714 
L 155.283998 217.771958 
L 155.61761 217.775511 
L 158.419952 217.599241 
L 158.753564 217.569389 
L 160.154735 217.454956 
L 166.02631 216.921882 
L 166.359922 216.893451 
L 167.627648 216.754141 
L 169.095542 216.691593 
L 170.69688 216.545176 
L 172.098051 216.386675 
L 172.431664 216.334789 
L 173.565945 216.2893 
L 174.233169 216.235993 
L 175.90123 216.077492 
L 176.43501 215.984381 
L 176.968789 215.943157 
L 178.169793 215.807401 
L 184.10809 215.387338 
L 184.775314 215.277169 
L 186.510097 215.169844 
L 187.310767 215.127198 
L 190.713611 214.794559 
L 191.24739 214.762575 
L 191.847892 214.646009 
L 192.381672 214.584883 
L 197.586022 214.09019 
L 199.72114 213.838579 
L 200.988866 213.687897 
L 201.322478 213.653069 
L 202.256592 213.577017 
L 202.723649 213.502387 
L 204.258265 213.334646 
L 205.525992 213.215238 
L 206.326661 213.094407 
L 206.927163 213.06882 
L 208.728668 212.918848 
L 209.32917 212.865541 
L 209.996395 212.80939 
L 210.730342 212.804415 
L 212.33168 212.643782 
L 215.33419 212.395014 
L 216.001414 212.365162 
L 217.00225 212.312565 
L 224.94222 211.817161 
L 225.609445 211.815029 
L 229.079011 211.633073 
L 229.812958 211.532855 
L 230.213293 211.525747 
L 231.214129 211.414868 
L 231.814631 211.391413 
L 233.41597 211.334551 
L 233.883027 211.33313 
L 236.818814 211.034608 
L 237.752928 211.031054 
L 240.488548 210.848387 
L 241.422662 210.836304 
L 243.090723 210.761674 
L 243.491057 210.733243 
L 244.291727 210.669274 
L 254.767149 209.980542 
L 255.100761 209.947847 
L 255.834708 209.863977 
L 258.236716 209.636532 
L 258.970662 209.591753 
L 259.637887 209.541289 
L 260.038221 209.497932 
L 269.31264 208.802093 
L 269.779697 208.802803 
L 274.650435 208.42894 
L 275.050769 208.408328 
L 276.71883 208.323036 
L 277.519499 208.230637 
L 279.120838 208.106253 
L 279.521172 208.061475 
L 282.19007 207.957703 
L 282.924017 207.957703 
L 289.195926 207.467274 
L 289.996595 207.39833 
L 292.33188 207.298112 
L 292.932382 207.269681 
L 294.266831 207.224192 
L 297.202618 207.132504 
L 297.669675 207.084171 
L 298.270177 207.040104 
L 298.603789 207.015938 
L 299.938238 207.007409 
L 300.672184 206.938464 
L 306.743926 206.719549 
L 307.41115 206.659844 
L 308.612154 206.568866 
L 309.612991 206.533328 
L 311.080884 206.513426 
L 311.347774 206.494236 
L 312.148443 206.473624 
L 313.216002 206.380513 
L 329.696444 205.576637 
L 330.96417 205.418136 
L 331.831562 205.388284 
L 333.96668 205.262479 
L 334.433737 205.224808 
L 335.034239 205.181451 
L 336.368687 205.065596 
L 337.102634 205.05067 
L 340.772368 204.788398 
L 341.506315 204.730826 
L 342.640596 204.648377 
L 343.908323 204.64198 
L 344.775714 204.597913 
L 346.710665 204.457892 
L 347.311167 204.403873 
L 347.978391 204.365492 
L 349.112673 204.254613 
L 351.181068 204.127386 
L 351.648125 204.11317 
L 353.849965 204.033564 
L 354.2503 204.034275 
L 357.319532 203.867245 
L 357.986756 203.76987 
L 367.528065 203.263094 
L 368.128567 203.217605 
L 370.13024 203.051286 
L 372.33208 202.991582 
L 373.266194 202.913397 
L 374.267031 202.864355 
L 375.000977 202.830238 
L 380.071883 202.506839 
L 382.073556 202.361132 
L 383.00767 202.24741 
L 384.875898 202.087488 
L 385.409677 202.057635 
L 388.412187 201.938937 
L 389.079411 201.905531 
L 389.813358 201.854356 
L 390.280415 201.801049 
L 401.022727 201.085308 
L 401.022727 201.085308 
" style="fill:none;stroke:#1f77b4;stroke-linecap:square;stroke-width:1.5;"/>
   </g>
   <g id="line2d_15">
    <path clip-path="url(#pfa8f659556)" d="M 67.477273 235.477846 
L 67.877607 234.605736 
L 68.878444 233.501917 
L 71.880953 231.791814 
L 72.281288 231.589246 
L 73.415569 231.074651 
L 74.216239 230.837255 
L 75.35052 230.535891 
L 76.151189 230.336165 
L 79.153699 229.606209 
L 79.954368 229.496751 
L 80.621593 229.318349 
L 81.755874 229.110805 
L 82.089486 229.074556 
L 83.490657 228.812994 
L 84.091159 228.731967 
L 84.691661 228.627484 
L 85.49233 228.497414 
L 89.562399 227.913165 
L 90.363068 227.802285 
L 90.96357 227.694249 
L 91.830962 227.578394 
L 92.231296 227.516557 
L 92.831798 227.466093 
L 93.632467 227.365164 
L 94.700026 227.244334 
L 96.101198 227.079436 
L 97.635814 226.9252 
L 98.236315 226.884686 
L 99.103707 226.771675 
L 99.904376 226.688515 
L 102.639996 226.412738 
L 103.173776 226.370803 
L 105.375616 226.199508 
L 107.977791 225.925863 
L 109.245517 225.779446 
L 112.781806 225.369334 
L 114.850202 225.149707 
L 115.917761 225.132649 
L 118.386491 224.870376 
L 119.120438 224.832705 
L 119.72094 224.794324 
L 120.655054 224.723248 
L 126.526628 224.181644 
L 127.260575 224.114121 
L 129.128803 224.009639 
L 129.86275 223.949224 
L 140.871952 223.003194 
L 141.672621 222.994665 
L 142.006233 222.994665 
L 143.674294 222.80418 
L 144.208073 222.765088 
L 145.942857 222.673399 
L 147.744363 222.547593 
L 148.411587 222.47012 
L 150.213093 222.278924 
L 150.746872 222.221352 
L 153.949549 221.91359 
L 154.416606 221.897953 
L 155.8845 221.759354 
L 165.892865 221.123929 
L 167.093869 221.074176 
L 168.22815 220.928469 
L 169.696044 220.862367 
L 170.096378 220.783472 
L 171.630994 220.717371 
L 172.098051 220.748645 
L 172.898721 220.72519 
L 174.433337 220.570953 
L 176.43501 220.358434 
L 177.902903 220.317921 
L 178.503405 220.27101 
L 184.575147 219.845972 
L 185.175649 219.805459 
L 187.644379 219.726564 
L 191.047223 219.502672 
L 191.78117 219.45363 
L 193.515953 219.36123 
L 194.316622 219.357676 
L 194.850402 219.310055 
L 196.785353 219.199175 
L 197.118965 219.188514 
L 197.986356 219.209837 
L 198.386691 219.162216 
L 199.320805 219.10109 
L 200.455086 218.986656 
L 201.055588 218.948986 
L 202.590204 218.805411 
L 202.990539 218.786931 
L 203.457596 218.79546 
L 204.258265 218.701639 
L 204.992212 218.625587 
L 206.526828 218.563751 
L 209.32917 218.4614 
L 209.662783 218.448607 
L 210.730342 218.369001 
L 211.330843 218.343413 
L 214.199908 218.211211 
L 214.666965 218.142267 
L 215.534357 218.125919 
L 216.468471 218.044181 
L 217.469307 217.988741 
L 217.80292 218.027122 
L 219.337536 217.982344 
L 224.274996 217.715096 
L 224.875498 217.712253 
L 225.409277 217.703013 
L 227.344228 217.620564 
L 227.811285 217.582894 
L 228.278342 217.536694 
L 229.012289 217.49547 
L 232.748745 217.405913 
L 233.14908 217.437898 
L 233.949749 217.408756 
L 234.550251 217.388855 
L 235.217475 217.341944 
L 236.018145 217.297166 
L 236.551924 217.301431 
L 237.219148 217.310671 
L 239.621156 217.202634 
L 259.571164 216.037689 
L 260.305111 215.970877 
L 268.044914 215.717844 
L 268.511971 215.643925 
L 269.446085 215.582799 
L 272.381872 215.343981 
L 274.383545 215.262954 
L 275.384381 215.191167 
L 277.786389 215.020583 
L 278.720503 214.936002 
L 279.654617 214.847867 
L 280.722176 214.794559 
L 283.124184 214.692209 
L 284.792245 214.537262 
L 286.593751 214.475426 
L 286.86064 214.478269 
L 287.66131 214.463343 
L 288.929036 214.492484 
L 289.662983 214.468318 
L 289.996595 214.451259 
L 293.666329 214.346777 
L 294.066663 214.326165 
L 295.934892 214.218839 
L 296.869006 214.198938 
L 297.602952 214.125018 
L 301.005797 213.913921 
L 301.673021 213.863456 
L 312.482056 213.375871 
L 312.815668 213.369474 
L 313.282725 213.353837 
L 313.949949 213.364499 
L 314.617173 213.320431 
L 331.564672 212.4931 
L 332.365341 212.470355 
L 335.234406 212.29906 
L 335.968353 212.280581 
L 336.502132 212.274894 
L 337.236079 212.235092 
L 340.905813 212.179652 
L 341.506315 212.142692 
L 342.907486 212.157618 
L 344.10849 212.033234 
L 344.642269 212.017597 
L 345.509661 211.928751 
L 345.909996 211.888949 
L 349.980064 211.69491 
L 350.513844 211.697042 
L 352.04846 211.633073 
L 352.715684 211.665768 
L 353.583076 211.580476 
L 367.061008 211.198795 
L 367.461342 211.18458 
L 370.13024 210.996937 
L 370.797464 210.893876 
L 371.397966 210.896009 
L 371.798301 210.87824 
L 372.732415 210.827064 
L 373.132749 210.808585 
L 373.666529 210.81356 
L 374.734088 210.769492 
L 377.603152 210.701259 
L 378.136932 210.689176 
L 378.804156 210.704813 
L 387.94513 210.323842 
L 388.879244 210.318867 
L 389.146134 210.304652 
L 390.14697 210.254187 
L 390.547305 210.283329 
L 391.948476 210.33095 
L 392.6157 210.315313 
L 393.216202 210.26627 
L 393.616537 210.263427 
L 394.750818 210.183821 
L 395.484765 210.128382 
L 396.819214 210.082893 
L 397.352993 210.045933 
L 400.956005 209.883167 
L 401.022727 209.900937 
L 401.022727 209.900937 
" style="fill:none;stroke:#ff7f0e;stroke-linecap:square;stroke-width:1.5;"/>
   </g>
   <g id="line2d_16">
    <path clip-path="url(#pfa8f659556)" d="M 67.477273 235.659091 
L 67.67744 201.345433 
L 68.011052 181.273229 
L 68.478109 167.031774 
L 69.078611 155.985244 
L 69.745836 147.656859 
L 70.546505 140.359959 
L 71.480619 133.906444 
L 72.548178 128.140905 
L 73.682459 123.20313 
L 74.950185 118.646446 
L 76.351357 114.427406 
L 77.885973 110.506529 
L 79.554034 106.849141 
L 81.355539 103.425247 
L 83.357212 100.105269 
L 85.49233 96.995041 
L 87.827616 93.988499 
L 90.363068 91.091106 
L 93.098688 88.303981 
L 96.101198 85.567841 
L 99.370597 82.896711 
L 102.906886 80.299157 
L 106.776787 77.737836 
L 110.980301 75.226625 
L 115.584149 72.740329 
L 120.588331 70.294093 
L 126.059571 67.870117 
L 132.06459 65.457292 
L 138.603389 63.072637 
L 145.742689 60.707186 
L 153.615937 58.336564 
L 162.223131 55.980924 
L 171.630994 53.639224 
L 181.972972 51.297393 
L 193.315786 48.960557 
L 205.726159 46.63365 
L 219.337536 44.310372 
L 234.283361 41.987839 
L 250.69708 39.665631 
L 268.712138 37.345036 
L 288.461979 35.028461 
L 310.14677 32.712163 
L 333.96668 30.395134 
L 360.055152 28.083932 
L 388.745799 25.768968 
L 401.022727 24.840909 
L 401.022727 24.840909 
" style="fill:none;stroke:#ff0000;stroke-dasharray:7.5,7.5;stroke-dashoffset:0;stroke-width:1.5;"/>
   </g>
   <g id="patch_3">
    <path d="M 50.8 246.2 
L 50.8 14.3 
" style="fill:none;stroke:#000000;stroke-linecap:square;stroke-linejoin:miter;stroke-width:0.8;"/>
   </g>
   <g id="patch_4">
    <path d="M 417.7 246.2 
L 417.7 14.3 
" style="fill:none;stroke:#000000;stroke-linecap:square;stroke-linejoin:miter;stroke-width:0.8;"/>
   </g>
   <g id="patch_5">
    <path d="M 50.8 246.2 
L 417.7 246.2 
" style="fill:none;stroke:#000000;stroke-linecap:square;stroke-linejoin:miter;stroke-width:0.8;"/>
   </g>
   <g id="patch_6">
    <path d="M 50.8 14.3 
L 417.7 14.3 
" style="fill:none;stroke:#000000;stroke-linecap:square;stroke-linejoin:miter;stroke-width:0.8;"/>
   </g>
   <g id="legend_1">
    <g id="patch_7">
     <path d="M 244.798437 153.767187 
L 410.7 153.767187 
Q 412.7 153.767187 412.7 151.767187 
L 412.7 108.732812 
Q 412.7 106.732812 410.7 106.732812 
L 244.798437 106.732812 
Q 242.798437 106.732812 242.798437 108.732812 
L 242.798437 151.767187 
Q 242.798437 153.767187 244.798437 153.767187 
z
" style="fill:#ffffff;opacity:0.8;stroke:#cccccc;stroke-linejoin:miter;"/>
    </g>
    <g id="line2d_17">
     <path d="M 246.798437 114.83125 
L 266.798437 114.83125 
" style="fill:none;stroke:#1f77b4;stroke-linecap:square;stroke-width:1.5;"/>
    </g>
    <g id="line2d_18"/>
    <g id="text_16">
     <!-- UCB1 -->
     <defs>
      <path d="M 8.6875 72.90625 
L 18.609375 72.90625 
L 18.609375 28.609375 
Q 18.609375 16.890625 22.84375 11.734375 
Q 27.09375 6.59375 36.625 6.59375 
Q 46.09375 6.59375 50.34375 11.734375 
Q 54.59375 16.890625 54.59375 28.609375 
L 54.59375 72.90625 
L 64.5 72.90625 
L 64.5 27.390625 
Q 64.5 13.140625 57.4375 5.859375 
Q 50.390625 -1.421875 36.625 -1.421875 
Q 22.796875 -1.421875 15.734375 5.859375 
Q 8.6875 13.140625 8.6875 27.390625 
z
" id="DejaVuSans-55"/>
      <path d="M 64.40625 67.28125 
L 64.40625 56.890625 
Q 59.421875 61.53125 53.78125 63.8125 
Q 48.140625 66.109375 41.796875 66.109375 
Q 29.296875 66.109375 22.65625 58.46875 
Q 16.015625 50.828125 16.015625 36.375 
Q 16.015625 21.96875 22.65625 14.328125 
Q 29.296875 6.6875 41.796875 6.6875 
Q 48.140625 6.6875 53.78125 8.984375 
Q 59.421875 11.28125 64.40625 15.921875 
L 64.40625 5.609375 
Q 59.234375 2.09375 53.4375 0.328125 
Q 47.65625 -1.421875 41.21875 -1.421875 
Q 24.65625 -1.421875 15.125 8.703125 
Q 5.609375 18.84375 5.609375 36.375 
Q 5.609375 53.953125 15.125 64.078125 
Q 24.65625 74.21875 41.21875 74.21875 
Q 47.75 74.21875 53.53125 72.484375 
Q 59.328125 70.75 64.40625 67.28125 
z
" id="DejaVuSans-43"/>
      <path d="M 19.671875 34.8125 
L 19.671875 8.109375 
L 35.5 8.109375 
Q 43.453125 8.109375 47.28125 11.40625 
Q 51.125 14.703125 51.125 21.484375 
Q 51.125 28.328125 47.28125 31.5625 
Q 43.453125 34.8125 35.5 34.8125 
z
M 19.671875 64.796875 
L 19.671875 42.828125 
L 34.28125 42.828125 
Q 41.5 42.828125 45.03125 45.53125 
Q 48.578125 48.25 48.578125 53.8125 
Q 48.578125 59.328125 45.03125 62.0625 
Q 41.5 64.796875 34.28125 64.796875 
z
M 9.8125 72.90625 
L 35.015625 72.90625 
Q 46.296875 72.90625 52.390625 68.21875 
Q 58.5 63.53125 58.5 54.890625 
Q 58.5 48.1875 55.375 44.234375 
Q 52.25 40.28125 46.1875 39.3125 
Q 53.46875 37.75 57.5 32.78125 
Q 61.53125 27.828125 61.53125 20.40625 
Q 61.53125 10.640625 54.890625 5.3125 
Q 48.25 0 35.984375 0 
L 9.8125 0 
z
" id="DejaVuSans-42"/>
     </defs>
     <g transform="translate(274.798437 118.33125)scale(0.1 -0.1)">
      <use xlink:href="#DejaVuSans-55"/>
      <use x="73.193359" xlink:href="#DejaVuSans-43"/>
      <use x="143.017578" xlink:href="#DejaVuSans-42"/>
      <use x="211.621094" xlink:href="#DejaVuSans-31"/>
     </g>
    </g>
    <g id="line2d_19">
     <path d="M 246.798437 129.509375 
L 266.798437 129.509375 
" style="fill:none;stroke:#ff7f0e;stroke-linecap:square;stroke-width:1.5;"/>
    </g>
    <g id="line2d_20"/>
    <g id="text_17">
     <!-- Thompson -->
     <defs>
      <path d="M -0.296875 72.90625 
L 61.375 72.90625 
L 61.375 64.59375 
L 35.5 64.59375 
L 35.5 0 
L 25.59375 0 
L 25.59375 64.59375 
L -0.296875 64.59375 
z
" id="DejaVuSans-54"/>
      <path d="M 54.890625 33.015625 
L 54.890625 0 
L 45.90625 0 
L 45.90625 32.71875 
Q 45.90625 40.484375 42.875 44.328125 
Q 39.84375 48.1875 33.796875 48.1875 
Q 26.515625 48.1875 22.3125 43.546875 
Q 18.109375 38.921875 18.109375 30.90625 
L 18.109375 0 
L 9.078125 0 
L 9.078125 75.984375 
L 18.109375 75.984375 
L 18.109375 46.1875 
Q 21.34375 51.125 25.703125 53.5625 
Q 30.078125 56 35.796875 56 
Q 45.21875 56 50.046875 50.171875 
Q 54.890625 44.34375 54.890625 33.015625 
z
" id="DejaVuSans-68"/>
     </defs>
     <g transform="translate(274.798437 133.009375)scale(0.1 -0.1)">
      <use xlink:href="#DejaVuSans-54"/>
      <use x="61.083984" xlink:href="#DejaVuSans-68"/>
      <use x="124.462891" xlink:href="#DejaVuSans-6f"/>
      <use x="185.644531" xlink:href="#DejaVuSans-6d"/>
      <use x="283.056641" xlink:href="#DejaVuSans-70"/>
      <use x="346.533203" xlink:href="#DejaVuSans-73"/>
      <use x="398.632812" xlink:href="#DejaVuSans-6f"/>
      <use x="459.814453" xlink:href="#DejaVuSans-6e"/>
     </g>
    </g>
    <g id="line2d_21">
     <path d="M 246.798437 144.1875 
L 266.798437 144.1875 
" style="fill:none;stroke:#ff0000;stroke-dasharray:7.5,7.5;stroke-dashoffset:0;stroke-width:1.5;"/>
    </g>
    <g id="line2d_22"/>
    <g id="text_18">
     <!-- Lai &amp; Robbins lower bound -->
     <defs>
      <path d="M 9.8125 72.90625 
L 19.671875 72.90625 
L 19.671875 8.296875 
L 55.171875 8.296875 
L 55.171875 0 
L 9.8125 0 
z
" id="DejaVuSans-4c"/>
      <path d="M 24.3125 39.203125 
Q 19.875 35.25 17.796875 31.3125 
Q 15.71875 27.390625 15.71875 23.09375 
Q 15.71875 15.96875 20.890625 11.234375 
Q 26.078125 6.5 33.890625 6.5 
Q 38.53125 6.5 42.578125 8.03125 
Q 46.625 9.578125 50.203125 12.703125 
z
M 31.203125 44.671875 
L 56 19.28125 
Q 58.890625 23.640625 60.5 28.59375 
Q 62.109375 33.546875 62.40625 39.109375 
L 71.484375 39.109375 
Q 70.90625 32.671875 68.359375 26.359375 
Q 65.828125 20.0625 61.28125 13.921875 
L 74.90625 0 
L 62.59375 0 
L 55.609375 7.171875 
Q 50.53125 2.828125 44.96875 0.703125 
Q 39.40625 -1.421875 33.015625 -1.421875 
Q 21.234375 -1.421875 13.765625 5.296875 
Q 6.296875 12.015625 6.296875 22.515625 
Q 6.296875 28.765625 9.5625 34.25 
Q 12.84375 39.75 19.390625 44.578125 
Q 17.046875 47.65625 15.8125 50.703125 
Q 14.59375 53.765625 14.59375 56.6875 
Q 14.59375 64.59375 20.015625 69.40625 
Q 25.4375 74.21875 34.421875 74.21875 
Q 38.484375 74.21875 42.5 73.34375 
Q 46.53125 72.46875 50.6875 70.703125 
L 50.6875 61.8125 
Q 46.4375 64.109375 42.578125 65.296875 
Q 38.71875 66.5 35.40625 66.5 
Q 30.28125 66.5 27.078125 63.78125 
Q 23.875 61.078125 23.875 56.78125 
Q 23.875 54.296875 25.3125 51.78125 
Q 26.765625 49.265625 31.203125 44.671875 
z
" id="DejaVuSans-26"/>
      <path d="M 48.6875 27.296875 
Q 48.6875 37.203125 44.609375 42.84375 
Q 40.53125 48.484375 33.40625 48.484375 
Q 26.265625 48.484375 22.1875 42.84375 
Q 18.109375 37.203125 18.109375 27.296875 
Q 18.109375 17.390625 22.1875 11.75 
Q 26.265625 6.109375 33.40625 6.109375 
Q 40.53125 6.109375 44.609375 11.75 
Q 48.6875 17.390625 48.6875 27.296875 
z
M 18.109375 46.390625 
Q 20.953125 51.265625 25.265625 53.625 
Q 29.59375 56 35.59375 56 
Q 45.5625 56 51.78125 48.09375 
Q 58.015625 40.1875 58.015625 27.296875 
Q 58.015625 14.40625 51.78125 6.484375 
Q 45.5625 -1.421875 35.59375 -1.421875 
Q 29.59375 -1.421875 25.265625 0.953125 
Q 20.953125 3.328125 18.109375 8.203125 
L 18.109375 0 
L 9.078125 0 
L 9.078125 75.984375 
L 18.109375 75.984375 
z
" id="DejaVuSans-62"/>
      <path d="M 4.203125 54.6875 
L 13.1875 54.6875 
L 24.421875 12.015625 
L 35.59375 54.6875 
L 46.1875 54.6875 
L 57.421875 12.015625 
L 68.609375 54.6875 
L 77.59375 54.6875 
L 63.28125 0 
L 52.6875 0 
L 40.921875 44.828125 
L 29.109375 0 
L 18.5 0 
z
" id="DejaVuSans-77"/>
     </defs>
     <g transform="translate(274.798437 147.6875)scale(0.1 -0.1)">
      <use xlink:href="#DejaVuSans-4c"/>
      <use x="55.712891" xlink:href="#DejaVuSans-61"/>
      <use x="116.992188" xlink:href="#DejaVuSans-69"/>
      <use x="144.775391" xlink:href="#DejaVuSans-20"/>
      <use x="176.5625" xlink:href="#DejaVuSans-26"/>
      <use x="254.541016" xlink:href="#DejaVuSans-20"/>
      <use x="286.328125" xlink:href="#DejaVuSans-52"/>
      <use x="355.748047" xlink:href="#DejaVuSans-6f"/>
      <use x="416.929688" xlink:href="#DejaVuSans-62"/>
      <use x="480.40625" xlink:href="#DejaVuSans-62"/>
      <use x="543.882812" xlink:href="#DejaVuSans-69"/>
      <use x="571.666016" xlink:href="#DejaVuSans-6e"/>
      <use x="635.044922" xlink:href="#DejaVuSans-73"/>
      <use x="687.144531" xlink:href="#DejaVuSans-20"/>
      <use x="718.931641" xlink:href="#DejaVuSans-6c"/>
      <use x="746.714844" xlink:href="#DejaVuSans-6f"/>
      <use x="807.896484" xlink:href="#DejaVuSans-77"/>
      <use x="889.683594" xlink:href="#DejaVuSans-65"/>
      <use x="951.207031" xlink:href="#DejaVuSans-72"/>
      <use x="992.320312" xlink:href="#DejaVuSans-20"/>
      <use x="1024.107422" xlink:href="#DejaVuSans-62"/>
      <use x="1087.583984" xlink:href="#DejaVuSans-6f"/>
      <use x="1148.765625" xlink:href="#DejaVuSans-75"/>
      <use x="1212.144531" xlink:href="#DejaVuSans-6e"/>
      <use x="1275.523438" xlink:href="#DejaVuSans-64"/>
     </g>
    </g>
   </g>
  </g>
 </g>
 <defs>
  <clipPath id="pfa8f659556">
   <rect height="231.9" width="366.9" x="50.8" y="14.3"/>
  </clipPath>
 </defs>
</svg>
