<?xml version="1.0" encoding="utf-8" standalone="no"?>
<!DOCTYPE svg PUBLIC "-//W3C//DTD SVG 1.1//EN"
  "http://www.w3.org/Graphics/SVG/1.1/DTD/svg11.dtd">
<!-- Created with matplotlib (http://matplotlib.org/) -->
<svg height="288pt" version="1.1" viewBox="0 0 432 288" width="432pt" xmlns="http://www.w3.org/2000/svg" xmlns:xlink="http://www.w3.org/1999/xlink">
 <defs>
  <style type="text/css">
*{stroke-linecap:butt;stroke-linejoin:round;}
  </style>
 </defs>
 <g id="figure_1">
  <g id="patch_1">
   <path d="M 0 288 
L 432 288 
L 432 0 
L 0 0 
z
" style="fill:#ffffff;"/>
  </g>
  <g id="axes_1">
   <g id="patch_2">
    <path d="M 44.425 246.2 
L 417.7 246.2 
L 417.7 14.3 
L 44.425 14.3 
z
" style="fill:#ffffff;"/>
   </g>
   <g id="matplotlib.axis_1">
    <g id="xtick_1">
     <g id="line2d_1">
      <defs>
       <path d="M 0 0 
L 0 3.5 
" id="m18eaa8cab0" style="stroke:#000000;stroke-width:0.8;"/>
      </defs>
      <g>
       <use style="stroke:#000000;stroke-width:0.8;" x="61.324164" xlink:href="#m18eaa8cab0" y="246.2"/>
      </g>
     </g>
     <g id="text_1">
      <!-- 0 -->
      <defs>
       <path d="M 31.78125 66.40625 
Q 24.171875 66.40625 20.328125 58.90625 
Q 16.5 51.421875 16.5 36.375 
Q 16.5 21.390625 20.328125 13.890625 
Q 24.171875 6.390625 31.78125 6.390625 
Q 39.453125 6.390625 43.28125 13.890625 
Q 47.125 21.390625 47.125 36.375 
Q 47.125 51.421875 43.28125 58.90625 
Q 39.453125 66.40625 31.78125 66.40625 
z
M 31.78125 74.21875 
Q 44.046875 74.21875 50.515625 64.515625 
Q 56.984375 54.828125 56.984375 36.375 
Q 56.984375 17.96875 50.515625 8.265625 
Q 44.046875 -1.421875 31.78125 -1.421875 
Q 19.53125 -1.421875 13.0625 8.265625 
Q 6.59375 17.96875 6.59375 36.375 
Q 6.59375 54.828125 13.0625 64.515625 
Q 19.53125 74.21875 31.78125 74.21875 
z
" id="DejaVuSans-30"/>
      </defs>
      <g transform="translate(58.142914 260.798437)scale(0.1 -0.1)">
       <use xlink:href="#DejaVuSans-30"/>
      </g>
     </g>
    </g>
    <g id="xtick_2">
     <g id="line2d_2">
      <g>
       <use style="stroke:#000000;stroke-width:0.8;" x="129.205922" xlink:href="#m18eaa8cab0" y="246.2"/>
      </g>
     </g>
     <g id="text_2">
      <!-- 1000 -->
      <defs>
       <path d="M 12.40625 8.296875 
L 28.515625 8.296875 
L 28.515625 63.921875 
L 10.984375 60.40625 
L 10.984375 69.390625 
L 28.421875 72.90625 
L 38.28125 72.90625 
L 38.28125 8.296875 
L 54.390625 8.296875 
L 54.390625 0 
L 12.40625 0 
z
" id="DejaVuSans-31"/>
      </defs>
      <g transform="translate(116.480922 260.798437)scale(0.1 -0.1)">
       <use xlink:href="#DejaVuSans-31"/>
       <use x="63.623047" xlink:href="#DejaVuSans-30"/>
       <use x="127.246094" xlink:href="#DejaVuSans-30"/>
       <use x="190.869141" xlink:href="#DejaVuSans-30"/>
      </g>
     </g>
    </g>
    <g id="xtick_3">
     <g id="line2d_3">
      <g>
       <use style="stroke:#000000;stroke-width:0.8;" x="197.08768" xlink:href="#m18eaa8cab0" y="246.2"/>
      </g>
     </g>
     <g id="text_3">
      <!-- 2000 -->
      <defs>
       <path d="M 19.1875 8.296875 
L 53.609375 8.296875 
L 53.609375 0 
L 7.328125 0 
L 7.328125 8.296875 
Q 12.9375 14.109375 22.625 23.890625 
Q 32.328125 33.6875 34.8125 36.53125 
Q 39.546875 41.84375 41.421875 45.53125 
Q 43.3125 49.21875 43.3125 52.78125 
Q 43.3125 58.59375 39.234375 62.25 
Q 35.15625 65.921875 28.609375 65.921875 
Q 23.96875 65.921875 18.8125 64.3125 
Q 13.671875 62.703125 7.8125 59.421875 
L 7.8125 69.390625 
Q 13.765625 71.78125 18.9375 73 
Q 24.125 74.21875 28.421875 74.21875 
Q 39.75 74.21875 46.484375 68.546875 
Q 53.21875 62.890625 53.21875 53.421875 
Q 53.21875 48.921875 51.53125 44.890625 
Q 49.859375 40.875 45.40625 35.40625 
Q 44.1875 33.984375 37.640625 27.21875 
Q 31.109375 20.453125 19.1875 8.296875 
z
" id="DejaVuSans-32"/>
      </defs>
      <g transform="translate(184.36268 260.798437)scale(0.1 -0.1)">
       <use xlink:href="#DejaVuSans-32"/>
       <use x="63.623047" xlink:href="#DejaVuSans-30"/>
       <use x="127.246094" xlink:href="#DejaVuSans-30"/>
       <use x="190.869141" xlink:href="#DejaVuSans-30"/>
      </g>
     </g>
    </g>
    <g id="xtick_4">
     <g id="line2d_4">
      <g>
       <use style="stroke:#000000;stroke-width:0.8;" x="264.969438" xlink:href="#m18eaa8cab0" y="246.2"/>
      </g>
     </g>
     <g id="text_4">
      <!-- 3000 -->
      <defs>
       <path d="M 40.578125 39.3125 
Q 47.65625 37.796875 51.625 33 
Q 55.609375 28.21875 55.609375 21.1875 
Q 55.609375 10.40625 48.1875 4.484375 
Q 40.765625 -1.421875 27.09375 -1.421875 
Q 22.515625 -1.421875 17.65625 -0.515625 
Q 12.796875 0.390625 7.625 2.203125 
L 7.625 11.71875 
Q 11.71875 9.328125 16.59375 8.109375 
Q 21.484375 6.890625 26.8125 6.890625 
Q 36.078125 6.890625 40.9375 10.546875 
Q 45.796875 14.203125 45.796875 21.1875 
Q 45.796875 27.640625 41.28125 31.265625 
Q 36.765625 34.90625 28.71875 34.90625 
L 20.21875 34.90625 
L 20.21875 43.015625 
L 29.109375 43.015625 
Q 36.375 43.015625 40.234375 45.921875 
Q 44.09375 48.828125 44.09375 54.296875 
Q 44.09375 59.90625 40.109375 62.90625 
Q 36.140625 65.921875 28.71875 65.921875 
Q 24.65625 65.921875 20.015625 65.03125 
Q 15.375 64.15625 9.8125 62.3125 
L 9.8125 71.09375 
Q 15.4375 72.65625 20.34375 73.4375 
Q 25.25 74.21875 29.59375 74.21875 
Q 40.828125 74.21875 47.359375 69.109375 
Q 53.90625 64.015625 53.90625 55.328125 
Q 53.90625 49.265625 50.4375 45.09375 
Q 46.96875 40.921875 40.578125 39.3125 
z
" id="DejaVuSans-33"/>
      </defs>
      <g transform="translate(252.244438 260.798437)scale(0.1 -0.1)">
       <use xlink:href="#DejaVuSans-33"/>
       <use x="63.623047" xlink:href="#DejaVuSans-30"/>
       <use x="127.246094" xlink:href="#DejaVuSans-30"/>
       <use x="190.869141" xlink:href="#DejaVuSans-30"/>
      </g>
     </g>
    </g>
    <g id="xtick_5">
     <g id="line2d_5">
      <g>
       <use style="stroke:#000000;stroke-width:0.8;" x="332.851196" xlink:href="#m18eaa8cab0" y="246.2"/>
      </g>
     </g>
     <g id="text_5">
      <!-- 4000 -->
      <defs>
       <path d="M 37.796875 64.3125 
L 12.890625 25.390625 
L 37.796875 25.390625 
z
M 35.203125 72.90625 
L 47.609375 72.90625 
L 47.609375 25.390625 
L 58.015625 25.390625 
L 58.015625 17.1875 
L 47.609375 17.1875 
L 47.609375 0 
L 37.796875 0 
L 37.796875 17.1875 
L 4.890625 17.1875 
L 4.890625 26.703125 
z
" id="DejaVuSans-34"/>
      </defs>
      <g transform="translate(320.126196 260.798437)scale(0.1 -0.1)">
       <use xlink:href="#DejaVuSans-34"/>
       <use x="63.623047" xlink:href="#DejaVuSans-30"/>
       <use x="127.246094" xlink:href="#DejaVuSans-30"/>
       <use x="190.869141" xlink:href="#DejaVuSans-30"/>
      </g>
     </g>
    </g>
    <g id="xtick_6">
     <g id="line2d_6">
      <g>
       <use style="stroke:#000000;stroke-width:0.8;" x="400.732955" xlink:href="#m18eaa8cab0" y="246.2"/>
      </g>
     </g>
     <g id="text_6">
      <!-- 5000 -->
      <defs>
       <path d="M 10.796875 72.90625 
L 49.515625 72.90625 
L 49.515625 64.59375 
L 19.828125 64.59375 
L 19.828125 46.734375 
Q 21.96875 47.46875 24.109375 47.828125 
Q 26.265625 48.1875 28.421875 48.1875 
Q 40.625 48.1875 47.75 41.5 
Q 54.890625 34.8125 54.890625 23.390625 
Q 54.890625 11.625 47.5625 5.09375 
Q 40.234375 -1.421875 26.90625 -1.421875 
Q 22.3125 -1.421875 17.546875 -0.640625 
Q 12.796875 0.140625 7.71875 1.703125 
L 7.71875 11.625 
Q 12.109375 9.234375 16.796875 8.0625 
Q 21.484375 6.890625 26.703125 6.890625 
Q 35.15625 6.890625 40.078125 11.328125 
Q 45.015625 15.765625 45.015625 23.390625 
Q 45.015625 31 40.078125 35.4375 
Q 35.15625 39.890625 26.703125 39.890625 
Q 22.75 39.890625 18.8125 39.015625 
Q 14.890625 38.140625 10.796875 36.28125 
z
" id="DejaVuSans-35"/>
      </defs>
      <g transform="translate(388.007955 260.798437)scale(0.1 -0.1)">
       <use xlink:href="#DejaVuSans-35"/>
       <use x="63.623047" xlink:href="#DejaVuSans-30"/>
       <use x="127.246094" xlink:href="#DejaVuSans-30"/>
       <use x="190.869141" xlink:href="#DejaVuSans-30"/>
      </g>
     </g>
    </g>
    <g id="text_7">
     <!-- Rounds -->
     <defs>
      <path d="M 44.390625 34.1875 
Q 47.5625 33.109375 50.5625 29.59375 
Q 53.5625 26.078125 56.59375 19.921875 
L 66.609375 0 
L 56 0 
L 46.6875 18.703125 
Q 43.0625 26.03125 39.671875 28.421875 
Q 36.28125 30.8125 30.421875 30.8125 
L 19.671875 30.8125 
L 19.671875 0 
L 9.8125 0 
L 9.8125 72.90625 
L 32.078125 72.90625 
Q 44.578125 72.90625 50.734375 67.671875 
Q 56.890625 62.453125 56.890625 51.90625 
Q 56.890625 45.015625 53.6875 40.46875 
Q 50.484375 35.9375 44.390625 34.1875 
z
M 19.671875 64.796875 
L 19.671875 38.921875 
L 32.078125 38.921875 
Q 39.203125 38.921875 42.84375 42.21875 
Q 46.484375 45.515625 46.484375 51.90625 
Q 46.484375 58.296875 42.84375 61.546875 
Q 39.203125 64.796875 32.078125 64.796875 
z
" id="DejaVuSans-52"/>
      <path d="M 30.609375 48.390625 
Q 23.390625 48.390625 19.1875 42.75 
Q 14.984375 37.109375 14.984375 27.296875 
Q 14.984375 17.484375 19.15625 11.84375 
Q 23.34375 6.203125 30.609375 6.203125 
Q 37.796875 6.203125 41.984375 11.859375 
Q 46.1875 17.53125 46.1875 27.296875 
Q 46.1875 37.015625 41.984375 42.703125 
Q 37.796875 48.390625 30.609375 48.390625 
z
M 30.609375 56 
Q 42.328125 56 49.015625 48.375 
Q 55.71875 40.765625 55.71875 27.296875 
Q 55.71875 13.875 49.015625 6.21875 
Q 42.328125 -1.421875 30.609375 -1.421875 
Q 18.84375 -1.421875 12.171875 6.21875 
Q 5.515625 13.875 5.515625 27.296875 
Q 5.515625 40.765625 12.171875 48.375 
Q 18.84375 56 30.609375 56 
z
" id="DejaVuSans-6f"/>
      <path d="M 8.5 21.578125 
L 8.5 54.6875 
L 17.484375 54.6875 
L 17.484375 21.921875 
Q 17.484375 14.15625 20.5 10.265625 
Q 23.53125 6.390625 29.59375 6.390625 
Q 36.859375 6.390625 41.078125 11.03125 
Q 45.3125 15.671875 45.3125 23.6875 
L 45.3125 54.6875 
L 54.296875 54.6875 
L 54.296875 0 
L 45.3125 0 
L 45.3125 8.40625 
Q 42.046875 3.421875 37.71875 1 
Q 33.40625 -1.421875 27.6875 -1.421875 
Q 18.265625 -1.421875 13.375 4.4375 
Q 8.5 10.296875 8.5 21.578125 
z
M 31.109375 56 
z
" id="DejaVuSans-75"/>
      <path d="M 54.890625 33.015625 
L 54.890625 0 
L 45.90625 0 
L 45.90625 32.71875 
Q 45.90625 40.484375 42.875 44.328125 
Q 39.84375 48.1875 33.796875 48.1875 
Q 26.515625 48.1875 22.3125 43.546875 
Q 18.109375 38.921875 18.109375 30.90625 
L 18.109375 0 
L 9.078125 0 
L 9.078125 54.6875 
L 18.109375 54.6875 
L 18.109375 46.1875 
Q 21.34375 51.125 25.703125 53.5625 
Q 30.078125 56 35.796875 56 
Q 45.21875 56 50.046875 50.171875 
Q 54.890625 44.34375 54.890625 33.015625 
z
" id="DejaVuSans-6e"/>
      <path d="M 45.40625 46.390625 
L 45.40625 75.984375 
L 54.390625 75.984375 
L 54.390625 0 
L 45.40625 0 
L 45.40625 8.203125 
Q 42.578125 3.328125 38.25 0.953125 
Q 33.9375 -1.421875 27.875 -1.421875 
Q 17.96875 -1.421875 11.734375 6.484375 
Q 5.515625 14.40625 5.515625 27.296875 
Q 5.515625 40.1875 11.734375 48.09375 
Q 17.96875 56 27.875 56 
Q 33.9375 56 38.25 53.625 
Q 42.578125 51.265625 45.40625 46.390625 
z
M 14.796875 27.296875 
Q 14.796875 17.390625 18.875 11.75 
Q 22.953125 6.109375 30.078125 6.109375 
Q 37.203125 6.109375 41.296875 11.75 
Q 45.40625 17.390625 45.40625 27.296875 
Q 45.40625 37.203125 41.296875 42.84375 
Q 37.203125 48.484375 30.078125 48.484375 
Q 22.953125 48.484375 18.875 42.84375 
Q 14.796875 37.203125 14.796875 27.296875 
z
" id="DejaVuSans-64"/>
      <path d="M 44.28125 53.078125 
L 44.28125 44.578125 
Q 40.484375 46.53125 36.375 47.5 
Q 32.28125 48.484375 27.875 48.484375 
Q 21.1875 48.484375 17.84375 46.4375 
Q 14.5 44.390625 14.5 40.28125 
Q 14.5 37.15625 16.890625 35.375 
Q 19.28125 33.59375 26.515625 31.984375 
L 29.59375 31.296875 
Q 39.15625 29.25 43.1875 25.515625 
Q 47.21875 21.78125 47.21875 15.09375 
Q 47.21875 7.46875 41.1875 3.015625 
Q 35.15625 -1.421875 24.609375 -1.421875 
Q 20.21875 -1.421875 15.453125 -0.5625 
Q 10.6875 0.296875 5.421875 2 
L 5.421875 11.28125 
Q 10.40625 8.6875 15.234375 7.390625 
Q 20.0625 6.109375 24.8125 6.109375 
Q 31.15625 6.109375 34.5625 8.28125 
Q 37.984375 10.453125 37.984375 14.40625 
Q 37.984375 18.0625 35.515625 20.015625 
Q 33.0625 21.96875 24.703125 23.78125 
L 21.578125 24.515625 
Q 13.234375 26.265625 9.515625 29.90625 
Q 5.8125 33.546875 5.8125 39.890625 
Q 5.8125 47.609375 11.28125 51.796875 
Q 16.75 56 26.8125 56 
Q 31.78125 56 36.171875 55.265625 
Q 40.578125 54.546875 44.28125 53.078125 
z
" id="DejaVuSans-73"/>
     </defs>
     <g transform="translate(212.415625 274.476562)scale(0.1 -0.1)">
      <use xlink:href="#DejaVuSans-52"/>
      <use x="69.419922" xlink:href="#DejaVuSans-6f"/>
      <use x="130.601562" xlink:href="#DejaVuSans-75"/>
      <use x="193.980469" xlink:href="#DejaVuSans-6e"/>
      <use x="257.359375" xlink:href="#DejaVuSans-64"/>
      <use x="320.835938" xlink:href="#DejaVuSans-73"/>
     </g>
    </g>
   </g>
   <g id="matplotlib.axis_2">
    <g id="ytick_1">
     <g id="line2d_7">
      <defs>
       <path d="M 0 0 
L -3.5 0 
" id="m94fdd7ec30" style="stroke:#000000;stroke-width:0.8;"/>
      </defs>
      <g>
       <use style="stroke:#000000;stroke-width:0.8;" x="44.425" xlink:href="#m94fdd7ec30" y="236.38088"/>
      </g>
     </g>
     <g id="text_8">
      <!-- 0 -->
      <g transform="translate(31.0625 240.180098)scale(0.1 -0.1)">
       <use xlink:href="#DejaVuSans-30"/>
      </g>
     </g>
    </g>
    <g id="ytick_2">
     <g id="line2d_8">
      <g>
       <use style="stroke:#000000;stroke-width:0.8;" x="44.425" xlink:href="#m94fdd7ec30" y="189.813866"/>
      </g>
     </g>
     <g id="text_9">
      <!-- 10 -->
      <g transform="translate(24.7 193.613085)scale(0.1 -0.1)">
       <use xlink:href="#DejaVuSans-31"/>
       <use x="63.623047" xlink:href="#DejaVuSans-30"/>
      </g>
     </g>
    </g>
    <g id="ytick_3">
     <g id="line2d_9">
      <g>
       <use style="stroke:#000000;stroke-width:0.8;" x="44.425" xlink:href="#m94fdd7ec30" y="143.246853"/>
      </g>
     </g>
     <g id="text_10">
      <!-- 20 -->
      <g transform="translate(24.7 147.046072)scale(0.1 -0.1)">
       <use xlink:href="#DejaVuSans-32"/>
       <use x="63.623047" xlink:href="#DejaVuSans-30"/>
      </g>
     </g>
    </g>
    <g id="ytick_4">
     <g id="line2d_10">
      <g>
       <use style="stroke:#000000;stroke-width:0.8;" x="44.425" xlink:href="#m94fdd7ec30" y="96.67984"/>
      </g>
     </g>
     <g id="text_11">
      <!-- 30 -->
      <g transform="translate(24.7 100.479059)scale(0.1 -0.1)">
       <use xlink:href="#DejaVuSans-33"/>
       <use x="63.623047" xlink:href="#DejaVuSans-30"/>
      </g>
     </g>
    </g>
    <g id="ytick_5">
     <g id="line2d_11">
      <g>
       <use style="stroke:#000000;stroke-width:0.8;" x="44.425" xlink:href="#m94fdd7ec30" y="50.112827"/>
      </g>
     </g>
     <g id="text_12">
      <!-- 40 -->
      <g transform="translate(24.7 53.912046)scale(0.1 -0.1)">
       <use xlink:href="#DejaVuSans-34"/>
       <use x="63.623047" xlink:href="#DejaVuSans-30"/>
      </g>
     </g>
    </g>
    <g id="text_13">
     <!-- Estimated expected cumulative Regret -->
     <defs>
      <path d="M 9.8125 72.90625 
L 55.90625 72.90625 
L 55.90625 64.59375 
L 19.671875 64.59375 
L 19.671875 43.015625 
L 54.390625 43.015625 
L 54.390625 34.71875 
L 19.671875 34.71875 
L 19.671875 8.296875 
L 56.78125 8.296875 
L 56.78125 0 
L 9.8125 0 
z
" id="DejaVuSans-45"/>
      <path d="M 18.3125 70.21875 
L 18.3125 54.6875 
L 36.8125 54.6875 
L 36.8125 47.703125 
L 18.3125 47.703125 
L 18.3125 18.015625 
Q 18.3125 11.328125 20.140625 9.421875 
Q 21.96875 7.515625 27.59375 7.515625 
L 36.8125 7.515625 
L 36.8125 0 
L 27.59375 0 
Q 17.1875 0 13.234375 3.875 
Q 9.28125 7.765625 9.28125 18.015625 
L 9.28125 47.703125 
L 2.6875 47.703125 
L 2.6875 54.6875 
L 9.28125 54.6875 
L 9.28125 70.21875 
z
" id="DejaVuSans-74"/>
      <path d="M 9.421875 54.6875 
L 18.40625 54.6875 
L 18.40625 0 
L 9.421875 0 
z
M 9.421875 75.984375 
L 18.40625 75.984375 
L 18.40625 64.59375 
L 9.421875 64.59375 
z
" id="DejaVuSans-69"/>
      <path d="M 52 44.1875 
Q 55.375 50.25 60.0625 53.125 
Q 64.75 56 71.09375 56 
Q 79.640625 56 84.28125 50.015625 
Q 88.921875 44.046875 88.921875 33.015625 
L 88.921875 0 
L 79.890625 0 
L 79.890625 32.71875 
Q 79.890625 40.578125 77.09375 44.375 
Q 74.3125 48.1875 68.609375 48.1875 
Q 61.625 48.1875 57.5625 43.546875 
Q 53.515625 38.921875 53.515625 30.90625 
L 53.515625 0 
L 44.484375 0 
L 44.484375 32.71875 
Q 44.484375 40.625 41.703125 44.40625 
Q 38.921875 48.1875 33.109375 48.1875 
Q 26.21875 48.1875 22.15625 43.53125 
Q 18.109375 38.875 18.109375 30.90625 
L 18.109375 0 
L 9.078125 0 
L 9.078125 54.6875 
L 18.109375 54.6875 
L 18.109375 46.1875 
Q 21.1875 51.21875 25.484375 53.609375 
Q 29.78125 56 35.6875 56 
Q 41.65625 56 45.828125 52.96875 
Q 50 49.953125 52 44.1875 
z
" id="DejaVuSans-6d"/>
      <path d="M 34.28125 27.484375 
Q 23.390625 27.484375 19.1875 25 
Q 14.984375 22.515625 14.984375 16.5 
Q 14.984375 11.71875 18.140625 8.90625 
Q 21.296875 6.109375 26.703125 6.109375 
Q 34.1875 6.109375 38.703125 11.40625 
Q 43.21875 16.703125 43.21875 25.484375 
L 43.21875 27.484375 
z
M 52.203125 31.203125 
L 52.203125 0 
L 43.21875 0 
L 43.21875 8.296875 
Q 40.140625 3.328125 35.546875 0.953125 
Q 30.953125 -1.421875 24.3125 -1.421875 
Q 15.921875 -1.421875 10.953125 3.296875 
Q 6 8.015625 6 15.921875 
Q 6 25.140625 12.171875 29.828125 
Q 18.359375 34.515625 30.609375 34.515625 
L 43.21875 34.515625 
L 43.21875 35.40625 
Q 43.21875 41.609375 39.140625 45 
Q 35.0625 48.390625 27.6875 48.390625 
Q 23 48.390625 18.546875 47.265625 
Q 14.109375 46.140625 10.015625 43.890625 
L 10.015625 52.203125 
Q 14.9375 54.109375 19.578125 55.046875 
Q 24.21875 56 28.609375 56 
Q 40.484375 56 46.34375 49.84375 
Q 52.203125 43.703125 52.203125 31.203125 
z
" id="DejaVuSans-61"/>
      <path d="M 56.203125 29.59375 
L 56.203125 25.203125 
L 14.890625 25.203125 
Q 15.484375 15.921875 20.484375 11.0625 
Q 25.484375 6.203125 34.421875 6.203125 
Q 39.59375 6.203125 44.453125 7.46875 
Q 49.3125 8.734375 54.109375 11.28125 
L 54.109375 2.78125 
Q 49.265625 0.734375 44.1875 -0.34375 
Q 39.109375 -1.421875 33.890625 -1.421875 
Q 20.796875 -1.421875 13.15625 6.1875 
Q 5.515625 13.8125 5.515625 26.8125 
Q 5.515625 40.234375 12.765625 48.109375 
Q 20.015625 56 32.328125 56 
Q 43.359375 56 49.78125 48.890625 
Q 56.203125 41.796875 56.203125 29.59375 
z
M 47.21875 32.234375 
Q 47.125 39.59375 43.09375 43.984375 
Q 39.0625 48.390625 32.421875 48.390625 
Q 24.90625 48.390625 20.390625 44.140625 
Q 15.875 39.890625 15.1875 32.171875 
z
" id="DejaVuSans-65"/>
      <path id="DejaVuSans-20"/>
      <path d="M 54.890625 54.6875 
L 35.109375 28.078125 
L 55.90625 0 
L 45.3125 0 
L 29.390625 21.484375 
L 13.484375 0 
L 2.875 0 
L 24.125 28.609375 
L 4.6875 54.6875 
L 15.28125 54.6875 
L 29.78125 35.203125 
L 44.28125 54.6875 
z
" id="DejaVuSans-78"/>
      <path d="M 18.109375 8.203125 
L 18.109375 -20.796875 
L 9.078125 -20.796875 
L 9.078125 54.6875 
L 18.109375 54.6875 
L 18.109375 46.390625 
Q 20.953125 51.265625 25.265625 53.625 
Q 29.59375 56 35.59375 56 
Q 45.5625 56 51.78125 48.09375 
Q 58.015625 40.1875 58.015625 27.296875 
Q 58.015625 14.40625 51.78125 6.484375 
Q 45.5625 -1.421875 35.59375 -1.421875 
Q 29.59375 -1.421875 25.265625 0.953125 
Q 20.953125 3.328125 18.109375 8.203125 
z
M 48.6875 27.296875 
Q 48.6875 37.203125 44.609375 42.84375 
Q 40.53125 48.484375 33.40625 48.484375 
Q 26.265625 48.484375 22.1875 42.84375 
Q 18.109375 37.203125 18.109375 27.296875 
Q 18.109375 17.390625 22.1875 11.75 
Q 26.265625 6.109375 33.40625 6.109375 
Q 40.53125 6.109375 44.609375 11.75 
Q 48.6875 17.390625 48.6875 27.296875 
z
" id="DejaVuSans-70"/>
      <path d="M 48.78125 52.59375 
L 48.78125 44.1875 
Q 44.96875 46.296875 41.140625 47.34375 
Q 37.3125 48.390625 33.40625 48.390625 
Q 24.65625 48.390625 19.8125 42.84375 
Q 14.984375 37.3125 14.984375 27.296875 
Q 14.984375 17.28125 19.8125 11.734375 
Q 24.65625 6.203125 33.40625 6.203125 
Q 37.3125 6.203125 41.140625 7.25 
Q 44.96875 8.296875 48.78125 10.40625 
L 48.78125 2.09375 
Q 45.015625 0.34375 40.984375 -0.53125 
Q 36.96875 -1.421875 32.421875 -1.421875 
Q 20.0625 -1.421875 12.78125 6.34375 
Q 5.515625 14.109375 5.515625 27.296875 
Q 5.515625 40.671875 12.859375 48.328125 
Q 20.21875 56 33.015625 56 
Q 37.15625 56 41.109375 55.140625 
Q 45.0625 54.296875 48.78125 52.59375 
z
" id="DejaVuSans-63"/>
      <path d="M 9.421875 75.984375 
L 18.40625 75.984375 
L 18.40625 0 
L 9.421875 0 
z
" id="DejaVuSans-6c"/>
      <path d="M 2.984375 54.6875 
L 12.5 54.6875 
L 29.59375 8.796875 
L 46.6875 54.6875 
L 56.203125 54.6875 
L 35.6875 0 
L 23.484375 0 
z
" id="DejaVuSans-76"/>
      <path d="M 45.40625 27.984375 
Q 45.40625 37.75 41.375 43.109375 
Q 37.359375 48.484375 30.078125 48.484375 
Q 22.859375 48.484375 18.828125 43.109375 
Q 14.796875 37.75 14.796875 27.984375 
Q 14.796875 18.265625 18.828125 12.890625 
Q 22.859375 7.515625 30.078125 7.515625 
Q 37.359375 7.515625 41.375 12.890625 
Q 45.40625 18.265625 45.40625 27.984375 
z
M 54.390625 6.78125 
Q 54.390625 -7.171875 48.1875 -13.984375 
Q 42 -20.796875 29.203125 -20.796875 
Q 24.46875 -20.796875 20.265625 -20.09375 
Q 16.0625 -19.390625 12.109375 -17.921875 
L 12.109375 -9.1875 
Q 16.0625 -11.328125 19.921875 -12.34375 
Q 23.78125 -13.375 27.78125 -13.375 
Q 36.625 -13.375 41.015625 -8.765625 
Q 45.40625 -4.15625 45.40625 5.171875 
L 45.40625 9.625 
Q 42.625 4.78125 38.28125 2.390625 
Q 33.9375 0 27.875 0 
Q 17.828125 0 11.671875 7.65625 
Q 5.515625 15.328125 5.515625 27.984375 
Q 5.515625 40.671875 11.671875 48.328125 
Q 17.828125 56 27.875 56 
Q 33.9375 56 38.28125 53.609375 
Q 42.625 51.21875 45.40625 46.390625 
L 45.40625 54.6875 
L 54.390625 54.6875 
z
" id="DejaVuSans-67"/>
      <path d="M 41.109375 46.296875 
Q 39.59375 47.171875 37.8125 47.578125 
Q 36.03125 48 33.890625 48 
Q 26.265625 48 22.1875 43.046875 
Q 18.109375 38.09375 18.109375 28.8125 
L 18.109375 0 
L 9.078125 0 
L 9.078125 54.6875 
L 18.109375 54.6875 
L 18.109375 46.1875 
Q 20.953125 51.171875 25.484375 53.578125 
Q 30.03125 56 36.53125 56 
Q 37.453125 56 38.578125 55.875 
Q 39.703125 55.765625 41.0625 55.515625 
z
" id="DejaVuSans-72"/>
     </defs>
     <g transform="translate(18.620313 228.129687)rotate(-90)scale(0.1 -0.1)">
      <use xlink:href="#DejaVuSans-45"/>
      <use x="63.183594" xlink:href="#DejaVuSans-73"/>
      <use x="115.283203" xlink:href="#DejaVuSans-74"/>
      <use x="154.492188" xlink:href="#DejaVuSans-69"/>
      <use x="182.275391" xlink:href="#DejaVuSans-6d"/>
      <use x="279.6875" xlink:href="#DejaVuSans-61"/>
      <use x="340.966797" xlink:href="#DejaVuSans-74"/>
      <use x="380.175781" xlink:href="#DejaVuSans-65"/>
      <use x="441.699219" xlink:href="#DejaVuSans-64"/>
      <use x="505.175781" xlink:href="#DejaVuSans-20"/>
      <use x="536.962891" xlink:href="#DejaVuSans-65"/>
      <use x="598.470703" xlink:href="#DejaVuSans-78"/>
      <use x="657.650391" xlink:href="#DejaVuSans-70"/>
      <use x="721.126953" xlink:href="#DejaVuSans-65"/>
      <use x="782.650391" xlink:href="#DejaVuSans-63"/>
      <use x="837.630859" xlink:href="#DejaVuSans-74"/>
      <use x="876.839844" xlink:href="#DejaVuSans-65"/>
      <use x="938.363281" xlink:href="#DejaVuSans-64"/>
      <use x="1001.839844" xlink:href="#DejaVuSans-20"/>
      <use x="1033.626953" xlink:href="#DejaVuSans-63"/>
      <use x="1088.607422" xlink:href="#DejaVuSans-75"/>
      <use x="1151.986328" xlink:href="#DejaVuSans-6d"/>
      <use x="1249.398438" xlink:href="#DejaVuSans-75"/>
      <use x="1312.777344" xlink:href="#DejaVuSans-6c"/>
      <use x="1340.560547" xlink:href="#DejaVuSans-61"/>
      <use x="1401.839844" xlink:href="#DejaVuSans-74"/>
      <use x="1441.048828" xlink:href="#DejaVuSans-69"/>
      <use x="1468.832031" xlink:href="#DejaVuSans-76"/>
      <use x="1528.011719" xlink:href="#DejaVuSans-65"/>
      <use x="1589.535156" xlink:href="#DejaVuSans-20"/>
      <use x="1621.322266" xlink:href="#DejaVuSans-52"/>
      <use x="1690.742188" xlink:href="#DejaVuSans-65"/>
      <use x="1752.265625" xlink:href="#DejaVuSans-67"/>
      <use x="1815.742188" xlink:href="#DejaVuSans-72"/>
      <use x="1856.824219" xlink:href="#DejaVuSans-65"/>
      <use x="1918.347656" xlink:href="#DejaVuSans-74"/>
     </g>
    </g>
   </g>
   <g id="line2d_12">
    <path clip-path="url(#p57b74bc1d5)" d="M 61.392045 235.239988 
L 61.527809 234.937659 
L 61.731454 232.934433 
L 62.34239 230.236459 
L 62.885444 228.437274 
L 63.971552 224.850442 
L 64.310961 223.833236 
L 64.718252 222.837327 
L 65.125542 221.846845 
L 65.464951 220.94485 
L 65.872241 220.299745 
L 67.297758 217.58325 
L 67.433522 217.419884 
L 67.705049 216.964109 
L 67.840812 216.915962 
L 69.537856 214.189833 
L 69.945147 213.747105 
L 70.284556 213.220245 
L 70.623965 212.791569 
L 71.506427 211.966286 
L 71.710073 211.82645 
L 72.049481 211.242844 
L 73.814407 209.685393 
L 73.950171 209.7874 
L 74.764752 208.889782 
L 75.239924 208.393045 
L 75.375688 208.342897 
L 77.344259 206.901338 
L 77.547904 206.778841 
L 77.819431 206.538139 
L 78.090958 206.449853 
L 78.362485 206.130961 
L 78.634012 205.9756 
L 80.398938 203.866928 
L 80.534701 203.898094 
L 81.417164 203.092734 
L 81.620809 202.835888 
L 82.0281 202.411245 
L 82.163863 202.355076 
L 82.571154 201.860997 
L 82.978445 201.293235 
L 83.453617 200.824908 
L 83.657262 200.77097 
L 84.33608 200.410453 
L 84.947016 200.00169 
L 85.082779 199.936231 
L 85.286424 199.699319 
L 85.354306 199.716461 
L 85.49007 199.548606 
L 85.557951 199.570192 
L 85.761597 199.422366 
L 85.965242 199.181643 
L 86.372532 198.967657 
L 86.508296 198.991681 
L 86.711941 198.787726 
L 87.119232 198.559464 
L 87.322877 198.375974 
L 87.390759 198.384193 
L 87.662286 198.165938 
L 87.798049 198.0609 
L 88.341103 197.588216 
L 88.952039 197.071415 
L 89.155685 196.936054 
L 89.35933 196.895705 
L 89.834502 196.557529 
L 90.581201 196.096945 
L 90.716965 196.053214 
L 90.92061 195.875422 
L 91.395783 195.627936 
L 91.531546 195.582045 
L 91.735191 195.412598 
L 92.006718 195.292082 
L 92.889181 194.72384 
L 92.957063 194.762964 
L 93.364354 194.366387 
L 93.432235 194.361435 
L 93.771644 193.936 
L 94.246816 193.644518 
L 94.38258 193.625506 
L 94.654107 193.437768 
L 94.78987 193.385108 
L 95.875979 192.642936 
L 96.215387 192.494364 
L 96.486914 192.302064 
L 96.622678 192.240285 
L 96.758441 192.20817 
L 97.640904 191.862367 
L 97.776668 191.810927 
L 99.813121 190.949682 
L 100.152529 190.74972 
L 100.356175 190.686553 
L 100.55982 190.552022 
L 101.578046 190.20362 
L 101.71381 190.175981 
L 102.053219 190.049341 
L 102.256864 190.014241 
L 102.460509 189.836947 
L 102.935681 189.61374 
L 103.071445 189.543846 
L 103.410854 189.304584 
L 103.614499 189.143638 
L 104.225435 188.796093 
L 105.243661 188.358337 
L 105.854597 188.01149 
L 105.990361 188.018618 
L 106.261888 187.839082 
L 106.465533 187.761603 
L 106.669178 187.742953 
L 107.415877 187.365741 
L 107.619523 187.401319 
L 107.89105 187.251709 
L 108.162577 187.149703 
L 108.29834 187.059453 
L 108.434104 187.038314 
L 108.977158 186.541923 
L 109.520212 186.337792 
L 111.217256 185.644572 
L 111.353019 185.670114 
L 111.556665 185.590943 
L 112.303364 185.424754 
L 112.507009 185.417359 
L 112.846418 185.330056 
L 112.982182 185.361113 
L 113.389472 185.101845 
L 113.525236 184.999349 
L 113.728881 185.025107 
L 114.204053 184.719627 
L 114.407699 184.591822 
L 114.611344 184.480582 
L 114.950753 184.333805 
L 115.358043 184.241332 
L 115.425925 184.276844 
L 115.765334 183.86051 
L 115.901097 183.834735 
L 116.579915 183.458078 
L 116.78356 183.514898 
L 116.987205 183.485853 
L 117.258732 183.486677 
L 117.530259 183.298414 
L 117.666023 183.267006 
L 117.93755 183.122251 
L 118.073314 183.071824 
L 118.209077 183.013696 
L 118.344841 183.019247 
L 118.955776 182.746168 
L 119.295185 182.734628 
L 119.49883 182.598375 
L 119.702476 182.638095 
L 119.906121 182.534812 
L 120.041885 182.583456 
L 120.24553 182.492154 
L 120.449175 182.420934 
L 120.65282 182.403749 
L 120.992229 182.256682 
L 121.263756 182.179962 
L 121.467401 182.054188 
L 121.738928 181.928798 
L 122.214101 181.935952 
L 122.417746 181.861712 
L 122.621391 181.809801 
L 122.825037 181.774193 
L 123.096564 181.73995 
L 123.571736 181.529392 
L 123.775381 181.497142 
L 124.11479 181.371718 
L 124.589962 181.355141 
L 124.725726 181.327998 
L 124.861489 181.164939 
L 125.133016 180.977468 
L 125.336662 181.008874 
L 125.540307 180.96505 
L 125.947597 180.942208 
L 126.151243 180.873295 
L 126.83006 180.597764 
L 126.965824 180.595474 
L 127.101587 180.559096 
L 127.373114 180.415645 
L 127.712523 180.294681 
L 129.205922 179.998605 
L 129.477449 179.832904 
L 129.816858 179.776326 
L 129.952621 179.706018 
L 130.156266 179.53094 
L 131.378138 179.11494 
L 132.192719 178.856474 
L 132.396365 178.71079 
L 132.803655 178.56696 
L 133.143064 178.471978 
L 133.346709 178.429466 
L 133.754 178.472375 
L 134.093408 178.288771 
L 134.297054 178.319785 
L 135.790452 178.01858 
L 135.994098 178.002758 
L 137.012324 177.578935 
L 137.148088 177.563032 
L 137.351733 177.497141 
L 137.691142 177.325728 
L 137.962669 177.278033 
L 138.166314 177.186301 
L 138.573604 177.109339 
L 138.77725 176.984003 
L 138.913013 176.992257 
L 139.795476 176.860094 
L 140.134885 176.831973 
L 140.33853 176.711851 
L 140.745821 176.641393 
L 141.153111 176.647239 
L 141.288875 176.622203 
L 141.49252 176.498463 
L 141.899811 176.56423 
L 142.578628 176.341851 
L 142.850155 176.368811 
L 143.121682 176.30839 
L 143.257446 176.212932 
L 144.750844 175.755267 
L 145.36178 176.02187 
L 145.565426 175.880865 
L 147.126706 175.393236 
L 147.330351 175.439115 
L 147.533997 175.455509 
L 147.66976 175.299812 
L 147.737642 175.382895 
L 147.805524 175.32524 
L 147.941287 175.335628 
L 148.144932 175.363256 
L 148.416459 175.234565 
L 149.231041 175.031225 
L 149.502568 174.900798 
L 149.570449 174.78812 
L 149.638331 174.830965 
L 149.841976 174.761 
L 149.97774 174.78282 
L 150.113503 174.83207 
L 150.792321 174.693817 
L 151.063848 174.76668 
L 151.606902 174.752007 
L 152.014193 174.504523 
L 152.557247 174.591454 
L 153.168183 174.376786 
L 153.507591 174.35869 
L 153.711237 174.372454 
L 154.457936 174.480588 
L 155.136753 174.366696 
L 155.340399 174.540188 
L 155.679808 174.459866 
L 156.56227 174.259183 
L 156.765916 174.184993 
L 156.969561 174.194818 
L 157.173206 174.195933 
L 157.444733 174.108013 
L 157.784142 174.000694 
L 158.123551 173.888676 
L 158.327196 173.763839 
L 158.395078 173.754204 
L 158.598723 173.543812 
L 159.141777 173.524586 
L 159.413304 173.346345 
L 159.684831 173.509199 
L 159.956358 173.477698 
L 160.295767 173.331182 
L 161.042466 173.365804 
L 161.246112 173.305758 
L 161.924929 173.125555 
L 162.128575 173.017386 
L 162.603747 172.88296 
L 163.282564 172.599556 
L 163.48621 172.549841 
L 163.757737 172.400654 
L 163.961382 172.368266 
L 164.436554 172.272144 
L 164.572318 172.135811 
L 164.843845 172.094044 
L 164.979608 171.935828 
L 165.115372 172.015031 
L 165.386899 171.938111 
L 165.590544 171.903146 
L 165.79419 171.844361 
L 168.441578 171.140062 
L 168.645223 171.22494 
L 169.256159 171.174307 
L 169.391923 171.134275 
L 169.595568 171.178225 
L 169.731331 171.159597 
L 170.749558 170.94557 
L 171.021085 170.687778 
L 171.292612 170.585518 
L 172.175075 170.345536 
L 172.446602 170.311267 
L 172.650247 170.213348 
L 172.853892 170.234756 
L 173.057538 170.111339 
L 173.193301 170.181927 
L 173.464828 170.050451 
L 173.600592 170.124274 
L 173.872119 169.922784 
L 174.143646 169.912665 
L 174.483055 169.794947 
L 174.754582 169.797501 
L 175.026109 169.606636 
L 175.433399 169.565791 
L 176.723153 169.148905 
L 177.334088 168.855323 
L 177.469852 168.957251 
L 177.673497 168.845002 
L 178.012906 168.803804 
L 178.488078 168.367856 
L 178.623842 168.316507 
L 178.895369 168.392568 
L 179.574186 168.075606 
L 179.777832 168.150603 
L 180.320886 168.028773 
L 180.524531 167.963114 
L 180.728176 167.908704 
L 180.931822 167.932255 
L 181.474876 167.948982 
L 182.493102 167.586408 
L 182.832511 167.42126 
L 183.443447 167.473766 
L 184.190146 167.227984 
L 184.529555 166.902784 
L 184.665318 166.922639 
L 184.936845 166.865033 
L 186.633889 166.468833 
L 186.905416 166.433585 
L 187.04118 166.395891 
L 187.244825 166.336028 
L 187.380589 166.367291 
L 187.652116 166.257889 
L 187.923643 166.230799 
L 188.127288 166.140243 
L 188.263051 166.125558 
L 188.534579 166.093169 
L 189.620687 166.118713 
L 189.960095 165.967671 
L 190.095859 166.00249 
L 190.163741 165.884656 
L 190.231622 165.943785 
L 190.503149 165.89386 
L 190.638913 165.857064 
L 190.978322 165.709983 
L 191.317731 165.591058 
L 191.521376 165.537494 
L 192.06443 165.493921 
L 192.268075 165.544304 
L 192.47172 165.441038 
L 192.946893 165.50756 
L 193.150538 165.439498 
L 194.37241 165.822196 
L 195.865808 165.441797 
L 196.001572 165.463469 
L 196.408862 165.527709 
L 196.612508 165.469692 
L 197.019798 165.370196 
L 197.155562 165.320983 
L 197.359207 165.208024 
L 197.494971 165.206259 
L 197.630734 165.289489 
L 197.766498 165.291206 
L 198.038025 165.368824 
L 198.309552 165.188709 
L 198.513197 165.141931 
L 199.259896 164.928914 
L 200.006596 164.946904 
L 200.210241 164.90554 
L 200.617531 164.948573 
L 200.821177 164.985651 
L 201.024822 164.926361 
L 201.432113 164.677377 
L 201.567876 164.580412 
L 201.70364 164.47334 
L 201.839403 164.551971 
L 202.382457 164.576358 
L 202.653984 164.459372 
L 203.061275 164.406252 
L 203.26492 164.29194 
L 203.400684 164.285385 
L 203.536447 164.277175 
L 203.807974 164.288447 
L 204.215265 164.233448 
L 204.622555 164.171801 
L 204.8262 164.151983 
L 205.165609 164.049593 
L 205.912309 163.895312 
L 206.115954 163.911514 
L 206.387481 163.770335 
L 206.862653 163.534914 
L 207.066298 163.518305 
L 207.337826 163.349982 
L 207.609353 163.121142 
L 208.084525 163.147009 
L 208.831224 163.073413 
L 208.966988 162.965306 
L 209.374278 163.066708 
L 209.510042 163.026445 
L 209.781569 162.82205 
L 211.00344 162.632446 
L 211.546495 162.447963 
L 211.818022 162.498347 
L 212.021667 162.511266 
L 212.564721 162.561609 
L 212.700484 162.524693 
L 213.447184 162.483033 
L 213.650829 162.311404 
L 213.922356 162.265414 
L 215.144228 161.953687 
L 215.687282 161.758282 
L 216.705508 161.768696 
L 216.841272 161.748128 
L 218.063143 161.864885 
L 218.198907 161.903205 
L 218.33467 161.957017 
L 219.352897 161.668767 
L 219.624424 161.481418 
L 222.814866 161.001008 
L 223.222157 161.23326 
L 223.493684 161.258393 
L 223.765211 161.253817 
L 223.900975 161.320747 
L 224.647674 161.115246 
L 224.919201 161.158727 
L 225.122846 161.117673 
L 225.25861 161.066979 
L 226.81989 160.936125 
L 227.227181 161.021498 
L 227.634471 160.853303 
L 227.905998 160.962534 
L 228.313289 160.812943 
L 228.516934 160.876953 
L 229.263633 160.54043 
L 230.078215 160.565406 
L 230.213978 160.460449 
L 230.417623 160.363245 
L 230.68915 160.262943 
L 231.028559 160.27843 
L 231.232204 160.225821 
L 232.250431 160.085771 
L 232.386194 160.009805 
L 232.521958 160.06237 
L 232.99713 159.851109 
L 233.132894 159.799795 
L 233.404421 159.842791 
L 233.540184 159.787927 
L 234.965701 159.591021 
L 235.30511 159.670604 
L 235.508755 159.624665 
L 235.7124 159.456032 
L 235.916046 159.373287 
L 236.4591 159.46453 
L 236.730627 159.355125 
L 236.86639 159.45745 
L 237.070036 159.388737 
L 239.513779 159.096438 
L 240.124715 158.638291 
L 240.667769 158.541514 
L 240.803532 158.619293 
L 240.939296 158.630828 
L 241.075059 158.613389 
L 241.278705 158.53802 
L 241.550232 158.567413 
L 241.753877 158.644219 
L 242.025404 158.772527 
L 242.364813 158.863198 
L 243.04363 158.604133 
L 243.247276 158.730589 
L 243.383039 158.685544 
L 243.586684 158.585076 
L 244.401265 158.324267 
L 244.537029 158.370038 
L 245.623137 157.79429 
L 245.826782 157.774574 
L 246.166191 157.707408 
L 246.5056 157.799604 
L 246.845009 157.747024 
L 247.184418 157.500419 
L 247.523826 157.475471 
L 247.863235 157.396687 
L 248.881462 157.237041 
L 249.085107 157.197169 
L 249.22087 157.19589 
L 249.560279 157.017128 
L 249.831806 157.040082 
L 250.035451 156.966271 
L 250.171215 156.98297 
L 250.442742 156.994265 
L 250.782151 157.010325 
L 250.917914 156.939819 
L 251.053678 156.895587 
L 251.936141 156.791555 
L 252.68284 156.802609 
L 252.750722 156.766954 
L 252.954367 156.898686 
L 253.158012 156.944707 
L 253.429539 156.863563 
L 253.83683 156.732057 
L 254.040475 156.670218 
L 254.787174 156.561563 
L 254.922938 156.541867 
L 255.126583 156.563768 
L 255.465992 156.649344 
L 255.941164 156.640426 
L 256.5521 156.742039 
L 256.959391 156.634805 
L 257.163036 156.664306 
L 258.995843 156.708959 
L 259.199489 156.737156 
L 259.674661 156.694849 
L 259.878306 156.677354 
L 260.081952 156.598419 
L 261.303823 156.78758 
L 261.57535 156.691698 
L 261.846877 156.642929 
L 261.982641 156.482164 
L 262.254168 156.519978 
L 262.457813 156.458128 
L 263.136631 156.399727 
L 263.951212 156.181536 
L 264.086975 156.202593 
L 264.290621 156.180818 
L 264.494266 156.184902 
L 265.105202 156.030312 
L 265.308847 156.093776 
L 266.394955 155.87424 
L 266.530719 155.829847 
L 268.974462 155.838673 
L 269.245989 155.605809 
L 269.721161 155.620824 
L 271.21456 155.284092 
L 271.553969 155.183786 
L 271.757614 155.162041 
L 272.979486 154.915878 
L 273.318894 154.862622 
L 273.52254 154.92152 
L 273.794067 154.890473 
L 274.201357 154.972533 
L 274.405003 154.861094 
L 274.608648 154.851698 
L 275.491111 154.936876 
L 275.762638 154.989931 
L 275.898401 154.974074 
L 276.23781 154.88135 
L 276.645101 154.773074 
L 277.459682 154.579654 
L 277.79909 154.55435 
L 279.020962 154.159488 
L 279.156726 154.087547 
L 279.428253 154.217571 
L 280.039189 154.084713 
L 280.650124 154.173069 
L 280.921651 154.116194 
L 281.26106 154.105521 
L 281.600469 154.047264 
L 282.211405 154.035787 
L 282.550814 154.031737 
L 282.822341 153.86611 
L 283.636922 153.695666 
L 283.97633 153.61187 
L 284.179976 153.486468 
L 284.451503 153.488539 
L 284.587266 153.455044 
L 284.790912 153.298399 
L 287.03101 152.860556 
L 287.166773 152.85127 
L 287.506182 152.90598 
L 288.117118 152.766403 
L 288.388645 152.769622 
L 288.931699 152.506156 
L 289.067462 152.638833 
L 290.968152 151.851611 
L 291.511206 152.070184 
L 291.918496 151.99006 
L 292.122141 151.92666 
L 292.393669 151.990407 
L 292.733077 151.820973 
L 293.004604 151.816559 
L 293.140368 151.812107 
L 294.565885 151.751935 
L 295.108939 151.675625 
L 295.312584 151.688538 
L 295.584111 151.62497 
L 296.33081 151.713967 
L 296.873865 151.559964 
L 297.07751 151.54976 
L 297.349037 151.498758 
L 297.824209 151.484918 
L 298.163618 151.455642 
L 298.367263 151.517839 
L 299.113963 151.209594 
L 299.38549 151.339426 
L 299.79278 151.195971 
L 299.928544 151.258183 
L 300.132189 151.198814 
L 300.267952 151.242172 
L 300.675243 151.194901 
L 300.878888 151.174708 
L 301.625588 151.181864 
L 301.761351 151.172974 
L 301.964996 151.191529 
L 302.168642 151.144393 
L 302.304405 151.089924 
L 302.50805 151.099647 
L 302.711696 151.074338 
L 303.458395 150.88777 
L 304.476621 150.843131 
L 304.612385 150.892927 
L 305.155439 150.901115 
L 305.359084 150.916435 
L 305.494848 150.889288 
L 305.834257 150.951594 
L 306.037902 150.870838 
L 306.309429 150.764342 
L 306.513074 150.792147 
L 306.988247 150.84298 
L 307.191892 150.901583 
L 307.395537 150.883931 
L 307.531301 150.848979 
L 307.870709 150.868919 
L 308.142236 150.835299 
L 308.278 150.830985 
L 309.092581 150.514333 
L 309.364108 150.512943 
L 309.499872 150.546999 
L 309.771399 150.526546 
L 309.975044 150.553251 
L 310.518098 150.452148 
L 310.721743 150.413736 
L 310.925388 150.327687 
L 311.129034 150.413151 
L 311.604206 150.330504 
L 311.807851 150.204819 
L 312.215142 150.190438 
L 312.418787 150.261365 
L 312.554551 150.228565 
L 312.961841 150.384796 
L 313.30125 150.498566 
L 313.437014 150.471484 
L 314.183713 150.532208 
L 314.387358 150.473252 
L 314.591003 150.461319 
L 315.066176 150.355474 
L 315.337703 150.352894 
L 315.744993 150.453018 
L 316.152284 150.458013 
L 316.423811 150.527051 
L 316.76322 150.420641 
L 316.966865 150.411194 
L 317.442037 150.536901 
L 317.645683 150.439925 
L 317.781446 150.461915 
L 317.985091 150.466131 
L 318.120855 150.488071 
L 318.3245 150.467283 
L 318.596027 150.502767 
L 318.935436 150.464476 
L 319.682135 150.483331 
L 319.953662 150.383682 
L 320.157308 150.437757 
L 320.293071 150.466069 
L 320.700362 150.501783 
L 320.971889 150.533302 
L 321.175534 150.512735 
L 321.447061 150.521698 
L 321.718588 150.32991 
L 321.922233 150.224886 
L 322.125879 150.354864 
L 322.261642 150.335744 
L 322.397406 150.329986 
L 323.008341 150.268139 
L 323.144105 150.300232 
L 323.279868 150.280337 
L 323.551396 150.21802 
L 323.755041 150.205689 
L 324.026568 150.169853 
L 324.298095 150.084913 
L 324.637504 149.9616 
L 325.384203 150.028184 
L 325.65573 150.08103 
L 325.859375 150.025234 
L 326.063021 150.077311 
L 326.402429 150.10881 
L 326.606075 150.244321 
L 327.352774 150.349934 
L 327.556419 150.339531 
L 327.96371 150.40806 
L 328.235237 150.297543 
L 328.506764 150.411867 
L 328.846173 150.379369 
L 329.185581 150.081948 
L 329.321345 150.054787 
L 329.457108 149.966156 
L 329.592872 149.931081 
L 329.728635 149.893016 
L 329.796517 149.976302 
L 329.864399 149.920708 
L 330.000163 149.910913 
L 330.339571 150.018114 
L 330.543217 149.957919 
L 331.561443 149.684395 
L 331.83297 149.795543 
L 332.308142 149.586057 
L 333.054842 149.493283 
L 333.190605 149.446542 
L 333.733659 149.46518 
L 334.14095 149.205213 
L 334.344595 149.213888 
L 334.751886 149.196809 
L 336.177403 148.777022 
L 336.381048 148.849393 
L 336.516811 148.876745 
L 336.720457 148.889137 
L 336.924102 148.85002 
L 337.127747 148.862365 
L 337.535038 148.721651 
L 337.738683 148.761343 
L 338.078092 148.715548 
L 338.553264 148.833247 
L 338.689028 148.73529 
L 338.960555 148.928419 
L 340.657599 148.346868 
L 341.132771 148.007551 
L 341.811588 147.932519 
L 342.015234 147.96969 
L 343.03346 147.90698 
L 343.304987 147.917206 
L 343.508632 147.943055 
L 343.712278 147.959646 
L 344.866268 148.021001 
L 345.273558 148.065176 
L 345.477203 148.039594 
L 345.680849 148.086458 
L 345.816612 148.08648 
L 346.156021 147.966108 
L 346.223903 147.886819 
L 346.291784 147.954727 
L 346.970602 147.897653 
L 347.242129 147.919237 
L 347.377893 147.978208 
L 347.513656 147.970691 
L 347.64942 147.936841 
L 347.920947 148.003459 
L 348.599764 147.875667 
L 349.346464 147.730592 
L 349.482227 147.669015 
L 349.617991 147.573226 
L 349.821636 147.574958 
L 349.889518 147.467551 
L 349.957399 147.519818 
L 350.432572 147.413393 
L 350.704099 147.396482 
L 350.839862 147.496842 
L 351.247153 147.606772 
L 351.450798 147.605249 
L 351.654443 147.633564 
L 351.92597 147.627784 
L 352.197497 147.600091 
L 352.333261 147.576675 
L 352.604788 147.652864 
L 352.808433 147.684096 
L 353.07996 147.798884 
L 353.962423 147.764484 
L 354.369714 147.717844 
L 354.641241 147.809322 
L 354.912768 147.762433 
L 355.455822 147.866287 
L 355.795231 147.718596 
L 356.202521 147.654882 
L 356.406166 147.642882 
L 356.745575 147.761131 
L 357.084984 147.916326 
L 357.424393 147.815152 
L 357.628038 147.958606 
L 357.831683 147.902165 
L 358.374737 147.998202 
L 358.646264 147.89297 
L 359.189319 147.835789 
L 359.325082 147.794986 
L 359.868136 147.659588 
L 360.071781 147.516006 
L 360.343308 147.592511 
L 360.546954 147.652479 
L 360.818481 147.764588 
L 360.954244 147.637248 
L 361.361535 147.596836 
L 361.633062 147.658914 
L 361.972471 147.710297 
L 362.176116 147.846795 
L 362.447643 147.88028 
L 362.651288 147.907868 
L 363.126461 147.835525 
L 363.533751 147.718908 
L 363.805278 147.820676 
L 363.941042 147.803515 
L 364.076805 147.88159 
L 364.348332 147.784512 
L 364.619859 147.683491 
L 364.755623 147.682693 
L 364.891386 147.726198 
L 365.162913 147.6026 
L 365.366559 147.647309 
L 365.773849 147.711644 
L 366.045376 147.816297 
L 366.58843 147.745101 
L 366.792075 147.755122 
L 367.063602 147.695659 
L 367.267248 147.822488 
L 368.013947 148.007204 
L 368.421238 147.835613 
L 368.760646 147.951631 
L 368.89641 147.882548 
L 369.167937 147.976099 
L 369.846755 147.933402 
L 370.389809 148.088836 
L 370.525572 148.053152 
L 370.729217 148.092402 
L 370.864981 148.09493 
L 371.136508 148.063874 
L 371.543799 147.972529 
L 371.679562 147.945091 
L 372.154734 147.919249 
L 372.290498 148.027248 
L 372.76567 147.971943 
L 373.240842 147.986943 
L 373.51237 147.925716 
L 373.716015 147.91256 
L 374.123305 147.908291 
L 374.259069 147.923381 
L 374.394832 147.849349 
L 374.802123 147.677079 
L 374.937886 147.678508 
L 375.277295 147.609432 
L 375.480941 147.490812 
L 375.616704 147.534807 
L 376.023995 147.384093 
L 376.159758 147.284465 
L 376.770694 147.305832 
L 376.974339 147.406664 
L 377.110103 147.439374 
L 377.449511 147.378734 
L 377.653157 147.449328 
L 378.060447 147.43641 
L 378.399856 147.516944 
L 378.671383 147.479657 
L 379.214437 147.653206 
L 379.893255 147.714153 
L 380.0969 147.792091 
L 380.300545 147.799515 
L 380.436309 147.799718 
L 380.707836 147.676979 
L 380.979363 147.87071 
L 381.25089 147.926944 
L 381.454535 147.877725 
L 382.40488 147.614823 
L 382.608525 147.653187 
L 383.015816 147.637603 
L 383.355224 147.785243 
L 383.626751 147.824375 
L 383.898279 147.923552 
L 386.342022 147.109024 
L 386.545667 147.149376 
L 387.020839 147.226588 
L 387.156603 147.33109 
L 387.42813 147.428759 
L 387.631775 147.328987 
L 388.174829 147.440051 
L 388.378475 147.454293 
L 388.853647 147.536189 
L 388.98941 147.522974 
L 389.125174 147.504637 
L 389.260937 147.495622 
L 389.464583 147.508397 
L 389.73611 147.570317 
L 389.939755 147.590962 
L 391.636799 147.915389 
L 391.840444 147.87271 
L 392.044089 147.811853 
L 392.315617 147.681777 
L 392.45138 147.771044 
L 392.722907 147.741033 
L 392.858671 147.768199 
L 393.130198 147.745736 
L 393.469606 147.584007 
L 394.080542 147.562423 
L 394.352069 147.484197 
L 394.555715 147.426895 
L 394.895123 147.358914 
L 395.030887 147.298215 
L 395.302414 147.297908 
L 395.506059 147.260728 
L 395.777586 147.45726 
L 395.981231 147.271899 
L 396.116995 147.277903 
L 396.32064 147.28261 
L 396.524286 147.343779 
L 396.795813 147.46542 
L 397.06734 147.325289 
L 397.406748 147.384768 
L 397.610394 147.363065 
L 397.814039 147.387421 
L 398.017684 147.360431 
L 398.492857 147.189363 
L 398.696502 147.240903 
L 399.103792 147.266966 
L 399.307438 147.196647 
L 399.646846 147.316451 
L 399.850492 147.329422 
L 400.732955 147.500546 
L 400.732955 147.500546 
" style="fill:none;stroke:#1f77b4;stroke-linecap:square;stroke-width:1.5;"/>
   </g>
   <g id="line2d_13">
    <path clip-path="url(#p57b74bc1d5)" d="M 61.392045 235.659091 
L 62.070863 230.192124 
L 63.089089 223.779846 
L 64.514606 216.515392 
L 64.786133 215.369843 
L 66.008005 210.00998 
L 66.686823 207.774763 
L 67.026231 206.587305 
L 67.908694 204.147193 
L 68.248103 203.136689 
L 68.655394 202.121528 
L 69.062684 200.53825 
L 69.266329 199.895625 
L 69.945147 197.720945 
L 70.013029 197.679035 
L 70.216674 197.241305 
L 70.420319 196.924649 
L 70.759728 195.727877 
L 70.895492 195.378625 
L 71.2349 194.433314 
L 71.302782 194.424001 
L 71.845836 192.980423 
L 72.592536 190.661386 
L 74.153816 187.038473 
L 74.28958 186.749757 
L 74.493225 186.302714 
L 75.918742 183.192037 
L 76.190269 182.66583 
L 76.597559 181.650669 
L 76.665441 181.673953 
L 76.936968 181.28279 
L 77.140613 181.012701 
L 77.547904 180.244345 
L 77.955194 179.229184 
L 78.634012 178.069666 
L 78.973421 177.189549 
L 79.72012 176.244239 
L 80.263174 175.196481 
L 80.602583 174.726154 
L 81.213519 173.385024 
L 81.349282 173.254637 
L 81.688691 172.602698 
L 81.756573 172.625982 
L 81.960218 172.300013 
L 82.299627 171.755179 
L 82.842681 170.740018 
L 83.114208 170.483899 
L 83.521499 169.370948 
L 83.58938 169.370948 
L 83.928789 168.737636 
L 84.879134 167.545521 
L 85.354306 166.95412 
L 85.625833 166.53036 
L 85.693715 166.576927 
L 86.915587 164.718903 
L 86.983468 164.80738 
L 87.187114 164.532635 
L 87.254995 164.495381 
L 87.662286 163.661832 
L 88.20534 163.051804 
L 88.408985 162.795685 
L 88.544749 162.772402 
L 89.291448 161.836405 
L 89.495093 161.524406 
L 90.173911 160.434738 
L 90.241793 160.476648 
L 90.445438 159.857307 
L 90.92061 159.037728 
L 91.056374 158.683818 
L 91.124256 158.674505 
L 91.260019 158.390446 
L 91.395783 158.348536 
L 91.870955 157.60812 
L 92.142482 157.109853 
L 92.414009 156.760601 
L 92.481891 156.769914 
L 92.753418 156.257677 
L 93.567999 154.716309 
L 93.771644 154.734936 
L 94.993516 153.011956 
L 95.129279 152.909509 
L 97.301496 149.156207 
L 97.640904 149.044446 
L 97.84455 148.648627 
L 97.980313 148.65794 
L 99.473712 146.092098 
L 99.609475 146.087441 
L 100.491938 145.146787 
L 100.899229 144.238731 
L 101.102874 143.898792 
L 101.238638 143.936045 
L 101.374401 143.842911 
L 101.510165 143.777717 
L 101.781692 143.465718 
L 101.917455 143.451748 
L 102.188982 143.23754 
L 102.256864 143.353957 
L 102.324746 143.274794 
L 102.664154 142.748586 
L 102.8678 142.636825 
L 102.935681 142.608885 
L 103.003563 142.445901 
L 103.071445 142.501781 
L 103.27509 142.417961 
L 103.546617 141.821903 
L 103.818144 141.412113 
L 104.02179 141.235158 
L 104.496962 140.662384 
L 104.564844 140.448176 
L 104.632725 140.485429 
L 105.58307 139.479582 
L 105.922479 138.664659 
L 106.465533 138.431824 
L 106.940705 137.761259 
L 107.347996 137.500484 
L 107.483759 137.472544 
L 107.755286 137.179172 
L 108.026813 136.788009 
L 108.162577 136.555174 
L 108.569867 136.02431 
L 108.637749 136.05225 
L 108.841394 135.702997 
L 108.909276 135.716967 
L 109.112921 135.186103 
L 109.180803 135.283894 
L 109.248685 135.330461 
L 109.45233 135.13488 
L 109.588094 135.102283 
L 109.859621 134.934642 
L 110.063266 134.920671 
L 110.334793 134.73906 
L 110.538438 134.743717 
L 110.742084 134.687836 
L 111.013611 134.25942 
L 112.235482 133.076618 
L 112.507009 132.694768 
L 113.117945 131.968323 
L 113.32159 131.66098 
L 113.389472 131.754115 
L 113.457354 131.674951 
L 113.660999 131.758771 
L 113.864645 131.372265 
L 114.136172 130.953162 
L 114.611344 130.846058 
L 115.358043 129.709823 
L 115.425925 129.793643 
L 115.697452 129.430421 
L 115.968979 128.811079 
L 116.036861 128.890243 
L 116.172624 128.736572 
L 116.512033 128.662065 
L 116.715678 128.554961 
L 117.190851 128.014783 
L 117.258732 128.107917 
L 117.394496 127.986843 
L 117.801786 127.688814 
L 117.93755 127.488576 
L 118.073314 127.474606 
L 118.209077 127.423382 
L 118.412722 127.316278 
L 118.548486 127.13001 
L 118.684249 127.260398 
L 119.159422 126.450132 
L 119.295185 126.422192 
L 119.566712 126.19867 
L 119.770357 126.333714 
L 119.974003 126.119506 
L 120.177648 125.858731 
L 120.449175 125.602612 
L 120.720702 125.29527 
L 120.788584 125.341837 
L 121.060111 125.001898 
L 121.263756 124.983271 
L 121.671047 124.522257 
L 121.738928 124.526914 
L 121.942574 124.298736 
L 122.078337 124.256825 
L 122.349864 124.331333 
L 122.9608 123.195098 
L 123.028682 123.195098 
L 123.232327 123.032113 
L 123.979026 122.785308 
L 124.182672 122.501249 
L 124.250554 122.491936 
L 124.929371 121.304477 
L 125.133016 121.267223 
L 125.743952 120.894687 
L 126.151243 120.089078 
L 126.490652 119.809676 
L 126.626415 119.632721 
L 126.897942 119.274155 
L 127.033706 119.208961 
L 127.644641 118.668784 
L 127.780405 118.6455 
L 128.459223 118.370755 
L 128.594986 118.128606 
L 128.73075 118.198457 
L 128.934395 118.086696 
L 129.070158 118.17983 
L 129.613212 117.67225 
L 129.884739 117.537205 
L 130.020503 117.23452 
L 130.088385 117.341624 
L 130.29203 117.150699 
L 130.427794 117.132072 
L 130.631439 117.085505 
L 130.767202 117.052908 
L 130.902966 116.875954 
L 131.038729 117.043595 
L 131.106611 116.875954 
L 131.174493 116.922521 
L 131.242375 116.936491 
L 131.581783 116.517388 
L 131.717547 116.522045 
L 131.785429 116.251956 
L 131.85331 116.335776 
L 131.989074 116.349747 
L 132.056956 116.340433 
L 132.260601 116.177449 
L 132.396365 116.233329 
L 132.464246 116.051718 
L 132.532128 116.088971 
L 132.667892 116.112255 
L 132.803655 115.912017 
L 133.210946 115.329929 
L 133.889763 114.859602 
L 134.025527 114.654707 
L 134.297054 114.542946 
L 134.636463 114.067963 
L 135.518925 112.619729 
L 135.858334 112.233223 
L 136.129861 112.209939 
L 136.333506 111.92588 
L 136.740797 111.758239 
L 137.080206 111.148211 
L 137.148088 111.204092 
L 137.215969 111.246002 
L 137.419615 111.05042 
L 137.487496 111.083017 
L 137.759023 110.552153 
L 138.03055 110.337945 
L 138.098432 110.323975 
L 138.302077 110.114424 
L 138.573604 109.993349 
L 138.709368 110.193587 
L 138.913013 109.853648 
L 139.116659 109.644097 
L 139.252422 109.509052 
L 139.388186 109.294844 
L 139.727594 109.252934 
L 140.270648 108.605652 
L 140.474294 108.79192 
L 140.813703 108.461295 
L 141.017348 108.433354 
L 141.288875 108.214489 
L 141.49252 108.098072 
L 141.696165 107.869893 
L 141.831929 107.907147 
L 142.578628 106.696405 
L 142.850155 106.682435 
L 143.053801 106.486853 
L 143.393209 106.375092 
L 143.461091 106.426316 
L 143.732618 106.212108 
L 143.868382 106.286615 
L 144.682963 105.369245 
L 144.95449 105.15038 
L 145.158135 105.061903 
L 145.293899 105.075873 
L 145.769071 104.605546 
L 146.040598 104.633486 
L 146.10848 104.382024 
L 146.176361 104.419278 
L 146.312125 104.456531 
L 146.447888 104.298204 
L 146.583652 104.107279 
L 146.787297 104.298204 
L 146.923061 104.312174 
L 147.058824 104.102622 
L 147.126706 104.158503 
L 147.194588 104.251637 
L 147.466115 103.790623 
L 147.601878 103.706803 
L 147.805524 103.697489 
L 148.009169 103.320296 
L 148.348578 103.292356 
L 148.552223 103.418087 
L 148.755868 103.283043 
L 149.095277 102.747522 
L 149.434686 102.677672 
L 149.502568 102.756835 
L 149.841976 102.216658 
L 149.909858 102.225972 
L 150.249267 101.830152 
L 150.38503 101.737018 
L 150.656557 101.601974 
L 150.724439 101.615944 
L 150.928084 101.438989 
L 151.13173 101.60663 
L 151.53902 101.294631 
L 151.674784 101.080423 
L 151.810547 101.09905 
L 152.217838 100.465738 
L 152.28572 100.465738 
L 152.557247 100.158396 
L 152.760892 100.065262 
L 152.964537 99.888307 
L 153.168183 100.018695 
L 153.303946 99.953501 
L 153.371828 99.906934 
L 153.43971 99.995412 
L 153.507591 99.934874 
L 153.575473 99.823114 
L 153.643355 99.902278 
L 154.186409 99.054758 
L 154.254291 98.82658 
L 154.322172 98.849863 
L 154.390054 98.863833 
L 154.525818 98.742759 
L 154.661581 98.84055 
L 154.729463 98.915057 
L 154.933108 98.742759 
L 155.068872 98.635655 
L 155.883453 97.722941 
L 156.426507 97.392316 
L 156.494389 97.601867 
L 156.56227 97.52736 
L 156.833797 97.308495 
L 157.037443 97.336435 
L 157.580497 96.768318 
L 157.648379 96.786944 
L 157.71626 96.586706 
L 157.784142 96.62396 
L 158.191433 96.726407 
L 158.46296 96.656557 
L 158.734487 96.591363 
L 158.802368 96.703124 
L 158.87025 96.647243 
L 159.006014 96.60999 
L 159.141777 96.512199 
L 159.481186 96.21417 
L 159.61695 96.367841 
L 159.684831 96.293334 
L 159.752713 96.204857 
L 159.820595 96.288677 
L 160.431531 95.906828 
L 160.635176 95.809037 
L 161.449757 95.222293 
L 161.721284 94.947547 
L 162.264338 94.537758 
L 162.400102 94.509817 
L 162.807392 94.384086 
L 162.943156 94.314236 
L 163.078919 94.304923 
L 163.214683 94.323549 
L 163.689855 93.96964 
L 163.825619 93.89979 
L 164.029264 93.657641 
L 164.572318 93.434119 
L 164.843845 93.191971 
L 164.979608 93.01036 
L 165.251135 92.949822 
L 165.454781 93.06624 
L 165.726308 92.707674 
L 165.79419 92.726301 
L 165.929953 92.502779 
L 165.997835 92.554003 
L 166.880298 92.209407 
L 167.016061 92.116273 
L 167.083943 92.237347 
L 167.151825 92.153527 
L 167.35547 91.869468 
L 167.762761 91.72511 
L 167.830642 91.585409 
L 167.898524 91.664573 
L 168.034288 91.613349 
L 168.170051 91.66923 
L 168.645223 91.338604 
L 168.780987 91.366544 
L 168.984632 91.30135 
L 169.120396 91.371201 
L 169.256159 91.24547 
L 169.324041 91.343261 
L 169.391923 91.208216 
L 169.459804 91.264097 
L 169.731331 91.184933 
L 169.867095 90.980038 
L 170.342267 90.565591 
L 170.410149 90.570248 
L 170.749558 90.048698 
L 171.088967 89.778609 
L 171.292612 89.45264 
L 171.767784 89.266372 
L 172.175075 89.07079 
L 172.310838 89.024223 
L 172.37872 88.903149 
L 172.446602 89.00094 
L 172.514484 89.024223 
L 172.582365 88.875209 
L 172.650247 88.921776 
L 173.261183 88.558553 
L 173.464828 88.404882 
L 173.804237 88.456106 
L 173.872119 88.325718 
L 173.940001 88.511986 
L 174.007882 88.456106 
L 174.415173 88.172047 
L 174.483055 88.158077 
L 174.550936 88.302435 
L 174.618818 88.232584 
L 175.297636 87.534079 
L 175.433399 87.627213 
L 175.772808 87.301244 
L 175.84069 87.315214 
L 176.044335 87.012528 
L 176.315862 87.189483 
L 176.587389 87.26399 
L 176.926798 86.989245 
L 177.130443 86.961305 
L 177.334088 86.942678 
L 177.537734 86.900767 
L 177.605615 87.031155 
L 177.809261 86.751753 
L 177.877142 86.765723 
L 177.945024 86.639992 
L 178.012906 86.691216 
L 178.352315 86.365247 
L 178.55596 85.988054 
L 178.963251 86.043934 
L 179.370541 85.638801 
L 179.506305 85.694682 
L 179.574186 85.671398 
L 179.777832 85.433907 
L 179.845713 85.396653 
L 179.913595 85.531697 
L 180.049359 85.215042 
L 180.11724 85.252295 
L 180.253004 85.391996 
L 180.524531 85.126564 
L 180.660295 85.201072 
L 181.406994 84.651581 
L 181.474876 84.735401 
L 181.610639 84.502566 
L 181.678521 84.563103 
L 181.746403 84.390805 
L 181.814284 84.437372 
L 182.085811 84.232478 
L 182.221575 84.185911 
L 182.289457 84.181254 
L 182.493102 83.901852 
L 182.764629 83.943762 
L 182.900393 83.939105 
L 183.17192 84.111403 
L 183.239801 84.11606 
L 183.511328 83.738867 
L 183.918619 83.645733 
L 184.122264 83.343048 
L 184.801082 83.031049 
L 184.936845 82.928601 
L 185.072609 83.091586 
L 185.140491 82.923945 
L 185.344136 82.751647 
L 185.547781 82.830811 
L 185.683545 82.695766 
L 185.88719 82.714393 
L 186.022953 82.556065 
L 186.158717 82.551408 
L 186.430244 82.197499 
L 186.973298 81.932067 
L 187.109062 82.062455 
L 187.176943 81.918097 
L 187.244825 81.964664 
L 187.312707 81.983291 
L 187.44847 82.183529 
L 187.584234 82.048485 
L 187.855761 81.797023 
L 188.330933 81.373263 
L 188.398815 81.4338 
L 188.466697 81.270816 
L 188.534579 81.34998 
L 188.738224 81.312726 
L 189.009751 81.098518 
L 189.077633 81.173025 
L 189.145514 81.103174 
L 189.417041 80.986757 
L 189.824332 80.446579 
L 190.299504 80.162521 
L 190.774677 79.715477 
L 190.842558 79.748074 
L 191.249849 79.245151 
L 191.453494 79.301031 
L 191.725021 79.207897 
L 192.132312 79.319658 
L 192.743248 78.975062 
L 192.946893 78.798107 
L 193.354183 78.611839 
L 193.62571 78.118229 
L 193.761474 78.099602 
L 193.965119 77.927304 
L 194.236646 77.913334 
L 194.508173 77.713096 
L 194.7797 77.349873 
L 194.915464 77.433694 
L 195.051227 77.387127 
L 195.119109 77.480261 
L 195.186991 77.419724 
L 195.254873 77.205515 
L 195.322754 77.233456 
L 195.458518 77.172918 
L 195.865808 77.186889 
L 196.408862 76.586174 
L 196.612508 76.600144 
L 196.748271 76.362652 
L 197.155562 76.651368 
L 197.223444 76.665338 
L 197.359207 76.814352 
L 197.494971 76.884203 
L 197.630734 77.107725 
L 197.766498 76.935427 
L 197.902261 77.023904 
L 198.105906 76.949397 
L 198.173788 76.921457 
L 198.309552 77.070471 
L 198.513197 76.991307 
L 198.716842 77.210172 
L 198.920488 77.191545 
L 198.988369 77.284679 
L 199.124133 77.154292 
L 199.463542 77.219485 
L 199.735069 77.075128 
L 199.870832 77.242769 
L 199.938714 77.144978 
L 200.278123 77.107725 
L 200.481768 76.823666 
L 200.54965 76.893516 
L 200.753295 76.674651 
L 200.889058 76.618771 
L 201.024822 76.441816 
L 201.092704 76.646711 
L 201.160586 76.53495 
L 201.364231 76.269518 
L 201.499994 76.129817 
L 201.771521 75.799192 
L 202.246694 75.827132 
L 202.382457 75.640864 
L 202.450339 75.724684 
L 202.721866 75.626894 
L 202.857629 75.710714 
L 202.993393 75.64552 
L 203.129157 75.738654 
L 203.26492 75.622237 
L 203.332802 75.64552 
L 203.807974 75.105343 
L 204.011619 75.240387 
L 204.351028 74.793344 
L 204.41891 74.872508 
L 204.486792 74.811971 
L 204.690437 74.774717 
L 205.029846 74.616389 
L 205.165609 74.490658 
L 205.233491 74.648986 
L 205.301373 74.546539 
L 205.369255 74.648986 
L 205.437136 74.560509 
L 205.505018 74.430121 
L 205.5729 74.472032 
L 205.640782 74.490658 
L 206.387481 73.563975 
L 206.998417 73.149529 
L 207.269944 73.149529 
L 207.405707 72.92135 
L 207.473589 73.098305 
L 207.541471 73.000514 
L 207.609353 72.898067 
L 207.677234 72.967917 
L 207.745116 72.981887 
L 207.948761 72.614008 
L 208.016643 72.707142 
L 208.152407 72.623321 
L 208.559697 72.03192 
L 208.763342 72.092457 
L 208.899106 71.920159 
L 208.966988 72.01795 
L 209.034869 71.96207 
L 209.170633 71.808399 
L 209.238515 71.864279 
L 210.324623 70.378791 
L 210.392505 70.430015 
L 210.731913 70.113359 
L 210.935559 70.318254 
L 211.207086 70.23909 
L 211.342849 70.374135 
L 211.478613 70.257717 
L 211.614376 70.495209 
L 211.75014 70.509179 
L 212.361076 70.60697 
L 212.564721 70.658193 
L 212.700484 70.611626 
L 213.107775 70.453298 
L 213.175657 70.481239 
L 213.447184 70.145956 
L 213.718711 70.006255 
L 213.854474 69.969002 
L 213.990238 70.020225 
L 214.126001 69.964345 
L 214.329647 69.722196 
L 214.601174 69.80136 
L 214.940582 69.237899 
L 215.415755 69.354317 
L 215.551518 69.29378 
L 215.755164 69.312407 
L 216.230336 68.935214 
L 216.501863 69.093542 
L 216.637626 69.005064 
L 216.909153 68.81414 
L 217.044917 68.82811 
L 217.316444 68.846736 
L 217.384326 68.89796 
L 217.587971 68.772229 
L 217.723735 68.786199 
L 217.859498 68.893304 
L 218.538316 68.693065 
L 218.606197 68.651155 
L 218.674079 68.436947 
L 218.741961 68.4742 
L 219.08137 68.478857 
L 219.285015 68.264649 
L 219.420778 68.409007 
L 219.48866 68.339156 
L 219.624424 68.241365 
L 219.828069 67.95265 
L 219.895951 68.092351 
L 220.099596 67.896769 
L 220.371123 67.635994 
L 220.439005 67.533547 
L 220.506887 67.622024 
L 220.574768 67.589427 
L 220.846295 67.840889 
L 221.117822 67.878143 
L 221.525113 67.449726 
L 221.660876 67.398502 
L 221.932404 67.533547 
L 222.339694 67.328652 
L 222.475458 67.412472 
L 222.746985 67.323995 
L 223.222157 66.862982 
L 223.290039 66.946802 
L 223.425802 66.779161 
L 223.833093 66.974743 
L 224.10462 66.783818 
L 224.308265 66.755878 
L 224.444029 66.68137 
L 224.647674 66.737251 
L 224.851319 66.592893 
L 226.480481 65.77797 
L 226.616245 65.77797 
L 226.752008 65.745373 
L 226.81989 65.535822 
L 226.887772 65.610329 
L 227.498708 65.438031 
L 227.702353 65.22848 
L 227.97388 64.953734 
L 228.177525 64.879227 
L 228.449052 64.865257 
L 228.652698 64.655705 
L 228.856343 64.604482 
L 229.195752 64.557915 
L 229.331515 64.758153 
L 229.467279 64.539288 
L 229.603042 64.539288 
L 229.670924 64.418214 
L 229.738806 64.502034 
L 230.010333 64.362333 
L 230.146096 64.446154 
L 230.349742 64.455467 
L 230.485505 64.581198 
L 231.300086 64.166752 
L 231.639495 63.631231 
L 231.911022 63.347172 
L 232.046785 63.389083 
L 232.318313 63.314575 
L 232.386194 63.403053 
L 232.454076 63.295949 
L 232.521958 63.510157 
L 232.58984 63.389083 
L 232.657721 63.319232 
L 232.861367 63.603291 
L 232.929248 63.570694 
L 233.065012 63.319232 
L 233.268657 63.221441 
L 233.675948 62.974636 
L 233.879593 62.969979 
L 234.219002 62.862875 
L 234.354765 63.002576 
L 234.626292 62.751114 
L 235.033583 63.0538 
L 235.372992 62.690577 
L 235.7124 62.713861 
L 235.848164 62.583473 
L 235.983927 62.732488 
L 236.187573 62.266818 
L 236.594863 62.332011 
L 236.798509 62.10849 
L 237.070036 62.10849 
L 237.137917 62.19231 
L 237.409444 61.833744 
L 237.477326 61.815118 
L 237.61309 62.006042 
L 237.816735 61.731297 
L 238.02038 61.498462 
L 238.359789 61.517089 
L 238.427671 61.512432 
L 238.834961 60.921031 
L 238.970725 60.82324 
L 239.242252 60.632315 
L 239.513779 60.706823 
L 239.717424 60.473988 
L 240.32836 60.636972 
L 240.532005 60.525211 
L 240.803532 60.287719 
L 240.939296 60.320316 
L 241.075059 60.203899 
L 241.278705 60.394824 
L 241.550232 60.422764 
L 241.685995 60.520555 
L 242.364813 60.231839 
L 242.704222 60.259779 
L 242.839985 60.222526 
L 242.907867 60.311003 
L 243.315157 59.803423 
L 243.450921 59.943124 
L 243.518803 59.84999 
L 243.722448 59.845333 
L 243.79033 59.733572 
L 243.858211 59.789452 
L 244.333384 59.584558 
L 244.401265 59.673035 
L 244.604911 59.547304 
L 245.215847 59.449513 
L 245.35161 59.365693 
L 245.623137 59.118887 
L 245.962546 58.913993 
L 246.098309 58.937276 
L 246.234073 58.778948 
L 246.437718 58.662531 
L 246.573482 58.518173 
L 247.320181 58.406412 
L 247.523826 58.317935 
L 247.65959 58.285338 
L 247.795353 58.373815 
L 247.998999 58.07113 
L 248.202644 57.987309 
L 248.338407 58.103727 
L 248.474171 57.903488 
L 248.609934 57.945399 
L 248.745698 57.698594 
L 249.085107 57.833638 
L 249.152989 57.828981 
L 249.356634 58.047846 
L 249.492397 58.047846 
L 249.831806 57.838295 
L 250.035451 57.964026 
L 250.103333 57.898832 
L 250.37486 58.248084 
L 250.714269 58.05716 
L 250.782151 58.103727 
L 250.917914 58.043189 
L 251.257323 57.926772 
L 251.393087 57.945399 
L 251.52885 57.815011 
L 251.596732 57.838295 
L 251.732495 57.693937 
L 251.868259 57.679967 
L 251.936141 57.61943 
L 252.071904 57.735847 
L 252.207668 57.652027 
L 252.343431 57.596146 
L 252.614958 57.288804 
L 252.818603 57.000088 
L 253.158012 57.000088 
L 253.429539 56.711373 
L 253.701066 56.436627 
L 253.904712 56.110658 
L 254.108357 55.975614 
L 254.312002 56.2783 
L 254.515647 56.399374 
L 254.855056 56.492508 
L 254.922938 56.287613 
L 254.99082 56.36212 
L 255.194465 56.553045 
L 255.262347 56.29227 
L 255.330229 56.34815 
L 255.39811 56.329523 
L 255.601756 56.436627 
L 255.669637 56.329523 
L 255.737519 56.39006 
L 256.009046 56.33418 
L 256.076928 56.450598 
L 256.14481 56.301583 
L 256.212691 56.338837 
L 257.027272 55.966301 
L 257.095154 55.929047 
L 257.230918 55.747436 
L 257.773972 55.677585 
L 257.841854 55.85454 
L 257.909735 55.794003 
L 258.045499 55.85454 
L 258.249144 55.672928 
L 258.588553 55.929047 
L 258.724316 55.905764 
L 258.995843 55.93836 
L 259.131607 55.984927 
L 259.335252 55.966301 
L 259.606779 55.551854 
L 259.674661 55.47269 
L 259.810425 55.686899 
L 259.878306 55.589108 
L 260.149833 55.356273 
L 260.353479 55.421467 
L 260.42136 55.337646 
L 260.489242 55.40284 
L 260.692887 55.523914 
L 260.828651 55.556511 
L 261.032296 55.323676 
L 261.16806 55.090841 
L 261.235942 55.137408 
L 261.507469 55.277109 
L 261.711114 54.997707 
L 261.778996 55.044274 
L 262.050523 54.913886 
L 262.254168 54.625171 
L 262.593577 54.830066 
L 263.000867 54.606544 
L 263.068749 54.704335 
L 263.136631 54.643797 
L 263.340276 54.59723 
L 263.611803 54.820752 
L 263.747567 54.876633 
L 263.88333 54.927856 
L 264.086975 54.853349 
L 264.222739 54.927856 
L 264.358502 55.118781 
L 264.494266 55.044274 
L 264.630029 54.96511 
L 264.697911 54.99305 
L 264.833675 54.774185 
L 264.901556 54.988393 
L 264.969438 54.93717 
L 265.03732 54.9232 
L 265.173083 55.067557 
L 265.240965 54.974423 
L 265.376729 55.086184 
L 265.512492 54.969767 
L 265.648256 55.132751 
L 265.851901 54.876633 
L 266.123428 54.732275 
L 266.259192 54.699678 
L 266.327073 54.662424 
L 266.530719 54.853349 
L 266.5986 54.750902 
L 266.666482 54.844036 
L 266.802246 54.867319 
L 267.413181 54.657768 
L 267.481063 54.536693 
L 267.548945 54.601887 
L 267.684709 54.587917 
L 267.888354 54.518067 
L 267.956236 54.564634 
L 268.091999 54.345769 
L 268.363526 54.434246 
L 268.567171 54.14553 
L 269.245989 54.038426 
L 269.65328 53.61001 
L 269.856925 53.558786 
L 269.992688 53.451682 
L 270.196334 53.284041 
L 270.467861 53.302668 
L 270.671506 53.148996 
L 270.807269 53.088459 
L 270.875151 52.986012 
L 271.146678 53.274727 
L 271.350323 53.18625 
L 271.418205 53.088459 
L 271.486087 53.17228 
L 271.621851 53.209533 
L 271.757614 53.139683 
L 271.961259 53.162966 
L 272.029141 53.181593 
L 272.232786 53.018609 
L 272.436432 52.836997 
L 272.572195 52.967385 
L 272.707959 52.860281 
L 272.843722 52.916161 
L 272.979486 52.77646 
L 273.318894 52.939445 
L 273.52254 52.67867 
L 274.133476 52.590192 
L 274.405003 52.273537 
L 274.744411 52.403924 
L 274.948057 52.413238 
L 275.219584 52.287507 
L 275.287465 52.143149 
L 275.355347 52.194373 
L 275.626874 52.399267 
L 275.694756 52.236283 
L 275.898401 52.119865 
L 276.034165 52.231626 
L 276.305692 52.115209 
L 276.916628 51.891687 
L 277.120273 51.686792 
L 277.459682 51.630912 
L 277.663327 51.579688 
L 278.002736 51.216465 
L 278.070618 51.33754 
L 278.138499 51.286316 
L 278.274263 51.100048 
L 278.477908 50.95569 
L 278.54579 51.034854 
L 278.681553 50.820646 
L 278.885199 50.848586 
L 279.020962 50.843929 
L 279.156726 50.857899 
L 279.428253 50.564527 
L 279.496134 50.50399 
L 279.631898 50.587811 
L 280.039189 50.327035 
L 280.242834 50.257185 
L 280.310716 50.182678 
L 280.378597 50.350319 
L 280.446479 50.219931 
L 280.650124 50.452766 
L 281.057415 50.359632 
L 281.193178 50.173364 
L 281.532587 50.205961 
L 281.668351 50.205961 
L 281.804114 50.154737 
L 281.939878 50.308409 
L 282.143523 50.452766 
L 282.618695 50.229245 
L 282.822341 49.866022 
L 282.958104 49.884649 
L 283.501158 50.029006 
L 283.840567 49.740291 
L 284.044212 49.730978 
L 284.247858 49.540053 
L 284.383621 49.474859 
L 284.519385 49.451576 
L 284.655148 49.363098 
L 285.13032 49.288591 
L 285.198202 49.17683 
L 285.266084 49.223397 
L 285.401847 49.223397 
L 285.809138 48.715817 
L 286.216429 48.436415 
L 286.487956 48.138386 
L 286.691601 47.970745 
L 286.963128 47.756536 
L 287.166773 47.82173 
L 287.4383 47.709969 
L 287.506182 47.775163 
L 287.641945 47.695999 
L 287.709827 47.826387 
L 287.777709 47.747223 
L 287.913472 47.798447 
L 288.049236 47.947461 
L 288.117118 47.900894 
L 288.320763 48.268773 
L 288.388645 48.222206 
L 288.931699 47.961431 
L 289.135344 47.87761 
L 289.271108 47.914864 
L 289.474753 47.872954 
L 289.74628 47.984715 
L 289.814162 47.891581 
L 289.882043 48.007998 
L 290.017807 47.896237 
L 291.036033 47.719283 
L 291.103915 47.831043 
L 291.171797 47.756536 
L 291.30756 47.509731 
L 291.443324 47.281553 
L 291.986378 47.290866 
L 292.190023 47.002151 
L 292.46155 47.137195 
L 292.868841 46.983524 
L 292.936723 47.006807 
L 293.20825 46.699465 
L 293.479777 46.45266 
L 293.61554 46.443346 
L 293.683422 46.382809 
L 293.751304 46.461973 
L 293.887067 46.610988 
L 293.954949 46.517854 
L 294.226476 46.489913 
L 294.430121 46.201198 
L 294.565885 46.159288 
L 294.701648 46.052184 
L 294.905294 45.982333 
L 295.041057 45.968363 
L 295.108939 45.907826 
L 295.176821 46.047527 
L 295.244702 45.98699 
L 295.516229 45.954393 
L 295.787756 45.702931 
L 295.855638 45.740185 
L 296.059283 45.442156 
L 296.262929 45.293141 
L 296.466574 45.456126 
L 296.805983 45.386275 
L 296.873865 45.158097 
L 296.941746 45.204664 
L 297.145392 45.106873 
L 297.756327 45.08359 
L 298.027854 44.967172 
L 298.706672 45.074276 
L 298.774554 45.18138 
L 298.842436 45.102217 
L 299.317608 45.404902 
L 299.928544 45.213977 
L 299.996425 45.134813 
L 300.064307 45.213977 
L 300.200071 45.246574 
L 300.403716 45.302455 
L 300.539479 45.195351 
L 300.675243 45.209321 
L 300.878888 45.195351 
L 300.94677 45.335052 
L 301.014652 45.274514 
L 301.286179 45.060306 
L 301.421942 44.990456 
L 301.557706 44.995112 
L 301.761351 44.603949 
L 301.829233 44.706397 
L 302.032878 44.669143 
L 302.440169 44.454935 
L 302.643814 44.566696 
L 302.779578 44.571353 
L 302.847459 44.426995 
L 302.915341 44.487532 
L 303.186868 44.557382 
L 303.390513 44.571353 
L 303.594159 44.683113 
L 303.865686 44.426995 
L 304.001449 44.375771 
L 304.069331 44.459592 
L 304.137213 44.375771 
L 304.340858 44.198816 
L 304.544503 44.203473 
L 304.81603 44.077742 
L 304.951794 43.993922 
L 305.019676 44.040489 
L 305.087557 43.947355 
L 305.155439 43.998578 
L 305.834257 43.75643 
L 305.902138 43.891474 
L 306.173665 43.579475 
L 306.309429 43.667952 
L 306.648838 43.458401 
L 307.191892 43.37458 
L 307.802828 42.690045 
L 307.870709 42.834403 
L 308.345882 42.932194 
L 308.549527 42.778523 
L 308.753172 42.927537 
L 308.956817 42.89494 
L 309.092581 42.806463 
L 309.228345 42.85303 
L 309.43199 42.685389 
L 309.499872 42.727299 
L 309.635635 42.657448 
L 310.178689 42.634165 
L 310.314453 42.596911 
L 310.925388 42.517747 
L 311.129034 42.671418 
L 311.332679 42.159181 
L 311.943615 42.126584 
L 312.14726 41.940316 
L 312.350905 41.9636 
L 312.486669 42.205748 
L 312.554551 42.168495 
L 312.893959 42.275599 
L 313.233368 42.093987 
L 313.30125 42.145211 
L 313.504895 41.744735 
L 313.640659 41.730765 
L 314.183713 41.865809 
L 314.319476 42.03345 
L 314.387358 41.917033 
L 314.658885 42.354763 
L 314.998294 42.40133 
L 315.066176 42.131241 
L 315.134057 42.196435 
L 315.405585 42.075361 
L 315.677112 42.01948 
L 315.744993 41.884436 
L 315.812875 41.944973 
L 315.948639 41.917033 
L 317.17051 41.809929 
L 317.238392 41.940316 
L 317.306274 41.856496 
L 317.509919 41.800615 
L 317.849328 42.117271 
L 317.91721 42.070704 
L 318.052973 42.177808 
L 318.256618 42.042764 
L 318.392382 42.042764 
L 318.867554 42.135898 
L 318.935436 42.219718 
L 319.003318 42.163838 
L 319.206963 42.205748 
L 319.410608 41.9636 
L 319.614254 42.112614 
L 319.750017 42.042764 
L 319.885781 42.173151 
L 320.225189 41.931003 
L 320.293071 42.03345 
L 320.360953 41.986883 
L 320.496716 41.940316 
L 320.564598 41.958943 
L 320.700362 41.833212 
L 320.904007 41.777332 
L 321.03977 41.884436 
L 321.107652 41.786645 
L 321.175534 41.875122 
L 321.514943 41.819242 
L 321.718588 42.052077 
L 322.057997 41.917033 
L 322.19376 41.99154 
L 323.076223 41.49793 
L 323.34775 41.749392 
L 323.822923 41.670228 
L 324.637504 41.819242 
L 324.909031 41.58175 
L 325.180558 41.684198 
L 325.248439 41.833212 
L 325.316321 41.716795 
L 325.519966 41.791302 
L 325.587848 41.712138 
L 325.65573 41.786645 
L 326.402429 41.712138 
L 326.606075 41.55381 
L 326.877602 41.404796 
L 327.081247 40.957752 
L 327.21701 40.985693 
L 327.420656 40.818051 
L 327.624301 40.69232 
L 327.827946 40.510709 
L 327.895828 40.627127 
L 328.235237 40.710947 
L 328.438882 40.850648 
L 328.574646 40.841335 
L 328.710409 40.897215 
L 328.914054 40.696977 
L 329.049818 40.710947 
L 329.321345 40.995006 
L 329.389227 40.948439 
L 329.592872 40.575903 
L 329.728635 40.524679 
L 330.475335 40.082292 
L 330.611098 40.221994 
L 330.746862 40.124203 
L 330.882625 40.319784 
L 330.950507 40.189397 
L 331.018389 40.245277 
L 331.289916 40.659723 
L 331.357798 40.603843 
L 331.561443 40.729574 
L 331.900852 40.380321 
L 332.647551 39.989158 
L 332.851196 39.80289 
L 333.054842 39.523488 
L 333.326369 39.686473 
L 333.937305 39.169579 
L 334.344595 39.104385 
L 334.412477 39.011251 
L 334.54824 39.132325 
L 335.023413 39.32325 
L 335.227058 39.113699 
L 335.566467 39.304623 
L 335.905875 38.946057 
L 336.313166 39.062475 
L 336.44893 39.062475 
L 336.584693 38.983311 
L 336.991984 38.85758 
L 337.195629 38.880864 
L 337.263511 38.922774 
L 337.331392 38.81567 
L 337.399274 38.862237 
L 337.602919 38.82964 
L 337.874446 38.750476 
L 338.078092 38.680625 
L 338.213855 38.689939 
L 338.417501 38.87155 
L 338.485382 38.848267 
L 338.553264 38.661999 
L 338.621146 38.722536 
L 338.756909 38.531611 
L 338.824791 38.638715 
L 339.096318 38.689939 
L 339.1642 38.643372 
L 339.299963 38.946057 
L 339.367845 38.890177 
L 339.57149 39.034535 
L 339.775136 39.020565 
L 339.910899 39.081102 
L 340.046663 39.039191 
L 340.453953 38.475731 
L 340.521835 38.512984 
L 340.72548 38.317403 
L 340.793362 38.373283 
L 341.064889 38.042657 
L 341.200653 38.168388 
L 341.268534 38.019374 
L 341.675825 37.441943 
L 341.87947 37.600271 
L 342.150997 37.367436 
L 342.490406 37.02284 
L 342.62617 37.088034 
L 342.761933 37.041467 
L 342.897697 37.139257 
L 343.03346 37.055437 
L 343.169224 37.12063 
L 343.440751 37.264988 
L 343.508632 37.306899 
L 344.051686 36.659617 
L 344.119568 36.631677 
L 344.323214 36.794661 
L 344.391095 36.794661 
L 344.526859 36.706184 
L 344.730504 36.915736 
L 345.002031 36.771378 
L 345.137795 36.790005 
L 345.273558 36.678244 
L 345.409322 36.706184 
L 345.680849 36.394185 
L 345.816612 36.394185 
L 346.020257 36.193947 
L 346.223903 36.249827 
L 346.291784 36.291738 
L 346.49543 36.049589 
L 346.699075 36.021649 
L 346.970602 35.863321 
L 347.106366 35.858664 
L 347.377893 36.114783 
L 347.513656 35.961112 
L 347.581538 36.021649 
L 347.717301 35.919202 
L 347.920947 35.914545 
L 348.396119 35.472158 
L 348.464001 35.509412 
L 348.599764 35.72362 
L 349.889518 35.774844 
L 350.025281 35.621173 
L 350.228926 35.844694 
L 350.500453 35.770187 
L 350.704099 35.625829 
L 350.907744 35.602546 
L 351.043508 35.66774 
L 351.247153 35.73759 
L 351.51868 35.532695 
L 351.654443 35.691023 
L 351.722325 35.569949 
L 351.858089 35.686366 
L 352.061734 35.555979 
L 352.265379 35.467501 
L 352.401143 35.346427 
L 352.740552 35.141532 
L 352.876315 35.001831 
L 353.283606 35.160159 
L 353.623014 34.987861 
L 353.690896 34.955264 
L 354.030305 35.430248 
L 354.166068 35.360397 
L 354.23395 35.523382 
L 354.301832 35.453531 
L 354.437595 35.448875 
L 354.573359 35.560636 
L 354.641241 35.481472 
L 354.709123 35.593232 
L 354.98065 35.211383 
L 355.184295 35.318487 
L 355.320058 35.29986 
L 355.523704 35.467501 
L 355.659467 35.490785 
L 356.474048 35.188099 
L 356.677693 35.048398 
L 356.813457 35.071682 
L 357.220748 34.838847 
L 357.288629 34.852817 
L 357.492275 35.099622 
L 357.763802 35.085652 
L 357.967447 34.913354 
L 358.306856 35.23001 
L 358.646264 35.31383 
L 358.84991 35.341771 
L 359.121437 35.225353 
L 359.392964 35.276577 
L 359.596609 35.015801 
L 359.868136 34.959921 
L 360.071781 34.852817 
L 360.207545 34.759683 
L 360.275427 34.643265 
L 360.343308 34.694489 
L 360.750599 34.685176 
L 361.56518 34.643265 
L 361.768825 34.433714 
L 362.311879 34.391803 
L 362.651288 33.995984 
L 362.990697 34.126372 
L 363.126461 34.061178 
L 363.397988 34.32661 
L 363.533751 34.335923 
L 363.601633 34.224162 
L 363.669515 34.270729 
L 364.484096 34.289356 
L 364.891386 34.023924 
L 365.095032 34.205535 
L 365.162913 34.149655 
L 365.298677 34.284699 
L 365.705967 33.991327 
L 365.773849 33.814373 
L 365.841731 33.921477 
L 366.113258 34.042551 
L 366.249021 33.968044 
L 366.452667 34.019267 
L 366.58843 34.042551 
L 366.656312 33.912163 
L 366.724194 33.982014 
L 366.995721 33.758492 
L 367.267248 33.311449 
L 368.081829 32.678137 
L 368.149711 32.720048 
L 368.285474 32.626914 
L 368.557001 32.63157 
L 369.032173 32.785242 
L 369.235819 32.459272 
L 369.303701 32.64554 
L 369.371582 32.468586 
L 369.439464 32.510496 
L 369.643109 32.696764 
L 369.710991 32.654854 
L 369.846755 32.775928 
L 369.914636 32.794555 
L 370.254045 32.431332 
L 370.45769 32.552406 
L 370.661336 32.305601 
L 370.797099 32.273004 
L 371.000744 31.895812 
L 371.20439 31.811991 
L 371.747444 31.811991 
L 371.815326 31.718857 
L 371.883207 31.793364 
L 372.154734 31.770081 
L 372.290498 31.565186 
L 372.35838 31.695573 
L 372.426261 31.649006 
L 372.562025 31.476708 
L 373.444488 30.708353 
L 373.716015 30.582622 
L 373.783897 30.689726 
L 373.851778 30.643159 
L 373.91966 30.647816 
L 374.123305 30.480174 
L 374.326951 30.587279 
L 374.462714 30.624532 
L 374.870005 30.298563 
L 375.005768 30.265966 
L 375.209413 30.144892 
L 375.413059 29.963281 
L 375.752468 29.4557 
L 375.888231 29.553491 
L 375.956113 29.558148 
L 376.023995 29.390506 
L 376.091876 29.460357 
L 376.499167 29.213552 
L 376.702812 29.04591 
L 376.906457 29.236835 
L 377.042221 29.250805 
L 377.245866 29.511581 
L 378.128329 29.423103 
L 378.264093 29.297372 
L 378.331974 29.353253 
L 378.467738 29.194925 
L 378.53562 29.306686 
L 378.603501 29.232178 
L 378.875028 29.004 
L 378.94291 29.013313 
L 379.010792 28.906209 
L 379.146555 29.153015 
L 379.282319 29.106447 
L 379.485964 29.171641 
L 379.621728 29.101791 
L 379.68961 29.208895 
L 379.825373 29.078507 
L 380.029018 28.957433 
L 380.232664 28.570927 
L 380.300545 28.645434 
L 380.504191 28.705971 
L 380.707836 28.515046 
L 380.911481 28.300838 
L 381.115126 27.970212 
L 381.183008 28.12854 
L 381.454535 28.07266 
L 381.522417 27.998153 
L 381.726062 28.207704 
L 381.929708 28.063346 
L 381.997589 28.12854 
L 382.133353 27.946929 
L 382.269116 28.030749 
L 382.472762 27.891048 
L 382.947934 28.137854 
L 383.287343 27.644243 
L 383.55887 27.774631 
L 383.898279 27.67684 
L 384.237687 27.788601 
L 384.305569 27.630273 
L 384.373451 27.66287 
L 384.577096 27.700124 
L 384.984387 27.420722 
L 385.188032 27.485915 
L 385.255914 27.59302 
L 385.323795 27.523169 
L 385.527441 27.66287 
L 385.731086 27.257737 
L 385.934731 27.285677 
L 386.002613 27.402095 
L 386.070495 27.322931 
L 386.342022 27.313617 
L 386.477785 27.262394 
L 386.545667 27.462632 
L 386.613549 27.355528 
L 386.817194 27.425378 
L 387.156603 27.667527 
L 387.42813 27.341558 
L 387.767539 27.276364 
L 387.903302 27.21117 
L 388.039066 27.26705 
L 388.310593 26.982992 
L 389.260937 26.168069 
L 389.328819 26.028368 
L 389.396701 26.126159 
L 389.532464 26.051651 
L 389.668228 26.205323 
L 389.73611 26.186696 
L 389.871873 25.939891 
L 390.211282 26.32174 
L 390.8901 26.177382 
L 391.29739 26.070278 
L 391.433154 26.135472 
L 391.636799 25.977144 
L 391.772562 25.832786 
L 392.044089 25.87004 
L 392.45138 25.860727 
L 392.655025 25.590638 
L 392.926552 25.548728 
L 392.994434 25.632548 
L 393.062316 25.41834 
L 393.130198 25.455594 
L 393.265961 25.478877 
L 393.401725 25.506817 
L 393.673252 25.222759 
L 394.01266 25.511474 
L 394.080542 25.520787 
L 394.148424 25.683772 
L 394.216306 25.604608 
L 394.419951 25.413683 
L 394.555715 25.497504 
L 394.75936 25.595295 
L 394.895123 25.353146 
L 395.030887 25.264669 
L 395.16665 25.208788 
L 395.573941 25.36246 
L 395.709704 25.269326 
L 395.981231 25.604608 
L 396.184877 25.595295 
L 396.660049 25.343833 
L 396.795813 25.478877 
L 397.06734 25.3904 
L 397.203103 25.422997 
L 397.406748 25.246042 
L 397.610394 25.064431 
L 397.814039 24.840909 
L 398.153448 25.073744 
L 398.289211 24.868849 
L 398.492857 24.934043 
L 398.62862 24.878163 
L 398.968029 25.44628 
L 399.103792 25.539414 
L 399.375319 25.711712 
L 399.578965 25.581325 
L 399.850492 25.180848 
L 400.461428 24.850222 
L 400.665073 24.985267 
L 400.732955 24.999237 
L 400.732955 24.999237 
" style="fill:none;stroke:#ff7f0e;stroke-linecap:square;stroke-width:1.5;"/>
   </g>
   <g id="patch_3">
    <path d="M 44.425 246.2 
L 44.425 14.3 
" style="fill:none;stroke:#000000;stroke-linecap:square;stroke-linejoin:miter;stroke-width:0.8;"/>
   </g>
   <g id="patch_4">
    <path d="M 417.7 246.2 
L 417.7 14.3 
" style="fill:none;stroke:#000000;stroke-linecap:square;stroke-linejoin:miter;stroke-width:0.8;"/>
   </g>
   <g id="patch_5">
    <path d="M 44.425 246.2 
L 417.7 246.2 
" style="fill:none;stroke:#000000;stroke-linecap:square;stroke-linejoin:miter;stroke-width:0.8;"/>
   </g>
   <g id="patch_6">
    <path d="M 44.425 14.3 
L 417.7 14.3 
" style="fill:none;stroke:#000000;stroke-linecap:square;stroke-linejoin:miter;stroke-width:0.8;"/>
   </g>
   <g id="legend_1">
    <g id="patch_7">
     <path d="M 51.425 51.65625 
L 135.74375 51.65625 
Q 137.74375 51.65625 137.74375 49.65625 
L 137.74375 21.3 
Q 137.74375 19.3 135.74375 19.3 
L 51.425 19.3 
Q 49.425 19.3 49.425 21.3 
L 49.425 49.65625 
Q 49.425 51.65625 51.425 51.65625 
z
" style="fill:#ffffff;opacity:0.8;stroke:#cccccc;stroke-linejoin:miter;"/>
    </g>
    <g id="line2d_14">
     <path d="M 53.425 27.398437 
L 73.425 27.398437 
" style="fill:none;stroke:#1f77b4;stroke-linecap:square;stroke-width:1.5;"/>
    </g>
    <g id="line2d_15"/>
    <g id="text_14">
     <!-- UCB1 -->
     <defs>
      <path d="M 8.6875 72.90625 
L 18.609375 72.90625 
L 18.609375 28.609375 
Q 18.609375 16.890625 22.84375 11.734375 
Q 27.09375 6.59375 36.625 6.59375 
Q 46.09375 6.59375 50.34375 11.734375 
Q 54.59375 16.890625 54.59375 28.609375 
L 54.59375 72.90625 
L 64.5 72.90625 
L 64.5 27.390625 
Q 64.5 13.140625 57.4375 5.859375 
Q 50.390625 -1.421875 36.625 -1.421875 
Q 22.796875 -1.421875 15.734375 5.859375 
Q 8.6875 13.140625 8.6875 27.390625 
z
" id="DejaVuSans-55"/>
      <path d="M 64.40625 67.28125 
L 64.40625 56.890625 
Q 59.421875 61.53125 53.78125 63.8125 
Q 48.140625 66.109375 41.796875 66.109375 
Q 29.296875 66.109375 22.65625 58.46875 
Q 16.015625 50.828125 16.015625 36.375 
Q 16.015625 21.96875 22.65625 14.328125 
Q 29.296875 6.6875 41.796875 6.6875 
Q 48.140625 6.6875 53.78125 8.984375 
Q 59.421875 11.28125 64.40625 15.921875 
L 64.40625 5.609375 
Q 59.234375 2.09375 53.4375 0.328125 
Q 47.65625 -1.421875 41.21875 -1.421875 
Q 24.65625 -1.421875 15.125 8.703125 
Q 5.609375 18.84375 5.609375 36.375 
Q 5.609375 53.953125 15.125 64.078125 
Q 24.65625 74.21875 41.21875 74.21875 
Q 47.75 74.21875 53.53125 72.484375 
Q 59.328125 70.75 64.40625 67.28125 
z
" id="DejaVuSans-43"/>
      <path d="M 19.671875 34.8125 
L 19.671875 8.109375 
L 35.5 8.109375 
Q 43.453125 8.109375 47.28125 11.40625 
Q 51.125 14.703125 51.125 21.484375 
Q 51.125 28.328125 47.28125 31.5625 
Q 43.453125 34.8125 35.5 34.8125 
z
M 19.671875 64.796875 
L 19.671875 42.828125 
L 34.28125 42.828125 
Q 41.5 42.828125 45.03125 45.53125 
Q 48.578125 48.25 48.578125 53.8125 
Q 48.578125 59.328125 45.03125 62.0625 
Q 41.5 64.796875 34.28125 64.796875 
z
M 9.8125 72.90625 
L 35.015625 72.90625 
Q 46.296875 72.90625 52.390625 68.21875 
Q 58.5 63.53125 58.5 54.890625 
Q 58.5 48.1875 55.375 44.234375 
Q 52.25 40.28125 46.1875 39.3125 
Q 53.46875 37.75 57.5 32.78125 
Q 61.53125 27.828125 61.53125 20.40625 
Q 61.53125 10.640625 54.890625 5.3125 
Q 48.25 0 35.984375 0 
L 9.8125 0 
z
" id="DejaVuSans-42"/>
     </defs>
     <g transform="translate(81.425 30.898437)scale(0.1 -0.1)">
      <use xlink:href="#DejaVuSans-55"/>
      <use x="73.193359" xlink:href="#DejaVuSans-43"/>
      <use x="143.017578" xlink:href="#DejaVuSans-42"/>
      <use x="211.621094" xlink:href="#DejaVuSans-31"/>
     </g>
    </g>
    <g id="line2d_16">
     <path d="M 53.425 42.076562 
L 73.425 42.076562 
" style="fill:none;stroke:#ff7f0e;stroke-linecap:square;stroke-width:1.5;"/>
    </g>
    <g id="line2d_17"/>
    <g id="text_15">
     <!-- Thompson -->
     <defs>
      <path d="M -0.296875 72.90625 
L 61.375 72.90625 
L 61.375 64.59375 
L 35.5 64.59375 
L 35.5 0 
L 25.59375 0 
L 25.59375 64.59375 
L -0.296875 64.59375 
z
" id="DejaVuSans-54"/>
      <path d="M 54.890625 33.015625 
L 54.890625 0 
L 45.90625 0 
L 45.90625 32.71875 
Q 45.90625 40.484375 42.875 44.328125 
Q 39.84375 48.1875 33.796875 48.1875 
Q 26.515625 48.1875 22.3125 43.546875 
Q 18.109375 38.921875 18.109375 30.90625 
L 18.109375 0 
L 9.078125 0 
L 9.078125 75.984375 
L 18.109375 75.984375 
L 18.109375 46.1875 
Q 21.34375 51.125 25.703125 53.5625 
Q 30.078125 56 35.796875 56 
Q 45.21875 56 50.046875 50.171875 
Q 54.890625 44.34375 54.890625 33.015625 
z
" id="DejaVuSans-68"/>
     </defs>
     <g transform="translate(81.425 45.576562)scale(0.1 -0.1)">
      <use xlink:href="#DejaVuSans-54"/>
      <use x="61.083984" xlink:href="#DejaVuSans-68"/>
      <use x="124.462891" xlink:href="#DejaVuSans-6f"/>
      <use x="185.644531" xlink:href="#DejaVuSans-6d"/>
      <use x="283.056641" xlink:href="#DejaVuSans-70"/>
      <use x="346.533203" xlink:href="#DejaVuSans-73"/>
      <use x="398.632812" xlink:href="#DejaVuSans-6f"/>
      <use x="459.814453" xlink:href="#DejaVuSans-6e"/>
     </g>
    </g>
   </g>
  </g>
 </g>
 <defs>
  <clipPath id="p57b74bc1d5">
   <rect height="231.9" width="373.275" x="44.425" y="14.3"/>
  </clipPath>
 </defs>
</svg>
