<?xml version="1.0" encoding="utf-8" standalone="no"?>
<!DOCTYPE svg PUBLIC "-//W3C//DTD SVG 1.1//EN"
  "http://www.w3.org/Graphics/SVG/1.1/DTD/svg11.dtd">
<!-- Created with matplotlib (http://matplotlib.org/) -->
<svg height="288pt" version="1.1" viewBox="0 0 432 288" width="432pt" xmlns="http://www.w3.org/2000/svg" xmlns:xlink="http://www.w3.org/1999/xlink">
 <defs>
  <style type="text/css">
*{stroke-linecap:butt;stroke-linejoin:round;}
  </style>
 </defs>
 <g id="figure_1">
  <g id="patch_1">
   <path d="M 0 288 
L 432 288 
L 432 0 
L 0 0 
z
" style="fill:#ffffff;"/>
  </g>
  <g id="axes_1">
   <g id="patch_2">
    <path d="M 57.05 246.2 
L 417.7 246.2 
L 417.7 14.3 
L 57.05 14.3 
z
" style="fill:#ffffff;"/>
   </g>
   <g id="matplotlib.axis_1">
    <g id="xtick_1">
     <g id="line2d_1">
      <defs>
       <path d="M 0 0 
L 0 3.5 
" id="m8568c4b490" style="stroke:#000000;stroke-width:0.8;"/>
      </defs>
      <g>
       <use style="stroke:#000000;stroke-width:0.8;" x="73.388529" xlink:href="#m8568c4b490" y="246.2"/>
      </g>
     </g>
     <g id="text_1">
      <!-- 0 -->
      <defs>
       <path d="M 31.78125 66.40625 
Q 24.171875 66.40625 20.328125 58.90625 
Q 16.5 51.421875 16.5 36.375 
Q 16.5 21.390625 20.328125 13.890625 
Q 24.171875 6.390625 31.78125 6.390625 
Q 39.453125 6.390625 43.28125 13.890625 
Q 47.125 21.390625 47.125 36.375 
Q 47.125 51.421875 43.28125 58.90625 
Q 39.453125 66.40625 31.78125 66.40625 
z
M 31.78125 74.21875 
Q 44.046875 74.21875 50.515625 64.515625 
Q 56.984375 54.828125 56.984375 36.375 
Q 56.984375 17.96875 50.515625 8.265625 
Q 44.046875 -1.421875 31.78125 -1.421875 
Q 19.53125 -1.421875 13.0625 8.265625 
Q 6.59375 17.96875 6.59375 36.375 
Q 6.59375 54.828125 13.0625 64.515625 
Q 19.53125 74.21875 31.78125 74.21875 
z
" id="DejaVuSans-30"/>
      </defs>
      <g transform="translate(70.207279 260.798437)scale(0.1 -0.1)">
       <use xlink:href="#DejaVuSans-30"/>
      </g>
     </g>
    </g>
    <g id="xtick_2">
     <g id="line2d_2">
      <g>
       <use style="stroke:#000000;stroke-width:0.8;" x="128.041577" xlink:href="#m8568c4b490" y="246.2"/>
      </g>
     </g>
     <g id="text_2">
      <!-- 1000 -->
      <defs>
       <path d="M 12.40625 8.296875 
L 28.515625 8.296875 
L 28.515625 63.921875 
L 10.984375 60.40625 
L 10.984375 69.390625 
L 28.421875 72.90625 
L 38.28125 72.90625 
L 38.28125 8.296875 
L 54.390625 8.296875 
L 54.390625 0 
L 12.40625 0 
z
" id="DejaVuSans-31"/>
      </defs>
      <g transform="translate(115.316577 260.798437)scale(0.1 -0.1)">
       <use xlink:href="#DejaVuSans-31"/>
       <use x="63.623047" xlink:href="#DejaVuSans-30"/>
       <use x="127.246094" xlink:href="#DejaVuSans-30"/>
       <use x="190.869141" xlink:href="#DejaVuSans-30"/>
      </g>
     </g>
    </g>
    <g id="xtick_3">
     <g id="line2d_3">
      <g>
       <use style="stroke:#000000;stroke-width:0.8;" x="182.694625" xlink:href="#m8568c4b490" y="246.2"/>
      </g>
     </g>
     <g id="text_3">
      <!-- 2000 -->
      <defs>
       <path d="M 19.1875 8.296875 
L 53.609375 8.296875 
L 53.609375 0 
L 7.328125 0 
L 7.328125 8.296875 
Q 12.9375 14.109375 22.625 23.890625 
Q 32.328125 33.6875 34.8125 36.53125 
Q 39.546875 41.84375 41.421875 45.53125 
Q 43.3125 49.21875 43.3125 52.78125 
Q 43.3125 58.59375 39.234375 62.25 
Q 35.15625 65.921875 28.609375 65.921875 
Q 23.96875 65.921875 18.8125 64.3125 
Q 13.671875 62.703125 7.8125 59.421875 
L 7.8125 69.390625 
Q 13.765625 71.78125 18.9375 73 
Q 24.125 74.21875 28.421875 74.21875 
Q 39.75 74.21875 46.484375 68.546875 
Q 53.21875 62.890625 53.21875 53.421875 
Q 53.21875 48.921875 51.53125 44.890625 
Q 49.859375 40.875 45.40625 35.40625 
Q 44.1875 33.984375 37.640625 27.21875 
Q 31.109375 20.453125 19.1875 8.296875 
z
" id="DejaVuSans-32"/>
      </defs>
      <g transform="translate(169.969625 260.798437)scale(0.1 -0.1)">
       <use xlink:href="#DejaVuSans-32"/>
       <use x="63.623047" xlink:href="#DejaVuSans-30"/>
       <use x="127.246094" xlink:href="#DejaVuSans-30"/>
       <use x="190.869141" xlink:href="#DejaVuSans-30"/>
      </g>
     </g>
    </g>
    <g id="xtick_4">
     <g id="line2d_4">
      <g>
       <use style="stroke:#000000;stroke-width:0.8;" x="237.347673" xlink:href="#m8568c4b490" y="246.2"/>
      </g>
     </g>
     <g id="text_4">
      <!-- 3000 -->
      <defs>
       <path d="M 40.578125 39.3125 
Q 47.65625 37.796875 51.625 33 
Q 55.609375 28.21875 55.609375 21.1875 
Q 55.609375 10.40625 48.1875 4.484375 
Q 40.765625 -1.421875 27.09375 -1.421875 
Q 22.515625 -1.421875 17.65625 -0.515625 
Q 12.796875 0.390625 7.625 2.203125 
L 7.625 11.71875 
Q 11.71875 9.328125 16.59375 8.109375 
Q 21.484375 6.890625 26.8125 6.890625 
Q 36.078125 6.890625 40.9375 10.546875 
Q 45.796875 14.203125 45.796875 21.1875 
Q 45.796875 27.640625 41.28125 31.265625 
Q 36.765625 34.90625 28.71875 34.90625 
L 20.21875 34.90625 
L 20.21875 43.015625 
L 29.109375 43.015625 
Q 36.375 43.015625 40.234375 45.921875 
Q 44.09375 48.828125 44.09375 54.296875 
Q 44.09375 59.90625 40.109375 62.90625 
Q 36.140625 65.921875 28.71875 65.921875 
Q 24.65625 65.921875 20.015625 65.03125 
Q 15.375 64.15625 9.8125 62.3125 
L 9.8125 71.09375 
Q 15.4375 72.65625 20.34375 73.4375 
Q 25.25 74.21875 29.59375 74.21875 
Q 40.828125 74.21875 47.359375 69.109375 
Q 53.90625 64.015625 53.90625 55.328125 
Q 53.90625 49.265625 50.4375 45.09375 
Q 46.96875 40.921875 40.578125 39.3125 
z
" id="DejaVuSans-33"/>
      </defs>
      <g transform="translate(224.622673 260.798437)scale(0.1 -0.1)">
       <use xlink:href="#DejaVuSans-33"/>
       <use x="63.623047" xlink:href="#DejaVuSans-30"/>
       <use x="127.246094" xlink:href="#DejaVuSans-30"/>
       <use x="190.869141" xlink:href="#DejaVuSans-30"/>
      </g>
     </g>
    </g>
    <g id="xtick_5">
     <g id="line2d_5">
      <g>
       <use style="stroke:#000000;stroke-width:0.8;" x="292.000722" xlink:href="#m8568c4b490" y="246.2"/>
      </g>
     </g>
     <g id="text_5">
      <!-- 4000 -->
      <defs>
       <path d="M 37.796875 64.3125 
L 12.890625 25.390625 
L 37.796875 25.390625 
z
M 35.203125 72.90625 
L 47.609375 72.90625 
L 47.609375 25.390625 
L 58.015625 25.390625 
L 58.015625 17.1875 
L 47.609375 17.1875 
L 47.609375 0 
L 37.796875 0 
L 37.796875 17.1875 
L 4.890625 17.1875 
L 4.890625 26.703125 
z
" id="DejaVuSans-34"/>
      </defs>
      <g transform="translate(279.275722 260.798437)scale(0.1 -0.1)">
       <use xlink:href="#DejaVuSans-34"/>
       <use x="63.623047" xlink:href="#DejaVuSans-30"/>
       <use x="127.246094" xlink:href="#DejaVuSans-30"/>
       <use x="190.869141" xlink:href="#DejaVuSans-30"/>
      </g>
     </g>
    </g>
    <g id="xtick_6">
     <g id="line2d_6">
      <g>
       <use style="stroke:#000000;stroke-width:0.8;" x="346.65377" xlink:href="#m8568c4b490" y="246.2"/>
      </g>
     </g>
     <g id="text_6">
      <!-- 5000 -->
      <defs>
       <path d="M 10.796875 72.90625 
L 49.515625 72.90625 
L 49.515625 64.59375 
L 19.828125 64.59375 
L 19.828125 46.734375 
Q 21.96875 47.46875 24.109375 47.828125 
Q 26.265625 48.1875 28.421875 48.1875 
Q 40.625 48.1875 47.75 41.5 
Q 54.890625 34.8125 54.890625 23.390625 
Q 54.890625 11.625 47.5625 5.09375 
Q 40.234375 -1.421875 26.90625 -1.421875 
Q 22.3125 -1.421875 17.546875 -0.640625 
Q 12.796875 0.140625 7.71875 1.703125 
L 7.71875 11.625 
Q 12.109375 9.234375 16.796875 8.0625 
Q 21.484375 6.890625 26.703125 6.890625 
Q 35.15625 6.890625 40.078125 11.328125 
Q 45.015625 15.765625 45.015625 23.390625 
Q 45.015625 31 40.078125 35.4375 
Q 35.15625 39.890625 26.703125 39.890625 
Q 22.75 39.890625 18.8125 39.015625 
Q 14.890625 38.140625 10.796875 36.28125 
z
" id="DejaVuSans-35"/>
      </defs>
      <g transform="translate(333.92877 260.798437)scale(0.1 -0.1)">
       <use xlink:href="#DejaVuSans-35"/>
       <use x="63.623047" xlink:href="#DejaVuSans-30"/>
       <use x="127.246094" xlink:href="#DejaVuSans-30"/>
       <use x="190.869141" xlink:href="#DejaVuSans-30"/>
      </g>
     </g>
    </g>
    <g id="xtick_7">
     <g id="line2d_7">
      <g>
       <use style="stroke:#000000;stroke-width:0.8;" x="401.306818" xlink:href="#m8568c4b490" y="246.2"/>
      </g>
     </g>
     <g id="text_7">
      <!-- 6000 -->
      <defs>
       <path d="M 33.015625 40.375 
Q 26.375 40.375 22.484375 35.828125 
Q 18.609375 31.296875 18.609375 23.390625 
Q 18.609375 15.53125 22.484375 10.953125 
Q 26.375 6.390625 33.015625 6.390625 
Q 39.65625 6.390625 43.53125 10.953125 
Q 47.40625 15.53125 47.40625 23.390625 
Q 47.40625 31.296875 43.53125 35.828125 
Q 39.65625 40.375 33.015625 40.375 
z
M 52.59375 71.296875 
L 52.59375 62.3125 
Q 48.875 64.0625 45.09375 64.984375 
Q 41.3125 65.921875 37.59375 65.921875 
Q 27.828125 65.921875 22.671875 59.328125 
Q 17.53125 52.734375 16.796875 39.40625 
Q 19.671875 43.65625 24.015625 45.921875 
Q 28.375 48.1875 33.59375 48.1875 
Q 44.578125 48.1875 50.953125 41.515625 
Q 57.328125 34.859375 57.328125 23.390625 
Q 57.328125 12.15625 50.6875 5.359375 
Q 44.046875 -1.421875 33.015625 -1.421875 
Q 20.359375 -1.421875 13.671875 8.265625 
Q 6.984375 17.96875 6.984375 36.375 
Q 6.984375 53.65625 15.1875 63.9375 
Q 23.390625 74.21875 37.203125 74.21875 
Q 40.921875 74.21875 44.703125 73.484375 
Q 48.484375 72.75 52.59375 71.296875 
z
" id="DejaVuSans-36"/>
      </defs>
      <g transform="translate(388.581818 260.798437)scale(0.1 -0.1)">
       <use xlink:href="#DejaVuSans-36"/>
       <use x="63.623047" xlink:href="#DejaVuSans-30"/>
       <use x="127.246094" xlink:href="#DejaVuSans-30"/>
       <use x="190.869141" xlink:href="#DejaVuSans-30"/>
      </g>
     </g>
    </g>
    <g id="text_8">
     <!-- Rounds -->
     <defs>
      <path d="M 44.390625 34.1875 
Q 47.5625 33.109375 50.5625 29.59375 
Q 53.5625 26.078125 56.59375 19.921875 
L 66.609375 0 
L 56 0 
L 46.6875 18.703125 
Q 43.0625 26.03125 39.671875 28.421875 
Q 36.28125 30.8125 30.421875 30.8125 
L 19.671875 30.8125 
L 19.671875 0 
L 9.8125 0 
L 9.8125 72.90625 
L 32.078125 72.90625 
Q 44.578125 72.90625 50.734375 67.671875 
Q 56.890625 62.453125 56.890625 51.90625 
Q 56.890625 45.015625 53.6875 40.46875 
Q 50.484375 35.9375 44.390625 34.1875 
z
M 19.671875 64.796875 
L 19.671875 38.921875 
L 32.078125 38.921875 
Q 39.203125 38.921875 42.84375 42.21875 
Q 46.484375 45.515625 46.484375 51.90625 
Q 46.484375 58.296875 42.84375 61.546875 
Q 39.203125 64.796875 32.078125 64.796875 
z
" id="DejaVuSans-52"/>
      <path d="M 30.609375 48.390625 
Q 23.390625 48.390625 19.1875 42.75 
Q 14.984375 37.109375 14.984375 27.296875 
Q 14.984375 17.484375 19.15625 11.84375 
Q 23.34375 6.203125 30.609375 6.203125 
Q 37.796875 6.203125 41.984375 11.859375 
Q 46.1875 17.53125 46.1875 27.296875 
Q 46.1875 37.015625 41.984375 42.703125 
Q 37.796875 48.390625 30.609375 48.390625 
z
M 30.609375 56 
Q 42.328125 56 49.015625 48.375 
Q 55.71875 40.765625 55.71875 27.296875 
Q 55.71875 13.875 49.015625 6.21875 
Q 42.328125 -1.421875 30.609375 -1.421875 
Q 18.84375 -1.421875 12.171875 6.21875 
Q 5.515625 13.875 5.515625 27.296875 
Q 5.515625 40.765625 12.171875 48.375 
Q 18.84375 56 30.609375 56 
z
" id="DejaVuSans-6f"/>
      <path d="M 8.5 21.578125 
L 8.5 54.6875 
L 17.484375 54.6875 
L 17.484375 21.921875 
Q 17.484375 14.15625 20.5 10.265625 
Q 23.53125 6.390625 29.59375 6.390625 
Q 36.859375 6.390625 41.078125 11.03125 
Q 45.3125 15.671875 45.3125 23.6875 
L 45.3125 54.6875 
L 54.296875 54.6875 
L 54.296875 0 
L 45.3125 0 
L 45.3125 8.40625 
Q 42.046875 3.421875 37.71875 1 
Q 33.40625 -1.421875 27.6875 -1.421875 
Q 18.265625 -1.421875 13.375 4.4375 
Q 8.5 10.296875 8.5 21.578125 
z
M 31.109375 56 
z
" id="DejaVuSans-75"/>
      <path d="M 54.890625 33.015625 
L 54.890625 0 
L 45.90625 0 
L 45.90625 32.71875 
Q 45.90625 40.484375 42.875 44.328125 
Q 39.84375 48.1875 33.796875 48.1875 
Q 26.515625 48.1875 22.3125 43.546875 
Q 18.109375 38.921875 18.109375 30.90625 
L 18.109375 0 
L 9.078125 0 
L 9.078125 54.6875 
L 18.109375 54.6875 
L 18.109375 46.1875 
Q 21.34375 51.125 25.703125 53.5625 
Q 30.078125 56 35.796875 56 
Q 45.21875 56 50.046875 50.171875 
Q 54.890625 44.34375 54.890625 33.015625 
z
" id="DejaVuSans-6e"/>
      <path d="M 45.40625 46.390625 
L 45.40625 75.984375 
L 54.390625 75.984375 
L 54.390625 0 
L 45.40625 0 
L 45.40625 8.203125 
Q 42.578125 3.328125 38.25 0.953125 
Q 33.9375 -1.421875 27.875 -1.421875 
Q 17.96875 -1.421875 11.734375 6.484375 
Q 5.515625 14.40625 5.515625 27.296875 
Q 5.515625 40.1875 11.734375 48.09375 
Q 17.96875 56 27.875 56 
Q 33.9375 56 38.25 53.625 
Q 42.578125 51.265625 45.40625 46.390625 
z
M 14.796875 27.296875 
Q 14.796875 17.390625 18.875 11.75 
Q 22.953125 6.109375 30.078125 6.109375 
Q 37.203125 6.109375 41.296875 11.75 
Q 45.40625 17.390625 45.40625 27.296875 
Q 45.40625 37.203125 41.296875 42.84375 
Q 37.203125 48.484375 30.078125 48.484375 
Q 22.953125 48.484375 18.875 42.84375 
Q 14.796875 37.203125 14.796875 27.296875 
z
" id="DejaVuSans-64"/>
      <path d="M 44.28125 53.078125 
L 44.28125 44.578125 
Q 40.484375 46.53125 36.375 47.5 
Q 32.28125 48.484375 27.875 48.484375 
Q 21.1875 48.484375 17.84375 46.4375 
Q 14.5 44.390625 14.5 40.28125 
Q 14.5 37.15625 16.890625 35.375 
Q 19.28125 33.59375 26.515625 31.984375 
L 29.59375 31.296875 
Q 39.15625 29.25 43.1875 25.515625 
Q 47.21875 21.78125 47.21875 15.09375 
Q 47.21875 7.46875 41.1875 3.015625 
Q 35.15625 -1.421875 24.609375 -1.421875 
Q 20.21875 -1.421875 15.453125 -0.5625 
Q 10.6875 0.296875 5.421875 2 
L 5.421875 11.28125 
Q 10.40625 8.6875 15.234375 7.390625 
Q 20.0625 6.109375 24.8125 6.109375 
Q 31.15625 6.109375 34.5625 8.28125 
Q 37.984375 10.453125 37.984375 14.40625 
Q 37.984375 18.0625 35.515625 20.015625 
Q 33.0625 21.96875 24.703125 23.78125 
L 21.578125 24.515625 
Q 13.234375 26.265625 9.515625 29.90625 
Q 5.8125 33.546875 5.8125 39.890625 
Q 5.8125 47.609375 11.28125 51.796875 
Q 16.75 56 26.8125 56 
Q 31.78125 56 36.171875 55.265625 
Q 40.578125 54.546875 44.28125 53.078125 
z
" id="DejaVuSans-73"/>
     </defs>
     <g transform="translate(218.728125 274.476562)scale(0.1 -0.1)">
      <use xlink:href="#DejaVuSans-52"/>
      <use x="69.419922" xlink:href="#DejaVuSans-6f"/>
      <use x="130.601562" xlink:href="#DejaVuSans-75"/>
      <use x="193.980469" xlink:href="#DejaVuSans-6e"/>
      <use x="257.359375" xlink:href="#DejaVuSans-64"/>
      <use x="320.835938" xlink:href="#DejaVuSans-73"/>
     </g>
    </g>
   </g>
   <g id="matplotlib.axis_2">
    <g id="ytick_1">
     <g id="line2d_8">
      <defs>
       <path d="M 0 0 
L -3.5 0 
" id="mcecdd73c25" style="stroke:#000000;stroke-width:0.8;"/>
      </defs>
      <g>
       <use style="stroke:#000000;stroke-width:0.8;" x="57.05" xlink:href="#mcecdd73c25" y="236.359227"/>
      </g>
     </g>
     <g id="text_9">
      <!-- 0 -->
      <g transform="translate(43.6875 240.158446)scale(0.1 -0.1)">
       <use xlink:href="#DejaVuSans-30"/>
      </g>
     </g>
    </g>
    <g id="ytick_2">
     <g id="line2d_9">
      <g>
       <use style="stroke:#000000;stroke-width:0.8;" x="57.05" xlink:href="#mcecdd73c25" y="203.909004"/>
      </g>
     </g>
     <g id="text_10">
      <!-- 500 -->
      <g transform="translate(30.9625 207.708223)scale(0.1 -0.1)">
       <use xlink:href="#DejaVuSans-35"/>
       <use x="63.623047" xlink:href="#DejaVuSans-30"/>
       <use x="127.246094" xlink:href="#DejaVuSans-30"/>
      </g>
     </g>
    </g>
    <g id="ytick_3">
     <g id="line2d_10">
      <g>
       <use style="stroke:#000000;stroke-width:0.8;" x="57.05" xlink:href="#mcecdd73c25" y="171.45878"/>
      </g>
     </g>
     <g id="text_11">
      <!-- 1000 -->
      <g transform="translate(24.6 175.257999)scale(0.1 -0.1)">
       <use xlink:href="#DejaVuSans-31"/>
       <use x="63.623047" xlink:href="#DejaVuSans-30"/>
       <use x="127.246094" xlink:href="#DejaVuSans-30"/>
       <use x="190.869141" xlink:href="#DejaVuSans-30"/>
      </g>
     </g>
    </g>
    <g id="ytick_4">
     <g id="line2d_11">
      <g>
       <use style="stroke:#000000;stroke-width:0.8;" x="57.05" xlink:href="#mcecdd73c25" y="139.008557"/>
      </g>
     </g>
     <g id="text_12">
      <!-- 1500 -->
      <g transform="translate(24.6 142.807776)scale(0.1 -0.1)">
       <use xlink:href="#DejaVuSans-31"/>
       <use x="63.623047" xlink:href="#DejaVuSans-35"/>
       <use x="127.246094" xlink:href="#DejaVuSans-30"/>
       <use x="190.869141" xlink:href="#DejaVuSans-30"/>
      </g>
     </g>
    </g>
    <g id="ytick_5">
     <g id="line2d_12">
      <g>
       <use style="stroke:#000000;stroke-width:0.8;" x="57.05" xlink:href="#mcecdd73c25" y="106.558333"/>
      </g>
     </g>
     <g id="text_13">
      <!-- 2000 -->
      <g transform="translate(24.6 110.357552)scale(0.1 -0.1)">
       <use xlink:href="#DejaVuSans-32"/>
       <use x="63.623047" xlink:href="#DejaVuSans-30"/>
       <use x="127.246094" xlink:href="#DejaVuSans-30"/>
       <use x="190.869141" xlink:href="#DejaVuSans-30"/>
      </g>
     </g>
    </g>
    <g id="ytick_6">
     <g id="line2d_13">
      <g>
       <use style="stroke:#000000;stroke-width:0.8;" x="57.05" xlink:href="#mcecdd73c25" y="74.10811"/>
      </g>
     </g>
     <g id="text_14">
      <!-- 2500 -->
      <g transform="translate(24.6 77.907329)scale(0.1 -0.1)">
       <use xlink:href="#DejaVuSans-32"/>
       <use x="63.623047" xlink:href="#DejaVuSans-35"/>
       <use x="127.246094" xlink:href="#DejaVuSans-30"/>
       <use x="190.869141" xlink:href="#DejaVuSans-30"/>
      </g>
     </g>
    </g>
    <g id="ytick_7">
     <g id="line2d_14">
      <g>
       <use style="stroke:#000000;stroke-width:0.8;" x="57.05" xlink:href="#mcecdd73c25" y="41.657886"/>
      </g>
     </g>
     <g id="text_15">
      <!-- 3000 -->
      <g transform="translate(24.6 45.457105)scale(0.1 -0.1)">
       <use xlink:href="#DejaVuSans-33"/>
       <use x="63.623047" xlink:href="#DejaVuSans-30"/>
       <use x="127.246094" xlink:href="#DejaVuSans-30"/>
       <use x="190.869141" xlink:href="#DejaVuSans-30"/>
      </g>
     </g>
    </g>
    <g id="text_16">
     <!-- Estimated expected cumulative Regret -->
     <defs>
      <path d="M 9.8125 72.90625 
L 55.90625 72.90625 
L 55.90625 64.59375 
L 19.671875 64.59375 
L 19.671875 43.015625 
L 54.390625 43.015625 
L 54.390625 34.71875 
L 19.671875 34.71875 
L 19.671875 8.296875 
L 56.78125 8.296875 
L 56.78125 0 
L 9.8125 0 
z
" id="DejaVuSans-45"/>
      <path d="M 18.3125 70.21875 
L 18.3125 54.6875 
L 36.8125 54.6875 
L 36.8125 47.703125 
L 18.3125 47.703125 
L 18.3125 18.015625 
Q 18.3125 11.328125 20.140625 9.421875 
Q 21.96875 7.515625 27.59375 7.515625 
L 36.8125 7.515625 
L 36.8125 0 
L 27.59375 0 
Q 17.1875 0 13.234375 3.875 
Q 9.28125 7.765625 9.28125 18.015625 
L 9.28125 47.703125 
L 2.6875 47.703125 
L 2.6875 54.6875 
L 9.28125 54.6875 
L 9.28125 70.21875 
z
" id="DejaVuSans-74"/>
      <path d="M 9.421875 54.6875 
L 18.40625 54.6875 
L 18.40625 0 
L 9.421875 0 
z
M 9.421875 75.984375 
L 18.40625 75.984375 
L 18.40625 64.59375 
L 9.421875 64.59375 
z
" id="DejaVuSans-69"/>
      <path d="M 52 44.1875 
Q 55.375 50.25 60.0625 53.125 
Q 64.75 56 71.09375 56 
Q 79.640625 56 84.28125 50.015625 
Q 88.921875 44.046875 88.921875 33.015625 
L 88.921875 0 
L 79.890625 0 
L 79.890625 32.71875 
Q 79.890625 40.578125 77.09375 44.375 
Q 74.3125 48.1875 68.609375 48.1875 
Q 61.625 48.1875 57.5625 43.546875 
Q 53.515625 38.921875 53.515625 30.90625 
L 53.515625 0 
L 44.484375 0 
L 44.484375 32.71875 
Q 44.484375 40.625 41.703125 44.40625 
Q 38.921875 48.1875 33.109375 48.1875 
Q 26.21875 48.1875 22.15625 43.53125 
Q 18.109375 38.875 18.109375 30.90625 
L 18.109375 0 
L 9.078125 0 
L 9.078125 54.6875 
L 18.109375 54.6875 
L 18.109375 46.1875 
Q 21.1875 51.21875 25.484375 53.609375 
Q 29.78125 56 35.6875 56 
Q 41.65625 56 45.828125 52.96875 
Q 50 49.953125 52 44.1875 
z
" id="DejaVuSans-6d"/>
      <path d="M 34.28125 27.484375 
Q 23.390625 27.484375 19.1875 25 
Q 14.984375 22.515625 14.984375 16.5 
Q 14.984375 11.71875 18.140625 8.90625 
Q 21.296875 6.109375 26.703125 6.109375 
Q 34.1875 6.109375 38.703125 11.40625 
Q 43.21875 16.703125 43.21875 25.484375 
L 43.21875 27.484375 
z
M 52.203125 31.203125 
L 52.203125 0 
L 43.21875 0 
L 43.21875 8.296875 
Q 40.140625 3.328125 35.546875 0.953125 
Q 30.953125 -1.421875 24.3125 -1.421875 
Q 15.921875 -1.421875 10.953125 3.296875 
Q 6 8.015625 6 15.921875 
Q 6 25.140625 12.171875 29.828125 
Q 18.359375 34.515625 30.609375 34.515625 
L 43.21875 34.515625 
L 43.21875 35.40625 
Q 43.21875 41.609375 39.140625 45 
Q 35.0625 48.390625 27.6875 48.390625 
Q 23 48.390625 18.546875 47.265625 
Q 14.109375 46.140625 10.015625 43.890625 
L 10.015625 52.203125 
Q 14.9375 54.109375 19.578125 55.046875 
Q 24.21875 56 28.609375 56 
Q 40.484375 56 46.34375 49.84375 
Q 52.203125 43.703125 52.203125 31.203125 
z
" id="DejaVuSans-61"/>
      <path d="M 56.203125 29.59375 
L 56.203125 25.203125 
L 14.890625 25.203125 
Q 15.484375 15.921875 20.484375 11.0625 
Q 25.484375 6.203125 34.421875 6.203125 
Q 39.59375 6.203125 44.453125 7.46875 
Q 49.3125 8.734375 54.109375 11.28125 
L 54.109375 2.78125 
Q 49.265625 0.734375 44.1875 -0.34375 
Q 39.109375 -1.421875 33.890625 -1.421875 
Q 20.796875 -1.421875 13.15625 6.1875 
Q 5.515625 13.8125 5.515625 26.8125 
Q 5.515625 40.234375 12.765625 48.109375 
Q 20.015625 56 32.328125 56 
Q 43.359375 56 49.78125 48.890625 
Q 56.203125 41.796875 56.203125 29.59375 
z
M 47.21875 32.234375 
Q 47.125 39.59375 43.09375 43.984375 
Q 39.0625 48.390625 32.421875 48.390625 
Q 24.90625 48.390625 20.390625 44.140625 
Q 15.875 39.890625 15.1875 32.171875 
z
" id="DejaVuSans-65"/>
      <path id="DejaVuSans-20"/>
      <path d="M 54.890625 54.6875 
L 35.109375 28.078125 
L 55.90625 0 
L 45.3125 0 
L 29.390625 21.484375 
L 13.484375 0 
L 2.875 0 
L 24.125 28.609375 
L 4.6875 54.6875 
L 15.28125 54.6875 
L 29.78125 35.203125 
L 44.28125 54.6875 
z
" id="DejaVuSans-78"/>
      <path d="M 18.109375 8.203125 
L 18.109375 -20.796875 
L 9.078125 -20.796875 
L 9.078125 54.6875 
L 18.109375 54.6875 
L 18.109375 46.390625 
Q 20.953125 51.265625 25.265625 53.625 
Q 29.59375 56 35.59375 56 
Q 45.5625 56 51.78125 48.09375 
Q 58.015625 40.1875 58.015625 27.296875 
Q 58.015625 14.40625 51.78125 6.484375 
Q 45.5625 -1.421875 35.59375 -1.421875 
Q 29.59375 -1.421875 25.265625 0.953125 
Q 20.953125 3.328125 18.109375 8.203125 
z
M 48.6875 27.296875 
Q 48.6875 37.203125 44.609375 42.84375 
Q 40.53125 48.484375 33.40625 48.484375 
Q 26.265625 48.484375 22.1875 42.84375 
Q 18.109375 37.203125 18.109375 27.296875 
Q 18.109375 17.390625 22.1875 11.75 
Q 26.265625 6.109375 33.40625 6.109375 
Q 40.53125 6.109375 44.609375 11.75 
Q 48.6875 17.390625 48.6875 27.296875 
z
" id="DejaVuSans-70"/>
      <path d="M 48.78125 52.59375 
L 48.78125 44.1875 
Q 44.96875 46.296875 41.140625 47.34375 
Q 37.3125 48.390625 33.40625 48.390625 
Q 24.65625 48.390625 19.8125 42.84375 
Q 14.984375 37.3125 14.984375 27.296875 
Q 14.984375 17.28125 19.8125 11.734375 
Q 24.65625 6.203125 33.40625 6.203125 
Q 37.3125 6.203125 41.140625 7.25 
Q 44.96875 8.296875 48.78125 10.40625 
L 48.78125 2.09375 
Q 45.015625 0.34375 40.984375 -0.53125 
Q 36.96875 -1.421875 32.421875 -1.421875 
Q 20.0625 -1.421875 12.78125 6.34375 
Q 5.515625 14.109375 5.515625 27.296875 
Q 5.515625 40.671875 12.859375 48.328125 
Q 20.21875 56 33.015625 56 
Q 37.15625 56 41.109375 55.140625 
Q 45.0625 54.296875 48.78125 52.59375 
z
" id="DejaVuSans-63"/>
      <path d="M 9.421875 75.984375 
L 18.40625 75.984375 
L 18.40625 0 
L 9.421875 0 
z
" id="DejaVuSans-6c"/>
      <path d="M 2.984375 54.6875 
L 12.5 54.6875 
L 29.59375 8.796875 
L 46.6875 54.6875 
L 56.203125 54.6875 
L 35.6875 0 
L 23.484375 0 
z
" id="DejaVuSans-76"/>
      <path d="M 45.40625 27.984375 
Q 45.40625 37.75 41.375 43.109375 
Q 37.359375 48.484375 30.078125 48.484375 
Q 22.859375 48.484375 18.828125 43.109375 
Q 14.796875 37.75 14.796875 27.984375 
Q 14.796875 18.265625 18.828125 12.890625 
Q 22.859375 7.515625 30.078125 7.515625 
Q 37.359375 7.515625 41.375 12.890625 
Q 45.40625 18.265625 45.40625 27.984375 
z
M 54.390625 6.78125 
Q 54.390625 -7.171875 48.1875 -13.984375 
Q 42 -20.796875 29.203125 -20.796875 
Q 24.46875 -20.796875 20.265625 -20.09375 
Q 16.0625 -19.390625 12.109375 -17.921875 
L 12.109375 -9.1875 
Q 16.0625 -11.328125 19.921875 -12.34375 
Q 23.78125 -13.375 27.78125 -13.375 
Q 36.625 -13.375 41.015625 -8.765625 
Q 45.40625 -4.15625 45.40625 5.171875 
L 45.40625 9.625 
Q 42.625 4.78125 38.28125 2.390625 
Q 33.9375 0 27.875 0 
Q 17.828125 0 11.671875 7.65625 
Q 5.515625 15.328125 5.515625 27.984375 
Q 5.515625 40.671875 11.671875 48.328125 
Q 17.828125 56 27.875 56 
Q 33.9375 56 38.28125 53.609375 
Q 42.625 51.21875 45.40625 46.390625 
L 45.40625 54.6875 
L 54.390625 54.6875 
z
" id="DejaVuSans-67"/>
      <path d="M 41.109375 46.296875 
Q 39.59375 47.171875 37.8125 47.578125 
Q 36.03125 48 33.890625 48 
Q 26.265625 48 22.1875 43.046875 
Q 18.109375 38.09375 18.109375 28.8125 
L 18.109375 0 
L 9.078125 0 
L 9.078125 54.6875 
L 18.109375 54.6875 
L 18.109375 46.1875 
Q 20.953125 51.171875 25.484375 53.578125 
Q 30.03125 56 36.53125 56 
Q 37.453125 56 38.578125 55.875 
Q 39.703125 55.765625 41.0625 55.515625 
z
" id="DejaVuSans-72"/>
     </defs>
     <g transform="translate(18.520312 228.129687)rotate(-90)scale(0.1 -0.1)">
      <use xlink:href="#DejaVuSans-45"/>
      <use x="63.183594" xlink:href="#DejaVuSans-73"/>
      <use x="115.283203" xlink:href="#DejaVuSans-74"/>
      <use x="154.492188" xlink:href="#DejaVuSans-69"/>
      <use x="182.275391" xlink:href="#DejaVuSans-6d"/>
      <use x="279.6875" xlink:href="#DejaVuSans-61"/>
      <use x="340.966797" xlink:href="#DejaVuSans-74"/>
      <use x="380.175781" xlink:href="#DejaVuSans-65"/>
      <use x="441.699219" xlink:href="#DejaVuSans-64"/>
      <use x="505.175781" xlink:href="#DejaVuSans-20"/>
      <use x="536.962891" xlink:href="#DejaVuSans-65"/>
      <use x="598.470703" xlink:href="#DejaVuSans-78"/>
      <use x="657.650391" xlink:href="#DejaVuSans-70"/>
      <use x="721.126953" xlink:href="#DejaVuSans-65"/>
      <use x="782.650391" xlink:href="#DejaVuSans-63"/>
      <use x="837.630859" xlink:href="#DejaVuSans-74"/>
      <use x="876.839844" xlink:href="#DejaVuSans-65"/>
      <use x="938.363281" xlink:href="#DejaVuSans-64"/>
      <use x="1001.839844" xlink:href="#DejaVuSans-20"/>
      <use x="1033.626953" xlink:href="#DejaVuSans-63"/>
      <use x="1088.607422" xlink:href="#DejaVuSans-75"/>
      <use x="1151.986328" xlink:href="#DejaVuSans-6d"/>
      <use x="1249.398438" xlink:href="#DejaVuSans-75"/>
      <use x="1312.777344" xlink:href="#DejaVuSans-6c"/>
      <use x="1340.560547" xlink:href="#DejaVuSans-61"/>
      <use x="1401.839844" xlink:href="#DejaVuSans-74"/>
      <use x="1441.048828" xlink:href="#DejaVuSans-69"/>
      <use x="1468.832031" xlink:href="#DejaVuSans-76"/>
      <use x="1528.011719" xlink:href="#DejaVuSans-65"/>
      <use x="1589.535156" xlink:href="#DejaVuSans-20"/>
      <use x="1621.322266" xlink:href="#DejaVuSans-52"/>
      <use x="1690.742188" xlink:href="#DejaVuSans-65"/>
      <use x="1752.265625" xlink:href="#DejaVuSans-67"/>
      <use x="1815.742188" xlink:href="#DejaVuSans-72"/>
      <use x="1856.824219" xlink:href="#DejaVuSans-65"/>
      <use x="1918.347656" xlink:href="#DejaVuSans-74"/>
     </g>
    </g>
   </g>
   <g id="line2d_15">
    <path clip-path="url(#p39dd202c09)" d="M 73.443182 235.659091 
L 73.661794 233.153754 
L 76.121181 232.407583 
L 90.604239 227.94982 
L 103.557011 223.961787 
L 110.17003 221.970782 
L 127.932271 216.533534 
L 132.03125 215.3056 
L 134.326678 214.595408 
L 142.25137 212.197587 
L 145.694512 211.16164 
L 147.443409 210.620252 
L 160.232222 206.703596 
L 168.211567 204.292794 
L 172.693117 202.913681 
L 176.792096 201.672583 
L 178.978218 201.009581 
L 188.651807 198.066248 
L 194.390378 196.311839 
L 198.707968 194.980162 
L 201.495274 194.115536 
L 203.954661 193.370952 
L 209.802537 191.611148 
L 212.097965 190.907239 
L 214.775965 190.072307 
L 220.022657 188.483841 
L 244.288611 181.099005 
L 246.529386 180.399466 
L 249.863222 179.384259 
L 255.656445 177.61434 
L 259.919382 176.337907 
L 266.423095 174.369918 
L 268.827829 173.641358 
L 270.740686 173.040588 
L 278.938643 170.561202 
L 282.491091 169.48302 
L 291.836763 166.609787 
L 294.022884 165.949237 
L 297.793945 164.795188 
L 304.734882 162.665334 
L 308.123371 161.628355 
L 309.872268 161.106925 
L 313.643329 159.95982 
L 315.99341 159.248533 
L 320.311001 157.90571 
L 325.721652 156.243602 
L 328.399652 155.418184 
L 335.777813 153.151945 
L 344.358342 150.51892 
L 346.161893 149.968832 
L 354.469156 147.41199 
L 359.169318 145.977705 
L 361.300787 145.331004 
L 374.80009 141.239699 
L 379.117681 139.908013 
L 401.306818 133.103063 
L 401.306818 133.103063 
" style="fill:none;stroke:#1f77b4;stroke-linecap:square;stroke-width:1.5;"/>
   </g>
   <g id="line2d_16">
    <path clip-path="url(#p39dd202c09)" d="M 73.443182 235.587593 
L 73.825753 229.731654 
L 73.935059 228.909207 
L 74.262978 225.591834 
L 74.700202 224.329962 
L 76.722365 224.233165 
L 81.586486 224.11015 
L 83.335384 224.039098 
L 88.035546 223.953295 
L 93.063626 223.897109 
L 123.06815 223.336186 
L 129.134638 223.248358 
L 130.938189 223.213226 
L 147.880634 222.953536 
L 149.465572 222.92767 
L 155.969285 222.841436 
L 157.772835 222.815376 
L 159.958957 222.777422 
L 161.762508 222.747955 
L 164.057936 222.724289 
L 166.408017 222.678899 
L 170.616302 222.615723 
L 173.075689 222.58691 
L 177.338627 222.541254 
L 179.852667 222.492492 
L 181.765523 222.468711 
L 189.252991 222.328855 
L 191.111195 222.298298 
L 197.232336 222.222176 
L 201.112702 222.145423 
L 204.501191 222.099509 
L 231.71841 221.673045 
L 236.309266 221.625512 
L 240.080326 221.555982 
L 242.211795 221.520005 
L 247.6771 221.417509 
L 255.273873 221.314775 
L 258.334444 221.270358 
L 263.63579 221.205743 
L 265.111422 221.174434 
L 270.795339 221.076596 
L 274.457093 221.02263 
L 275.987379 221.005013 
L 317.195777 220.437749 
L 319.655164 220.400423 
L 332.990508 220.187227 
L 336.488303 220.121952 
L 341.297771 220.06587 
L 361.683358 219.759241 
L 362.940378 219.730894 
L 401.306818 219.202533 
L 401.306818 219.202533 
" style="fill:none;stroke:#ff7f0e;stroke-linecap:square;stroke-width:1.5;"/>
   </g>
   <g id="line2d_17">
    <path clip-path="url(#p39dd202c09)" d="M 73.443182 235.560901 
L 73.825753 229.549776 
L 73.935059 228.533127 
L 74.317631 224.27313 
L 74.645549 219.856546 
L 74.918814 215.652478 
L 75.082773 215.511849 
L 76.831671 215.223125 
L 82.296976 214.804654 
L 84.100526 214.722395 
L 87.270403 214.611269 
L 88.691382 214.561654 
L 94.703218 214.43095 
L 102.62791 214.297333 
L 108.257174 214.218757 
L 120.39015 214.095649 
L 125.855455 214.05975 
L 136.458146 213.981723 
L 140.447819 213.941044 
L 154.001775 213.860935 
L 156.898386 213.847784 
L 160.614794 213.804524 
L 167.446425 213.779779 
L 171.162832 213.74523 
L 173.294301 213.741342 
L 177.830504 213.711863 
L 180.235238 213.69962 
L 185.154012 213.66877 
L 189.580909 213.648504 
L 192.860092 213.606925 
L 209.747884 213.54879 
L 212.53519 213.534556 
L 216.688821 213.531501 
L 219.804045 213.518336 
L 227.0729 213.522042 
L 234.068491 213.494966 
L 236.801143 213.474283 
L 238.222122 213.485597 
L 240.954775 213.481806 
L 244.069998 213.479154 
L 298.559087 213.400408 
L 301.455699 213.402231 
L 321.404062 213.373295 
L 327.306591 213.368699 
L 329.000835 213.362822 
L 330.531121 213.360333 
L 360.480991 213.328392 
L 362.721766 213.334786 
L 365.399765 213.335309 
L 379.445599 213.241742 
L 401.306818 213.254808 
L 401.306818 213.254808 
" style="fill:none;stroke:#2ca02c;stroke-linecap:square;stroke-width:1.5;"/>
   </g>
   <g id="line2d_18">
    <path clip-path="url(#p39dd202c09)" d="M 73.443182 235.596919 
L 73.825753 229.516831 
L 73.935059 228.556587 
L 74.317631 224.273511 
L 74.536243 220.989931 
L 75.137426 213.631879 
L 75.356039 213.442764 
L 75.574651 212.894266 
L 75.902569 212.607008 
L 76.121181 212.45462 
L 76.886324 211.833365 
L 77.70612 210.993133 
L 78.25265 210.643165 
L 78.580568 210.473455 
L 78.799181 210.33911 
L 79.072446 210.105733 
L 79.400364 209.873202 
L 79.782935 209.503251 
L 80.22016 209.09893 
L 81.094609 208.479806 
L 81.422527 208.296558 
L 82.078363 207.863868 
L 82.460935 207.697219 
L 83.226077 207.307111 
L 83.608649 207.162938 
L 85.630812 206.654274 
L 89.456525 205.948494 
L 98.966155 204.301127 
L 99.94991 204.142918 
L 100.496441 204.059142 
L 106.180358 203.286135 
L 107.382725 203.167079 
L 112.301499 202.570978 
L 113.503866 202.43571 
L 132.195209 200.706258 
L 134.435984 200.545713 
L 136.950024 200.374263 
L 140.28386 200.131679 
L 142.360676 200.013713 
L 146.459654 199.810524 
L 146.842226 199.768123 
L 154.220387 199.327117 
L 155.750672 199.225336 
L 163.511405 198.884838 
L 167.446425 198.639707 
L 205.703559 196.92964 
L 212.097965 196.685855 
L 212.37123 196.647392 
L 223.137881 196.315192 
L 225.81588 196.244123 
L 263.63579 195.127149 
L 267.133585 195.077977 
L 290.306477 194.530103 
L 291.78211 194.489306 
L 296.263659 194.380764 
L 335.340589 193.561798 
L 337.417405 193.541116 
L 341.734996 193.458102 
L 343.975771 193.403101 
L 358.404175 193.153241 
L 361.027522 193.10769 
L 379.718864 192.828411 
L 381.741027 192.786754 
L 384.145761 192.757811 
L 401.306818 192.574085 
L 401.306818 192.574085 
" style="fill:none;stroke:#d62728;stroke-linecap:square;stroke-width:1.5;"/>
   </g>
   <g id="line2d_19">
    <path clip-path="url(#p39dd202c09)" d="M 73.443182 235.63654 
L 73.825753 229.521771 
L 73.989712 227.698412 
L 74.372284 223.428267 
L 74.700202 218.311003 
L 75.02812 213.554051 
L 75.137426 213.355494 
L 75.301385 212.400554 
L 78.25265 187.905987 
L 78.361956 187.627355 
L 78.744527 185.188294 
L 78.853834 184.653392 
L 79.564323 179.40939 
L 79.837588 177.644305 
L 80.110854 175.583137 
L 80.712037 172.400278 
L 80.985302 171.433499 
L 81.367874 169.416437 
L 81.695792 168.09816 
L 81.805098 167.990598 
L 82.078363 166.947515 
L 82.351629 165.384703 
L 82.624894 163.64459 
L 83.116771 161.439977 
L 83.390037 160.994569 
L 83.499343 160.797302 
L 84.100526 158.831246 
L 84.811016 154.874884 
L 86.669219 148.771539 
L 87.21575 147.091174 
L 87.652974 146.243001 
L 87.980893 145.51805 
L 89.839096 140.863348 
L 90.549586 139.767404 
L 90.98681 138.813687 
L 91.314729 138.327639 
L 91.533341 137.985433 
L 91.861259 137.325735 
L 92.189177 136.712798 
L 92.353137 136.272042 
L 92.571749 135.669319 
L 93.446197 133.493129 
L 93.500851 133.469142 
L 94.047381 132.015896 
L 94.375299 131.438925 
L 94.92183 130.097177 
L 95.249748 129.50799 
L 95.796279 128.773919 
L 96.069544 128.266933 
L 96.17885 128.104424 
L 96.834686 126.785367 
L 96.88934 126.753956 
L 97.107952 126.243358 
L 97.545176 125.671448 
L 97.873094 125.250596 
L 98.091707 124.989405 
L 99.621992 122.18823 
L 99.840604 121.901938 
L 100.715053 120.566957 
L 100.988318 120.031691 
L 102.081379 118.204415 
L 102.299991 117.772155 
L 102.791869 116.946969 
L 103.229093 116.315122 
L 104.868685 113.718127 
L 104.977991 113.635861 
L 106.016399 112.196048 
L 106.235011 111.762368 
L 106.344317 111.67905 
L 106.453623 111.452206 
L 106.9455 110.50963 
L 107.65599 109.549869 
L 107.874602 109.333746 
L 108.147867 109.106932 
L 108.694398 108.579439 
L 108.91301 108.33367 
L 110.716561 106.598646 
L 111.317744 106.255832 
L 111.645663 105.982693 
L 112.356152 105.463315 
L 112.84803 104.916359 
L 113.995744 103.957806 
L 114.65158 103.586132 
L 114.979498 103.329167 
L 116.017906 102.662234 
L 116.509784 102.211713 
L 116.783049 102.016575 
L 117.220273 101.575644 
L 117.821457 100.862941 
L 118.040069 100.604945 
L 118.5866 100.258627 
L 118.805212 100.135081 
L 123.232109 96.346795 
L 124.270517 95.828435 
L 124.434476 95.682566 
L 124.926353 95.454158 
L 125.199618 95.27199 
L 125.691496 95.113203 
L 125.910108 94.955308 
L 126.401986 94.798175 
L 126.784557 94.45657 
L 127.768312 93.776005 
L 127.932271 93.639176 
L 128.205536 93.474036 
L 128.424148 93.286187 
L 128.642761 93.162902 
L 134.927861 90.04206 
L 135.146473 89.846819 
L 136.075575 89.333279 
L 136.512799 89.104922 
L 137.113983 88.891433 
L 137.551207 88.449565 
L 138.534962 88.00079 
L 138.753574 87.855849 
L 139.02684 87.739812 
L 139.682676 87.121832 
L 139.955942 86.926577 
L 141.704839 85.919461 
L 142.360676 85.249924 
L 142.743247 84.995805 
L 143.289777 84.544486 
L 143.672349 84.105887 
L 144.437491 83.484817 
L 144.710757 83.179519 
L 144.874716 83.080635 
L 145.093328 82.889418 
L 145.585205 82.59403 
L 146.842226 81.77664 
L 147.170144 81.627107 
L 149.957449 79.784257 
L 150.340021 79.650698 
L 152.580796 78.531953 
L 152.854061 78.368962 
L 153.509897 78.001576 
L 153.72851 77.856956 
L 154.111081 77.671459 
L 154.384346 77.542051 
L 155.368101 77.073917 
L 155.586713 76.866237 
L 156.023938 76.703192 
L 156.515815 76.500573 
L 156.95304 76.339194 
L 157.280958 76.243226 
L 158.374019 75.813069 
L 158.537978 75.724348 
L 159.084508 75.516294 
L 160.286875 74.970299 
L 163.784671 73.506799 
L 164.276548 73.225326 
L 164.604466 73.11597 
L 164.823078 73.00382 
L 165.424262 72.759654 
L 165.916139 72.592082 
L 166.408017 72.454404 
L 166.954547 72.220404 
L 167.17316 72.077413 
L 171.545403 70.301647 
L 177.338627 68.426928 
L 177.830504 68.106861 
L 180.289891 67.267958 
L 187.941318 65.04003 
L 188.378542 64.886965 
L 188.597154 64.815256 
L 189.198338 64.666115 
L 194.117112 63.200712 
L 194.390378 63.141614 
L 200.238254 61.645146 
L 201.222009 61.477276 
L 204.82911 60.520933 
L 205.157028 60.392724 
L 205.922171 60.204122 
L 206.687313 59.881454 
L 207.233844 59.671826 
L 207.88968 59.494241 
L 210.786292 58.485417 
L 211.278169 58.374264 
L 211.715394 58.221056 
L 212.699149 57.93512 
L 213.737557 57.696305 
L 214.502699 57.42382 
L 214.830618 57.27818 
L 215.869026 57.044102 
L 216.087638 56.898122 
L 216.524862 56.757115 
L 217.781882 56.347731 
L 219.421474 55.831498 
L 220.459882 55.380077 
L 221.662249 55.089229 
L 221.880861 55.001681 
L 224.449554 54.446625 
L 225.378656 54.300656 
L 226.362411 54.022257 
L 226.799635 53.883626 
L 228.712492 53.470378 
L 229.149716 53.357384 
L 231.062573 52.929517 
L 231.937022 52.76165 
L 232.866124 52.39342 
L 233.084736 52.329042 
L 234.942939 51.898557 
L 235.653429 51.762031 
L 236.254613 51.628437 
L 248.660854 48.833527 
L 249.262038 48.702915 
L 254.290118 47.708755 
L 255.273873 47.514269 
L 255.492485 47.457317 
L 256.47624 47.286756 
L 263.362524 45.837107 
L 264.674198 45.553102 
L 264.947463 45.486359 
L 268.281299 44.832801 
L 268.554564 44.782477 
L 269.866237 44.563935 
L 284.294642 42.048804 
L 285.33305 41.846108 
L 286.152846 41.657566 
L 287.027294 41.515629 
L 287.191253 41.429876 
L 290.197171 40.958559 
L 292.601905 40.507618 
L 293.03913 40.404761 
L 293.476354 40.342909 
L 295.279905 40.063267 
L 295.662476 40.005581 
L 296.81019 39.856343 
L 297.793945 39.701855 
L 298.012557 39.635548 
L 300.690556 39.200241 
L 303.751127 38.774428 
L 304.406964 38.608581 
L 304.625576 38.53663 
L 305.336065 38.420227 
L 305.77329 38.32961 
L 313.424717 36.811179 
L 316.485287 36.292989 
L 317.031818 36.188743 
L 319.327246 35.823183 
L 320.802878 35.629596 
L 321.404062 35.530199 
L 324.464632 35.125134 
L 327.415897 34.489274 
L 328.946182 34.301261 
L 329.164795 34.247277 
L 330.039243 34.090168 
L 331.788141 33.871079 
L 332.935855 33.738928 
L 336.652262 33.130974 
L 337.526711 33.012775 
L 337.799976 32.906959 
L 338.893037 32.7631 
L 339.603527 32.698413 
L 341.407077 32.460893 
L 342.17222 32.293246 
L 342.828057 32.173718 
L 343.046669 32.116073 
L 344.904872 31.849036 
L 345.178138 31.746984 
L 347.090994 31.494819 
L 348.348014 31.364447 
L 372.777927 28.007567 
L 374.198906 27.88309 
L 376.494334 27.626242 
L 376.931559 27.575653 
L 378.407191 27.424652 
L 378.680456 27.368728 
L 396.388044 25.375874 
L 397.75437 25.242283 
L 398.46486 25.150103 
L 401.306818 24.840909 
L 401.306818 24.840909 
" style="fill:none;stroke:#9467bd;stroke-linecap:square;stroke-width:1.5;"/>
   </g>
   <g id="patch_3">
    <path d="M 57.05 246.2 
L 57.05 14.3 
" style="fill:none;stroke:#000000;stroke-linecap:square;stroke-linejoin:miter;stroke-width:0.8;"/>
   </g>
   <g id="patch_4">
    <path d="M 417.7 246.2 
L 417.7 14.3 
" style="fill:none;stroke:#000000;stroke-linecap:square;stroke-linejoin:miter;stroke-width:0.8;"/>
   </g>
   <g id="patch_5">
    <path d="M 57.05 246.2 
L 417.7 246.2 
" style="fill:none;stroke:#000000;stroke-linecap:square;stroke-linejoin:miter;stroke-width:0.8;"/>
   </g>
   <g id="patch_6">
    <path d="M 57.05 14.3 
L 417.7 14.3 
" style="fill:none;stroke:#000000;stroke-linecap:square;stroke-linejoin:miter;stroke-width:0.8;"/>
   </g>
   <g id="legend_1">
    <g id="patch_7">
     <path d="M 313.8375 168.445312 
L 410.7 168.445312 
Q 412.7 168.445312 412.7 166.445312 
L 412.7 94.054688 
Q 412.7 92.054688 410.7 92.054688 
L 313.8375 92.054688 
Q 311.8375 92.054688 311.8375 94.054688 
L 311.8375 166.445312 
Q 311.8375 168.445312 313.8375 168.445312 
z
" style="fill:#ffffff;opacity:0.8;stroke:#cccccc;stroke-linejoin:miter;"/>
    </g>
    <g id="line2d_20">
     <path d="M 315.8375 100.153125 
L 335.8375 100.153125 
" style="fill:none;stroke:#1f77b4;stroke-linecap:square;stroke-width:1.5;"/>
    </g>
    <g id="line2d_21"/>
    <g id="text_17">
     <!-- linUCB 0.30 -->
     <defs>
      <path d="M 8.6875 72.90625 
L 18.609375 72.90625 
L 18.609375 28.609375 
Q 18.609375 16.890625 22.84375 11.734375 
Q 27.09375 6.59375 36.625 6.59375 
Q 46.09375 6.59375 50.34375 11.734375 
Q 54.59375 16.890625 54.59375 28.609375 
L 54.59375 72.90625 
L 64.5 72.90625 
L 64.5 27.390625 
Q 64.5 13.140625 57.4375 5.859375 
Q 50.390625 -1.421875 36.625 -1.421875 
Q 22.796875 -1.421875 15.734375 5.859375 
Q 8.6875 13.140625 8.6875 27.390625 
z
" id="DejaVuSans-55"/>
      <path d="M 64.40625 67.28125 
L 64.40625 56.890625 
Q 59.421875 61.53125 53.78125 63.8125 
Q 48.140625 66.109375 41.796875 66.109375 
Q 29.296875 66.109375 22.65625 58.46875 
Q 16.015625 50.828125 16.015625 36.375 
Q 16.015625 21.96875 22.65625 14.328125 
Q 29.296875 6.6875 41.796875 6.6875 
Q 48.140625 6.6875 53.78125 8.984375 
Q 59.421875 11.28125 64.40625 15.921875 
L 64.40625 5.609375 
Q 59.234375 2.09375 53.4375 0.328125 
Q 47.65625 -1.421875 41.21875 -1.421875 
Q 24.65625 -1.421875 15.125 8.703125 
Q 5.609375 18.84375 5.609375 36.375 
Q 5.609375 53.953125 15.125 64.078125 
Q 24.65625 74.21875 41.21875 74.21875 
Q 47.75 74.21875 53.53125 72.484375 
Q 59.328125 70.75 64.40625 67.28125 
z
" id="DejaVuSans-43"/>
      <path d="M 19.671875 34.8125 
L 19.671875 8.109375 
L 35.5 8.109375 
Q 43.453125 8.109375 47.28125 11.40625 
Q 51.125 14.703125 51.125 21.484375 
Q 51.125 28.328125 47.28125 31.5625 
Q 43.453125 34.8125 35.5 34.8125 
z
M 19.671875 64.796875 
L 19.671875 42.828125 
L 34.28125 42.828125 
Q 41.5 42.828125 45.03125 45.53125 
Q 48.578125 48.25 48.578125 53.8125 
Q 48.578125 59.328125 45.03125 62.0625 
Q 41.5 64.796875 34.28125 64.796875 
z
M 9.8125 72.90625 
L 35.015625 72.90625 
Q 46.296875 72.90625 52.390625 68.21875 
Q 58.5 63.53125 58.5 54.890625 
Q 58.5 48.1875 55.375 44.234375 
Q 52.25 40.28125 46.1875 39.3125 
Q 53.46875 37.75 57.5 32.78125 
Q 61.53125 27.828125 61.53125 20.40625 
Q 61.53125 10.640625 54.890625 5.3125 
Q 48.25 0 35.984375 0 
L 9.8125 0 
z
" id="DejaVuSans-42"/>
      <path d="M 10.6875 12.40625 
L 21 12.40625 
L 21 0 
L 10.6875 0 
z
" id="DejaVuSans-2e"/>
     </defs>
     <g transform="translate(343.8375 103.653125)scale(0.1 -0.1)">
      <use xlink:href="#DejaVuSans-6c"/>
      <use x="27.783203" xlink:href="#DejaVuSans-69"/>
      <use x="55.566406" xlink:href="#DejaVuSans-6e"/>
      <use x="118.945312" xlink:href="#DejaVuSans-55"/>
      <use x="192.138672" xlink:href="#DejaVuSans-43"/>
      <use x="261.962891" xlink:href="#DejaVuSans-42"/>
      <use x="330.566406" xlink:href="#DejaVuSans-20"/>
      <use x="362.353516" xlink:href="#DejaVuSans-30"/>
      <use x="425.976562" xlink:href="#DejaVuSans-2e"/>
      <use x="457.763672" xlink:href="#DejaVuSans-33"/>
      <use x="521.386719" xlink:href="#DejaVuSans-30"/>
     </g>
    </g>
    <g id="line2d_22">
     <path d="M 315.8375 114.83125 
L 335.8375 114.83125 
" style="fill:none;stroke:#ff7f0e;stroke-linecap:square;stroke-width:1.5;"/>
    </g>
    <g id="line2d_23"/>
    <g id="text_18">
     <!-- linUCB 1.00 -->
     <g transform="translate(343.8375 118.33125)scale(0.1 -0.1)">
      <use xlink:href="#DejaVuSans-6c"/>
      <use x="27.783203" xlink:href="#DejaVuSans-69"/>
      <use x="55.566406" xlink:href="#DejaVuSans-6e"/>
      <use x="118.945312" xlink:href="#DejaVuSans-55"/>
      <use x="192.138672" xlink:href="#DejaVuSans-43"/>
      <use x="261.962891" xlink:href="#DejaVuSans-42"/>
      <use x="330.566406" xlink:href="#DejaVuSans-20"/>
      <use x="362.353516" xlink:href="#DejaVuSans-31"/>
      <use x="425.976562" xlink:href="#DejaVuSans-2e"/>
      <use x="457.763672" xlink:href="#DejaVuSans-30"/>
      <use x="521.386719" xlink:href="#DejaVuSans-30"/>
     </g>
    </g>
    <g id="line2d_24">
     <path d="M 315.8375 129.509375 
L 335.8375 129.509375 
" style="fill:none;stroke:#2ca02c;stroke-linecap:square;stroke-width:1.5;"/>
    </g>
    <g id="line2d_25"/>
    <g id="text_19">
     <!-- linUCB 3.00 -->
     <g transform="translate(343.8375 133.009375)scale(0.1 -0.1)">
      <use xlink:href="#DejaVuSans-6c"/>
      <use x="27.783203" xlink:href="#DejaVuSans-69"/>
      <use x="55.566406" xlink:href="#DejaVuSans-6e"/>
      <use x="118.945312" xlink:href="#DejaVuSans-55"/>
      <use x="192.138672" xlink:href="#DejaVuSans-43"/>
      <use x="261.962891" xlink:href="#DejaVuSans-42"/>
      <use x="330.566406" xlink:href="#DejaVuSans-20"/>
      <use x="362.353516" xlink:href="#DejaVuSans-33"/>
      <use x="425.976562" xlink:href="#DejaVuSans-2e"/>
      <use x="457.763672" xlink:href="#DejaVuSans-30"/>
      <use x="521.386719" xlink:href="#DejaVuSans-30"/>
     </g>
    </g>
    <g id="line2d_26">
     <path d="M 315.8375 144.1875 
L 335.8375 144.1875 
" style="fill:none;stroke:#d62728;stroke-linecap:square;stroke-width:1.5;"/>
    </g>
    <g id="line2d_27"/>
    <g id="text_20">
     <!-- linUCB 10.00 -->
     <g transform="translate(343.8375 147.6875)scale(0.1 -0.1)">
      <use xlink:href="#DejaVuSans-6c"/>
      <use x="27.783203" xlink:href="#DejaVuSans-69"/>
      <use x="55.566406" xlink:href="#DejaVuSans-6e"/>
      <use x="118.945312" xlink:href="#DejaVuSans-55"/>
      <use x="192.138672" xlink:href="#DejaVuSans-43"/>
      <use x="261.962891" xlink:href="#DejaVuSans-42"/>
      <use x="330.566406" xlink:href="#DejaVuSans-20"/>
      <use x="362.353516" xlink:href="#DejaVuSans-31"/>
      <use x="425.976562" xlink:href="#DejaVuSans-30"/>
      <use x="489.599609" xlink:href="#DejaVuSans-2e"/>
      <use x="521.386719" xlink:href="#DejaVuSans-30"/>
      <use x="585.009766" xlink:href="#DejaVuSans-30"/>
     </g>
    </g>
    <g id="line2d_28">
     <path d="M 315.8375 158.865625 
L 335.8375 158.865625 
" style="fill:none;stroke:#9467bd;stroke-linecap:square;stroke-width:1.5;"/>
    </g>
    <g id="line2d_29"/>
    <g id="text_21">
     <!-- linUCB 30.00 -->
     <g transform="translate(343.8375 162.365625)scale(0.1 -0.1)">
      <use xlink:href="#DejaVuSans-6c"/>
      <use x="27.783203" xlink:href="#DejaVuSans-69"/>
      <use x="55.566406" xlink:href="#DejaVuSans-6e"/>
      <use x="118.945312" xlink:href="#DejaVuSans-55"/>
      <use x="192.138672" xlink:href="#DejaVuSans-43"/>
      <use x="261.962891" xlink:href="#DejaVuSans-42"/>
      <use x="330.566406" xlink:href="#DejaVuSans-20"/>
      <use x="362.353516" xlink:href="#DejaVuSans-33"/>
      <use x="425.976562" xlink:href="#DejaVuSans-30"/>
      <use x="489.599609" xlink:href="#DejaVuSans-2e"/>
      <use x="521.386719" xlink:href="#DejaVuSans-30"/>
      <use x="585.009766" xlink:href="#DejaVuSans-30"/>
     </g>
    </g>
   </g>
  </g>
 </g>
 <defs>
  <clipPath id="p39dd202c09">
   <rect height="231.9" width="360.65" x="57.05" y="14.3"/>
  </clipPath>
 </defs>
</svg>
