<?xml version="1.0" encoding="UTF-8" standalone="no"?>
<!DOCTYPE svg PUBLIC "-//W3C//DTD SVG 1.1//EN"
 "http://www.w3.org/Graphics/SVG/1.1/DTD/svg11.dtd">
<!-- Generated by graphviz version 2.38.0 (20140413.2041)
 -->
<!-- Title: finite_state_machine Pages: 1 -->
<svg width="188pt" height="98pt"
 viewBox="0.00 0.00 188.00 98.00" xmlns="http://www.w3.org/2000/svg" xmlns:xlink="http://www.w3.org/1999/xlink">
<g id="graph0" class="graph" transform="scale(1 1) rotate(0) translate(4 94)">
<title>finite_state_machine</title>
<polygon fill="white" stroke="none" points="-4,4 -4,-94 184,-94 184,4 -4,4"/>
<!-- X -->
<g id="node1" class="node"><title>X</title>
<ellipse fill="none" stroke="black" cx="18" cy="-72" rx="18" ry="18"/>
<text text-anchor="middle" x="18" y="-68.3" font-family="Times,serif" font-size="14.00">X</text>
</g>
<!-- Z -->
<g id="node3" class="node"><title>Z</title>
<ellipse fill="none" stroke="black" cx="90" cy="-45" rx="18" ry="18"/>
<text text-anchor="middle" x="90" y="-41.3" font-family="Times,serif" font-size="14.00">Z</text>
</g>
<!-- X&#45;&gt;Z -->
<g id="edge1" class="edge"><title>X&#45;&gt;Z</title>
<path fill="none" stroke="black" d="M35.2354,-65.7378C43.6285,-62.5004 54.0656,-58.4747 63.5048,-54.8339"/>
<polygon fill="black" stroke="black" points="64.7822,-58.0925 72.8527,-51.2282 62.2631,-51.5615 64.7822,-58.0925"/>
</g>
<!-- Y -->
<g id="node2" class="node"><title>Y</title>
<ellipse fill="none" stroke="black" cx="18" cy="-18" rx="18" ry="18"/>
<text text-anchor="middle" x="18" y="-14.3" font-family="Times,serif" font-size="14.00">Y</text>
</g>
<!-- Y&#45;&gt;Z -->
<g id="edge2" class="edge"><title>Y&#45;&gt;Z</title>
<path fill="none" stroke="black" d="M35.2354,-24.2622C43.6285,-27.4996 54.0656,-31.5253 63.5048,-35.1661"/>
<polygon fill="black" stroke="black" points="62.2631,-38.4385 72.8527,-38.7718 64.7822,-31.9075 62.2631,-38.4385"/>
</g>
<!-- T -->
<g id="node4" class="node"><title>T</title>
<ellipse fill="#111111" stroke="#111111" cx="162" cy="-45" rx="18" ry="18"/>
<text text-anchor="middle" x="162" y="-41.3" font-family="Times,serif" font-size="14.00" fill="#eeeeee">T</text>
</g>
<!-- Z&#45;&gt;T -->
<g id="edge3" class="edge"><title>Z&#45;&gt;T</title>
<path fill="none" stroke="black" d="M108.303,-45C116.017,-45 125.288,-45 133.888,-45"/>
<polygon fill="black" stroke="black" points="133.896,-48.5001 143.896,-45 133.896,-41.5001 133.896,-48.5001"/>
</g>
</g>
</svg>
