<?xml version="1.0" encoding="utf-8" standalone="no"?>
<!DOCTYPE svg PUBLIC "-//W3C//DTD SVG 1.1//EN"
  "http://www.w3.org/Graphics/SVG/1.1/DTD/svg11.dtd">
<!-- Created with matplotlib (http://matplotlib.org/) -->
<svg height="288pt" version="1.1" viewBox="0 0 432 288" width="432pt" xmlns="http://www.w3.org/2000/svg" xmlns:xlink="http://www.w3.org/1999/xlink">
 <defs>
  <style type="text/css">
*{stroke-linecap:butt;stroke-linejoin:round;}
  </style>
 </defs>
 <g id="figure_1">
  <g id="patch_1">
   <path d="M 0 288 
L 432 288 
L 432 0 
L 0 0 
z
" style="fill:none;opacity:0;"/>
  </g>
  <g id="axes_1">
   <g id="patch_2">
    <path d="M 54 256.32 
L 388.8 256.32 
L 388.8 34.56 
L 54 34.56 
z
" style="fill:#ffffff;"/>
   </g>
   <g id="PathCollection_1">
    <defs>
     <path d="M 0 3 
C 0.795609 3 1.55874 2.683901 2.12132 2.12132 
C 2.683901 1.55874 3 0.795609 3 0 
C 3 -0.795609 2.683901 -1.55874 2.12132 -2.12132 
C 1.55874 -2.683901 0.795609 -3 0 -3 
C -0.795609 -3 -1.55874 -2.683901 -2.12132 -2.12132 
C -2.683901 -1.55874 -3 -0.795609 -3 0 
C -3 0.795609 -2.683901 1.55874 -2.12132 2.12132 
C -1.55874 2.683901 -0.795609 3 0 3 
z
" id="me98cb05819" style="stroke:#b22222;"/>
    </defs>
    <g clip-path="url(#p64b80da935)">
     <use style="fill:#b22222;stroke:#b22222;" x="69.238014" xlink:href="#me98cb05819" y="112.056774"/>
     <use style="fill:#b22222;stroke:#b22222;" x="72.311993" xlink:href="#me98cb05819" y="112.056774"/>
     <use style="fill:#b22222;stroke:#b22222;" x="75.385973" xlink:href="#me98cb05819" y="178.823226"/>
     <use style="fill:#b22222;stroke:#b22222;" x="78.459952" xlink:href="#me98cb05819" y="45.290323"/>
     <use style="fill:#b22222;stroke:#b22222;" x="81.533932" xlink:href="#me98cb05819" y="178.823226"/>
     <use style="fill:#b22222;stroke:#b22222;" x="84.607912" xlink:href="#me98cb05819" y="45.290323"/>
     <use style="fill:#b22222;stroke:#b22222;" x="87.681891" xlink:href="#me98cb05819" y="178.823226"/>
     <use style="fill:#b22222;stroke:#b22222;" x="90.755871" xlink:href="#me98cb05819" y="45.290323"/>
     <use style="fill:#b22222;stroke:#b22222;" x="93.82985" xlink:href="#me98cb05819" y="245.589677"/>
     <use style="fill:#b22222;stroke:#b22222;" x="96.90383" xlink:href="#me98cb05819" y="245.589677"/>
     <use style="fill:#b22222;stroke:#b22222;" x="99.977809" xlink:href="#me98cb05819" y="245.589677"/>
     <use style="fill:#b22222;stroke:#b22222;" x="103.051789" xlink:href="#me98cb05819" y="245.589677"/>
     <use style="fill:#b22222;stroke:#b22222;" x="106.125768" xlink:href="#me98cb05819" y="245.589677"/>
     <use style="fill:#b22222;stroke:#b22222;" x="109.199748" xlink:href="#me98cb05819" y="178.823226"/>
     <use style="fill:#b22222;stroke:#b22222;" x="112.273727" xlink:href="#me98cb05819" y="245.589677"/>
     <use style="fill:#b22222;stroke:#b22222;" x="115.347707" xlink:href="#me98cb05819" y="245.589677"/>
     <use style="fill:#b22222;stroke:#b22222;" x="118.421686" xlink:href="#me98cb05819" y="245.589677"/>
     <use style="fill:#b22222;stroke:#b22222;" x="121.495666" xlink:href="#me98cb05819" y="45.290323"/>
     <use style="fill:#b22222;stroke:#b22222;" x="124.569645" xlink:href="#me98cb05819" y="178.823226"/>
     <use style="fill:#b22222;stroke:#b22222;" x="127.643625" xlink:href="#me98cb05819" y="45.290323"/>
     <use style="fill:#b22222;stroke:#b22222;" x="130.717604" xlink:href="#me98cb05819" y="178.823226"/>
     <use style="fill:#b22222;stroke:#b22222;" x="133.791584" xlink:href="#me98cb05819" y="45.290323"/>
     <use style="fill:#b22222;stroke:#b22222;" x="136.865563" xlink:href="#me98cb05819" y="178.823226"/>
     <use style="fill:#b22222;stroke:#b22222;" x="139.939543" xlink:href="#me98cb05819" y="45.290323"/>
     <use style="fill:#b22222;stroke:#b22222;" x="143.013522" xlink:href="#me98cb05819" y="178.823226"/>
     <use style="fill:#b22222;stroke:#b22222;" x="146.087502" xlink:href="#me98cb05819" y="45.290323"/>
     <use style="fill:#b22222;stroke:#b22222;" x="149.161481" xlink:href="#me98cb05819" y="178.823226"/>
     <use style="fill:#b22222;stroke:#b22222;" x="152.235461" xlink:href="#me98cb05819" y="45.290323"/>
     <use style="fill:#b22222;stroke:#b22222;" x="155.30944" xlink:href="#me98cb05819" y="178.823226"/>
     <use style="fill:#b22222;stroke:#b22222;" x="158.38342" xlink:href="#me98cb05819" y="45.290323"/>
     <use style="fill:#b22222;stroke:#b22222;" x="161.457399" xlink:href="#me98cb05819" y="178.823226"/>
     <use style="fill:#b22222;stroke:#b22222;" x="164.531379" xlink:href="#me98cb05819" y="45.290323"/>
     <use style="fill:#b22222;stroke:#b22222;" x="167.605358" xlink:href="#me98cb05819" y="178.823226"/>
     <use style="fill:#b22222;stroke:#b22222;" x="170.679338" xlink:href="#me98cb05819" y="45.290323"/>
     <use style="fill:#b22222;stroke:#b22222;" x="173.753317" xlink:href="#me98cb05819" y="178.823226"/>
     <use style="fill:#b22222;stroke:#b22222;" x="176.827297" xlink:href="#me98cb05819" y="45.290323"/>
     <use style="fill:#b22222;stroke:#b22222;" x="179.901277" xlink:href="#me98cb05819" y="178.823226"/>
     <use style="fill:#b22222;stroke:#b22222;" x="182.975256" xlink:href="#me98cb05819" y="45.290323"/>
     <use style="fill:#b22222;stroke:#b22222;" x="186.049236" xlink:href="#me98cb05819" y="45.290323"/>
     <use style="fill:#b22222;stroke:#b22222;" x="189.123215" xlink:href="#me98cb05819" y="178.823226"/>
     <use style="fill:#b22222;stroke:#b22222;" x="192.197195" xlink:href="#me98cb05819" y="45.290323"/>
     <use style="fill:#b22222;stroke:#b22222;" x="195.271174" xlink:href="#me98cb05819" y="178.823226"/>
     <use style="fill:#b22222;stroke:#b22222;" x="198.345154" xlink:href="#me98cb05819" y="45.290323"/>
     <use style="fill:#b22222;stroke:#b22222;" x="201.419133" xlink:href="#me98cb05819" y="178.823226"/>
     <use style="fill:#b22222;stroke:#b22222;" x="204.493113" xlink:href="#me98cb05819" y="45.290323"/>
     <use style="fill:#b22222;stroke:#b22222;" x="207.567092" xlink:href="#me98cb05819" y="178.823226"/>
     <use style="fill:#b22222;stroke:#b22222;" x="210.641072" xlink:href="#me98cb05819" y="45.290323"/>
     <use style="fill:#b22222;stroke:#b22222;" x="213.715051" xlink:href="#me98cb05819" y="178.823226"/>
     <use style="fill:#b22222;stroke:#b22222;" x="216.789031" xlink:href="#me98cb05819" y="45.290323"/>
     <use style="fill:#b22222;stroke:#b22222;" x="219.86301" xlink:href="#me98cb05819" y="178.823226"/>
     <use style="fill:#b22222;stroke:#b22222;" x="222.93699" xlink:href="#me98cb05819" y="245.589677"/>
     <use style="fill:#b22222;stroke:#b22222;" x="226.010969" xlink:href="#me98cb05819" y="245.589677"/>
     <use style="fill:#b22222;stroke:#b22222;" x="229.084949" xlink:href="#me98cb05819" y="245.589677"/>
     <use style="fill:#b22222;stroke:#b22222;" x="232.158928" xlink:href="#me98cb05819" y="178.823226"/>
     <use style="fill:#b22222;stroke:#b22222;" x="235.232908" xlink:href="#me98cb05819" y="45.290323"/>
     <use style="fill:#b22222;stroke:#b22222;" x="238.306887" xlink:href="#me98cb05819" y="178.823226"/>
     <use style="fill:#b22222;stroke:#b22222;" x="241.380867" xlink:href="#me98cb05819" y="45.290323"/>
     <use style="fill:#b22222;stroke:#b22222;" x="244.454846" xlink:href="#me98cb05819" y="178.823226"/>
     <use style="fill:#b22222;stroke:#b22222;" x="247.528826" xlink:href="#me98cb05819" y="45.290323"/>
     <use style="fill:#b22222;stroke:#b22222;" x="250.602805" xlink:href="#me98cb05819" y="178.823226"/>
     <use style="fill:#b22222;stroke:#b22222;" x="253.676785" xlink:href="#me98cb05819" y="45.290323"/>
     <use style="fill:#b22222;stroke:#b22222;" x="256.750764" xlink:href="#me98cb05819" y="178.823226"/>
     <use style="fill:#b22222;stroke:#b22222;" x="259.824744" xlink:href="#me98cb05819" y="45.290323"/>
     <use style="fill:#b22222;stroke:#b22222;" x="262.898723" xlink:href="#me98cb05819" y="178.823226"/>
     <use style="fill:#b22222;stroke:#b22222;" x="265.972703" xlink:href="#me98cb05819" y="45.290323"/>
     <use style="fill:#b22222;stroke:#b22222;" x="269.046683" xlink:href="#me98cb05819" y="178.823226"/>
     <use style="fill:#b22222;stroke:#b22222;" x="272.120662" xlink:href="#me98cb05819" y="45.290323"/>
     <use style="fill:#b22222;stroke:#b22222;" x="275.194642" xlink:href="#me98cb05819" y="178.823226"/>
     <use style="fill:#b22222;stroke:#b22222;" x="278.268621" xlink:href="#me98cb05819" y="245.589677"/>
     <use style="fill:#b22222;stroke:#b22222;" x="281.342601" xlink:href="#me98cb05819" y="245.589677"/>
     <use style="fill:#b22222;stroke:#b22222;" x="284.41658" xlink:href="#me98cb05819" y="245.589677"/>
     <use style="fill:#b22222;stroke:#b22222;" x="287.49056" xlink:href="#me98cb05819" y="245.589677"/>
     <use style="fill:#b22222;stroke:#b22222;" x="290.564539" xlink:href="#me98cb05819" y="245.589677"/>
     <use style="fill:#b22222;stroke:#b22222;" x="293.638519" xlink:href="#me98cb05819" y="245.589677"/>
     <use style="fill:#b22222;stroke:#b22222;" x="296.712498" xlink:href="#me98cb05819" y="245.589677"/>
     <use style="fill:#b22222;stroke:#b22222;" x="299.786478" xlink:href="#me98cb05819" y="245.589677"/>
     <use style="fill:#b22222;stroke:#b22222;" x="302.860457" xlink:href="#me98cb05819" y="245.589677"/>
     <use style="fill:#b22222;stroke:#b22222;" x="305.934437" xlink:href="#me98cb05819" y="178.823226"/>
     <use style="fill:#b22222;stroke:#b22222;" x="309.008416" xlink:href="#me98cb05819" y="45.290323"/>
     <use style="fill:#b22222;stroke:#b22222;" x="312.082396" xlink:href="#me98cb05819" y="178.823226"/>
     <use style="fill:#b22222;stroke:#b22222;" x="315.156375" xlink:href="#me98cb05819" y="45.290323"/>
     <use style="fill:#b22222;stroke:#b22222;" x="318.230355" xlink:href="#me98cb05819" y="178.823226"/>
     <use style="fill:#b22222;stroke:#b22222;" x="321.304334" xlink:href="#me98cb05819" y="45.290323"/>
     <use style="fill:#b22222;stroke:#b22222;" x="324.378314" xlink:href="#me98cb05819" y="178.823226"/>
     <use style="fill:#b22222;stroke:#b22222;" x="327.452293" xlink:href="#me98cb05819" y="45.290323"/>
     <use style="fill:#b22222;stroke:#b22222;" x="330.526273" xlink:href="#me98cb05819" y="178.823226"/>
     <use style="fill:#b22222;stroke:#b22222;" x="333.600252" xlink:href="#me98cb05819" y="45.290323"/>
     <use style="fill:#b22222;stroke:#b22222;" x="336.674232" xlink:href="#me98cb05819" y="178.823226"/>
     <use style="fill:#b22222;stroke:#b22222;" x="339.748211" xlink:href="#me98cb05819" y="45.290323"/>
     <use style="fill:#b22222;stroke:#b22222;" x="342.822191" xlink:href="#me98cb05819" y="178.823226"/>
     <use style="fill:#b22222;stroke:#b22222;" x="345.89617" xlink:href="#me98cb05819" y="45.290323"/>
     <use style="fill:#b22222;stroke:#b22222;" x="348.97015" xlink:href="#me98cb05819" y="178.823226"/>
     <use style="fill:#b22222;stroke:#b22222;" x="352.044129" xlink:href="#me98cb05819" y="45.290323"/>
     <use style="fill:#b22222;stroke:#b22222;" x="355.118109" xlink:href="#me98cb05819" y="178.823226"/>
     <use style="fill:#b22222;stroke:#b22222;" x="358.192088" xlink:href="#me98cb05819" y="45.290323"/>
     <use style="fill:#b22222;stroke:#b22222;" x="361.266068" xlink:href="#me98cb05819" y="178.823226"/>
     <use style="fill:#b22222;stroke:#b22222;" x="364.340048" xlink:href="#me98cb05819" y="45.290323"/>
     <use style="fill:#b22222;stroke:#b22222;" x="367.414027" xlink:href="#me98cb05819" y="178.823226"/>
     <use style="fill:#b22222;stroke:#b22222;" x="370.488007" xlink:href="#me98cb05819" y="45.290323"/>
     <use style="fill:#b22222;stroke:#b22222;" x="373.561986" xlink:href="#me98cb05819" y="178.823226"/>
    </g>
   </g>
   <g id="matplotlib.axis_1">
    <g id="xtick_1">
     <g id="line2d_1">
      <defs>
       <path d="M 0 0 
L 0 3.5 
" id="mc3de7c9fe8" style="stroke:#000000;stroke-width:0.8;"/>
      </defs>
      <g>
       <use style="stroke:#000000;stroke-width:0.8;" x="69.238014" xlink:href="#mc3de7c9fe8" y="256.32"/>
      </g>
     </g>
     <g id="text_1">
      <!-- 0 -->
      <defs>
       <path d="M 31.78125 66.40625 
Q 24.171875 66.40625 20.328125 58.90625 
Q 16.5 51.421875 16.5 36.375 
Q 16.5 21.390625 20.328125 13.890625 
Q 24.171875 6.390625 31.78125 6.390625 
Q 39.453125 6.390625 43.28125 13.890625 
Q 47.125 21.390625 47.125 36.375 
Q 47.125 51.421875 43.28125 58.90625 
Q 39.453125 66.40625 31.78125 66.40625 
z
M 31.78125 74.21875 
Q 44.046875 74.21875 50.515625 64.515625 
Q 56.984375 54.828125 56.984375 36.375 
Q 56.984375 17.96875 50.515625 8.265625 
Q 44.046875 -1.421875 31.78125 -1.421875 
Q 19.53125 -1.421875 13.0625 8.265625 
Q 6.59375 17.96875 6.59375 36.375 
Q 6.59375 54.828125 13.0625 64.515625 
Q 19.53125 74.21875 31.78125 74.21875 
z
" id="DejaVuSans-30"/>
      </defs>
      <g transform="translate(66.056764 270.918437)scale(0.1 -0.1)">
       <use xlink:href="#DejaVuSans-30"/>
      </g>
     </g>
    </g>
    <g id="xtick_2">
     <g id="line2d_2">
      <g>
       <use style="stroke:#000000;stroke-width:0.8;" x="130.717604" xlink:href="#mc3de7c9fe8" y="256.32"/>
      </g>
     </g>
     <g id="text_2">
      <!-- 20 -->
      <defs>
       <path d="M 19.1875 8.296875 
L 53.609375 8.296875 
L 53.609375 0 
L 7.328125 0 
L 7.328125 8.296875 
Q 12.9375 14.109375 22.625 23.890625 
Q 32.328125 33.6875 34.8125 36.53125 
Q 39.546875 41.84375 41.421875 45.53125 
Q 43.3125 49.21875 43.3125 52.78125 
Q 43.3125 58.59375 39.234375 62.25 
Q 35.15625 65.921875 28.609375 65.921875 
Q 23.96875 65.921875 18.8125 64.3125 
Q 13.671875 62.703125 7.8125 59.421875 
L 7.8125 69.390625 
Q 13.765625 71.78125 18.9375 73 
Q 24.125 74.21875 28.421875 74.21875 
Q 39.75 74.21875 46.484375 68.546875 
Q 53.21875 62.890625 53.21875 53.421875 
Q 53.21875 48.921875 51.53125 44.890625 
Q 49.859375 40.875 45.40625 35.40625 
Q 44.1875 33.984375 37.640625 27.21875 
Q 31.109375 20.453125 19.1875 8.296875 
z
" id="DejaVuSans-32"/>
      </defs>
      <g transform="translate(124.355104 270.918437)scale(0.1 -0.1)">
       <use xlink:href="#DejaVuSans-32"/>
       <use x="63.623047" xlink:href="#DejaVuSans-30"/>
      </g>
     </g>
    </g>
    <g id="xtick_3">
     <g id="line2d_3">
      <g>
       <use style="stroke:#000000;stroke-width:0.8;" x="192.197195" xlink:href="#mc3de7c9fe8" y="256.32"/>
      </g>
     </g>
     <g id="text_3">
      <!-- 40 -->
      <defs>
       <path d="M 37.796875 64.3125 
L 12.890625 25.390625 
L 37.796875 25.390625 
z
M 35.203125 72.90625 
L 47.609375 72.90625 
L 47.609375 25.390625 
L 58.015625 25.390625 
L 58.015625 17.1875 
L 47.609375 17.1875 
L 47.609375 0 
L 37.796875 0 
L 37.796875 17.1875 
L 4.890625 17.1875 
L 4.890625 26.703125 
z
" id="DejaVuSans-34"/>
      </defs>
      <g transform="translate(185.834695 270.918437)scale(0.1 -0.1)">
       <use xlink:href="#DejaVuSans-34"/>
       <use x="63.623047" xlink:href="#DejaVuSans-30"/>
      </g>
     </g>
    </g>
    <g id="xtick_4">
     <g id="line2d_4">
      <g>
       <use style="stroke:#000000;stroke-width:0.8;" x="253.676785" xlink:href="#mc3de7c9fe8" y="256.32"/>
      </g>
     </g>
     <g id="text_4">
      <!-- 60 -->
      <defs>
       <path d="M 33.015625 40.375 
Q 26.375 40.375 22.484375 35.828125 
Q 18.609375 31.296875 18.609375 23.390625 
Q 18.609375 15.53125 22.484375 10.953125 
Q 26.375 6.390625 33.015625 6.390625 
Q 39.65625 6.390625 43.53125 10.953125 
Q 47.40625 15.53125 47.40625 23.390625 
Q 47.40625 31.296875 43.53125 35.828125 
Q 39.65625 40.375 33.015625 40.375 
z
M 52.59375 71.296875 
L 52.59375 62.3125 
Q 48.875 64.0625 45.09375 64.984375 
Q 41.3125 65.921875 37.59375 65.921875 
Q 27.828125 65.921875 22.671875 59.328125 
Q 17.53125 52.734375 16.796875 39.40625 
Q 19.671875 43.65625 24.015625 45.921875 
Q 28.375 48.1875 33.59375 48.1875 
Q 44.578125 48.1875 50.953125 41.515625 
Q 57.328125 34.859375 57.328125 23.390625 
Q 57.328125 12.15625 50.6875 5.359375 
Q 44.046875 -1.421875 33.015625 -1.421875 
Q 20.359375 -1.421875 13.671875 8.265625 
Q 6.984375 17.96875 6.984375 36.375 
Q 6.984375 53.65625 15.1875 63.9375 
Q 23.390625 74.21875 37.203125 74.21875 
Q 40.921875 74.21875 44.703125 73.484375 
Q 48.484375 72.75 52.59375 71.296875 
z
" id="DejaVuSans-36"/>
      </defs>
      <g transform="translate(247.314285 270.918437)scale(0.1 -0.1)">
       <use xlink:href="#DejaVuSans-36"/>
       <use x="63.623047" xlink:href="#DejaVuSans-30"/>
      </g>
     </g>
    </g>
    <g id="xtick_5">
     <g id="line2d_5">
      <g>
       <use style="stroke:#000000;stroke-width:0.8;" x="315.156375" xlink:href="#mc3de7c9fe8" y="256.32"/>
      </g>
     </g>
     <g id="text_5">
      <!-- 80 -->
      <defs>
       <path d="M 31.78125 34.625 
Q 24.75 34.625 20.71875 30.859375 
Q 16.703125 27.09375 16.703125 20.515625 
Q 16.703125 13.921875 20.71875 10.15625 
Q 24.75 6.390625 31.78125 6.390625 
Q 38.8125 6.390625 42.859375 10.171875 
Q 46.921875 13.96875 46.921875 20.515625 
Q 46.921875 27.09375 42.890625 30.859375 
Q 38.875 34.625 31.78125 34.625 
z
M 21.921875 38.8125 
Q 15.578125 40.375 12.03125 44.71875 
Q 8.5 49.078125 8.5 55.328125 
Q 8.5 64.0625 14.71875 69.140625 
Q 20.953125 74.21875 31.78125 74.21875 
Q 42.671875 74.21875 48.875 69.140625 
Q 55.078125 64.0625 55.078125 55.328125 
Q 55.078125 49.078125 51.53125 44.71875 
Q 48 40.375 41.703125 38.8125 
Q 48.828125 37.15625 52.796875 32.3125 
Q 56.78125 27.484375 56.78125 20.515625 
Q 56.78125 9.90625 50.3125 4.234375 
Q 43.84375 -1.421875 31.78125 -1.421875 
Q 19.734375 -1.421875 13.25 4.234375 
Q 6.78125 9.90625 6.78125 20.515625 
Q 6.78125 27.484375 10.78125 32.3125 
Q 14.796875 37.15625 21.921875 38.8125 
z
M 18.3125 54.390625 
Q 18.3125 48.734375 21.84375 45.5625 
Q 25.390625 42.390625 31.78125 42.390625 
Q 38.140625 42.390625 41.71875 45.5625 
Q 45.3125 48.734375 45.3125 54.390625 
Q 45.3125 60.0625 41.71875 63.234375 
Q 38.140625 66.40625 31.78125 66.40625 
Q 25.390625 66.40625 21.84375 63.234375 
Q 18.3125 60.0625 18.3125 54.390625 
z
" id="DejaVuSans-38"/>
      </defs>
      <g transform="translate(308.793875 270.918437)scale(0.1 -0.1)">
       <use xlink:href="#DejaVuSans-38"/>
       <use x="63.623047" xlink:href="#DejaVuSans-30"/>
      </g>
     </g>
    </g>
    <g id="xtick_6">
     <g id="line2d_6">
      <g>
       <use style="stroke:#000000;stroke-width:0.8;" x="376.635966" xlink:href="#mc3de7c9fe8" y="256.32"/>
      </g>
     </g>
     <g id="text_6">
      <!-- 100 -->
      <defs>
       <path d="M 12.40625 8.296875 
L 28.515625 8.296875 
L 28.515625 63.921875 
L 10.984375 60.40625 
L 10.984375 69.390625 
L 28.421875 72.90625 
L 38.28125 72.90625 
L 38.28125 8.296875 
L 54.390625 8.296875 
L 54.390625 0 
L 12.40625 0 
z
" id="DejaVuSans-31"/>
      </defs>
      <g transform="translate(367.092216 270.918437)scale(0.1 -0.1)">
       <use xlink:href="#DejaVuSans-31"/>
       <use x="63.623047" xlink:href="#DejaVuSans-30"/>
       <use x="127.246094" xlink:href="#DejaVuSans-30"/>
      </g>
     </g>
    </g>
   </g>
   <g id="matplotlib.axis_2">
    <g id="ytick_1">
     <g id="line2d_7">
      <defs>
       <path d="M 0 0 
L -3.5 0 
" id="m111ccab9ac" style="stroke:#000000;stroke-width:0.8;"/>
      </defs>
      <g>
       <use style="stroke:#000000;stroke-width:0.8;" x="54" xlink:href="#m111ccab9ac" y="245.589677"/>
      </g>
     </g>
     <g id="text_7">
      <!-- 0.0 -->
      <defs>
       <path d="M 10.6875 12.40625 
L 21 12.40625 
L 21 0 
L 10.6875 0 
z
" id="DejaVuSans-2e"/>
      </defs>
      <g transform="translate(31.096875 249.388896)scale(0.1 -0.1)">
       <use xlink:href="#DejaVuSans-30"/>
       <use x="63.623047" xlink:href="#DejaVuSans-2e"/>
       <use x="95.410156" xlink:href="#DejaVuSans-30"/>
      </g>
     </g>
    </g>
    <g id="ytick_2">
     <g id="line2d_8">
      <g>
       <use style="stroke:#000000;stroke-width:0.8;" x="54" xlink:href="#m111ccab9ac" y="212.206452"/>
      </g>
     </g>
     <g id="text_8">
      <!-- 0.5 -->
      <defs>
       <path d="M 10.796875 72.90625 
L 49.515625 72.90625 
L 49.515625 64.59375 
L 19.828125 64.59375 
L 19.828125 46.734375 
Q 21.96875 47.46875 24.109375 47.828125 
Q 26.265625 48.1875 28.421875 48.1875 
Q 40.625 48.1875 47.75 41.5 
Q 54.890625 34.8125 54.890625 23.390625 
Q 54.890625 11.625 47.5625 5.09375 
Q 40.234375 -1.421875 26.90625 -1.421875 
Q 22.3125 -1.421875 17.546875 -0.640625 
Q 12.796875 0.140625 7.71875 1.703125 
L 7.71875 11.625 
Q 12.109375 9.234375 16.796875 8.0625 
Q 21.484375 6.890625 26.703125 6.890625 
Q 35.15625 6.890625 40.078125 11.328125 
Q 45.015625 15.765625 45.015625 23.390625 
Q 45.015625 31 40.078125 35.4375 
Q 35.15625 39.890625 26.703125 39.890625 
Q 22.75 39.890625 18.8125 39.015625 
Q 14.890625 38.140625 10.796875 36.28125 
z
" id="DejaVuSans-35"/>
      </defs>
      <g transform="translate(31.096875 216.00567)scale(0.1 -0.1)">
       <use xlink:href="#DejaVuSans-30"/>
       <use x="63.623047" xlink:href="#DejaVuSans-2e"/>
       <use x="95.410156" xlink:href="#DejaVuSans-35"/>
      </g>
     </g>
    </g>
    <g id="ytick_3">
     <g id="line2d_9">
      <g>
       <use style="stroke:#000000;stroke-width:0.8;" x="54" xlink:href="#m111ccab9ac" y="178.823226"/>
      </g>
     </g>
     <g id="text_9">
      <!-- 1.0 -->
      <g transform="translate(31.096875 182.622445)scale(0.1 -0.1)">
       <use xlink:href="#DejaVuSans-31"/>
       <use x="63.623047" xlink:href="#DejaVuSans-2e"/>
       <use x="95.410156" xlink:href="#DejaVuSans-30"/>
      </g>
     </g>
    </g>
    <g id="ytick_4">
     <g id="line2d_10">
      <g>
       <use style="stroke:#000000;stroke-width:0.8;" x="54" xlink:href="#m111ccab9ac" y="145.44"/>
      </g>
     </g>
     <g id="text_10">
      <!-- 1.5 -->
      <g transform="translate(31.096875 149.239219)scale(0.1 -0.1)">
       <use xlink:href="#DejaVuSans-31"/>
       <use x="63.623047" xlink:href="#DejaVuSans-2e"/>
       <use x="95.410156" xlink:href="#DejaVuSans-35"/>
      </g>
     </g>
    </g>
    <g id="ytick_5">
     <g id="line2d_11">
      <g>
       <use style="stroke:#000000;stroke-width:0.8;" x="54" xlink:href="#m111ccab9ac" y="112.056774"/>
      </g>
     </g>
     <g id="text_11">
      <!-- 2.0 -->
      <g transform="translate(31.096875 115.855993)scale(0.1 -0.1)">
       <use xlink:href="#DejaVuSans-32"/>
       <use x="63.623047" xlink:href="#DejaVuSans-2e"/>
       <use x="95.410156" xlink:href="#DejaVuSans-30"/>
      </g>
     </g>
    </g>
    <g id="ytick_6">
     <g id="line2d_12">
      <g>
       <use style="stroke:#000000;stroke-width:0.8;" x="54" xlink:href="#m111ccab9ac" y="78.673548"/>
      </g>
     </g>
     <g id="text_12">
      <!-- 2.5 -->
      <g transform="translate(31.096875 82.472767)scale(0.1 -0.1)">
       <use xlink:href="#DejaVuSans-32"/>
       <use x="63.623047" xlink:href="#DejaVuSans-2e"/>
       <use x="95.410156" xlink:href="#DejaVuSans-35"/>
      </g>
     </g>
    </g>
    <g id="ytick_7">
     <g id="line2d_13">
      <g>
       <use style="stroke:#000000;stroke-width:0.8;" x="54" xlink:href="#m111ccab9ac" y="45.290323"/>
      </g>
     </g>
     <g id="text_13">
      <!-- 3.0 -->
      <defs>
       <path d="M 40.578125 39.3125 
Q 47.65625 37.796875 51.625 33 
Q 55.609375 28.21875 55.609375 21.1875 
Q 55.609375 10.40625 48.1875 4.484375 
Q 40.765625 -1.421875 27.09375 -1.421875 
Q 22.515625 -1.421875 17.65625 -0.515625 
Q 12.796875 0.390625 7.625 2.203125 
L 7.625 11.71875 
Q 11.71875 9.328125 16.59375 8.109375 
Q 21.484375 6.890625 26.8125 6.890625 
Q 36.078125 6.890625 40.9375 10.546875 
Q 45.796875 14.203125 45.796875 21.1875 
Q 45.796875 27.640625 41.28125 31.265625 
Q 36.765625 34.90625 28.71875 34.90625 
L 20.21875 34.90625 
L 20.21875 43.015625 
L 29.109375 43.015625 
Q 36.375 43.015625 40.234375 45.921875 
Q 44.09375 48.828125 44.09375 54.296875 
Q 44.09375 59.90625 40.109375 62.90625 
Q 36.140625 65.921875 28.71875 65.921875 
Q 24.65625 65.921875 20.015625 65.03125 
Q 15.375 64.15625 9.8125 62.3125 
L 9.8125 71.09375 
Q 15.4375 72.65625 20.34375 73.4375 
Q 25.25 74.21875 29.59375 74.21875 
Q 40.828125 74.21875 47.359375 69.109375 
Q 53.90625 64.015625 53.90625 55.328125 
Q 53.90625 49.265625 50.4375 45.09375 
Q 46.96875 40.921875 40.578125 39.3125 
z
" id="DejaVuSans-33"/>
      </defs>
      <g transform="translate(31.096875 49.089541)scale(0.1 -0.1)">
       <use xlink:href="#DejaVuSans-33"/>
       <use x="63.623047" xlink:href="#DejaVuSans-2e"/>
       <use x="95.410156" xlink:href="#DejaVuSans-30"/>
      </g>
     </g>
    </g>
   </g>
   <g id="patch_3">
    <path d="M 54 256.32 
L 54 34.56 
" style="fill:none;stroke:#000000;stroke-linecap:square;stroke-linejoin:miter;stroke-width:0.8;"/>
   </g>
   <g id="patch_4">
    <path d="M 388.8 256.32 
L 388.8 34.56 
" style="fill:none;stroke:#000000;stroke-linecap:square;stroke-linejoin:miter;stroke-width:0.8;"/>
   </g>
   <g id="patch_5">
    <path d="M 54 256.32 
L 388.8 256.32 
" style="fill:none;stroke:#000000;stroke-linecap:square;stroke-linejoin:miter;stroke-width:0.8;"/>
   </g>
   <g id="patch_6">
    <path d="M 54 34.56 
L 388.8 34.56 
" style="fill:none;stroke:#000000;stroke-linecap:square;stroke-linejoin:miter;stroke-width:0.8;"/>
   </g>
  </g>
 </g>
 <defs>
  <clipPath id="p64b80da935">
   <rect height="221.76" width="334.8" x="54" y="34.56"/>
  </clipPath>
 </defs>
</svg>
