<?xml version="1.0" encoding="UTF-8" standalone="no"?>
<!DOCTYPE svg PUBLIC "-//W3C//DTD SVG 1.1//EN"
 "http://www.w3.org/Graphics/SVG/1.1/DTD/svg11.dtd">
<!-- Generated by graphviz version 2.38.0 (20140413.2041)
 -->
<!-- Title: %3 Pages: 1 -->
<svg width="398pt" height="132pt"
 viewBox="0.00 0.00 397.55 132.39" xmlns="http://www.w3.org/2000/svg" xmlns:xlink="http://www.w3.org/1999/xlink">
<g id="graph0" class="graph" transform="scale(1 1) rotate(0) translate(4 128.392)">
<title>%3</title>
<polygon fill="white" stroke="none" points="-4,4 -4,-128.392 393.546,-128.392 393.546,4 -4,4"/>
<!-- U0 -->
<g id="node1" class="node"><title>U0</title>
<ellipse fill="none" stroke="black" cx="21.4481" cy="-22.098" rx="21.3963" ry="21.3963"/>
<text text-anchor="start" x="12.9481" y="-19.398" font-family="Times,serif" font-size="14.00">U</text>
<text text-anchor="start" x="22.9481" y="-19.398" font-family="Times,serif" baseline-shift="sub" font-size="14.00">0</text>
</g>
<!-- U1 -->
<g id="node2" class="node"><title>U1</title>
<ellipse fill="none" stroke="black" cx="136.448" cy="-22.098" rx="21.3963" ry="21.3963"/>
<text text-anchor="start" x="127.948" y="-19.398" font-family="Times,serif" font-size="14.00">U</text>
<text text-anchor="start" x="137.948" y="-19.398" font-family="Times,serif" baseline-shift="sub" font-size="14.00">1</text>
</g>
<!-- U2 -->
<g id="node3" class="node"><title>U2</title>
<ellipse fill="none" stroke="black" cx="251.448" cy="-22.098" rx="21.3963" ry="21.3963"/>
<text text-anchor="start" x="242.948" y="-19.398" font-family="Times,serif" font-size="14.00">U</text>
<text text-anchor="start" x="252.948" y="-19.398" font-family="Times,serif" baseline-shift="sub" font-size="14.00">2</text>
</g>
<!-- UT -->
<g id="node4" class="node"><title>UT</title>
<ellipse fill="none" stroke="black" cx="367.448" cy="-22.098" rx="22.1965" ry="22.1965"/>
<text text-anchor="start" x="358.448" y="-19.398" font-family="Times,serif" font-size="14.00">U</text>
<text text-anchor="start" x="368.448" y="-19.398" font-family="Times,serif" baseline-shift="sub" font-size="14.00">T</text>
</g>
<!-- Q0 -->
<g id="node5" class="node"><title>Q0</title>
<ellipse fill="#111111" stroke="#111111" cx="21.4481" cy="-102.294" rx="21.3963" ry="21.3963"/>
<text text-anchor="start" x="12.9481" y="-99.5941" font-family="Times,serif" font-size="14.00" fill="#eeeeee">Q</text>
<text text-anchor="start" x="22.9481" y="-99.5941" font-family="Times,serif" baseline-shift="sub" font-size="14.00" fill="#eeeeee">0</text>
</g>
<!-- Q0&#45;&gt;U0 -->
<g id="edge1" class="edge"><title>Q0&#45;&gt;U0</title>
<path fill="none" stroke="black" d="M21.4481,-80.749C21.4481,-72.5531 21.4481,-62.9411 21.4481,-53.9407"/>
<polygon fill="black" stroke="black" points="24.9482,-53.7774 21.4481,-43.7774 17.9482,-53.7775 24.9482,-53.7774"/>
</g>
<!-- Q1 -->
<g id="node6" class="node"><title>Q1</title>
<ellipse fill="#111111" stroke="#111111" cx="136.448" cy="-102.294" rx="21.3963" ry="21.3963"/>
<text text-anchor="start" x="127.948" y="-99.5941" font-family="Times,serif" font-size="14.00" fill="#eeeeee">Q</text>
<text text-anchor="start" x="137.948" y="-99.5941" font-family="Times,serif" baseline-shift="sub" font-size="14.00" fill="#eeeeee">1</text>
</g>
<!-- Q0&#45;&gt;Q1 -->
<g id="edge5" class="edge"><title>Q0&#45;&gt;Q1</title>
<path fill="none" stroke="black" d="M43.0106,-102.294C63.6078,-102.294 84.2051,-102.294 104.802,-102.294"/>
<polygon fill="black" stroke="black" points="104.914,-105.794 114.914,-102.294 104.914,-98.7942 104.914,-105.794"/>
</g>
<!-- Q1&#45;&gt;U1 -->
<g id="edge2" class="edge"><title>Q1&#45;&gt;U1</title>
<path fill="none" stroke="black" d="M136.448,-80.749C136.448,-72.5531 136.448,-62.9411 136.448,-53.9407"/>
<polygon fill="black" stroke="black" points="139.948,-53.7774 136.448,-43.7774 132.948,-53.7775 139.948,-53.7774"/>
</g>
<!-- Q2 -->
<g id="node7" class="node"><title>Q2</title>
<ellipse fill="#111111" stroke="#111111" cx="251.448" cy="-102.294" rx="21.3963" ry="21.3963"/>
<text text-anchor="start" x="242.948" y="-99.5941" font-family="Times,serif" font-size="14.00" fill="#eeeeee">Q</text>
<text text-anchor="start" x="252.948" y="-99.5941" font-family="Times,serif" baseline-shift="sub" font-size="14.00" fill="#eeeeee">2</text>
</g>
<!-- Q1&#45;&gt;Q2 -->
<g id="edge6" class="edge"><title>Q1&#45;&gt;Q2</title>
<path fill="none" stroke="black" d="M158.011,-102.294C178.608,-102.294 199.205,-102.294 219.802,-102.294"/>
<polygon fill="black" stroke="black" points="219.914,-105.794 229.914,-102.294 219.914,-98.7942 219.914,-105.794"/>
</g>
<!-- Q2&#45;&gt;U2 -->
<g id="edge3" class="edge"><title>Q2&#45;&gt;U2</title>
<path fill="none" stroke="black" d="M251.448,-80.749C251.448,-72.5531 251.448,-62.9411 251.448,-53.9407"/>
<polygon fill="black" stroke="black" points="254.948,-53.7774 251.448,-43.7774 247.948,-53.7775 254.948,-53.7774"/>
</g>
<!-- QT -->
<g id="node8" class="node"><title>QT</title>
<ellipse fill="#111111" stroke="#111111" cx="367.448" cy="-102.294" rx="22.1965" ry="22.1965"/>
<text text-anchor="start" x="358.448" y="-99.5941" font-family="Times,serif" font-size="14.00" fill="#eeeeee">Q</text>
<text text-anchor="start" x="368.448" y="-99.5941" font-family="Times,serif" baseline-shift="sub" font-size="14.00" fill="#eeeeee">T</text>
</g>
<!-- Q2&#45;&gt;QT -->
<g id="edge7" class="edge"><title>Q2&#45;&gt;QT</title>
<path fill="none" stroke="black" stroke-dasharray="1,5" d="M273.198,-102.294C293.764,-102.294 314.329,-102.294 334.894,-102.294"/>
<polygon fill="black" stroke="black" points="334.99,-105.794 344.99,-102.294 334.99,-98.7942 334.99,-105.794"/>
</g>
<!-- QT&#45;&gt;UT -->
<g id="edge4" class="edge"><title>QT&#45;&gt;UT</title>
<path fill="none" stroke="black" d="M367.448,-79.9267C367.448,-72.0825 367.448,-63.0303 367.448,-54.4891"/>
<polygon fill="black" stroke="black" points="370.948,-54.4396 367.448,-44.4396 363.948,-54.4397 370.948,-54.4396"/>
</g>
</g>
</svg>
