<?xml version="1.0" encoding="UTF-8" standalone="no"?>
<!DOCTYPE svg PUBLIC "-//W3C//DTD SVG 1.1//EN"
 "http://www.w3.org/Graphics/SVG/1.1/DTD/svg11.dtd">
<!-- Generated by graphviz version 2.38.0 (20140413.2041)
 -->
<!-- Title: G Pages: 1 -->
<svg width="622pt" height="260pt"
 viewBox="0.00 0.00 622.00 260.00" xmlns="http://www.w3.org/2000/svg" xmlns:xlink="http://www.w3.org/1999/xlink">
<g id="graph0" class="graph" transform="scale(1 1) rotate(0) translate(4 256)">
<title>G</title>
<polygon fill="white" stroke="none" points="-4,4 -4,-256 618,-256 618,4 -4,4"/>
<!-- N0_0 -->
<g id="node1" class="node"><title>N0_0</title>
<ellipse fill="none" stroke="black" cx="297" cy="-234" rx="32.4942" ry="18"/>
<text text-anchor="middle" x="297" y="-230.3" font-family="Times,serif" font-size="14.00">SENT</text>
</g>
<!-- N1_0 -->
<g id="node2" class="node"><title>N1_0</title>
<ellipse fill="none" stroke="black" cx="43" cy="-162" rx="29.795" ry="18"/>
<text text-anchor="middle" x="43" y="-158.3" font-family="Times,serif" font-size="14.00">ADV</text>
</g>
<!-- N0_0&#45;&gt;N1_0 -->
<g id="edge1" class="edge"><title>N0_0&#45;&gt;N1_0</title>
<path fill="none" stroke="black" d="M268.357,-225.106C221.99,-212.328 130.555,-187.129 79.5584,-173.075"/>
<polygon fill="black" stroke="black" points="80.1926,-169.62 69.6221,-170.337 78.3328,-176.368 80.1926,-169.62"/>
</g>
<!-- N1_1 -->
<g id="node3" class="node"><title>N1_1</title>
<ellipse fill="none" stroke="black" cx="159" cy="-162" rx="39.7935" ry="18"/>
<text text-anchor="middle" x="159" y="-158.3" font-family="Times,serif" font-size="14.00">PONCT</text>
</g>
<!-- N0_0&#45;&gt;N1_1 -->
<g id="edge2" class="edge"><title>N0_0&#45;&gt;N1_1</title>
<path fill="none" stroke="black" d="M273.902,-221.284C251.994,-210.171 218.787,-193.327 193.697,-180.6"/>
<polygon fill="black" stroke="black" points="195.02,-177.347 184.519,-175.944 191.854,-183.589 195.02,-177.347"/>
</g>
<!-- N1_2 -->
<g id="node4" class="node"><title>N1_2</title>
<ellipse fill="none" stroke="black" cx="258" cy="-162" rx="27" ry="18"/>
<text text-anchor="middle" x="258" y="-158.3" font-family="Times,serif" font-size="14.00">NP</text>
</g>
<!-- N0_0&#45;&gt;N1_2 -->
<g id="edge3" class="edge"><title>N0_0&#45;&gt;N1_2</title>
<path fill="none" stroke="black" d="M287.758,-216.411C283.095,-208.042 277.338,-197.71 272.135,-188.37"/>
<polygon fill="black" stroke="black" points="275.101,-186.502 267.176,-179.47 268.986,-189.909 275.101,-186.502"/>
</g>
<!-- N1_3 -->
<g id="node5" class="node"><title>N1_3</title>
<ellipse fill="none" stroke="black" cx="336" cy="-162" rx="27" ry="18"/>
<text text-anchor="middle" x="336" y="-158.3" font-family="Times,serif" font-size="14.00">VN</text>
</g>
<!-- N0_0&#45;&gt;N1_3 -->
<g id="edge4" class="edge"><title>N0_0&#45;&gt;N1_3</title>
<path fill="none" stroke="black" d="M306.242,-216.411C310.905,-208.042 316.662,-197.71 321.865,-188.37"/>
<polygon fill="black" stroke="black" points="325.014,-189.909 326.824,-179.47 318.899,-186.502 325.014,-189.909"/>
</g>
<!-- N1_4 -->
<g id="node6" class="node"><title>N1_4</title>
<ellipse fill="none" stroke="black" cx="429" cy="-162" rx="27" ry="18"/>
<text text-anchor="middle" x="429" y="-158.3" font-family="Times,serif" font-size="14.00">AP</text>
</g>
<!-- N0_0&#45;&gt;N1_4 -->
<g id="edge5" class="edge"><title>N0_0&#45;&gt;N1_4</title>
<path fill="none" stroke="black" d="M319.692,-220.967C341.687,-209.303 375.171,-191.546 399.282,-178.759"/>
<polygon fill="black" stroke="black" points="401.145,-181.733 408.34,-173.956 397.865,-175.549 401.145,-181.733"/>
</g>
<!-- N1_5 -->
<g id="node7" class="node"><title>N1_5</title>
<ellipse fill="none" stroke="black" cx="550" cy="-162" rx="39.7935" ry="18"/>
<text text-anchor="middle" x="550" y="-158.3" font-family="Times,serif" font-size="14.00">PONCT</text>
</g>
<!-- N0_0&#45;&gt;N1_5 -->
<g id="edge6" class="edge"><title>N0_0&#45;&gt;N1_5</title>
<path fill="none" stroke="black" d="M325.531,-225.106C369.752,-212.871 455.128,-189.249 506.896,-174.926"/>
<polygon fill="black" stroke="black" points="508.075,-178.231 516.779,-172.191 506.208,-171.485 508.075,-178.231"/>
</g>
<!-- N2_0 -->
<g id="node13" class="node"><title>N2_0</title>
<polygon fill="#090030" stroke="#090030" points="56,-36 0,-36 0,-0 56,-0 56,-36"/>
<text text-anchor="middle" x="28" y="-14.3" font-family="Times,serif" font-size="14.00" fill="#ffffff">En_fait</text>
</g>
<!-- N1_0&#45;&gt;N2_0 -->
<g id="edge7" class="edge"><title>N1_0&#45;&gt;N2_0</title>
<path fill="none" stroke="black" d="M41.1906,-143.871C38.6342,-119.67 33.9378,-75.2108 30.8936,-46.3932"/>
<polygon fill="black" stroke="black" points="34.347,-45.7662 29.8158,-36.1893 27.3857,-46.5016 34.347,-45.7662"/>
</g>
<!-- N2_1 -->
<g id="node14" class="node"><title>N2_1</title>
<polygon fill="#090030" stroke="#090030" points="128,-36 74,-36 74,-0 128,-0 128,-36"/>
<text text-anchor="middle" x="101" y="-14.3" font-family="Times,serif" font-size="14.00" fill="#ffffff">,</text>
</g>
<!-- N1_1&#45;&gt;N2_1 -->
<g id="edge8" class="edge"><title>N1_1&#45;&gt;N2_1</title>
<path fill="none" stroke="black" d="M152.119,-144.153C142.187,-119.838 123.734,-74.6598 111.927,-45.753"/>
<polygon fill="black" stroke="black" points="115.075,-44.2019 108.053,-36.2678 108.594,-46.8488 115.075,-44.2019"/>
</g>
<!-- N2_2 -->
<g id="node8" class="node"><title>N2_2</title>
<ellipse fill="none" stroke="black" cx="179" cy="-90" rx="27.8951" ry="18"/>
<text text-anchor="middle" x="179" y="-86.3" font-family="Times,serif" font-size="14.00">DET</text>
</g>
<!-- N1_2&#45;&gt;N2_2 -->
<g id="edge9" class="edge"><title>N1_2&#45;&gt;N2_2</title>
<path fill="none" stroke="black" d="M242.392,-147.17C230.997,-137.074 215.353,-123.212 202.458,-111.785"/>
<polygon fill="black" stroke="black" points="204.652,-109.053 194.846,-105.041 200.009,-114.292 204.652,-109.053"/>
</g>
<!-- N2_3 -->
<g id="node9" class="node"><title>N2_3</title>
<ellipse fill="none" stroke="black" cx="258" cy="-90" rx="27" ry="18"/>
<text text-anchor="middle" x="258" y="-86.3" font-family="Times,serif" font-size="14.00">NC</text>
</g>
<!-- N1_2&#45;&gt;N2_3 -->
<g id="edge10" class="edge"><title>N1_2&#45;&gt;N2_3</title>
<path fill="none" stroke="black" d="M258,-143.697C258,-135.983 258,-126.712 258,-118.112"/>
<polygon fill="black" stroke="black" points="261.5,-118.104 258,-108.104 254.5,-118.104 261.5,-118.104"/>
</g>
<!-- N2_4 -->
<g id="node10" class="node"><title>N2_4</title>
<ellipse fill="none" stroke="black" cx="339" cy="-90" rx="27" ry="18"/>
<text text-anchor="middle" x="339" y="-86.3" font-family="Times,serif" font-size="14.00">V</text>
</g>
<!-- N1_3&#45;&gt;N2_4 -->
<g id="edge11" class="edge"><title>N1_3&#45;&gt;N2_4</title>
<path fill="none" stroke="black" d="M336.742,-143.697C337.072,-135.983 337.469,-126.712 337.838,-118.112"/>
<polygon fill="black" stroke="black" points="341.335,-118.245 338.267,-108.104 334.342,-117.945 341.335,-118.245"/>
</g>
<!-- N2_5 -->
<g id="node11" class="node"><title>N2_5</title>
<ellipse fill="none" stroke="black" cx="429" cy="-90" rx="29.795" ry="18"/>
<text text-anchor="middle" x="429" y="-86.3" font-family="Times,serif" font-size="14.00">ADV</text>
</g>
<!-- N1_4&#45;&gt;N2_5 -->
<g id="edge12" class="edge"><title>N1_4&#45;&gt;N2_5</title>
<path fill="none" stroke="black" d="M429,-143.697C429,-135.983 429,-126.712 429,-118.112"/>
<polygon fill="black" stroke="black" points="432.5,-118.104 429,-108.104 425.5,-118.104 432.5,-118.104"/>
</g>
<!-- N2_6 -->
<g id="node12" class="node"><title>N2_6</title>
<ellipse fill="none" stroke="black" cx="509" cy="-90" rx="27" ry="18"/>
<text text-anchor="middle" x="509" y="-86.3" font-family="Times,serif" font-size="14.00">ADJ</text>
</g>
<!-- N1_4&#45;&gt;N2_6 -->
<g id="edge13" class="edge"><title>N1_4&#45;&gt;N2_6</title>
<path fill="none" stroke="black" d="M444.805,-147.17C456.42,-137.008 472.394,-123.03 485.501,-111.561"/>
<polygon fill="black" stroke="black" points="488.006,-114.02 493.227,-104.801 483.397,-108.752 488.006,-114.02"/>
</g>
<!-- N2_7 -->
<g id="node15" class="node"><title>N2_7</title>
<polygon fill="#090030" stroke="#090030" points="614,-36 560,-36 560,-0 614,-0 614,-36"/>
<text text-anchor="middle" x="587" y="-14.3" font-family="Times,serif" font-size="14.00" fill="#ffffff">.</text>
</g>
<!-- N1_5&#45;&gt;N2_7 -->
<g id="edge14" class="edge"><title>N1_5&#45;&gt;N2_7</title>
<path fill="none" stroke="black" d="M554.463,-143.871C560.797,-119.564 572.456,-74.8187 579.961,-46.0132"/>
<polygon fill="black" stroke="black" points="583.387,-46.7487 582.521,-36.1893 576.613,-44.9836 583.387,-46.7487"/>
</g>
<!-- N3_0 -->
<g id="node16" class="node"><title>N3_0</title>
<polygon fill="#090030" stroke="#090030" points="200,-36 146,-36 146,-0 200,-0 200,-36"/>
<text text-anchor="middle" x="173" y="-14.3" font-family="Times,serif" font-size="14.00" fill="#ffffff">ce</text>
</g>
<!-- N2_2&#45;&gt;N3_0 -->
<g id="edge15" class="edge"><title>N2_2&#45;&gt;N3_0</title>
<path fill="none" stroke="black" d="M177.517,-71.6966C176.856,-63.9827 176.061,-54.7125 175.324,-46.1124"/>
<polygon fill="black" stroke="black" points="178.807,-45.7689 174.466,-36.1043 171.833,-46.3667 178.807,-45.7689"/>
</g>
<!-- N3_1 -->
<g id="node17" class="node"><title>N3_1</title>
<polygon fill="#090030" stroke="#090030" points="298,-36 218,-36 218,-0 298,-0 298,-36"/>
<text text-anchor="middle" x="258" y="-14.3" font-family="Times,serif" font-size="14.00" fill="#ffffff">témoignage</text>
</g>
<!-- N2_3&#45;&gt;N3_1 -->
<g id="edge16" class="edge"><title>N2_3&#45;&gt;N3_1</title>
<path fill="none" stroke="black" d="M258,-71.6966C258,-63.9827 258,-54.7125 258,-46.1124"/>
<polygon fill="black" stroke="black" points="261.5,-46.1043 258,-36.1043 254.5,-46.1044 261.5,-46.1043"/>
</g>
<!-- N3_2 -->
<g id="node18" class="node"><title>N3_2</title>
<polygon fill="#090030" stroke="#090030" points="370,-36 316,-36 316,-0 370,-0 370,-36"/>
<text text-anchor="middle" x="343" y="-14.3" font-family="Times,serif" font-size="14.00" fill="#ffffff">était</text>
</g>
<!-- N2_4&#45;&gt;N3_2 -->
<g id="edge17" class="edge"><title>N2_4&#45;&gt;N3_2</title>
<path fill="none" stroke="black" d="M339.989,-71.6966C340.43,-63.9827 340.959,-54.7125 341.451,-46.1124"/>
<polygon fill="black" stroke="black" points="344.946,-46.2878 342.023,-36.1043 337.958,-45.8883 344.946,-46.2878"/>
</g>
<!-- N3_3 -->
<g id="node19" class="node"><title>N3_3</title>
<polygon fill="#090030" stroke="#090030" points="469.5,-36 388.5,-36 388.5,-0 469.5,-0 469.5,-36"/>
<text text-anchor="middle" x="429" y="-14.3" font-family="Times,serif" font-size="14.00" fill="#ffffff">entièrement</text>
</g>
<!-- N2_5&#45;&gt;N3_3 -->
<g id="edge18" class="edge"><title>N2_5&#45;&gt;N3_3</title>
<path fill="none" stroke="black" d="M429,-71.6966C429,-63.9827 429,-54.7125 429,-46.1124"/>
<polygon fill="black" stroke="black" points="432.5,-46.1043 429,-36.1043 425.5,-46.1044 432.5,-46.1043"/>
</g>
<!-- N3_4 -->
<g id="node20" class="node"><title>N3_4</title>
<polygon fill="#090030" stroke="#090030" points="542,-36 488,-36 488,-0 542,-0 542,-36"/>
<text text-anchor="middle" x="515" y="-14.3" font-family="Times,serif" font-size="14.00" fill="#ffffff">faux</text>
</g>
<!-- N2_6&#45;&gt;N3_4 -->
<g id="edge19" class="edge"><title>N2_6&#45;&gt;N3_4</title>
<path fill="none" stroke="black" d="M510.483,-71.6966C511.144,-63.9827 511.939,-54.7125 512.676,-46.1124"/>
<polygon fill="black" stroke="black" points="516.167,-46.3667 513.534,-36.1043 509.193,-45.7689 516.167,-46.3667"/>
</g>
</g>
</svg>
