<?xml version="1.0" encoding="UTF-8" standalone="no"?>
<!DOCTYPE svg PUBLIC "-//W3C//DTD SVG 1.1//EN"
 "http://www.w3.org/Graphics/SVG/1.1/DTD/svg11.dtd">
<!-- Generated by graphviz version 2.38.0 (20140413.2041)
 -->
<!-- Title: G Pages: 1 -->
<svg width="718pt" height="332pt"
 viewBox="0.00 0.00 718.00 332.00" xmlns="http://www.w3.org/2000/svg" xmlns:xlink="http://www.w3.org/1999/xlink">
<g id="graph0" class="graph" transform="scale(1 1) rotate(0) translate(4 328)">
<title>G</title>
<polygon fill="white" stroke="none" points="-4,4 -4,-328 714,-328 714,4 -4,4"/>
<!-- N0_0 -->
<g id="node1" class="node"><title>N0_0</title>
<ellipse fill="none" stroke="black" cx="301" cy="-306" rx="32.4942" ry="18"/>
<text text-anchor="middle" x="301" y="-302.3" font-family="Times,serif" font-size="14.00">SENT</text>
</g>
<!-- N1_0 -->
<g id="node2" class="node"><title>N1_0</title>
<ellipse fill="none" stroke="black" cx="99" cy="-234" rx="27" ry="18"/>
<text text-anchor="middle" x="99" y="-230.3" font-family="Times,serif" font-size="14.00">VN</text>
</g>
<!-- N0_0&#45;&gt;N1_0 -->
<g id="edge1" class="edge"><title>N0_0&#45;&gt;N1_0</title>
<path fill="none" stroke="black" d="M274.176,-295.705C237.471,-282.985 171.636,-260.171 131.968,-246.424"/>
<polygon fill="black" stroke="black" points="133.075,-243.104 122.48,-243.137 130.783,-249.718 133.075,-243.104"/>
</g>
<!-- N1_1 -->
<g id="node3" class="node"><title>N1_1</title>
<ellipse fill="none" stroke="black" cx="247" cy="-234" rx="27" ry="18"/>
<text text-anchor="middle" x="247" y="-230.3" font-family="Times,serif" font-size="14.00">PP</text>
</g>
<!-- N0_0&#45;&gt;N1_1 -->
<g id="edge2" class="edge"><title>N0_0&#45;&gt;N1_1</title>
<path fill="none" stroke="black" d="M288.747,-289.116C281.745,-280.04 272.835,-268.49 265.046,-258.393"/>
<polygon fill="black" stroke="black" points="267.713,-256.12 258.834,-250.34 262.171,-260.396 267.713,-256.12"/>
</g>
<!-- N1_2 -->
<g id="node4" class="node"><title>N1_2</title>
<ellipse fill="none" stroke="black" cx="355" cy="-234" rx="27.8951" ry="18"/>
<text text-anchor="middle" x="355" y="-230.3" font-family="Times,serif" font-size="14.00">Ssub</text>
</g>
<!-- N0_0&#45;&gt;N1_2 -->
<g id="edge3" class="edge"><title>N0_0&#45;&gt;N1_2</title>
<path fill="none" stroke="black" d="M313.253,-289.116C320.255,-280.04 329.165,-268.49 336.954,-258.393"/>
<polygon fill="black" stroke="black" points="339.829,-260.396 343.166,-250.34 334.287,-256.12 339.829,-260.396"/>
</g>
<!-- N1_3 -->
<g id="node5" class="node"><title>N1_3</title>
<ellipse fill="none" stroke="black" cx="562" cy="-234" rx="39.7935" ry="18"/>
<text text-anchor="middle" x="562" y="-230.3" font-family="Times,serif" font-size="14.00">PONCT</text>
</g>
<!-- N0_0&#45;&gt;N1_3 -->
<g id="edge4" class="edge"><title>N0_0&#45;&gt;N1_3</title>
<path fill="none" stroke="black" d="M329.678,-297.309C375.459,-285.03 465.339,-260.924 518.89,-246.562"/>
<polygon fill="black" stroke="black" points="520.018,-249.883 528.77,-243.912 518.205,-243.122 520.018,-249.883"/>
</g>
<!-- N2_0 -->
<g id="node6" class="node"><title>N2_0</title>
<ellipse fill="none" stroke="black" cx="27" cy="-162" rx="27" ry="18"/>
<text text-anchor="middle" x="27" y="-158.3" font-family="Times,serif" font-size="14.00">CLS</text>
</g>
<!-- N1_0&#45;&gt;N2_0 -->
<g id="edge5" class="edge"><title>N1_0&#45;&gt;N2_0</title>
<path fill="none" stroke="black" d="M84.4297,-218.834C74.2501,-208.938 60.4761,-195.546 48.9694,-184.359"/>
<polygon fill="black" stroke="black" points="51.4055,-181.846 41.7957,-177.385 46.5259,-186.865 51.4055,-181.846"/>
</g>
<!-- N2_1 -->
<g id="node7" class="node"><title>N2_1</title>
<ellipse fill="none" stroke="black" cx="99" cy="-162" rx="27" ry="18"/>
<text text-anchor="middle" x="99" y="-158.3" font-family="Times,serif" font-size="14.00">V</text>
</g>
<!-- N1_0&#45;&gt;N2_1 -->
<g id="edge6" class="edge"><title>N1_0&#45;&gt;N2_1</title>
<path fill="none" stroke="black" d="M99,-215.697C99,-207.983 99,-198.712 99,-190.112"/>
<polygon fill="black" stroke="black" points="102.5,-190.104 99,-180.104 95.5001,-190.104 102.5,-190.104"/>
</g>
<!-- N2_2 -->
<g id="node8" class="node"><title>N2_2</title>
<ellipse fill="none" stroke="black" cx="174" cy="-162" rx="27" ry="18"/>
<text text-anchor="middle" x="174" y="-158.3" font-family="Times,serif" font-size="14.00">P</text>
</g>
<!-- N1_1&#45;&gt;N2_2 -->
<g id="edge7" class="edge"><title>N1_1&#45;&gt;N2_2</title>
<path fill="none" stroke="black" d="M232.227,-218.834C221.838,-208.872 207.756,-195.369 196.043,-184.137"/>
<polygon fill="black" stroke="black" points="198.391,-181.539 188.751,-177.144 193.546,-186.592 198.391,-181.539"/>
</g>
<!-- N2_3 -->
<g id="node9" class="node"><title>N2_3</title>
<ellipse fill="none" stroke="black" cx="247" cy="-162" rx="27" ry="18"/>
<text text-anchor="middle" x="247" y="-158.3" font-family="Times,serif" font-size="14.00">NP</text>
</g>
<!-- N1_1&#45;&gt;N2_3 -->
<g id="edge8" class="edge"><title>N1_1&#45;&gt;N2_3</title>
<path fill="none" stroke="black" d="M247,-215.697C247,-207.983 247,-198.712 247,-190.112"/>
<polygon fill="black" stroke="black" points="250.5,-190.104 247,-180.104 243.5,-190.104 250.5,-190.104"/>
</g>
<!-- N2_4 -->
<g id="node10" class="node"><title>N2_4</title>
<ellipse fill="none" stroke="black" cx="319" cy="-162" rx="27" ry="18"/>
<text text-anchor="middle" x="319" y="-158.3" font-family="Times,serif" font-size="14.00">CS</text>
</g>
<!-- N1_2&#45;&gt;N2_4 -->
<g id="edge9" class="edge"><title>N1_2&#45;&gt;N2_4</title>
<path fill="none" stroke="black" d="M346.65,-216.765C342.288,-208.283 336.853,-197.714 331.959,-188.197"/>
<polygon fill="black" stroke="black" points="334.99,-186.439 327.304,-179.147 328.765,-189.641 334.99,-186.439"/>
</g>
<!-- N2_5 -->
<g id="node11" class="node"><title>N2_5</title>
<ellipse fill="none" stroke="black" cx="391" cy="-162" rx="27" ry="18"/>
<text text-anchor="middle" x="391" y="-158.3" font-family="Times,serif" font-size="14.00">VN</text>
</g>
<!-- N1_2&#45;&gt;N2_5 -->
<g id="edge10" class="edge"><title>N1_2&#45;&gt;N2_5</title>
<path fill="none" stroke="black" d="M363.35,-216.765C367.712,-208.283 373.147,-197.714 378.041,-188.197"/>
<polygon fill="black" stroke="black" points="381.235,-189.641 382.696,-179.147 375.01,-186.439 381.235,-189.641"/>
</g>
<!-- N2_6 -->
<g id="node12" class="node"><title>N2_6</title>
<ellipse fill="none" stroke="black" cx="536" cy="-162" rx="27" ry="18"/>
<text text-anchor="middle" x="536" y="-158.3" font-family="Times,serif" font-size="14.00">NP</text>
</g>
<!-- N1_2&#45;&gt;N2_6 -->
<g id="edge11" class="edge"><title>N1_2&#45;&gt;N2_6</title>
<path fill="none" stroke="black" d="M378.292,-223.992C410.147,-211.672 467.452,-189.51 503.514,-175.564"/>
<polygon fill="black" stroke="black" points="505.018,-178.735 513.083,-171.863 502.493,-172.206 505.018,-178.735"/>
</g>
<!-- N2_7 -->
<g id="node18" class="node"><title>N2_7</title>
<polygon fill="#090030" stroke="#090030" points="710,-36 656,-36 656,-0 710,-0 710,-36"/>
<text text-anchor="middle" x="683" y="-14.3" font-family="Times,serif" font-size="14.00" fill="#ffffff">!</text>
</g>
<!-- N1_3&#45;&gt;N2_7 -->
<g id="edge12" class="edge"><title>N1_3&#45;&gt;N2_7</title>
<path fill="none" stroke="black" d="M574.288,-216.623C591.454,-193.299 622.98,-148.806 645,-108 655.922,-87.7595 666.03,-63.7163 673.07,-45.7252"/>
<polygon fill="black" stroke="black" points="676.425,-46.7511 676.748,-36.1611 669.892,-44.2386 676.425,-46.7511"/>
</g>
<!-- N3_0 -->
<g id="node19" class="node"><title>N3_0</title>
<polygon fill="#090030" stroke="#090030" points="54,-36 0,-36 0,-0 54,-0 54,-36"/>
<text text-anchor="middle" x="27" y="-14.3" font-family="Times,serif" font-size="14.00" fill="#ffffff">C&#39;</text>
</g>
<!-- N2_0&#45;&gt;N3_0 -->
<g id="edge13" class="edge"><title>N2_0&#45;&gt;N3_0</title>
<path fill="none" stroke="black" d="M27,-143.871C27,-119.67 27,-75.2108 27,-46.3932"/>
<polygon fill="black" stroke="black" points="30.5001,-46.1892 27,-36.1893 23.5001,-46.1893 30.5001,-46.1892"/>
</g>
<!-- N3_1 -->
<g id="node20" class="node"><title>N3_1</title>
<polygon fill="#090030" stroke="#090030" points="126,-36 72,-36 72,-0 126,-0 126,-36"/>
<text text-anchor="middle" x="99" y="-14.3" font-family="Times,serif" font-size="14.00" fill="#ffffff">est</text>
</g>
<!-- N2_1&#45;&gt;N3_1 -->
<g id="edge14" class="edge"><title>N2_1&#45;&gt;N3_1</title>
<path fill="none" stroke="black" d="M99,-143.871C99,-119.67 99,-75.2108 99,-46.3932"/>
<polygon fill="black" stroke="black" points="102.5,-46.1892 99,-36.1893 95.5001,-46.1893 102.5,-46.1892"/>
</g>
<!-- N3_2 -->
<g id="node21" class="node"><title>N3_2</title>
<polygon fill="#090030" stroke="#090030" points="202,-36 144,-36 144,-0 202,-0 202,-36"/>
<text text-anchor="middle" x="173" y="-14.3" font-family="Times,serif" font-size="14.00" fill="#ffffff">comme</text>
</g>
<!-- N2_2&#45;&gt;N3_2 -->
<g id="edge15" class="edge"><title>N2_2&#45;&gt;N3_2</title>
<path fill="none" stroke="black" d="M173.879,-143.871C173.709,-119.67 173.396,-75.2108 173.193,-46.3932"/>
<polygon fill="black" stroke="black" points="176.691,-46.1643 173.121,-36.1893 169.692,-46.2137 176.691,-46.1643"/>
</g>
<!-- N3_3 -->
<g id="node13" class="node"><title>N3_3</title>
<ellipse fill="none" stroke="black" cx="247" cy="-90" rx="27.8951" ry="18"/>
<text text-anchor="middle" x="247" y="-86.3" font-family="Times,serif" font-size="14.00">PRO</text>
</g>
<!-- N2_3&#45;&gt;N3_3 -->
<g id="edge16" class="edge"><title>N2_3&#45;&gt;N3_3</title>
<path fill="none" stroke="black" d="M247,-143.697C247,-135.983 247,-126.712 247,-118.112"/>
<polygon fill="black" stroke="black" points="250.5,-118.104 247,-108.104 243.5,-118.104 250.5,-118.104"/>
</g>
<!-- N3_4 -->
<g id="node22" class="node"><title>N3_4</title>
<polygon fill="#090030" stroke="#090030" points="346,-36 292,-36 292,-0 346,-0 346,-36"/>
<text text-anchor="middle" x="319" y="-14.3" font-family="Times,serif" font-size="14.00" fill="#ffffff">qu&#39;</text>
</g>
<!-- N2_4&#45;&gt;N3_4 -->
<g id="edge17" class="edge"><title>N2_4&#45;&gt;N3_4</title>
<path fill="none" stroke="black" d="M319,-143.871C319,-119.67 319,-75.2108 319,-46.3932"/>
<polygon fill="black" stroke="black" points="322.5,-46.1892 319,-36.1893 315.5,-46.1893 322.5,-46.1892"/>
</g>
<!-- N3_5 -->
<g id="node14" class="node"><title>N3_5</title>
<ellipse fill="none" stroke="black" cx="391" cy="-90" rx="27" ry="18"/>
<text text-anchor="middle" x="391" y="-86.3" font-family="Times,serif" font-size="14.00">CLS</text>
</g>
<!-- N2_5&#45;&gt;N3_5 -->
<g id="edge18" class="edge"><title>N2_5&#45;&gt;N3_5</title>
<path fill="none" stroke="black" d="M391,-143.697C391,-135.983 391,-126.712 391,-118.112"/>
<polygon fill="black" stroke="black" points="394.5,-118.104 391,-108.104 387.5,-118.104 394.5,-118.104"/>
</g>
<!-- N3_6 -->
<g id="node15" class="node"><title>N3_6</title>
<ellipse fill="none" stroke="black" cx="463" cy="-90" rx="27" ry="18"/>
<text text-anchor="middle" x="463" y="-86.3" font-family="Times,serif" font-size="14.00">V</text>
</g>
<!-- N2_5&#45;&gt;N3_6 -->
<g id="edge19" class="edge"><title>N2_5&#45;&gt;N3_6</title>
<path fill="none" stroke="black" d="M405.57,-146.834C415.75,-136.938 429.524,-123.546 441.031,-112.359"/>
<polygon fill="black" stroke="black" points="443.474,-114.865 448.204,-105.385 438.595,-109.846 443.474,-114.865"/>
</g>
<!-- N3_7 -->
<g id="node16" class="node"><title>N3_7</title>
<ellipse fill="none" stroke="black" cx="536" cy="-90" rx="27.8951" ry="18"/>
<text text-anchor="middle" x="536" y="-86.3" font-family="Times,serif" font-size="14.00">DET</text>
</g>
<!-- N2_6&#45;&gt;N3_7 -->
<g id="edge20" class="edge"><title>N2_6&#45;&gt;N3_7</title>
<path fill="none" stroke="black" d="M536,-143.697C536,-135.983 536,-126.712 536,-118.112"/>
<polygon fill="black" stroke="black" points="539.5,-118.104 536,-108.104 532.5,-118.104 539.5,-118.104"/>
</g>
<!-- N3_8 -->
<g id="node17" class="node"><title>N3_8</title>
<ellipse fill="none" stroke="black" cx="609" cy="-90" rx="27" ry="18"/>
<text text-anchor="middle" x="609" y="-86.3" font-family="Times,serif" font-size="14.00">NC</text>
</g>
<!-- N2_6&#45;&gt;N3_8 -->
<g id="edge21" class="edge"><title>N2_6&#45;&gt;N3_8</title>
<path fill="none" stroke="black" d="M550.773,-146.834C561.162,-136.872 575.244,-123.369 586.957,-112.137"/>
<polygon fill="black" stroke="black" points="589.454,-114.592 594.249,-105.144 584.609,-109.539 589.454,-114.592"/>
</g>
<!-- N4_0 -->
<g id="node23" class="node"><title>N4_0</title>
<polygon fill="#090030" stroke="#090030" points="274,-36 220,-36 220,-0 274,-0 274,-36"/>
<text text-anchor="middle" x="247" y="-14.3" font-family="Times,serif" font-size="14.00" fill="#ffffff">ça</text>
</g>
<!-- N3_3&#45;&gt;N4_0 -->
<g id="edge22" class="edge"><title>N3_3&#45;&gt;N4_0</title>
<path fill="none" stroke="black" d="M247,-71.6966C247,-63.9827 247,-54.7125 247,-46.1124"/>
<polygon fill="black" stroke="black" points="250.5,-46.1043 247,-36.1043 243.5,-46.1044 250.5,-46.1043"/>
</g>
<!-- N4_1 -->
<g id="node24" class="node"><title>N4_1</title>
<polygon fill="#090030" stroke="#090030" points="418,-36 364,-36 364,-0 418,-0 418,-36"/>
<text text-anchor="middle" x="391" y="-14.3" font-family="Times,serif" font-size="14.00" fill="#ffffff">il</text>
</g>
<!-- N3_5&#45;&gt;N4_1 -->
<g id="edge23" class="edge"><title>N3_5&#45;&gt;N4_1</title>
<path fill="none" stroke="black" d="M391,-71.6966C391,-63.9827 391,-54.7125 391,-46.1124"/>
<polygon fill="black" stroke="black" points="394.5,-46.1043 391,-36.1043 387.5,-46.1044 394.5,-46.1043"/>
</g>
<!-- N4_2 -->
<g id="node25" class="node"><title>N4_2</title>
<polygon fill="#090030" stroke="#090030" points="490,-36 436,-36 436,-0 490,-0 490,-36"/>
<text text-anchor="middle" x="463" y="-14.3" font-family="Times,serif" font-size="14.00" fill="#ffffff">a</text>
</g>
<!-- N3_6&#45;&gt;N4_2 -->
<g id="edge24" class="edge"><title>N3_6&#45;&gt;N4_2</title>
<path fill="none" stroke="black" d="M463,-71.6966C463,-63.9827 463,-54.7125 463,-46.1124"/>
<polygon fill="black" stroke="black" points="466.5,-46.1043 463,-36.1043 459.5,-46.1044 466.5,-46.1043"/>
</g>
<!-- N4_3 -->
<g id="node26" class="node"><title>N4_3</title>
<polygon fill="#090030" stroke="#090030" points="562,-36 508,-36 508,-0 562,-0 562,-36"/>
<text text-anchor="middle" x="535" y="-14.3" font-family="Times,serif" font-size="14.00" fill="#ffffff">battu</text>
</g>
<!-- N3_7&#45;&gt;N4_3 -->
<g id="edge25" class="edge"><title>N3_7&#45;&gt;N4_3</title>
<path fill="none" stroke="black" d="M535.753,-71.6966C535.643,-63.9827 535.51,-54.7125 535.387,-46.1124"/>
<polygon fill="black" stroke="black" points="538.887,-46.0533 535.244,-36.1043 531.888,-46.1533 538.887,-46.0533"/>
</g>
<!-- N4_4 -->
<g id="node27" class="node"><title>N4_4</title>
<polygon fill="#090030" stroke="#090030" points="637.5,-36 580.5,-36 580.5,-0 637.5,-0 637.5,-36"/>
<text text-anchor="middle" x="609" y="-14.3" font-family="Times,serif" font-size="14.00" fill="#ffffff">Freezer</text>
</g>
<!-- N3_8&#45;&gt;N4_4 -->
<g id="edge26" class="edge"><title>N3_8&#45;&gt;N4_4</title>
<path fill="none" stroke="black" d="M609,-71.6966C609,-63.9827 609,-54.7125 609,-46.1124"/>
<polygon fill="black" stroke="black" points="612.5,-46.1043 609,-36.1043 605.5,-46.1044 612.5,-46.1043"/>
</g>
</g>
</svg>
