<?xml version="1.0" encoding="UTF-8" standalone="no"?>
<!DOCTYPE svg PUBLIC "-//W3C//DTD SVG 1.1//EN"
 "http://www.w3.org/Graphics/SVG/1.1/DTD/svg11.dtd">
<!-- Generated by graphviz version 2.38.0 (20140413.2041)
 -->
<!-- Title: G Pages: 1 -->
<svg width="796pt" height="332pt"
 viewBox="0.00 0.00 796.00 332.00" xmlns="http://www.w3.org/2000/svg" xmlns:xlink="http://www.w3.org/1999/xlink">
<g id="graph0" class="graph" transform="scale(1 1) rotate(0) translate(4 328)">
<title>G</title>
<polygon fill="white" stroke="none" points="-4,4 -4,-328 792,-328 792,4 -4,4"/>
<!-- N0_0 -->
<g id="node1" class="node"><title>N0_0</title>
<ellipse fill="none" stroke="black" cx="404" cy="-306" rx="32.4942" ry="18"/>
<text text-anchor="middle" x="404" y="-302.3" font-family="Times,serif" font-size="14.00">SENT</text>
</g>
<!-- N1_0 -->
<g id="node2" class="node"><title>N1_0</title>
<ellipse fill="none" stroke="black" cx="136" cy="-234" rx="27" ry="18"/>
<text text-anchor="middle" x="136" y="-230.3" font-family="Times,serif" font-size="14.00">VN</text>
</g>
<!-- N0_0&#45;&gt;N1_0 -->
<g id="edge1" class="edge"><title>N0_0&#45;&gt;N1_0</title>
<path fill="none" stroke="black" d="M375.319,-297.509C325.718,-284.553 224.108,-258.013 170.645,-244.049"/>
<polygon fill="black" stroke="black" points="171.495,-240.654 160.935,-241.513 169.725,-247.426 171.495,-240.654"/>
</g>
<!-- N1_1 -->
<g id="node3" class="node"><title>N1_1</title>
<ellipse fill="none" stroke="black" cx="323" cy="-234" rx="27" ry="18"/>
<text text-anchor="middle" x="323" y="-230.3" font-family="Times,serif" font-size="14.00">NP</text>
</g>
<!-- N0_0&#45;&gt;N1_1 -->
<g id="edge2" class="edge"><title>N0_0&#45;&gt;N1_1</title>
<path fill="none" stroke="black" d="M387.217,-290.496C375.474,-280.348 359.625,-266.651 346.61,-255.404"/>
<polygon fill="black" stroke="black" points="348.79,-252.662 338.935,-248.771 344.213,-257.958 348.79,-252.662"/>
</g>
<!-- N1_2 -->
<g id="node4" class="node"><title>N1_2</title>
<ellipse fill="none" stroke="black" cx="485" cy="-234" rx="41.6928" ry="18"/>
<text text-anchor="middle" x="485" y="-230.3" font-family="Times,serif" font-size="14.00">COORD</text>
</g>
<!-- N0_0&#45;&gt;N1_2 -->
<g id="edge3" class="edge"><title>N0_0&#45;&gt;N1_2</title>
<path fill="none" stroke="black" d="M420.783,-290.496C431.883,-280.904 446.652,-268.14 459.228,-257.272"/>
<polygon fill="black" stroke="black" points="461.837,-259.643 467.115,-250.457 457.26,-254.347 461.837,-259.643"/>
</g>
<!-- N1_3 -->
<g id="node5" class="node"><title>N1_3</title>
<ellipse fill="none" stroke="black" cx="672" cy="-234" rx="39.7935" ry="18"/>
<text text-anchor="middle" x="672" y="-230.3" font-family="Times,serif" font-size="14.00">PONCT</text>
</g>
<!-- N0_0&#45;&gt;N1_3 -->
<g id="edge4" class="edge"><title>N0_0&#45;&gt;N1_3</title>
<path fill="none" stroke="black" d="M432.681,-297.509C479.715,-285.224 573.517,-260.723 628.684,-246.314"/>
<polygon fill="black" stroke="black" points="629.724,-249.66 638.515,-243.746 627.955,-242.887 629.724,-249.66"/>
</g>
<!-- N2_0 -->
<g id="node6" class="node"><title>N2_0</title>
<ellipse fill="none" stroke="black" cx="28" cy="-162" rx="27" ry="18"/>
<text text-anchor="middle" x="28" y="-158.3" font-family="Times,serif" font-size="14.00">CLS</text>
</g>
<!-- N1_0&#45;&gt;N2_0 -->
<g id="edge5" class="edge"><title>N1_0&#45;&gt;N2_0</title>
<path fill="none" stroke="black" d="M117.188,-220.807C99.9979,-209.665 74.3816,-193.062 55.0067,-180.504"/>
<polygon fill="black" stroke="black" points="56.8918,-177.555 46.5966,-175.053 53.0845,-183.429 56.8918,-177.555"/>
</g>
<!-- N2_1 -->
<g id="node7" class="node"><title>N2_1</title>
<ellipse fill="none" stroke="black" cx="100" cy="-162" rx="27" ry="18"/>
<text text-anchor="middle" x="100" y="-158.3" font-family="Times,serif" font-size="14.00">V</text>
</g>
<!-- N1_0&#45;&gt;N2_1 -->
<g id="edge6" class="edge"><title>N1_0&#45;&gt;N2_1</title>
<path fill="none" stroke="black" d="M127.65,-216.765C123.288,-208.283 117.853,-197.714 112.959,-188.197"/>
<polygon fill="black" stroke="black" points="115.99,-186.439 108.304,-179.147 109.765,-189.641 115.99,-186.439"/>
</g>
<!-- N2_2 -->
<g id="node8" class="node"><title>N2_2</title>
<ellipse fill="none" stroke="black" cx="172" cy="-162" rx="27" ry="18"/>
<text text-anchor="middle" x="172" y="-158.3" font-family="Times,serif" font-size="14.00">VPP</text>
</g>
<!-- N1_0&#45;&gt;N2_2 -->
<g id="edge7" class="edge"><title>N1_0&#45;&gt;N2_2</title>
<path fill="none" stroke="black" d="M144.35,-216.765C148.712,-208.283 154.147,-197.714 159.041,-188.197"/>
<polygon fill="black" stroke="black" points="162.235,-189.641 163.696,-179.147 156.01,-186.439 162.235,-189.641"/>
</g>
<!-- N2_3 -->
<g id="node9" class="node"><title>N2_3</title>
<ellipse fill="none" stroke="black" cx="248" cy="-162" rx="27.8951" ry="18"/>
<text text-anchor="middle" x="248" y="-158.3" font-family="Times,serif" font-size="14.00">DET</text>
</g>
<!-- N1_1&#45;&gt;N2_3 -->
<g id="edge8" class="edge"><title>N1_1&#45;&gt;N2_3</title>
<path fill="none" stroke="black" d="M307.823,-218.834C297.149,-208.872 282.681,-195.369 270.647,-184.137"/>
<polygon fill="black" stroke="black" points="272.854,-181.409 263.155,-177.144 268.077,-186.526 272.854,-181.409"/>
</g>
<!-- N2_4 -->
<g id="node10" class="node"><title>N2_4</title>
<ellipse fill="none" stroke="black" cx="323" cy="-162" rx="27" ry="18"/>
<text text-anchor="middle" x="323" y="-158.3" font-family="Times,serif" font-size="14.00">NC</text>
</g>
<!-- N1_1&#45;&gt;N2_4 -->
<g id="edge9" class="edge"><title>N1_1&#45;&gt;N2_4</title>
<path fill="none" stroke="black" d="M323,-215.697C323,-207.983 323,-198.712 323,-190.112"/>
<polygon fill="black" stroke="black" points="326.5,-190.104 323,-180.104 319.5,-190.104 326.5,-190.104"/>
</g>
<!-- N2_5 -->
<g id="node11" class="node"><title>N2_5</title>
<ellipse fill="none" stroke="black" cx="407" cy="-162" rx="27" ry="18"/>
<text text-anchor="middle" x="407" y="-158.3" font-family="Times,serif" font-size="14.00">CC</text>
</g>
<!-- N1_2&#45;&gt;N2_5 -->
<g id="edge10" class="edge"><title>N1_2&#45;&gt;N2_5</title>
<path fill="none" stroke="black" d="M467.689,-217.465C456.571,-207.486 442.003,-194.413 429.928,-183.576"/>
<polygon fill="black" stroke="black" points="432.193,-180.907 422.413,-176.832 427.518,-186.116 432.193,-180.907"/>
</g>
<!-- N2_6 -->
<g id="node12" class="node"><title>N2_6</title>
<ellipse fill="none" stroke="black" cx="485" cy="-162" rx="27" ry="18"/>
<text text-anchor="middle" x="485" y="-158.3" font-family="Times,serif" font-size="14.00">VN</text>
</g>
<!-- N1_2&#45;&gt;N2_6 -->
<g id="edge11" class="edge"><title>N1_2&#45;&gt;N2_6</title>
<path fill="none" stroke="black" d="M485,-215.697C485,-207.983 485,-198.712 485,-190.112"/>
<polygon fill="black" stroke="black" points="488.5,-190.104 485,-180.104 481.5,-190.104 488.5,-190.104"/>
</g>
<!-- N2_7 -->
<g id="node13" class="node"><title>N2_7</title>
<ellipse fill="none" stroke="black" cx="567" cy="-162" rx="29.795" ry="18"/>
<text text-anchor="middle" x="567" y="-158.3" font-family="Times,serif" font-size="14.00">ADV</text>
</g>
<!-- N1_2&#45;&gt;N2_7 -->
<g id="edge12" class="edge"><title>N1_2&#45;&gt;N2_7</title>
<path fill="none" stroke="black" d="M503.198,-217.465C514.81,-207.552 529.999,-194.586 542.644,-183.792"/>
<polygon fill="black" stroke="black" points="545.19,-186.22 550.523,-177.066 540.645,-180.896 545.19,-186.22"/>
</g>
<!-- N2_8 -->
<g id="node14" class="node"><title>N2_8</title>
<ellipse fill="none" stroke="black" cx="648" cy="-162" rx="27" ry="18"/>
<text text-anchor="middle" x="648" y="-158.3" font-family="Times,serif" font-size="14.00">AP</text>
</g>
<!-- N1_2&#45;&gt;N2_8 -->
<g id="edge13" class="edge"><title>N1_2&#45;&gt;N2_8</title>
<path fill="none" stroke="black" d="M513.392,-220.807C542.156,-208.454 586.552,-189.389 616.412,-176.565"/>
<polygon fill="black" stroke="black" points="618.13,-179.637 625.938,-172.475 615.368,-173.205 618.13,-179.637"/>
</g>
<!-- N2_9 -->
<g id="node18" class="node"><title>N2_9</title>
<polygon fill="#090030" stroke="#090030" points="788,-36 734,-36 734,-0 788,-0 788,-36"/>
<text text-anchor="middle" x="761" y="-14.3" font-family="Times,serif" font-size="14.00" fill="#ffffff">!</text>
</g>
<!-- N1_3&#45;&gt;N2_9 -->
<g id="edge14" class="edge"><title>N1_3&#45;&gt;N2_9</title>
<path fill="none" stroke="black" d="M678.984,-216.208C694.413,-179.108 731.504,-89.9226 750.053,-45.3227"/>
<polygon fill="black" stroke="black" points="753.317,-46.5877 753.926,-36.0103 746.854,-43.8996 753.317,-46.5877"/>
</g>
<!-- N3_0 -->
<g id="node19" class="node"><title>N3_0</title>
<polygon fill="#090030" stroke="#090030" points="54,-36 0,-36 0,-0 54,-0 54,-36"/>
<text text-anchor="middle" x="27" y="-14.3" font-family="Times,serif" font-size="14.00" fill="#ffffff">J&#39;</text>
</g>
<!-- N2_0&#45;&gt;N3_0 -->
<g id="edge15" class="edge"><title>N2_0&#45;&gt;N3_0</title>
<path fill="none" stroke="black" d="M27.8794,-143.871C27.7089,-119.67 27.3959,-75.2108 27.1929,-46.3932"/>
<polygon fill="black" stroke="black" points="30.6915,-46.1643 27.1211,-36.1893 23.6917,-46.2137 30.6915,-46.1643"/>
</g>
<!-- N3_1 -->
<g id="node20" class="node"><title>N3_1</title>
<polygon fill="#090030" stroke="#090030" points="126,-36 72,-36 72,-0 126,-0 126,-36"/>
<text text-anchor="middle" x="99" y="-14.3" font-family="Times,serif" font-size="14.00" fill="#ffffff">ai</text>
</g>
<!-- N2_1&#45;&gt;N3_1 -->
<g id="edge16" class="edge"><title>N2_1&#45;&gt;N3_1</title>
<path fill="none" stroke="black" d="M99.8794,-143.871C99.7089,-119.67 99.3959,-75.2108 99.1929,-46.3932"/>
<polygon fill="black" stroke="black" points="102.691,-46.1643 99.1211,-36.1893 95.6917,-46.2137 102.691,-46.1643"/>
</g>
<!-- N3_2 -->
<g id="node21" class="node"><title>N3_2</title>
<polygon fill="#090030" stroke="#090030" points="200,-36 144,-36 144,-0 200,-0 200,-36"/>
<text text-anchor="middle" x="172" y="-14.3" font-family="Times,serif" font-size="14.00" fill="#ffffff">relâché</text>
</g>
<!-- N2_2&#45;&gt;N3_2 -->
<g id="edge17" class="edge"><title>N2_2&#45;&gt;N3_2</title>
<path fill="none" stroke="black" d="M172,-143.871C172,-119.67 172,-75.2108 172,-46.3932"/>
<polygon fill="black" stroke="black" points="175.5,-46.1892 172,-36.1893 168.5,-46.1893 175.5,-46.1892"/>
</g>
<!-- N3_3 -->
<g id="node22" class="node"><title>N3_3</title>
<polygon fill="#090030" stroke="#090030" points="272,-36 218,-36 218,-0 272,-0 272,-36"/>
<text text-anchor="middle" x="245" y="-14.3" font-family="Times,serif" font-size="14.00" fill="#ffffff">mon</text>
</g>
<!-- N2_3&#45;&gt;N3_3 -->
<g id="edge18" class="edge"><title>N2_3&#45;&gt;N3_3</title>
<path fill="none" stroke="black" d="M247.638,-143.871C247.127,-119.67 246.188,-75.2108 245.579,-46.3932"/>
<polygon fill="black" stroke="black" points="249.074,-46.1131 245.363,-36.1893 242.075,-46.261 249.074,-46.1131"/>
</g>
<!-- N3_4 -->
<g id="node23" class="node"><title>N3_4</title>
<polygon fill="#090030" stroke="#090030" points="355.5,-36 290.5,-36 290.5,-0 355.5,-0 355.5,-36"/>
<text text-anchor="middle" x="323" y="-14.3" font-family="Times,serif" font-size="14.00" fill="#ffffff">carapuce</text>
</g>
<!-- N2_4&#45;&gt;N3_4 -->
<g id="edge19" class="edge"><title>N2_4&#45;&gt;N3_4</title>
<path fill="none" stroke="black" d="M323,-143.871C323,-119.67 323,-75.2108 323,-46.3932"/>
<polygon fill="black" stroke="black" points="326.5,-46.1892 323,-36.1893 319.5,-46.1893 326.5,-46.1892"/>
</g>
<!-- N3_5 -->
<g id="node24" class="node"><title>N3_5</title>
<polygon fill="#090030" stroke="#090030" points="428,-36 374,-36 374,-0 428,-0 428,-36"/>
<text text-anchor="middle" x="401" y="-14.3" font-family="Times,serif" font-size="14.00" fill="#ffffff">car</text>
</g>
<!-- N2_5&#45;&gt;N3_5 -->
<g id="edge20" class="edge"><title>N2_5&#45;&gt;N3_5</title>
<path fill="none" stroke="black" d="M406.276,-143.871C405.254,-119.67 403.375,-75.2108 402.157,-46.3932"/>
<polygon fill="black" stroke="black" points="405.645,-46.0326 401.726,-36.1893 398.652,-46.3281 405.645,-46.0326"/>
</g>
<!-- N3_6 -->
<g id="node15" class="node"><title>N3_6</title>
<ellipse fill="none" stroke="black" cx="473" cy="-90" rx="27" ry="18"/>
<text text-anchor="middle" x="473" y="-86.3" font-family="Times,serif" font-size="14.00">CLS</text>
</g>
<!-- N2_6&#45;&gt;N3_6 -->
<g id="edge21" class="edge"><title>N2_6&#45;&gt;N3_6</title>
<path fill="none" stroke="black" d="M482.095,-144.055C480.774,-136.346 479.176,-127.027 477.691,-118.364"/>
<polygon fill="black" stroke="black" points="481.101,-117.54 475.961,-108.275 474.202,-118.723 481.101,-117.54"/>
</g>
<!-- N3_7 -->
<g id="node16" class="node"><title>N3_7</title>
<ellipse fill="none" stroke="black" cx="545" cy="-90" rx="27" ry="18"/>
<text text-anchor="middle" x="545" y="-86.3" font-family="Times,serif" font-size="14.00">V</text>
</g>
<!-- N2_6&#45;&gt;N3_7 -->
<g id="edge22" class="edge"><title>N2_6&#45;&gt;N3_7</title>
<path fill="none" stroke="black" d="M498.019,-145.811C506.039,-136.455 516.473,-124.282 525.47,-113.785"/>
<polygon fill="black" stroke="black" points="528.156,-116.03 532.006,-106.159 522.841,-111.474 528.156,-116.03"/>
</g>
<!-- N3_8 -->
<g id="node25" class="node"><title>N3_8</title>
<polygon fill="#090030" stroke="#090030" points="644,-36 590,-36 590,-0 644,-0 644,-36"/>
<text text-anchor="middle" x="617" y="-14.3" font-family="Times,serif" font-size="14.00" fill="#ffffff">trop</text>
</g>
<!-- N2_7&#45;&gt;N3_8 -->
<g id="edge23" class="edge"><title>N2_7&#45;&gt;N3_8</title>
<path fill="none" stroke="black" d="M572.932,-144.153C581.494,-119.838 597.401,-74.6598 607.58,-45.753"/>
<polygon fill="black" stroke="black" points="610.9,-46.8626 610.92,-36.2678 604.297,-44.5377 610.9,-46.8626"/>
</g>
<!-- N3_9 -->
<g id="node17" class="node"><title>N3_9</title>
<ellipse fill="none" stroke="black" cx="681" cy="-90" rx="27" ry="18"/>
<text text-anchor="middle" x="681" y="-86.3" font-family="Times,serif" font-size="14.00">ADJ</text>
</g>
<!-- N2_8&#45;&gt;N3_9 -->
<g id="edge24" class="edge"><title>N2_8&#45;&gt;N3_9</title>
<path fill="none" stroke="black" d="M655.821,-144.411C659.725,-136.129 664.535,-125.925 668.902,-116.662"/>
<polygon fill="black" stroke="black" points="672.137,-118.008 673.236,-107.47 665.806,-115.023 672.137,-118.008"/>
</g>
<!-- N4_0 -->
<g id="node26" class="node"><title>N4_0</title>
<polygon fill="#090030" stroke="#090030" points="500,-36 446,-36 446,-0 500,-0 500,-36"/>
<text text-anchor="middle" x="473" y="-14.3" font-family="Times,serif" font-size="14.00" fill="#ffffff">il</text>
</g>
<!-- N3_6&#45;&gt;N4_0 -->
<g id="edge25" class="edge"><title>N3_6&#45;&gt;N4_0</title>
<path fill="none" stroke="black" d="M473,-71.6966C473,-63.9827 473,-54.7125 473,-46.1124"/>
<polygon fill="black" stroke="black" points="476.5,-46.1043 473,-36.1043 469.5,-46.1044 476.5,-46.1043"/>
</g>
<!-- N4_1 -->
<g id="node27" class="node"><title>N4_1</title>
<polygon fill="#090030" stroke="#090030" points="572,-36 518,-36 518,-0 572,-0 572,-36"/>
<text text-anchor="middle" x="545" y="-14.3" font-family="Times,serif" font-size="14.00" fill="#ffffff">était</text>
</g>
<!-- N3_7&#45;&gt;N4_1 -->
<g id="edge26" class="edge"><title>N3_7&#45;&gt;N4_1</title>
<path fill="none" stroke="black" d="M545,-71.6966C545,-63.9827 545,-54.7125 545,-46.1124"/>
<polygon fill="black" stroke="black" points="548.5,-46.1043 545,-36.1043 541.5,-46.1044 548.5,-46.1043"/>
</g>
<!-- N4_2 -->
<g id="node28" class="node"><title>N4_2</title>
<polygon fill="#090030" stroke="#090030" points="716,-36 662,-36 662,-0 716,-0 716,-36"/>
<text text-anchor="middle" x="689" y="-14.3" font-family="Times,serif" font-size="14.00" fill="#ffffff">nul</text>
</g>
<!-- N3_9&#45;&gt;N4_2 -->
<g id="edge27" class="edge"><title>N3_9&#45;&gt;N4_2</title>
<path fill="none" stroke="black" d="M682.978,-71.6966C683.859,-63.9827 684.919,-54.7125 685.901,-46.1124"/>
<polygon fill="black" stroke="black" points="689.387,-46.4371 687.045,-36.1043 682.432,-45.6422 689.387,-46.4371"/>
</g>
</g>
</svg>
