<?xml version="1.0" encoding="UTF-8" standalone="no"?>
<!DOCTYPE svg PUBLIC "-//W3C//DTD SVG 1.1//EN"
 "http://www.w3.org/Graphics/SVG/1.1/DTD/svg11.dtd">
<!-- Generated by graphviz version 2.38.0 (20140413.2041)
 -->
<!-- Title: G Pages: 1 -->
<svg width="570pt" height="332pt"
 viewBox="0.00 0.00 570.00 332.00" xmlns="http://www.w3.org/2000/svg" xmlns:xlink="http://www.w3.org/1999/xlink">
<g id="graph0" class="graph" transform="scale(1 1) rotate(0) translate(4 328)">
<title>G</title>
<polygon fill="white" stroke="none" points="-4,4 -4,-328 566,-328 566,4 -4,4"/>
<!-- N0_0 -->
<g id="node1" class="node"><title>N0_0</title>
<ellipse fill="none" stroke="black" cx="291" cy="-306" rx="32.4942" ry="18"/>
<text text-anchor="middle" x="291" y="-302.3" font-family="Times,serif" font-size="14.00">SENT</text>
</g>
<!-- N1_0 -->
<g id="node2" class="node"><title>N1_0</title>
<ellipse fill="none" stroke="black" cx="137" cy="-234" rx="27" ry="18"/>
<text text-anchor="middle" x="137" y="-230.3" font-family="Times,serif" font-size="14.00">VN</text>
</g>
<!-- N0_0&#45;&gt;N1_0 -->
<g id="edge1" class="edge"><title>N0_0&#45;&gt;N1_0</title>
<path fill="none" stroke="black" d="M266.598,-293.908C239.929,-281.786 197.134,-262.334 168.081,-249.128"/>
<polygon fill="black" stroke="black" points="169.35,-245.86 158.798,-244.908 166.453,-252.232 169.35,-245.86"/>
</g>
<!-- N1_1 -->
<g id="node3" class="node"><title>N1_1</title>
<ellipse fill="none" stroke="black" cx="247" cy="-234" rx="29.795" ry="18"/>
<text text-anchor="middle" x="247" y="-230.3" font-family="Times,serif" font-size="14.00">ADV</text>
</g>
<!-- N0_0&#45;&gt;N1_1 -->
<g id="edge2" class="edge"><title>N0_0&#45;&gt;N1_1</title>
<path fill="none" stroke="black" d="M280.795,-288.765C275.408,-280.195 268.682,-269.494 262.652,-259.9"/>
<polygon fill="black" stroke="black" points="265.435,-257.751 257.15,-251.147 259.508,-261.476 265.435,-257.751"/>
</g>
<!-- N1_2 -->
<g id="node4" class="node"><title>N1_2</title>
<ellipse fill="none" stroke="black" cx="336" cy="-234" rx="41.6928" ry="18"/>
<text text-anchor="middle" x="336" y="-230.3" font-family="Times,serif" font-size="14.00">COORD</text>
</g>
<!-- N0_0&#45;&gt;N1_2 -->
<g id="edge3" class="edge"><title>N0_0&#45;&gt;N1_2</title>
<path fill="none" stroke="black" d="M301.437,-288.765C306.867,-280.317 313.629,-269.799 319.728,-260.312"/>
<polygon fill="black" stroke="black" points="322.844,-261.938 325.307,-251.633 316.955,-258.153 322.844,-261.938"/>
</g>
<!-- N1_3 -->
<g id="node5" class="node"><title>N1_3</title>
<ellipse fill="none" stroke="black" cx="485" cy="-234" rx="39.7935" ry="18"/>
<text text-anchor="middle" x="485" y="-230.3" font-family="Times,serif" font-size="14.00">PONCT</text>
</g>
<!-- N0_0&#45;&gt;N1_3 -->
<g id="edge4" class="edge"><title>N0_0&#45;&gt;N1_3</title>
<path fill="none" stroke="black" d="M317.568,-295.414C350.528,-283.521 407.028,-263.134 445.177,-249.369"/>
<polygon fill="black" stroke="black" points="446.717,-252.534 454.935,-245.848 444.341,-245.95 446.717,-252.534"/>
</g>
<!-- N2_0 -->
<g id="node6" class="node"><title>N2_0</title>
<ellipse fill="none" stroke="black" cx="27" cy="-162" rx="27" ry="18"/>
<text text-anchor="middle" x="27" y="-158.3" font-family="Times,serif" font-size="14.00">CLS</text>
</g>
<!-- N1_0&#45;&gt;N2_0 -->
<g id="edge5" class="edge"><title>N1_0&#45;&gt;N2_0</title>
<path fill="none" stroke="black" d="M117.839,-220.807C100.331,-209.665 74.2405,-193.062 54.5068,-180.504"/>
<polygon fill="black" stroke="black" points="56.2567,-177.469 45.941,-175.053 52.4985,-183.375 56.2567,-177.469"/>
</g>
<!-- N2_1 -->
<g id="node7" class="node"><title>N2_1</title>
<ellipse fill="none" stroke="black" cx="101" cy="-162" rx="28.6953" ry="18"/>
<text text-anchor="middle" x="101" y="-158.3" font-family="Times,serif" font-size="14.00">CLO</text>
</g>
<!-- N1_0&#45;&gt;N2_1 -->
<g id="edge6" class="edge"><title>N1_0&#45;&gt;N2_1</title>
<path fill="none" stroke="black" d="M128.65,-216.765C124.351,-208.404 119.008,-198.016 114.169,-188.606"/>
<polygon fill="black" stroke="black" points="117.24,-186.926 109.554,-179.633 111.015,-190.127 117.24,-186.926"/>
</g>
<!-- N2_2 -->
<g id="node8" class="node"><title>N2_2</title>
<ellipse fill="none" stroke="black" cx="175" cy="-162" rx="27" ry="18"/>
<text text-anchor="middle" x="175" y="-158.3" font-family="Times,serif" font-size="14.00">V</text>
</g>
<!-- N1_0&#45;&gt;N2_2 -->
<g id="edge7" class="edge"><title>N1_0&#45;&gt;N2_2</title>
<path fill="none" stroke="black" d="M145.813,-216.765C150.418,-208.283 156.155,-197.714 161.321,-188.197"/>
<polygon fill="black" stroke="black" points="164.539,-189.606 166.234,-179.147 158.387,-186.266 164.539,-189.606"/>
</g>
<!-- N2_3 -->
<g id="node13" class="node"><title>N2_3</title>
<polygon fill="#090030" stroke="#090030" points="274,-36 220,-36 220,-0 274,-0 274,-36"/>
<text text-anchor="middle" x="247" y="-14.3" font-family="Times,serif" font-size="14.00" fill="#ffffff">Bond</text>
</g>
<!-- N1_1&#45;&gt;N2_3 -->
<g id="edge8" class="edge"><title>N1_1&#45;&gt;N2_3</title>
<path fill="none" stroke="black" d="M247,-215.849C247,-178.832 247,-91.1809 247,-46.3863"/>
<polygon fill="black" stroke="black" points="250.5,-46.2324 247,-36.2325 243.5,-46.2325 250.5,-46.2324"/>
</g>
<!-- N2_4 -->
<g id="node9" class="node"><title>N2_4</title>
<ellipse fill="none" stroke="black" cx="319" cy="-162" rx="39.7935" ry="18"/>
<text text-anchor="middle" x="319" y="-158.3" font-family="Times,serif" font-size="14.00">PONCT</text>
</g>
<!-- N1_2&#45;&gt;N2_4 -->
<g id="edge9" class="edge"><title>N1_2&#45;&gt;N2_4</title>
<path fill="none" stroke="black" d="M331.885,-216.055C329.992,-208.261 327.7,-198.822 325.576,-190.079"/>
<polygon fill="black" stroke="black" points="328.957,-189.167 323.195,-180.275 322.154,-190.819 328.957,-189.167"/>
</g>
<!-- N2_5 -->
<g id="node10" class="node"><title>N2_5</title>
<ellipse fill="none" stroke="black" cx="404" cy="-162" rx="27" ry="18"/>
<text text-anchor="middle" x="404" y="-158.3" font-family="Times,serif" font-size="14.00">NP</text>
</g>
<!-- N1_2&#45;&gt;N2_5 -->
<g id="edge10" class="edge"><title>N1_2&#45;&gt;N2_5</title>
<path fill="none" stroke="black" d="M351.43,-217.116C360.638,-207.638 372.466,-195.462 382.57,-185.06"/>
<polygon fill="black" stroke="black" points="385.103,-187.476 389.561,-177.864 380.082,-182.598 385.103,-187.476"/>
</g>
<!-- N2_6 -->
<g id="node14" class="node"><title>N2_6</title>
<polygon fill="#090030" stroke="#090030" points="562,-36 508,-36 508,-0 562,-0 562,-36"/>
<text text-anchor="middle" x="535" y="-14.3" font-family="Times,serif" font-size="14.00" fill="#ffffff">.</text>
</g>
<!-- N1_3&#45;&gt;N2_6 -->
<g id="edge11" class="edge"><title>N1_3&#45;&gt;N2_6</title>
<path fill="none" stroke="black" d="M489.007,-215.849C497.674,-178.753 518.222,-90.8101 528.668,-46.1027"/>
<polygon fill="black" stroke="black" points="532.107,-46.7665 530.974,-36.2325 525.29,-45.1739 532.107,-46.7665"/>
</g>
<!-- N3_0 -->
<g id="node15" class="node"><title>N3_0</title>
<polygon fill="#090030" stroke="#090030" points="54,-36 0,-36 0,-0 54,-0 54,-36"/>
<text text-anchor="middle" x="27" y="-14.3" font-family="Times,serif" font-size="14.00" fill="#ffffff">Je</text>
</g>
<!-- N2_0&#45;&gt;N3_0 -->
<g id="edge12" class="edge"><title>N2_0&#45;&gt;N3_0</title>
<path fill="none" stroke="black" d="M27,-143.871C27,-119.67 27,-75.2108 27,-46.3932"/>
<polygon fill="black" stroke="black" points="30.5001,-46.1892 27,-36.1893 23.5001,-46.1893 30.5001,-46.1892"/>
</g>
<!-- N3_1 -->
<g id="node16" class="node"><title>N3_1</title>
<polygon fill="#090030" stroke="#090030" points="128,-36 74,-36 74,-0 128,-0 128,-36"/>
<text text-anchor="middle" x="101" y="-14.3" font-family="Times,serif" font-size="14.00" fill="#ffffff">m&#39;</text>
</g>
<!-- N2_1&#45;&gt;N3_1 -->
<g id="edge13" class="edge"><title>N2_1&#45;&gt;N3_1</title>
<path fill="none" stroke="black" d="M101,-143.871C101,-119.67 101,-75.2108 101,-46.3932"/>
<polygon fill="black" stroke="black" points="104.5,-46.1892 101,-36.1893 97.5001,-46.1893 104.5,-46.1892"/>
</g>
<!-- N3_2 -->
<g id="node17" class="node"><title>N3_2</title>
<polygon fill="#090030" stroke="#090030" points="202,-36 146,-36 146,-0 202,-0 202,-36"/>
<text text-anchor="middle" x="174" y="-14.3" font-family="Times,serif" font-size="14.00" fill="#ffffff">appelle</text>
</g>
<!-- N2_2&#45;&gt;N3_2 -->
<g id="edge14" class="edge"><title>N2_2&#45;&gt;N3_2</title>
<path fill="none" stroke="black" d="M174.879,-143.871C174.709,-119.67 174.396,-75.2108 174.193,-46.3932"/>
<polygon fill="black" stroke="black" points="177.691,-46.1643 174.121,-36.1893 170.692,-46.2137 177.691,-46.1643"/>
</g>
<!-- N3_3 -->
<g id="node18" class="node"><title>N3_3</title>
<polygon fill="#090030" stroke="#090030" points="346,-36 292,-36 292,-0 346,-0 346,-36"/>
<text text-anchor="middle" x="319" y="-14.3" font-family="Times,serif" font-size="14.00" fill="#ffffff">,</text>
</g>
<!-- N2_4&#45;&gt;N3_3 -->
<g id="edge15" class="edge"><title>N2_4&#45;&gt;N3_3</title>
<path fill="none" stroke="black" d="M319,-143.871C319,-119.67 319,-75.2108 319,-46.3932"/>
<polygon fill="black" stroke="black" points="322.5,-46.1892 319,-36.1893 315.5,-46.1893 322.5,-46.1892"/>
</g>
<!-- N3_4 -->
<g id="node11" class="node"><title>N3_4</title>
<ellipse fill="none" stroke="black" cx="391" cy="-90" rx="27" ry="18"/>
<text text-anchor="middle" x="391" y="-86.3" font-family="Times,serif" font-size="14.00">NPP</text>
</g>
<!-- N2_5&#45;&gt;N3_4 -->
<g id="edge16" class="edge"><title>N2_5&#45;&gt;N3_4</title>
<path fill="none" stroke="black" d="M400.853,-144.055C399.421,-136.346 397.691,-127.027 396.082,-118.364"/>
<polygon fill="black" stroke="black" points="399.475,-117.468 394.208,-108.275 392.593,-118.746 399.475,-117.468"/>
</g>
<!-- N3_5 -->
<g id="node12" class="node"><title>N3_5</title>
<ellipse fill="none" stroke="black" cx="463" cy="-90" rx="27" ry="18"/>
<text text-anchor="middle" x="463" y="-86.3" font-family="Times,serif" font-size="14.00">NPP</text>
</g>
<!-- N2_5&#45;&gt;N3_5 -->
<g id="edge17" class="edge"><title>N2_5&#45;&gt;N3_5</title>
<path fill="none" stroke="black" d="M416.802,-145.811C424.611,-136.546 434.747,-124.52 443.535,-114.094"/>
<polygon fill="black" stroke="black" points="446.454,-116.061 450.223,-106.159 441.102,-111.55 446.454,-116.061"/>
</g>
<!-- N4_0 -->
<g id="node19" class="node"><title>N4_0</title>
<polygon fill="#090030" stroke="#090030" points="418,-36 364,-36 364,-0 418,-0 418,-36"/>
<text text-anchor="middle" x="391" y="-14.3" font-family="Times,serif" font-size="14.00" fill="#ffffff">James</text>
</g>
<!-- N3_4&#45;&gt;N4_0 -->
<g id="edge18" class="edge"><title>N3_4&#45;&gt;N4_0</title>
<path fill="none" stroke="black" d="M391,-71.6966C391,-63.9827 391,-54.7125 391,-46.1124"/>
<polygon fill="black" stroke="black" points="394.5,-46.1043 391,-36.1043 387.5,-46.1044 394.5,-46.1043"/>
</g>
<!-- N4_1 -->
<g id="node20" class="node"><title>N4_1</title>
<polygon fill="#090030" stroke="#090030" points="490,-36 436,-36 436,-0 490,-0 490,-36"/>
<text text-anchor="middle" x="463" y="-14.3" font-family="Times,serif" font-size="14.00" fill="#ffffff">Bond</text>
</g>
<!-- N3_5&#45;&gt;N4_1 -->
<g id="edge19" class="edge"><title>N3_5&#45;&gt;N4_1</title>
<path fill="none" stroke="black" d="M463,-71.6966C463,-63.9827 463,-54.7125 463,-46.1124"/>
<polygon fill="black" stroke="black" points="466.5,-46.1043 463,-36.1043 459.5,-46.1044 466.5,-46.1043"/>
</g>
</g>
</svg>
