<?xml version="1.0" encoding="UTF-8" standalone="no"?>
<!DOCTYPE svg PUBLIC "-//W3C//DTD SVG 1.1//EN"
 "http://www.w3.org/Graphics/SVG/1.1/DTD/svg11.dtd">
<!-- Generated by graphviz version 2.38.0 (20140413.2041)
 -->
<!-- Title: G Pages: 1 -->
<svg width="640pt" height="332pt"
 viewBox="0.00 0.00 640.00 332.00" xmlns="http://www.w3.org/2000/svg" xmlns:xlink="http://www.w3.org/1999/xlink">
<g id="graph0" class="graph" transform="scale(1 1) rotate(0) translate(4 328)">
<title>G</title>
<polygon fill="white" stroke="none" points="-4,4 -4,-328 636,-328 636,4 -4,4"/>
<!-- N0_0 -->
<g id="node1" class="node"><title>N0_0</title>
<ellipse fill="none" stroke="black" cx="387" cy="-306" rx="32.4942" ry="18"/>
<text text-anchor="middle" x="387" y="-302.3" font-family="Times,serif" font-size="14.00">SENT</text>
</g>
<!-- N1_0 -->
<g id="node2" class="node"><title>N1_0</title>
<ellipse fill="none" stroke="black" cx="171" cy="-234" rx="27.8951" ry="18"/>
<text text-anchor="middle" x="171" y="-230.3" font-family="Times,serif" font-size="14.00">Ssub</text>
</g>
<!-- N0_0&#45;&gt;N1_0 -->
<g id="edge1" class="edge"><title>N0_0&#45;&gt;N1_0</title>
<path fill="none" stroke="black" d="M359.643,-296.134C320.338,-283.397 247.923,-259.929 205.155,-246.069"/>
<polygon fill="black" stroke="black" points="206.065,-242.684 195.473,-242.931 203.906,-249.343 206.065,-242.684"/>
</g>
<!-- N1_1 -->
<g id="node3" class="node"><title>N1_1</title>
<ellipse fill="none" stroke="black" cx="345" cy="-234" rx="39.7935" ry="18"/>
<text text-anchor="middle" x="345" y="-230.3" font-family="Times,serif" font-size="14.00">PONCT</text>
</g>
<!-- N0_0&#45;&gt;N1_1 -->
<g id="edge2" class="edge"><title>N0_0&#45;&gt;N1_1</title>
<path fill="none" stroke="black" d="M377.259,-288.765C372.19,-280.317 365.88,-269.799 360.187,-260.312"/>
<polygon fill="black" stroke="black" points="363.126,-258.408 354.98,-251.633 357.124,-262.009 363.126,-258.408"/>
</g>
<!-- N1_2 -->
<g id="node4" class="node"><title>N1_2</title>
<ellipse fill="none" stroke="black" cx="430" cy="-234" rx="27" ry="18"/>
<text text-anchor="middle" x="430" y="-230.3" font-family="Times,serif" font-size="14.00">VN</text>
</g>
<!-- N0_0&#45;&gt;N1_2 -->
<g id="edge3" class="edge"><title>N0_0&#45;&gt;N1_2</title>
<path fill="none" stroke="black" d="M396.973,-288.765C402.237,-280.195 408.811,-269.494 414.704,-259.9"/>
<polygon fill="black" stroke="black" points="417.829,-261.5 420.081,-251.147 411.864,-257.836 417.829,-261.5"/>
</g>
<!-- N1_3 -->
<g id="node5" class="node"><title>N1_3</title>
<ellipse fill="none" stroke="black" cx="560" cy="-234" rx="39.7935" ry="18"/>
<text text-anchor="middle" x="560" y="-230.3" font-family="Times,serif" font-size="14.00">PONCT</text>
</g>
<!-- N0_0&#45;&gt;N1_3 -->
<g id="edge4" class="edge"><title>N0_0&#45;&gt;N1_3</title>
<path fill="none" stroke="black" d="M412.527,-294.671C441.441,-282.972 488.849,-263.789 522.089,-250.34"/>
<polygon fill="black" stroke="black" points="523.53,-253.532 531.487,-246.537 520.904,-247.043 523.53,-253.532"/>
</g>
<!-- N2_0 -->
<g id="node6" class="node"><title>N2_0</title>
<ellipse fill="none" stroke="black" cx="63" cy="-162" rx="27" ry="18"/>
<text text-anchor="middle" x="63" y="-158.3" font-family="Times,serif" font-size="14.00">CS</text>
</g>
<!-- N1_0&#45;&gt;N2_0 -->
<g id="edge5" class="edge"><title>N1_0&#45;&gt;N2_0</title>
<path fill="none" stroke="black" d="M151.94,-220.647C134.898,-209.601 109.719,-193.281 90.4974,-180.822"/>
<polygon fill="black" stroke="black" points="92.1643,-177.732 81.8691,-175.23 88.357,-183.606 92.1643,-177.732"/>
</g>
<!-- N2_1 -->
<g id="node7" class="node"><title>N2_1</title>
<ellipse fill="none" stroke="black" cx="171" cy="-162" rx="27" ry="18"/>
<text text-anchor="middle" x="171" y="-158.3" font-family="Times,serif" font-size="14.00">VN</text>
</g>
<!-- N1_0&#45;&gt;N2_1 -->
<g id="edge6" class="edge"><title>N1_0&#45;&gt;N2_1</title>
<path fill="none" stroke="black" d="M171,-215.697C171,-207.983 171,-198.712 171,-190.112"/>
<polygon fill="black" stroke="black" points="174.5,-190.104 171,-180.104 167.5,-190.104 174.5,-190.104"/>
</g>
<!-- N2_2 -->
<g id="node13" class="node"><title>N2_2</title>
<polygon fill="#090030" stroke="#090030" points="372,-36 318,-36 318,-0 372,-0 372,-36"/>
<text text-anchor="middle" x="345" y="-14.3" font-family="Times,serif" font-size="14.00" fill="#ffffff">,</text>
</g>
<!-- N1_1&#45;&gt;N2_2 -->
<g id="edge7" class="edge"><title>N1_1&#45;&gt;N2_2</title>
<path fill="none" stroke="black" d="M345,-215.849C345,-178.832 345,-91.1809 345,-46.3863"/>
<polygon fill="black" stroke="black" points="348.5,-46.2324 345,-36.2325 341.5,-46.2325 348.5,-46.2324"/>
</g>
<!-- N2_3 -->
<g id="node8" class="node"><title>N2_3</title>
<ellipse fill="none" stroke="black" cx="424" cy="-162" rx="27" ry="18"/>
<text text-anchor="middle" x="424" y="-158.3" font-family="Times,serif" font-size="14.00">CLS</text>
</g>
<!-- N1_2&#45;&gt;N2_3 -->
<g id="edge8" class="edge"><title>N1_2&#45;&gt;N2_3</title>
<path fill="none" stroke="black" d="M428.517,-215.697C427.856,-207.983 427.061,-198.712 426.324,-190.112"/>
<polygon fill="black" stroke="black" points="429.807,-189.769 425.466,-180.104 422.833,-190.367 429.807,-189.769"/>
</g>
<!-- N2_4 -->
<g id="node9" class="node"><title>N2_4</title>
<ellipse fill="none" stroke="black" cx="507" cy="-162" rx="27" ry="18"/>
<text text-anchor="middle" x="507" y="-158.3" font-family="Times,serif" font-size="14.00">V</text>
</g>
<!-- N1_2&#45;&gt;N2_4 -->
<g id="edge9" class="edge"><title>N1_2&#45;&gt;N2_4</title>
<path fill="none" stroke="black" d="M445.582,-218.834C456.613,-208.806 471.59,-195.191 483.993,-183.916"/>
<polygon fill="black" stroke="black" points="486.659,-186.222 491.704,-176.906 481.95,-181.043 486.659,-186.222"/>
</g>
<!-- N2_5 -->
<g id="node14" class="node"><title>N2_5</title>
<polygon fill="#090030" stroke="#090030" points="632,-36 578,-36 578,-0 632,-0 632,-36"/>
<text text-anchor="middle" x="605" y="-14.3" font-family="Times,serif" font-size="14.00" fill="#ffffff">!</text>
</g>
<!-- N1_3&#45;&gt;N2_5 -->
<g id="edge10" class="edge"><title>N1_3&#45;&gt;N2_5</title>
<path fill="none" stroke="black" d="M563.606,-215.849C571.407,-178.753 589.9,-90.8101 599.301,-46.1027"/>
<polygon fill="black" stroke="black" points="602.744,-46.7387 601.376,-36.2325 595.893,-45.2982 602.744,-46.7387"/>
</g>
<!-- N3_0 -->
<g id="node15" class="node"><title>N3_0</title>
<polygon fill="#090030" stroke="#090030" points="54,-36 0,-36 0,-0 54,-0 54,-36"/>
<text text-anchor="middle" x="27" y="-14.3" font-family="Times,serif" font-size="14.00" fill="#ffffff">S&#39;</text>
</g>
<!-- N2_0&#45;&gt;N3_0 -->
<g id="edge11" class="edge"><title>N2_0&#45;&gt;N3_0</title>
<path fill="none" stroke="black" d="M58.729,-144.153C52.5914,-119.944 41.2109,-75.054 33.8787,-46.1327"/>
<polygon fill="black" stroke="black" points="37.228,-45.101 31.3778,-36.2678 30.4426,-46.8213 37.228,-45.101"/>
</g>
<!-- N3_1 -->
<g id="node10" class="node"><title>N3_1</title>
<ellipse fill="none" stroke="black" cx="99" cy="-90" rx="27" ry="18"/>
<text text-anchor="middle" x="99" y="-86.3" font-family="Times,serif" font-size="14.00">CLS</text>
</g>
<!-- N2_1&#45;&gt;N3_1 -->
<g id="edge12" class="edge"><title>N2_1&#45;&gt;N3_1</title>
<path fill="none" stroke="black" d="M156.43,-146.834C146.25,-136.938 132.476,-123.546 120.969,-112.359"/>
<polygon fill="black" stroke="black" points="123.405,-109.846 113.796,-105.385 118.526,-114.865 123.405,-109.846"/>
</g>
<!-- N3_2 -->
<g id="node11" class="node"><title>N3_2</title>
<ellipse fill="none" stroke="black" cx="171" cy="-90" rx="27" ry="18"/>
<text text-anchor="middle" x="171" y="-86.3" font-family="Times,serif" font-size="14.00">V</text>
</g>
<!-- N2_1&#45;&gt;N3_2 -->
<g id="edge13" class="edge"><title>N2_1&#45;&gt;N3_2</title>
<path fill="none" stroke="black" d="M171,-143.697C171,-135.983 171,-126.712 171,-118.112"/>
<polygon fill="black" stroke="black" points="174.5,-118.104 171,-108.104 167.5,-118.104 174.5,-118.104"/>
</g>
<!-- N3_3 -->
<g id="node12" class="node"><title>N3_3</title>
<ellipse fill="none" stroke="black" cx="250" cy="-90" rx="27" ry="18"/>
<text text-anchor="middle" x="250" y="-86.3" font-family="Times,serif" font-size="14.00">VPP</text>
</g>
<!-- N2_1&#45;&gt;N3_3 -->
<g id="edge14" class="edge"><title>N2_1&#45;&gt;N3_3</title>
<path fill="none" stroke="black" d="M186.608,-147.17C198.077,-137.008 213.851,-123.03 226.795,-111.561"/>
<polygon fill="black" stroke="black" points="229.261,-114.053 234.425,-104.801 224.619,-108.813 229.261,-114.053"/>
</g>
<!-- N3_4 -->
<g id="node16" class="node"><title>N3_4</title>
<polygon fill="#090030" stroke="#090030" points="444,-36 390,-36 390,-0 444,-0 444,-36"/>
<text text-anchor="middle" x="417" y="-14.3" font-family="Times,serif" font-size="14.00" fill="#ffffff">je</text>
</g>
<!-- N2_3&#45;&gt;N3_4 -->
<g id="edge15" class="edge"><title>N2_3&#45;&gt;N3_4</title>
<path fill="none" stroke="black" d="M423.156,-143.871C421.963,-119.67 419.771,-75.2108 418.35,-46.3932"/>
<polygon fill="black" stroke="black" points="421.836,-46.0048 417.847,-36.1893 414.844,-46.3495 421.836,-46.0048"/>
</g>
<!-- N3_5 -->
<g id="node17" class="node"><title>N3_5</title>
<polygon fill="#090030" stroke="#090030" points="560,-36 462,-36 462,-0 560,-0 560,-36"/>
<text text-anchor="middle" x="511" y="-14.3" font-family="Times,serif" font-size="14.00" fill="#ffffff">schtroumferais</text>
</g>
<!-- N2_4&#45;&gt;N3_5 -->
<g id="edge16" class="edge"><title>N2_4&#45;&gt;N3_5</title>
<path fill="none" stroke="black" d="M507.482,-143.871C508.164,-119.67 509.417,-75.2108 510.228,-46.3932"/>
<polygon fill="black" stroke="black" points="513.733,-46.2839 510.516,-36.1893 506.736,-46.0867 513.733,-46.2839"/>
</g>
<!-- N4_0 -->
<g id="node18" class="node"><title>N4_0</title>
<polygon fill="#090030" stroke="#090030" points="126,-36 72,-36 72,-0 126,-0 126,-36"/>
<text text-anchor="middle" x="99" y="-14.3" font-family="Times,serif" font-size="14.00" fill="#ffffff">il</text>
</g>
<!-- N3_1&#45;&gt;N4_0 -->
<g id="edge17" class="edge"><title>N3_1&#45;&gt;N4_0</title>
<path fill="none" stroke="black" d="M99,-71.6966C99,-63.9827 99,-54.7125 99,-46.1124"/>
<polygon fill="black" stroke="black" points="102.5,-46.1043 99,-36.1043 95.5001,-46.1044 102.5,-46.1043"/>
</g>
<!-- N4_1 -->
<g id="node19" class="node"><title>N4_1</title>
<polygon fill="#090030" stroke="#090030" points="198,-36 144,-36 144,-0 198,-0 198,-36"/>
<text text-anchor="middle" x="171" y="-14.3" font-family="Times,serif" font-size="14.00" fill="#ffffff">faut</text>
</g>
<!-- N3_2&#45;&gt;N4_1 -->
<g id="edge18" class="edge"><title>N3_2&#45;&gt;N4_1</title>
<path fill="none" stroke="black" d="M171,-71.6966C171,-63.9827 171,-54.7125 171,-46.1124"/>
<polygon fill="black" stroke="black" points="174.5,-46.1043 171,-36.1043 167.5,-46.1044 174.5,-46.1043"/>
</g>
<!-- N4_2 -->
<g id="node20" class="node"><title>N4_2</title>
<polygon fill="#090030" stroke="#090030" points="299.5,-36 216.5,-36 216.5,-0 299.5,-0 299.5,-36"/>
<text text-anchor="middle" x="258" y="-14.3" font-family="Times,serif" font-size="14.00" fill="#ffffff">schtroumfer</text>
</g>
<!-- N3_3&#45;&gt;N4_2 -->
<g id="edge19" class="edge"><title>N3_3&#45;&gt;N4_2</title>
<path fill="none" stroke="black" d="M251.978,-71.6966C252.859,-63.9827 253.919,-54.7125 254.901,-46.1124"/>
<polygon fill="black" stroke="black" points="258.387,-46.4371 256.045,-36.1043 251.432,-45.6422 258.387,-46.4371"/>
</g>
</g>
</svg>
